 0
SECTION
 2
ENTITIES
  0
LINE
 8
GROUP0
10
12.7661761903189
20
-0.341620364143065
30
0.0
11
12.78125
21
-0.335376587736526
31
0.0
  0
LINE
 8
GROUP0
10
12.78125
20
-0.335376587736526
30
0.0
11
12.7941941738242
21
-0.325444173824158
31
0.0
  0
LINE
 8
GROUP0
10
12.7058058261758
20
-0.237055826175839
30
0.0
11
12.6958734122635
21
-0.249999999999998
31
0.0
  0
LINE
 8
GROUP0
10
12.8125
20
-0.281249999999998
30
0.0
11
12.8103703641431
21
-0.265073809681091
31
0.0
  0
LINE
 8
GROUP0
10
12.6896296358569
20
-11.7349261903189
30
0.0
11
12.6958734122635
21
-11.75
31
0.0
  0
LINE
 8
GROUP0
10
12.7941941738242
20
-0.325444173824158
30
0.0
11
12.8041265877365
21
-0.312499999999998
31
0.0
  0
LINE
 8
GROUP0
10
12.8041265877365
20
-0.312499999999998
30
0.0
11
12.8103703641431
21
-0.297426190318905
31
0.0
  0
LINE
 8
GROUP0
10
12.78125
20
-11.6646234122635
30
0.0
11
12.7661761903189
21
-11.6583796358569
31
0.0
  0
LINE
 8
GROUP0
10
12.3125
20
-0.0624999999999982
30
0.0
11
13.1875
21
-0.0624999999999982
31
0.0
  0
LINE
 8
GROUP0
10
12.3125
20
-11.9375
30
0.0
11
12.3125
21
-0.0624999999999982
31
0.0
  0
LINE
 8
GROUP0
10
13.1875
20
-0.0624999999999982
30
0.0
11
13.1875
21
-11.9375
31
0.0
  0
LINE
 8
GROUP0
10
13.1875
20
-11.9375
30
0.0
11
12.3125
21
-11.9375
31
0.0
  0
LINE
 8
GROUP0
10
12.75
20
-0.343749999999998
30
0.0
11
12.7661761903189
21
-0.341620364143065
31
0.0
  0
LINE
 8
GROUP0
10
12.8125
20
-11.71875
30
0.0
11
12.8103703641431
21
-11.7025738096811
31
0.0
  0
LINE
 8
GROUP0
10
12.7058058261758
20
-0.325444173824158
30
0.0
11
12.71875
21
-0.335376587736526
31
0.0
  0
LINE
 8
GROUP0
10
12.71875
20
-0.335376587736526
30
0.0
11
12.7338238096811
21
-0.341620364143065
31
0.0
  0
LINE
 8
GROUP0
10
12.75
20
-11.65625
30
0.0
11
12.7338238096811
21
-11.6583796358569
31
0.0
  0
LINE
 8
GROUP0
10
12.8103703641431
20
-11.7025738096811
30
0.0
11
12.8041265877365
21
-11.6875
31
0.0
  0
LINE
 8
GROUP0
10
12.7338238096811
20
-11.6583796358569
30
0.0
11
12.71875
21
-11.6646234122635
31
0.0
  0
LINE
 8
GROUP0
10
12.7338238096811
20
-0.341620364143065
30
0.0
11
12.75
21
-0.343749999999998
31
0.0
  0
LINE
 8
GROUP0
10
12.7941941738242
20
-11.6745558261758
30
0.0
11
12.78125
21
-11.6646234122635
31
0.0
  0
LINE
 8
GROUP0
10
12.78125
20
-0.22712341226347
30
0.0
11
12.7661761903189
21
-0.220879635856932
31
0.0
  0
LINE
 8
GROUP0
10
12.6875
20
-11.71875
30
0.0
11
12.6896296358569
21
-11.7349261903189
31
0.0
  0
LINE
 8
GROUP0
10
12.7058058261758
20
-11.7629441738242
30
0.0
11
12.71875
21
-11.7728765877365
31
0.0
  0
LINE
 8
GROUP0
10
12.75
20
-11.78125
30
0.0
11
12.7661761903189
21
-11.7791203641431
31
0.0
  0
LINE
 8
GROUP0
10
12.71875
20
-11.6646234122635
30
0.0
11
12.7058058261758
21
-11.6745558261758
31
0.0
  0
LINE
 8
GROUP0
10
12.7338238096811
20
-11.7791203641431
30
0.0
11
12.75
21
-11.78125
31
0.0
  0
LINE
 8
GROUP0
10
12.8103703641431
20
-11.7349261903189
30
0.0
11
12.8125
21
-11.71875
31
0.0
  0
LINE
 8
GROUP0
10
12.7941941738242
20
-11.7629441738242
30
0.0
11
12.8041265877365
21
-11.75
31
0.0
  0
LINE
 8
GROUP0
10
12.6958734122635
20
-0.249999999999998
30
0.0
11
12.6896296358569
21
-0.265073809681091
31
0.0
  0
LINE
 8
GROUP0
10
12.6896296358569
20
-0.265073809681091
30
0.0
11
12.6875
21
-0.281249999999998
31
0.0
  0
LINE
 8
GROUP0
10
12.6875
20
-0.281249999999998
30
0.0
11
12.6896296358569
21
-0.297426190318905
31
0.0
  0
LINE
 8
GROUP0
10
12.78125
20
-11.7728765877365
30
0.0
11
12.7941941738242
21
-11.7629441738242
31
0.0
  0
LINE
 8
GROUP0
10
12.8041265877365
20
-11.75
30
0.0
11
12.8103703641431
21
-11.7349261903189
31
0.0
  0
LINE
 8
GROUP0
10
12.8103703641431
20
-0.297426190318905
30
0.0
11
12.8125
21
-0.281249999999998
31
0.0
  0
LINE
 8
GROUP0
10
12.7058058261758
20
-11.6745558261758
30
0.0
11
12.6958734122635
21
-11.6875
31
0.0
  0
LINE
 8
GROUP0
10
12.7661761903189
20
-11.7791203641431
30
0.0
11
12.78125
21
-11.7728765877365
31
0.0
  0
LINE
 8
GROUP0
10
12.8041265877365
20
-0.249999999999998
30
0.0
11
12.7941941738242
21
-0.237055826175839
31
0.0
  0
LINE
 8
GROUP0
10
12.8103703641431
20
-0.265073809681091
30
0.0
11
12.8041265877365
21
-0.249999999999998
31
0.0
  0
LINE
 8
GROUP0
10
12.7941941738242
20
-0.237055826175839
30
0.0
11
12.78125
21
-0.22712341226347
31
0.0
  0
LINE
 8
GROUP0
10
12.7661761903189
20
-0.220879635856932
30
0.0
11
12.75
21
-0.218749999999998
31
0.0
  0
LINE
 8
GROUP0
10
12.75
20
-0.218749999999998
30
0.0
11
12.7338238096811
21
-0.220879635856932
31
0.0
  0
LINE
 8
GROUP0
10
12.6896296358569
20
-0.297426190318905
30
0.0
11
12.6958734122635
21
-0.312499999999998
31
0.0
  0
LINE
 8
GROUP0
10
12.6958734122635
20
-0.312499999999998
30
0.0
11
12.7058058261758
21
-0.325444173824158
31
0.0
  0
LINE
 8
GROUP0
10
12.7338238096811
20
-0.220879635856932
30
0.0
11
12.71875
21
-0.22712341226347
31
0.0
  0
LINE
 8
GROUP0
10
12.71875
20
-0.22712341226347
30
0.0
11
12.7058058261758
21
-0.237055826175839
31
0.0
  0
LINE
 8
GROUP0
10
12.6958734122635
20
-11.6875
30
0.0
11
12.6896296358569
21
-11.7025738096811
31
0.0
  0
LINE
 8
GROUP0
10
12.7661761903189
20
-11.6583796358569
30
0.0
11
12.75
21
-11.65625
31
0.0
  0
LINE
 8
GROUP0
10
12.8041265877365
20
-11.6875
30
0.0
11
12.7941941738242
21
-11.6745558261758
31
0.0
  0
LINE
 8
GROUP0
10
12.6958734122635
20
-11.75
30
0.0
11
12.7058058261758
21
-11.7629441738242
31
0.0
  0
LINE
 8
GROUP0
10
12.71875
20
-11.7728765877365
30
0.0
11
12.7338238096811
21
-11.7791203641431
31
0.0
  0
LINE
 8
GROUP0
10
12.6896296358569
20
-11.7025738096811
30
0.0
11
12.6875
21
-11.71875
31
0.0
  0
LINE
 8
GROUP1
10
18.8911761903189
20
-0.341620364143065
30
0.0
11
18.90625
21
-0.335376587736526
31
0.0
  0
LINE
 8
GROUP1
10
18.90625
20
-0.335376587736526
30
0.0
11
18.9191941738242
21
-0.325444173824158
31
0.0
  0
LINE
 8
GROUP1
10
18.8308058261758
20
-0.237055826175839
30
0.0
11
18.8208734122635
21
-0.249999999999998
31
0.0
  0
LINE
 8
GROUP1
10
18.9375
20
-0.281249999999998
30
0.0
11
18.9353703641431
21
-0.265073809681091
31
0.0
  0
LINE
 8
GROUP1
10
18.8146296358569
20
-11.7349261903189
30
0.0
11
18.8208734122635
21
-11.75
31
0.0
  0
LINE
 8
GROUP1
10
18.9191941738242
20
-0.325444173824158
30
0.0
11
18.9291265877365
21
-0.312499999999998
31
0.0
  0
LINE
 8
GROUP1
10
18.9291265877365
20
-0.312499999999998
30
0.0
11
18.9353703641431
21
-0.297426190318905
31
0.0
  0
LINE
 8
GROUP1
10
18.90625
20
-11.6646234122635
30
0.0
11
18.8911761903189
21
-11.6583796358569
31
0.0
  0
LINE
 8
GROUP1
10
18.4375
20
-0.0624999999999982
30
0.0
11
19.3125
21
-0.0624999999999982
31
0.0
  0
LINE
 8
GROUP1
10
18.4375
20
-11.9375
30
0.0
11
18.4375
21
-0.0624999999999982
31
0.0
  0
LINE
 8
GROUP1
10
19.3125
20
-0.0624999999999982
30
0.0
11
19.3125
21
-11.9375
31
0.0
  0
LINE
 8
GROUP1
10
19.3125
20
-11.9375
30
0.0
11
18.4375
21
-11.9375
31
0.0
  0
LINE
 8
GROUP1
10
18.875
20
-0.343749999999998
30
0.0
11
18.8911761903189
21
-0.341620364143065
31
0.0
  0
LINE
 8
GROUP1
10
18.9375
20
-11.71875
30
0.0
11
18.9353703641431
21
-11.7025738096811
31
0.0
  0
LINE
 8
GROUP1
10
18.8308058261758
20
-0.325444173824158
30
0.0
11
18.84375
21
-0.335376587736526
31
0.0
  0
LINE
 8
GROUP1
10
18.84375
20
-0.335376587736526
30
0.0
11
18.8588238096811
21
-0.341620364143065
31
0.0
  0
LINE
 8
GROUP1
10
18.875
20
-11.65625
30
0.0
11
18.8588238096811
21
-11.6583796358569
31
0.0
  0
LINE
 8
GROUP1
10
18.9353703641431
20
-11.7025738096811
30
0.0
11
18.9291265877365
21
-11.6875
31
0.0
  0
LINE
 8
GROUP1
10
18.8588238096811
20
-11.6583796358569
30
0.0
11
18.84375
21
-11.6646234122635
31
0.0
  0
LINE
 8
GROUP1
10
18.8588238096811
20
-0.341620364143065
30
0.0
11
18.875
21
-0.343749999999998
31
0.0
  0
LINE
 8
GROUP1
10
18.9191941738242
20
-11.6745558261758
30
0.0
11
18.90625
21
-11.6646234122635
31
0.0
  0
LINE
 8
GROUP1
10
18.90625
20
-0.22712341226347
30
0.0
11
18.8911761903189
21
-0.220879635856932
31
0.0
  0
LINE
 8
GROUP1
10
18.8125
20
-11.71875
30
0.0
11
18.8146296358569
21
-11.7349261903189
31
0.0
  0
LINE
 8
GROUP1
10
18.8308058261758
20
-11.7629441738242
30
0.0
11
18.84375
21
-11.7728765877365
31
0.0
  0
LINE
 8
GROUP1
10
18.875
20
-11.78125
30
0.0
11
18.8911761903189
21
-11.7791203641431
31
0.0
  0
LINE
 8
GROUP1
10
18.84375
20
-11.6646234122635
30
0.0
11
18.8308058261758
21
-11.6745558261758
31
0.0
  0
LINE
 8
GROUP1
10
18.8588238096811
20
-11.7791203641431
30
0.0
11
18.875
21
-11.78125
31
0.0
  0
LINE
 8
GROUP1
10
18.9353703641431
20
-11.7349261903189
30
0.0
11
18.9375
21
-11.71875
31
0.0
  0
LINE
 8
GROUP1
10
18.9191941738242
20
-11.7629441738242
30
0.0
11
18.9291265877365
21
-11.75
31
0.0
  0
LINE
 8
GROUP1
10
18.8208734122635
20
-0.249999999999998
30
0.0
11
18.8146296358569
21
-0.265073809681091
31
0.0
  0
LINE
 8
GROUP1
10
18.8146296358569
20
-0.265073809681091
30
0.0
11
18.8125
21
-0.281249999999998
31
0.0
  0
LINE
 8
GROUP1
10
18.8125
20
-0.281249999999998
30
0.0
11
18.8146296358569
21
-0.297426190318905
31
0.0
  0
LINE
 8
GROUP1
10
18.90625
20
-11.7728765877365
30
0.0
11
18.9191941738242
21
-11.7629441738242
31
0.0
  0
LINE
 8
GROUP1
10
18.9291265877365
20
-11.75
30
0.0
11
18.9353703641431
21
-11.7349261903189
31
0.0
  0
LINE
 8
GROUP1
10
18.9353703641431
20
-0.297426190318905
30
0.0
11
18.9375
21
-0.281249999999998
31
0.0
  0
LINE
 8
GROUP1
10
18.8308058261758
20
-11.6745558261758
30
0.0
11
18.8208734122635
21
-11.6875
31
0.0
  0
LINE
 8
GROUP1
10
18.8911761903189
20
-11.7791203641431
30
0.0
11
18.90625
21
-11.7728765877365
31
0.0
  0
LINE
 8
GROUP1
10
18.9291265877365
20
-0.249999999999998
30
0.0
11
18.9191941738242
21
-0.237055826175839
31
0.0
  0
LINE
 8
GROUP1
10
18.9353703641431
20
-0.265073809681091
30
0.0
11
18.9291265877365
21
-0.249999999999998
31
0.0
  0
LINE
 8
GROUP1
10
18.9191941738242
20
-0.237055826175839
30
0.0
11
18.90625
21
-0.22712341226347
31
0.0
  0
LINE
 8
GROUP1
10
18.8911761903189
20
-0.220879635856932
30
0.0
11
18.875
21
-0.218749999999998
31
0.0
  0
LINE
 8
GROUP1
10
18.875
20
-0.218749999999998
30
0.0
11
18.8588238096811
21
-0.220879635856932
31
0.0
  0
LINE
 8
GROUP1
10
18.8146296358569
20
-0.297426190318905
30
0.0
11
18.8208734122635
21
-0.312499999999998
31
0.0
  0
LINE
 8
GROUP1
10
18.8208734122635
20
-0.312499999999998
30
0.0
11
18.8308058261758
21
-0.325444173824158
31
0.0
  0
LINE
 8
GROUP1
10
18.8588238096811
20
-0.220879635856932
30
0.0
11
18.84375
21
-0.22712341226347
31
0.0
  0
LINE
 8
GROUP1
10
18.84375
20
-0.22712341226347
30
0.0
11
18.8308058261758
21
-0.237055826175839
31
0.0
  0
LINE
 8
GROUP1
10
18.8208734122635
20
-11.6875
30
0.0
11
18.8146296358569
21
-11.7025738096811
31
0.0
  0
LINE
 8
GROUP1
10
18.8911761903189
20
-11.6583796358569
30
0.0
11
18.875
21
-11.65625
31
0.0
  0
LINE
 8
GROUP1
10
18.9291265877365
20
-11.6875
30
0.0
11
18.9191941738242
21
-11.6745558261758
31
0.0
  0
LINE
 8
GROUP1
10
18.8208734122635
20
-11.75
30
0.0
11
18.8308058261758
21
-11.7629441738242
31
0.0
  0
LINE
 8
GROUP1
10
18.84375
20
-11.7728765877365
30
0.0
11
18.8588238096811
21
-11.7791203641431
31
0.0
  0
LINE
 8
GROUP1
10
18.8146296358569
20
-11.7025738096811
30
0.0
11
18.8125
21
-11.71875
31
0.0
  0
LINE
 8
GROUP2
10
4.01617619031891
20
-0.341620364143065
30
0.0
11
4.03125
21
-0.335376587736526
31
0.0
  0
LINE
 8
GROUP2
10
4.03125
20
-0.335376587736526
30
0.0
11
4.04419417382416
21
-0.325444173824158
31
0.0
  0
LINE
 8
GROUP2
10
3.95580582617584
20
-0.237055826175839
30
0.0
11
3.94587341226347
21
-0.249999999999998
31
0.0
  0
LINE
 8
GROUP2
10
4.0625
20
-0.281249999999998
30
0.0
11
4.06037036414307
21
-0.265073809681091
31
0.0
  0
LINE
 8
GROUP2
10
3.93962963585693
20
-11.7349261903189
30
0.0
11
3.94587341226347
21
-11.75
31
0.0
  0
LINE
 8
GROUP2
10
4.04419417382416
20
-0.325444173824158
30
0.0
11
4.05412658773653
21
-0.312499999999998
31
0.0
  0
LINE
 8
GROUP2
10
4.05412658773653
20
-0.312499999999998
30
0.0
11
4.06037036414307
21
-0.297426190318905
31
0.0
  0
LINE
 8
GROUP2
10
4.03125
20
-11.6646234122635
30
0.0
11
4.01617619031891
21
-11.6583796358569
31
0.0
  0
LINE
 8
GROUP2
10
3.5625
20
-0.0624999999999982
30
0.0
11
4.4375
21
-0.0624999999999982
31
0.0
  0
LINE
 8
GROUP2
10
3.5625
20
-11.9375
30
0.0
11
3.5625
21
-0.0624999999999982
31
0.0
  0
LINE
 8
GROUP2
10
4.4375
20
-0.0624999999999982
30
0.0
11
4.4375
21
-11.9375
31
0.0
  0
LINE
 8
GROUP2
10
4.4375
20
-11.9375
30
0.0
11
3.5625
21
-11.9375
31
0.0
  0
LINE
 8
GROUP2
10
4.0
20
-0.343749999999998
30
0.0
11
4.01617619031891
21
-0.341620364143065
31
0.0
  0
LINE
 8
GROUP2
10
4.0625
20
-11.71875
30
0.0
11
4.06037036414307
21
-11.7025738096811
31
0.0
  0
LINE
 8
GROUP2
10
3.95580582617584
20
-0.325444173824158
30
0.0
11
3.96875
21
-0.335376587736526
31
0.0
  0
LINE
 8
GROUP2
10
3.96875
20
-0.335376587736526
30
0.0
11
3.98382380968109
21
-0.341620364143065
31
0.0
  0
LINE
 8
GROUP2
10
4.0
20
-11.65625
30
0.0
11
3.98382380968109
21
-11.6583796358569
31
0.0
  0
LINE
 8
GROUP2
10
4.06037036414307
20
-11.7025738096811
30
0.0
11
4.05412658773653
21
-11.6875
31
0.0
  0
LINE
 8
GROUP2
10
3.98382380968109
20
-11.6583796358569
30
0.0
11
3.96875
21
-11.6646234122635
31
0.0
  0
LINE
 8
GROUP2
10
3.98382380968109
20
-0.341620364143065
30
0.0
11
4.0
21
-0.343749999999998
31
0.0
  0
LINE
 8
GROUP2
10
4.04419417382416
20
-11.6745558261758
30
0.0
11
4.03125
21
-11.6646234122635
31
0.0
  0
LINE
 8
GROUP2
10
4.03125
20
-0.22712341226347
30
0.0
11
4.01617619031891
21
-0.220879635856932
31
0.0
  0
LINE
 8
GROUP2
10
3.9375
20
-11.71875
30
0.0
11
3.93962963585693
21
-11.7349261903189
31
0.0
  0
LINE
 8
GROUP2
10
3.95580582617584
20
-11.7629441738242
30
0.0
11
3.96875
21
-11.7728765877365
31
0.0
  0
LINE
 8
GROUP2
10
4.0
20
-11.78125
30
0.0
11
4.01617619031891
21
-11.7791203641431
31
0.0
  0
LINE
 8
GROUP2
10
3.96875
20
-11.6646234122635
30
0.0
11
3.95580582617584
21
-11.6745558261758
31
0.0
  0
LINE
 8
GROUP2
10
3.98382380968109
20
-11.7791203641431
30
0.0
11
4.0
21
-11.78125
31
0.0
  0
LINE
 8
GROUP2
10
4.06037036414307
20
-11.7349261903189
30
0.0
11
4.0625
21
-11.71875
31
0.0
  0
LINE
 8
GROUP2
10
4.04419417382416
20
-11.7629441738242
30
0.0
11
4.05412658773653
21
-11.75
31
0.0
  0
LINE
 8
GROUP2
10
3.94587341226347
20
-0.249999999999998
30
0.0
11
3.93962963585693
21
-0.265073809681091
31
0.0
  0
LINE
 8
GROUP2
10
3.93962963585693
20
-0.265073809681091
30
0.0
11
3.9375
21
-0.281249999999998
31
0.0
  0
LINE
 8
GROUP2
10
3.9375
20
-0.281249999999998
30
0.0
11
3.93962963585693
21
-0.297426190318905
31
0.0
  0
LINE
 8
GROUP2
10
4.03125
20
-11.7728765877365
30
0.0
11
4.04419417382416
21
-11.7629441738242
31
0.0
  0
LINE
 8
GROUP2
10
4.05412658773653
20
-11.75
30
0.0
11
4.06037036414307
21
-11.7349261903189
31
0.0
  0
LINE
 8
GROUP2
10
4.06037036414307
20
-0.297426190318905
30
0.0
11
4.0625
21
-0.281249999999998
31
0.0
  0
LINE
 8
GROUP2
10
3.95580582617584
20
-11.6745558261758
30
0.0
11
3.94587341226347
21
-11.6875
31
0.0
  0
LINE
 8
GROUP2
10
4.01617619031891
20
-11.7791203641431
30
0.0
11
4.03125
21
-11.7728765877365
31
0.0
  0
LINE
 8
GROUP2
10
4.05412658773653
20
-0.249999999999998
30
0.0
11
4.04419417382416
21
-0.237055826175839
31
0.0
  0
LINE
 8
GROUP2
10
4.06037036414307
20
-0.265073809681091
30
0.0
11
4.05412658773653
21
-0.249999999999998
31
0.0
  0
LINE
 8
GROUP2
10
4.04419417382416
20
-0.237055826175839
30
0.0
11
4.03125
21
-0.22712341226347
31
0.0
  0
LINE
 8
GROUP2
10
4.01617619031891
20
-0.220879635856932
30
0.0
11
4.0
21
-0.218749999999998
31
0.0
  0
LINE
 8
GROUP2
10
4.0
20
-0.218749999999998
30
0.0
11
3.98382380968109
21
-0.220879635856932
31
0.0
  0
LINE
 8
GROUP2
10
3.93962963585693
20
-0.297426190318905
30
0.0
11
3.94587341226347
21
-0.312499999999998
31
0.0
  0
LINE
 8
GROUP2
10
3.94587341226347
20
-0.312499999999998
30
0.0
11
3.95580582617584
21
-0.325444173824158
31
0.0
  0
LINE
 8
GROUP2
10
3.98382380968109
20
-0.220879635856932
30
0.0
11
3.96875
21
-0.22712341226347
31
0.0
  0
LINE
 8
GROUP2
10
3.96875
20
-0.22712341226347
30
0.0
11
3.95580582617584
21
-0.237055826175839
31
0.0
  0
LINE
 8
GROUP2
10
3.94587341226347
20
-11.6875
30
0.0
11
3.93962963585693
21
-11.7025738096811
31
0.0
  0
LINE
 8
GROUP2
10
4.01617619031891
20
-11.6583796358569
30
0.0
11
4.0
21
-11.65625
31
0.0
  0
LINE
 8
GROUP2
10
4.05412658773653
20
-11.6875
30
0.0
11
4.04419417382416
21
-11.6745558261758
31
0.0
  0
LINE
 8
GROUP2
10
3.94587341226347
20
-11.75
30
0.0
11
3.95580582617584
21
-11.7629441738242
31
0.0
  0
LINE
 8
GROUP2
10
3.96875
20
-11.7728765877365
30
0.0
11
3.98382380968109
21
-11.7791203641431
31
0.0
  0
LINE
 8
GROUP2
10
3.93962963585693
20
-11.7025738096811
30
0.0
11
3.9375
21
-11.71875
31
0.0
  0
LINE
 8
GROUP3
10
18.0161761903189
20
-0.341620364143065
30
0.0
11
18.03125
21
-0.335376587736526
31
0.0
  0
LINE
 8
GROUP3
10
18.03125
20
-0.335376587736526
30
0.0
11
18.0441941738242
21
-0.325444173824158
31
0.0
  0
LINE
 8
GROUP3
10
17.9558058261758
20
-0.237055826175839
30
0.0
11
17.9458734122635
21
-0.249999999999998
31
0.0
  0
LINE
 8
GROUP3
10
18.0625
20
-0.281249999999998
30
0.0
11
18.0603703641431
21
-0.265073809681091
31
0.0
  0
LINE
 8
GROUP3
10
17.9396296358569
20
-11.7349261903189
30
0.0
11
17.9458734122635
21
-11.75
31
0.0
  0
LINE
 8
GROUP3
10
18.0441941738242
20
-0.325444173824158
30
0.0
11
18.0541265877365
21
-0.312499999999998
31
0.0
  0
LINE
 8
GROUP3
10
18.0541265877365
20
-0.312499999999998
30
0.0
11
18.0603703641431
21
-0.297426190318905
31
0.0
  0
LINE
 8
GROUP3
10
18.03125
20
-11.6646234122635
30
0.0
11
18.0161761903189
21
-11.6583796358569
31
0.0
  0
LINE
 8
GROUP3
10
17.5625
20
-0.0624999999999982
30
0.0
11
18.4375
21
-0.0624999999999982
31
0.0
  0
LINE
 8
GROUP3
10
17.5625
20
-11.9375
30
0.0
11
17.5625
21
-0.0624999999999982
31
0.0
  0
LINE
 8
GROUP3
10
18.4375
20
-0.0624999999999982
30
0.0
11
18.4375
21
-11.9375
31
0.0
  0
LINE
 8
GROUP3
10
18.4375
20
-11.9375
30
0.0
11
17.5625
21
-11.9375
31
0.0
  0
LINE
 8
GROUP3
10
18.0
20
-0.343749999999998
30
0.0
11
18.0161761903189
21
-0.341620364143065
31
0.0
  0
LINE
 8
GROUP3
10
18.0625
20
-11.71875
30
0.0
11
18.0603703641431
21
-11.7025738096811
31
0.0
  0
LINE
 8
GROUP3
10
17.9558058261758
20
-0.325444173824158
30
0.0
11
17.96875
21
-0.335376587736526
31
0.0
  0
LINE
 8
GROUP3
10
17.96875
20
-0.335376587736526
30
0.0
11
17.9838238096811
21
-0.341620364143065
31
0.0
  0
LINE
 8
GROUP3
10
18.0
20
-11.65625
30
0.0
11
17.9838238096811
21
-11.6583796358569
31
0.0
  0
LINE
 8
GROUP3
10
18.0603703641431
20
-11.7025738096811
30
0.0
11
18.0541265877365
21
-11.6875
31
0.0
  0
LINE
 8
GROUP3
10
17.9838238096811
20
-11.6583796358569
30
0.0
11
17.96875
21
-11.6646234122635
31
0.0
  0
LINE
 8
GROUP3
10
17.9838238096811
20
-0.341620364143065
30
0.0
11
18.0
21
-0.343749999999998
31
0.0
  0
LINE
 8
GROUP3
10
18.0441941738242
20
-11.6745558261758
30
0.0
11
18.03125
21
-11.6646234122635
31
0.0
  0
LINE
 8
GROUP3
10
18.03125
20
-0.22712341226347
30
0.0
11
18.0161761903189
21
-0.220879635856932
31
0.0
  0
LINE
 8
GROUP3
10
17.9375
20
-11.71875
30
0.0
11
17.9396296358569
21
-11.7349261903189
31
0.0
  0
LINE
 8
GROUP3
10
17.9558058261758
20
-11.7629441738242
30
0.0
11
17.96875
21
-11.7728765877365
31
0.0
  0
LINE
 8
GROUP3
10
18.0
20
-11.78125
30
0.0
11
18.0161761903189
21
-11.7791203641431
31
0.0
  0
LINE
 8
GROUP3
10
17.96875
20
-11.6646234122635
30
0.0
11
17.9558058261758
21
-11.6745558261758
31
0.0
  0
LINE
 8
GROUP3
10
17.9838238096811
20
-11.7791203641431
30
0.0
11
18.0
21
-11.78125
31
0.0
  0
LINE
 8
GROUP3
10
18.0603703641431
20
-11.7349261903189
30
0.0
11
18.0625
21
-11.71875
31
0.0
  0
LINE
 8
GROUP3
10
18.0441941738242
20
-11.7629441738242
30
0.0
11
18.0541265877365
21
-11.75
31
0.0
  0
LINE
 8
GROUP3
10
17.9458734122635
20
-0.249999999999998
30
0.0
11
17.9396296358569
21
-0.265073809681091
31
0.0
  0
LINE
 8
GROUP3
10
17.9396296358569
20
-0.265073809681091
30
0.0
11
17.9375
21
-0.281249999999998
31
0.0
  0
LINE
 8
GROUP3
10
17.9375
20
-0.281249999999998
30
0.0
11
17.9396296358569
21
-0.297426190318905
31
0.0
  0
LINE
 8
GROUP3
10
18.03125
20
-11.7728765877365
30
0.0
11
18.0441941738242
21
-11.7629441738242
31
0.0
  0
LINE
 8
GROUP3
10
18.0541265877365
20
-11.75
30
0.0
11
18.0603703641431
21
-11.7349261903189
31
0.0
  0
LINE
 8
GROUP3
10
18.0603703641431
20
-0.297426190318905
30
0.0
11
18.0625
21
-0.281249999999998
31
0.0
  0
LINE
 8
GROUP3
10
17.9558058261758
20
-11.6745558261758
30
0.0
11
17.9458734122635
21
-11.6875
31
0.0
  0
LINE
 8
GROUP3
10
18.0161761903189
20
-11.7791203641431
30
0.0
11
18.03125
21
-11.7728765877365
31
0.0
  0
LINE
 8
GROUP3
10
18.0541265877365
20
-0.249999999999998
30
0.0
11
18.0441941738242
21
-0.237055826175839
31
0.0
  0
LINE
 8
GROUP3
10
18.0603703641431
20
-0.265073809681091
30
0.0
11
18.0541265877365
21
-0.249999999999998
31
0.0
  0
LINE
 8
GROUP3
10
18.0441941738242
20
-0.237055826175839
30
0.0
11
18.03125
21
-0.22712341226347
31
0.0
  0
LINE
 8
GROUP3
10
18.0161761903189
20
-0.220879635856932
30
0.0
11
18.0
21
-0.218749999999998
31
0.0
  0
LINE
 8
GROUP3
10
18.0
20
-0.218749999999998
30
0.0
11
17.9838238096811
21
-0.220879635856932
31
0.0
  0
LINE
 8
GROUP3
10
17.9396296358569
20
-0.297426190318905
30
0.0
11
17.9458734122635
21
-0.312499999999998
31
0.0
  0
LINE
 8
GROUP3
10
17.9458734122635
20
-0.312499999999998
30
0.0
11
17.9558058261758
21
-0.325444173824158
31
0.0
  0
LINE
 8
GROUP3
10
17.9838238096811
20
-0.220879635856932
30
0.0
11
17.96875
21
-0.22712341226347
31
0.0
  0
LINE
 8
GROUP3
10
17.96875
20
-0.22712341226347
30
0.0
11
17.9558058261758
21
-0.237055826175839
31
0.0
  0
LINE
 8
GROUP3
10
17.9458734122635
20
-11.6875
30
0.0
11
17.9396296358569
21
-11.7025738096811
31
0.0
  0
LINE
 8
GROUP3
10
18.0161761903189
20
-11.6583796358569
30
0.0
11
18.0
21
-11.65625
31
0.0
  0
LINE
 8
GROUP3
10
18.0541265877365
20
-11.6875
30
0.0
11
18.0441941738242
21
-11.6745558261758
31
0.0
  0
LINE
 8
GROUP3
10
17.9458734122635
20
-11.75
30
0.0
11
17.9558058261758
21
-11.7629441738242
31
0.0
  0
LINE
 8
GROUP3
10
17.96875
20
-11.7728765877365
30
0.0
11
17.9838238096811
21
-11.7791203641431
31
0.0
  0
LINE
 8
GROUP3
10
17.9396296358569
20
-11.7025738096811
30
0.0
11
17.9375
21
-11.71875
31
0.0
  0
LINE
 8
GROUP4
10
19.7661761903189
20
-0.341620364143065
30
0.0
11
19.78125
21
-0.335376587736526
31
0.0
  0
LINE
 8
GROUP4
10
19.78125
20
-0.335376587736526
30
0.0
11
19.7941941738242
21
-0.325444173824158
31
0.0
  0
LINE
 8
GROUP4
10
19.7058058261758
20
-0.237055826175839
30
0.0
11
19.6958734122635
21
-0.249999999999998
31
0.0
  0
LINE
 8
GROUP4
10
19.8125
20
-0.281249999999998
30
0.0
11
19.8103703641431
21
-0.265073809681091
31
0.0
  0
LINE
 8
GROUP4
10
19.6896296358569
20
-11.7349261903189
30
0.0
11
19.6958734122635
21
-11.75
31
0.0
  0
LINE
 8
GROUP4
10
19.7941941738242
20
-0.325444173824158
30
0.0
11
19.8041265877365
21
-0.312499999999998
31
0.0
  0
LINE
 8
GROUP4
10
19.8041265877365
20
-0.312499999999998
30
0.0
11
19.8103703641431
21
-0.297426190318905
31
0.0
  0
LINE
 8
GROUP4
10
19.78125
20
-11.6646234122635
30
0.0
11
19.7661761903189
21
-11.6583796358569
31
0.0
  0
LINE
 8
GROUP4
10
19.3125
20
-0.0624999999999982
30
0.0
11
20.1875
21
-0.0624999999999982
31
0.0
  0
LINE
 8
GROUP4
10
19.3125
20
-11.9375
30
0.0
11
19.3125
21
-0.0624999999999982
31
0.0
  0
LINE
 8
GROUP4
10
20.1875
20
-0.0624999999999982
30
0.0
11
20.1875
21
-11.9375
31
0.0
  0
LINE
 8
GROUP4
10
20.1875
20
-11.9375
30
0.0
11
19.3125
21
-11.9375
31
0.0
  0
LINE
 8
GROUP4
10
19.75
20
-0.343749999999998
30
0.0
11
19.7661761903189
21
-0.341620364143065
31
0.0
  0
LINE
 8
GROUP4
10
19.8125
20
-11.71875
30
0.0
11
19.8103703641431
21
-11.7025738096811
31
0.0
  0
LINE
 8
GROUP4
10
19.7058058261758
20
-0.325444173824158
30
0.0
11
19.71875
21
-0.335376587736526
31
0.0
  0
LINE
 8
GROUP4
10
19.71875
20
-0.335376587736526
30
0.0
11
19.7338238096811
21
-0.341620364143065
31
0.0
  0
LINE
 8
GROUP4
10
19.75
20
-11.65625
30
0.0
11
19.7338238096811
21
-11.6583796358569
31
0.0
  0
LINE
 8
GROUP4
10
19.8103703641431
20
-11.7025738096811
30
0.0
11
19.8041265877365
21
-11.6875
31
0.0
  0
LINE
 8
GROUP4
10
19.7338238096811
20
-11.6583796358569
30
0.0
11
19.71875
21
-11.6646234122635
31
0.0
  0
LINE
 8
GROUP4
10
19.7338238096811
20
-0.341620364143065
30
0.0
11
19.75
21
-0.343749999999998
31
0.0
  0
LINE
 8
GROUP4
10
19.7941941738242
20
-11.6745558261758
30
0.0
11
19.78125
21
-11.6646234122635
31
0.0
  0
LINE
 8
GROUP4
10
19.78125
20
-0.22712341226347
30
0.0
11
19.7661761903189
21
-0.220879635856932
31
0.0
  0
LINE
 8
GROUP4
10
19.6875
20
-11.71875
30
0.0
11
19.6896296358569
21
-11.7349261903189
31
0.0
  0
LINE
 8
GROUP4
10
19.7058058261758
20
-11.7629441738242
30
0.0
11
19.71875
21
-11.7728765877365
31
0.0
  0
LINE
 8
GROUP4
10
19.75
20
-11.78125
30
0.0
11
19.7661761903189
21
-11.7791203641431
31
0.0
  0
LINE
 8
GROUP4
10
19.71875
20
-11.6646234122635
30
0.0
11
19.7058058261758
21
-11.6745558261758
31
0.0
  0
LINE
 8
GROUP4
10
19.7338238096811
20
-11.7791203641431
30
0.0
11
19.75
21
-11.78125
31
0.0
  0
LINE
 8
GROUP4
10
19.8103703641431
20
-11.7349261903189
30
0.0
11
19.8125
21
-11.71875
31
0.0
  0
LINE
 8
GROUP4
10
19.7941941738242
20
-11.7629441738242
30
0.0
11
19.8041265877365
21
-11.75
31
0.0
  0
LINE
 8
GROUP4
10
19.6958734122635
20
-0.249999999999998
30
0.0
11
19.6896296358569
21
-0.265073809681091
31
0.0
  0
LINE
 8
GROUP4
10
19.6896296358569
20
-0.265073809681091
30
0.0
11
19.6875
21
-0.281249999999998
31
0.0
  0
LINE
 8
GROUP4
10
19.6875
20
-0.281249999999998
30
0.0
11
19.6896296358569
21
-0.297426190318905
31
0.0
  0
LINE
 8
GROUP4
10
19.78125
20
-11.7728765877365
30
0.0
11
19.7941941738242
21
-11.7629441738242
31
0.0
  0
LINE
 8
GROUP4
10
19.8041265877365
20
-11.75
30
0.0
11
19.8103703641431
21
-11.7349261903189
31
0.0
  0
LINE
 8
GROUP4
10
19.8103703641431
20
-0.297426190318905
30
0.0
11
19.8125
21
-0.281249999999998
31
0.0
  0
LINE
 8
GROUP4
10
19.7058058261758
20
-11.6745558261758
30
0.0
11
19.6958734122635
21
-11.6875
31
0.0
  0
LINE
 8
GROUP4
10
19.7661761903189
20
-11.7791203641431
30
0.0
11
19.78125
21
-11.7728765877365
31
0.0
  0
LINE
 8
GROUP4
10
19.8041265877365
20
-0.249999999999998
30
0.0
11
19.7941941738242
21
-0.237055826175839
31
0.0
  0
LINE
 8
GROUP4
10
19.8103703641431
20
-0.265073809681091
30
0.0
11
19.8041265877365
21
-0.249999999999998
31
0.0
  0
LINE
 8
GROUP4
10
19.7941941738242
20
-0.237055826175839
30
0.0
11
19.78125
21
-0.22712341226347
31
0.0
  0
LINE
 8
GROUP4
10
19.7661761903189
20
-0.220879635856932
30
0.0
11
19.75
21
-0.218749999999998
31
0.0
  0
LINE
 8
GROUP4
10
19.75
20
-0.218749999999998
30
0.0
11
19.7338238096811
21
-0.220879635856932
31
0.0
  0
LINE
 8
GROUP4
10
19.6896296358569
20
-0.297426190318905
30
0.0
11
19.6958734122635
21
-0.312499999999998
31
0.0
  0
LINE
 8
GROUP4
10
19.6958734122635
20
-0.312499999999998
30
0.0
11
19.7058058261758
21
-0.325444173824158
31
0.0
  0
LINE
 8
GROUP4
10
19.7338238096811
20
-0.220879635856932
30
0.0
11
19.71875
21
-0.22712341226347
31
0.0
  0
LINE
 8
GROUP4
10
19.71875
20
-0.22712341226347
30
0.0
11
19.7058058261758
21
-0.237055826175839
31
0.0
  0
LINE
 8
GROUP4
10
19.6958734122635
20
-11.6875
30
0.0
11
19.6896296358569
21
-11.7025738096811
31
0.0
  0
LINE
 8
GROUP4
10
19.7661761903189
20
-11.6583796358569
30
0.0
11
19.75
21
-11.65625
31
0.0
  0
LINE
 8
GROUP4
10
19.8041265877365
20
-11.6875
30
0.0
11
19.7941941738242
21
-11.6745558261758
31
0.0
  0
LINE
 8
GROUP4
10
19.6958734122635
20
-11.75
30
0.0
11
19.7058058261758
21
-11.7629441738242
31
0.0
  0
LINE
 8
GROUP4
10
19.71875
20
-11.7728765877365
30
0.0
11
19.7338238096811
21
-11.7791203641431
31
0.0
  0
LINE
 8
GROUP4
10
19.6896296358569
20
-11.7025738096811
30
0.0
11
19.6875
21
-11.71875
31
0.0
  0
LINE
 8
GROUP5
10
5.76617619031891
20
-0.341620364143065
30
0.0
11
5.78125
21
-0.335376587736526
31
0.0
  0
LINE
 8
GROUP5
10
5.78125
20
-0.335376587736526
30
0.0
11
5.79419417382416
21
-0.325444173824158
31
0.0
  0
LINE
 8
GROUP5
10
5.70580582617584
20
-0.237055826175839
30
0.0
11
5.69587341226347
21
-0.249999999999998
31
0.0
  0
LINE
 8
GROUP5
10
5.8125
20
-0.281249999999998
30
0.0
11
5.81037036414307
21
-0.265073809681091
31
0.0
  0
LINE
 8
GROUP5
10
5.68962963585693
20
-11.7349261903189
30
0.0
11
5.69587341226347
21
-11.75
31
0.0
  0
LINE
 8
GROUP5
10
5.79419417382416
20
-0.325444173824158
30
0.0
11
5.80412658773653
21
-0.312499999999998
31
0.0
  0
LINE
 8
GROUP5
10
5.80412658773653
20
-0.312499999999998
30
0.0
11
5.81037036414307
21
-0.297426190318905
31
0.0
  0
LINE
 8
GROUP5
10
5.78125
20
-11.6646234122635
30
0.0
11
5.76617619031891
21
-11.6583796358569
31
0.0
  0
LINE
 8
GROUP5
10
5.3125
20
-0.0624999999999982
30
0.0
11
6.1875
21
-0.0624999999999982
31
0.0
  0
LINE
 8
GROUP5
10
5.3125
20
-11.9375
30
0.0
11
5.3125
21
-0.0624999999999982
31
0.0
  0
LINE
 8
GROUP5
10
6.1875
20
-0.0624999999999982
30
0.0
11
6.1875
21
-11.9375
31
0.0
  0
LINE
 8
GROUP5
10
6.1875
20
-11.9375
30
0.0
11
5.3125
21
-11.9375
31
0.0
  0
LINE
 8
GROUP5
10
5.75
20
-0.343749999999998
30
0.0
11
5.76617619031891
21
-0.341620364143065
31
0.0
  0
LINE
 8
GROUP5
10
5.8125
20
-11.71875
30
0.0
11
5.81037036414307
21
-11.7025738096811
31
0.0
  0
LINE
 8
GROUP5
10
5.70580582617584
20
-0.325444173824158
30
0.0
11
5.71875
21
-0.335376587736526
31
0.0
  0
LINE
 8
GROUP5
10
5.71875
20
-0.335376587736526
30
0.0
11
5.73382380968109
21
-0.341620364143065
31
0.0
  0
LINE
 8
GROUP5
10
5.75
20
-11.65625
30
0.0
11
5.73382380968109
21
-11.6583796358569
31
0.0
  0
LINE
 8
GROUP5
10
5.81037036414307
20
-11.7025738096811
30
0.0
11
5.80412658773653
21
-11.6875
31
0.0
  0
LINE
 8
GROUP5
10
5.73382380968109
20
-11.6583796358569
30
0.0
11
5.71875
21
-11.6646234122635
31
0.0
  0
LINE
 8
GROUP5
10
5.73382380968109
20
-0.341620364143065
30
0.0
11
5.75
21
-0.343749999999998
31
0.0
  0
LINE
 8
GROUP5
10
5.79419417382416
20
-11.6745558261758
30
0.0
11
5.78125
21
-11.6646234122635
31
0.0
  0
LINE
 8
GROUP5
10
5.78125
20
-0.22712341226347
30
0.0
11
5.76617619031891
21
-0.220879635856932
31
0.0
  0
LINE
 8
GROUP5
10
5.6875
20
-11.71875
30
0.0
11
5.68962963585693
21
-11.7349261903189
31
0.0
  0
LINE
 8
GROUP5
10
5.70580582617584
20
-11.7629441738242
30
0.0
11
5.71875
21
-11.7728765877365
31
0.0
  0
LINE
 8
GROUP5
10
5.75
20
-11.78125
30
0.0
11
5.76617619031891
21
-11.7791203641431
31
0.0
  0
LINE
 8
GROUP5
10
5.71875
20
-11.6646234122635
30
0.0
11
5.70580582617584
21
-11.6745558261758
31
0.0
  0
LINE
 8
GROUP5
10
5.73382380968109
20
-11.7791203641431
30
0.0
11
5.75
21
-11.78125
31
0.0
  0
LINE
 8
GROUP5
10
5.81037036414307
20
-11.7349261903189
30
0.0
11
5.8125
21
-11.71875
31
0.0
  0
LINE
 8
GROUP5
10
5.79419417382416
20
-11.7629441738242
30
0.0
11
5.80412658773653
21
-11.75
31
0.0
  0
LINE
 8
GROUP5
10
5.69587341226347
20
-0.249999999999998
30
0.0
11
5.68962963585693
21
-0.265073809681091
31
0.0
  0
LINE
 8
GROUP5
10
5.68962963585693
20
-0.265073809681091
30
0.0
11
5.6875
21
-0.281249999999998
31
0.0
  0
LINE
 8
GROUP5
10
5.6875
20
-0.281249999999998
30
0.0
11
5.68962963585693
21
-0.297426190318905
31
0.0
  0
LINE
 8
GROUP5
10
5.78125
20
-11.7728765877365
30
0.0
11
5.79419417382416
21
-11.7629441738242
31
0.0
  0
LINE
 8
GROUP5
10
5.80412658773653
20
-11.75
30
0.0
11
5.81037036414307
21
-11.7349261903189
31
0.0
  0
LINE
 8
GROUP5
10
5.81037036414307
20
-0.297426190318905
30
0.0
11
5.8125
21
-0.281249999999998
31
0.0
  0
LINE
 8
GROUP5
10
5.70580582617584
20
-11.6745558261758
30
0.0
11
5.69587341226347
21
-11.6875
31
0.0
  0
LINE
 8
GROUP5
10
5.76617619031891
20
-11.7791203641431
30
0.0
11
5.78125
21
-11.7728765877365
31
0.0
  0
LINE
 8
GROUP5
10
5.80412658773653
20
-0.249999999999998
30
0.0
11
5.79419417382416
21
-0.237055826175839
31
0.0
  0
LINE
 8
GROUP5
10
5.81037036414307
20
-0.265073809681091
30
0.0
11
5.80412658773653
21
-0.249999999999998
31
0.0
  0
LINE
 8
GROUP5
10
5.79419417382416
20
-0.237055826175839
30
0.0
11
5.78125
21
-0.22712341226347
31
0.0
  0
LINE
 8
GROUP5
10
5.76617619031891
20
-0.220879635856932
30
0.0
11
5.75
21
-0.218749999999998
31
0.0
  0
LINE
 8
GROUP5
10
5.75
20
-0.218749999999998
30
0.0
11
5.73382380968109
21
-0.220879635856932
31
0.0
  0
LINE
 8
GROUP5
10
5.68962963585693
20
-0.297426190318905
30
0.0
11
5.69587341226347
21
-0.312499999999998
31
0.0
  0
LINE
 8
GROUP5
10
5.69587341226347
20
-0.312499999999998
30
0.0
11
5.70580582617584
21
-0.325444173824158
31
0.0
  0
LINE
 8
GROUP5
10
5.73382380968109
20
-0.220879635856932
30
0.0
11
5.71875
21
-0.22712341226347
31
0.0
  0
LINE
 8
GROUP5
10
5.71875
20
-0.22712341226347
30
0.0
11
5.70580582617584
21
-0.237055826175839
31
0.0
  0
LINE
 8
GROUP5
10
5.69587341226347
20
-11.6875
30
0.0
11
5.68962963585693
21
-11.7025738096811
31
0.0
  0
LINE
 8
GROUP5
10
5.76617619031891
20
-11.6583796358569
30
0.0
11
5.75
21
-11.65625
31
0.0
  0
LINE
 8
GROUP5
10
5.80412658773653
20
-11.6875
30
0.0
11
5.79419417382416
21
-11.6745558261758
31
0.0
  0
LINE
 8
GROUP5
10
5.69587341226347
20
-11.75
30
0.0
11
5.70580582617584
21
-11.7629441738242
31
0.0
  0
LINE
 8
GROUP5
10
5.71875
20
-11.7728765877365
30
0.0
11
5.73382380968109
21
-11.7791203641431
31
0.0
  0
LINE
 8
GROUP5
10
5.68962963585693
20
-11.7025738096811
30
0.0
11
5.6875
21
-11.71875
31
0.0
  0
LINE
 8
GROUP6
10
16.2661761903189
20
-0.341620364143065
30
0.0
11
16.28125
21
-0.335376587736526
31
0.0
  0
LINE
 8
GROUP6
10
16.28125
20
-0.335376587736526
30
0.0
11
16.2941941738242
21
-0.325444173824158
31
0.0
  0
LINE
 8
GROUP6
10
16.2058058261758
20
-0.237055826175839
30
0.0
11
16.1958734122635
21
-0.249999999999998
31
0.0
  0
LINE
 8
GROUP6
10
16.3125
20
-0.281249999999998
30
0.0
11
16.3103703641431
21
-0.265073809681091
31
0.0
  0
LINE
 8
GROUP6
10
16.1896296358569
20
-11.7349261903189
30
0.0
11
16.1958734122635
21
-11.75
31
0.0
  0
LINE
 8
GROUP6
10
16.2941941738242
20
-0.325444173824158
30
0.0
11
16.3041265877365
21
-0.312499999999998
31
0.0
  0
LINE
 8
GROUP6
10
16.3041265877365
20
-0.312499999999998
30
0.0
11
16.3103703641431
21
-0.297426190318905
31
0.0
  0
LINE
 8
GROUP6
10
16.28125
20
-11.6646234122635
30
0.0
11
16.2661761903189
21
-11.6583796358569
31
0.0
  0
LINE
 8
GROUP6
10
15.8125
20
-0.0624999999999982
30
0.0
11
16.6875
21
-0.0624999999999982
31
0.0
  0
LINE
 8
GROUP6
10
15.8125
20
-11.9375
30
0.0
11
15.8125
21
-0.0624999999999982
31
0.0
  0
LINE
 8
GROUP6
10
16.6875
20
-0.0624999999999982
30
0.0
11
16.6875
21
-11.9375
31
0.0
  0
LINE
 8
GROUP6
10
16.6875
20
-11.9375
30
0.0
11
15.8125
21
-11.9375
31
0.0
  0
LINE
 8
GROUP6
10
16.25
20
-0.343749999999998
30
0.0
11
16.2661761903189
21
-0.341620364143065
31
0.0
  0
LINE
 8
GROUP6
10
16.3125
20
-11.71875
30
0.0
11
16.3103703641431
21
-11.7025738096811
31
0.0
  0
LINE
 8
GROUP6
10
16.2058058261758
20
-0.325444173824158
30
0.0
11
16.21875
21
-0.335376587736526
31
0.0
  0
LINE
 8
GROUP6
10
16.21875
20
-0.335376587736526
30
0.0
11
16.2338238096811
21
-0.341620364143065
31
0.0
  0
LINE
 8
GROUP6
10
16.25
20
-11.65625
30
0.0
11
16.2338238096811
21
-11.6583796358569
31
0.0
  0
LINE
 8
GROUP6
10
16.3103703641431
20
-11.7025738096811
30
0.0
11
16.3041265877365
21
-11.6875
31
0.0
  0
LINE
 8
GROUP6
10
16.2338238096811
20
-11.6583796358569
30
0.0
11
16.21875
21
-11.6646234122635
31
0.0
  0
LINE
 8
GROUP6
10
16.2338238096811
20
-0.341620364143065
30
0.0
11
16.25
21
-0.343749999999998
31
0.0
  0
LINE
 8
GROUP6
10
16.2941941738242
20
-11.6745558261758
30
0.0
11
16.28125
21
-11.6646234122635
31
0.0
  0
LINE
 8
GROUP6
10
16.28125
20
-0.22712341226347
30
0.0
11
16.2661761903189
21
-0.220879635856932
31
0.0
  0
LINE
 8
GROUP6
10
16.1875
20
-11.71875
30
0.0
11
16.1896296358569
21
-11.7349261903189
31
0.0
  0
LINE
 8
GROUP6
10
16.2058058261758
20
-11.7629441738242
30
0.0
11
16.21875
21
-11.7728765877365
31
0.0
  0
LINE
 8
GROUP6
10
16.25
20
-11.78125
30
0.0
11
16.2661761903189
21
-11.7791203641431
31
0.0
  0
LINE
 8
GROUP6
10
16.21875
20
-11.6646234122635
30
0.0
11
16.2058058261758
21
-11.6745558261758
31
0.0
  0
LINE
 8
GROUP6
10
16.2338238096811
20
-11.7791203641431
30
0.0
11
16.25
21
-11.78125
31
0.0
  0
LINE
 8
GROUP6
10
16.3103703641431
20
-11.7349261903189
30
0.0
11
16.3125
21
-11.71875
31
0.0
  0
LINE
 8
GROUP6
10
16.2941941738242
20
-11.7629441738242
30
0.0
11
16.3041265877365
21
-11.75
31
0.0
  0
LINE
 8
GROUP6
10
16.1958734122635
20
-0.249999999999998
30
0.0
11
16.1896296358569
21
-0.265073809681091
31
0.0
  0
LINE
 8
GROUP6
10
16.1896296358569
20
-0.265073809681091
30
0.0
11
16.1875
21
-0.281249999999998
31
0.0
  0
LINE
 8
GROUP6
10
16.1875
20
-0.281249999999998
30
0.0
11
16.1896296358569
21
-0.297426190318905
31
0.0
  0
LINE
 8
GROUP6
10
16.28125
20
-11.7728765877365
30
0.0
11
16.2941941738242
21
-11.7629441738242
31
0.0
  0
LINE
 8
GROUP6
10
16.3041265877365
20
-11.75
30
0.0
11
16.3103703641431
21
-11.7349261903189
31
0.0
  0
LINE
 8
GROUP6
10
16.3103703641431
20
-0.297426190318905
30
0.0
11
16.3125
21
-0.281249999999998
31
0.0
  0
LINE
 8
GROUP6
10
16.2058058261758
20
-11.6745558261758
30
0.0
11
16.1958734122635
21
-11.6875
31
0.0
  0
LINE
 8
GROUP6
10
16.2661761903189
20
-11.7791203641431
30
0.0
11
16.28125
21
-11.7728765877365
31
0.0
  0
LINE
 8
GROUP6
10
16.3041265877365
20
-0.249999999999998
30
0.0
11
16.2941941738242
21
-0.237055826175839
31
0.0
  0
LINE
 8
GROUP6
10
16.3103703641431
20
-0.265073809681091
30
0.0
11
16.3041265877365
21
-0.249999999999998
31
0.0
  0
LINE
 8
GROUP6
10
16.2941941738242
20
-0.237055826175839
30
0.0
11
16.28125
21
-0.22712341226347
31
0.0
  0
LINE
 8
GROUP6
10
16.2661761903189
20
-0.220879635856932
30
0.0
11
16.25
21
-0.218749999999998
31
0.0
  0
LINE
 8
GROUP6
10
16.25
20
-0.218749999999998
30
0.0
11
16.2338238096811
21
-0.220879635856932
31
0.0
  0
LINE
 8
GROUP6
10
16.1896296358569
20
-0.297426190318905
30
0.0
11
16.1958734122635
21
-0.312499999999998
31
0.0
  0
LINE
 8
GROUP6
10
16.1958734122635
20
-0.312499999999998
30
0.0
11
16.2058058261758
21
-0.325444173824158
31
0.0
  0
LINE
 8
GROUP6
10
16.2338238096811
20
-0.220879635856932
30
0.0
11
16.21875
21
-0.22712341226347
31
0.0
  0
LINE
 8
GROUP6
10
16.21875
20
-0.22712341226347
30
0.0
11
16.2058058261758
21
-0.237055826175839
31
0.0
  0
LINE
 8
GROUP6
10
16.1958734122635
20
-11.6875
30
0.0
11
16.1896296358569
21
-11.7025738096811
31
0.0
  0
LINE
 8
GROUP6
10
16.2661761903189
20
-11.6583796358569
30
0.0
11
16.25
21
-11.65625
31
0.0
  0
LINE
 8
GROUP6
10
16.3041265877365
20
-11.6875
30
0.0
11
16.2941941738242
21
-11.6745558261758
31
0.0
  0
LINE
 8
GROUP6
10
16.1958734122635
20
-11.75
30
0.0
11
16.2058058261758
21
-11.7629441738242
31
0.0
  0
LINE
 8
GROUP6
10
16.21875
20
-11.7728765877365
30
0.0
11
16.2338238096811
21
-11.7791203641431
31
0.0
  0
LINE
 8
GROUP6
10
16.1896296358569
20
-11.7025738096811
30
0.0
11
16.1875
21
-11.71875
31
0.0
  0
LINE
 8
GROUP7
10
20.6411761903189
20
-0.341620364143065
30
0.0
11
20.65625
21
-0.335376587736526
31
0.0
  0
LINE
 8
GROUP7
10
20.65625
20
-0.335376587736526
30
0.0
11
20.6691941738242
21
-0.325444173824158
31
0.0
  0
LINE
 8
GROUP7
10
20.5808058261758
20
-0.237055826175839
30
0.0
11
20.5708734122635
21
-0.249999999999998
31
0.0
  0
LINE
 8
GROUP7
10
20.6875
20
-0.281249999999998
30
0.0
11
20.6853703641431
21
-0.265073809681091
31
0.0
  0
LINE
 8
GROUP7
10
20.5646296358569
20
-11.7349261903189
30
0.0
11
20.5708734122635
21
-11.75
31
0.0
  0
LINE
 8
GROUP7
10
20.6691941738242
20
-0.325444173824158
30
0.0
11
20.6791265877365
21
-0.312499999999998
31
0.0
  0
LINE
 8
GROUP7
10
20.6791265877365
20
-0.312499999999998
30
0.0
11
20.6853703641431
21
-0.297426190318905
31
0.0
  0
LINE
 8
GROUP7
10
20.65625
20
-11.6646234122635
30
0.0
11
20.6411761903189
21
-11.6583796358569
31
0.0
  0
LINE
 8
GROUP7
10
20.1875
20
-0.0624999999999982
30
0.0
11
21.0625
21
-0.0624999999999982
31
0.0
  0
LINE
 8
GROUP7
10
20.1875
20
-11.9375
30
0.0
11
20.1875
21
-0.0624999999999982
31
0.0
  0
LINE
 8
GROUP7
10
21.0625
20
-0.0624999999999982
30
0.0
11
21.0625
21
-11.9375
31
0.0
  0
LINE
 8
GROUP7
10
21.0625
20
-11.9375
30
0.0
11
20.1875
21
-11.9375
31
0.0
  0
LINE
 8
GROUP7
10
20.625
20
-0.343749999999998
30
0.0
11
20.6411761903189
21
-0.341620364143065
31
0.0
  0
LINE
 8
GROUP7
10
20.6875
20
-11.71875
30
0.0
11
20.6853703641431
21
-11.7025738096811
31
0.0
  0
LINE
 8
GROUP7
10
20.5808058261758
20
-0.325444173824158
30
0.0
11
20.59375
21
-0.335376587736526
31
0.0
  0
LINE
 8
GROUP7
10
20.59375
20
-0.335376587736526
30
0.0
11
20.6088238096811
21
-0.341620364143065
31
0.0
  0
LINE
 8
GROUP7
10
20.625
20
-11.65625
30
0.0
11
20.6088238096811
21
-11.6583796358569
31
0.0
  0
LINE
 8
GROUP7
10
20.6853703641431
20
-11.7025738096811
30
0.0
11
20.6791265877365
21
-11.6875
31
0.0
  0
LINE
 8
GROUP7
10
20.6088238096811
20
-11.6583796358569
30
0.0
11
20.59375
21
-11.6646234122635
31
0.0
  0
LINE
 8
GROUP7
10
20.6088238096811
20
-0.341620364143065
30
0.0
11
20.625
21
-0.343749999999998
31
0.0
  0
LINE
 8
GROUP7
10
20.6691941738242
20
-11.6745558261758
30
0.0
11
20.65625
21
-11.6646234122635
31
0.0
  0
LINE
 8
GROUP7
10
20.65625
20
-0.22712341226347
30
0.0
11
20.6411761903189
21
-0.220879635856932
31
0.0
  0
LINE
 8
GROUP7
10
20.5625
20
-11.71875
30
0.0
11
20.5646296358569
21
-11.7349261903189
31
0.0
  0
LINE
 8
GROUP7
10
20.5808058261758
20
-11.7629441738242
30
0.0
11
20.59375
21
-11.7728765877365
31
0.0
  0
LINE
 8
GROUP7
10
20.625
20
-11.78125
30
0.0
11
20.6411761903189
21
-11.7791203641431
31
0.0
  0
LINE
 8
GROUP7
10
20.59375
20
-11.6646234122635
30
0.0
11
20.5808058261758
21
-11.6745558261758
31
0.0
  0
LINE
 8
GROUP7
10
20.6088238096811
20
-11.7791203641431
30
0.0
11
20.625
21
-11.78125
31
0.0
  0
LINE
 8
GROUP7
10
20.6853703641431
20
-11.7349261903189
30
0.0
11
20.6875
21
-11.71875
31
0.0
  0
LINE
 8
GROUP7
10
20.6691941738242
20
-11.7629441738242
30
0.0
11
20.6791265877365
21
-11.75
31
0.0
  0
LINE
 8
GROUP7
10
20.5708734122635
20
-0.249999999999998
30
0.0
11
20.5646296358569
21
-0.265073809681091
31
0.0
  0
LINE
 8
GROUP7
10
20.5646296358569
20
-0.265073809681091
30
0.0
11
20.5625
21
-0.281249999999998
31
0.0
  0
LINE
 8
GROUP7
10
20.5625
20
-0.281249999999998
30
0.0
11
20.5646296358569
21
-0.297426190318905
31
0.0
  0
LINE
 8
GROUP7
10
20.65625
20
-11.7728765877365
30
0.0
11
20.6691941738242
21
-11.7629441738242
31
0.0
  0
LINE
 8
GROUP7
10
20.6791265877365
20
-11.75
30
0.0
11
20.6853703641431
21
-11.7349261903189
31
0.0
  0
LINE
 8
GROUP7
10
20.6853703641431
20
-0.297426190318905
30
0.0
11
20.6875
21
-0.281249999999998
31
0.0
  0
LINE
 8
GROUP7
10
20.5808058261758
20
-11.6745558261758
30
0.0
11
20.5708734122635
21
-11.6875
31
0.0
  0
LINE
 8
GROUP7
10
20.6411761903189
20
-11.7791203641431
30
0.0
11
20.65625
21
-11.7728765877365
31
0.0
  0
LINE
 8
GROUP7
10
20.6791265877365
20
-0.249999999999998
30
0.0
11
20.6691941738242
21
-0.237055826175839
31
0.0
  0
LINE
 8
GROUP7
10
20.6853703641431
20
-0.265073809681091
30
0.0
11
20.6791265877365
21
-0.249999999999998
31
0.0
  0
LINE
 8
GROUP7
10
20.6691941738242
20
-0.237055826175839
30
0.0
11
20.65625
21
-0.22712341226347
31
0.0
  0
LINE
 8
GROUP7
10
20.6411761903189
20
-0.220879635856932
30
0.0
11
20.625
21
-0.218749999999998
31
0.0
  0
LINE
 8
GROUP7
10
20.625
20
-0.218749999999998
30
0.0
11
20.6088238096811
21
-0.220879635856932
31
0.0
  0
LINE
 8
GROUP7
10
20.5646296358569
20
-0.297426190318905
30
0.0
11
20.5708734122635
21
-0.312499999999998
31
0.0
  0
LINE
 8
GROUP7
10
20.5708734122635
20
-0.312499999999998
30
0.0
11
20.5808058261758
21
-0.325444173824158
31
0.0
  0
LINE
 8
GROUP7
10
20.6088238096811
20
-0.220879635856932
30
0.0
11
20.59375
21
-0.22712341226347
31
0.0
  0
LINE
 8
GROUP7
10
20.59375
20
-0.22712341226347
30
0.0
11
20.5808058261758
21
-0.237055826175839
31
0.0
  0
LINE
 8
GROUP7
10
20.5708734122635
20
-11.6875
30
0.0
11
20.5646296358569
21
-11.7025738096811
31
0.0
  0
LINE
 8
GROUP7
10
20.6411761903189
20
-11.6583796358569
30
0.0
11
20.625
21
-11.65625
31
0.0
  0
LINE
 8
GROUP7
10
20.6791265877365
20
-11.6875
30
0.0
11
20.6691941738242
21
-11.6745558261758
31
0.0
  0
LINE
 8
GROUP7
10
20.5708734122635
20
-11.75
30
0.0
11
20.5808058261758
21
-11.7629441738242
31
0.0
  0
LINE
 8
GROUP7
10
20.59375
20
-11.7728765877365
30
0.0
11
20.6088238096811
21
-11.7791203641431
31
0.0
  0
LINE
 8
GROUP7
10
20.5646296358569
20
-11.7025738096811
30
0.0
11
20.5625
21
-11.71875
31
0.0
  0
LINE
 8
GROUP8
10
10.1411761903189
20
-0.341620364143065
30
0.0
11
10.15625
21
-0.335376587736526
31
0.0
  0
LINE
 8
GROUP8
10
10.15625
20
-0.335376587736526
30
0.0
11
10.1691941738242
21
-0.325444173824158
31
0.0
  0
LINE
 8
GROUP8
10
10.0808058261758
20
-0.237055826175839
30
0.0
11
10.0708734122635
21
-0.249999999999998
31
0.0
  0
LINE
 8
GROUP8
10
10.1875
20
-0.281249999999998
30
0.0
11
10.1853703641431
21
-0.265073809681091
31
0.0
  0
LINE
 8
GROUP8
10
10.0646296358569
20
-11.7349261903189
30
0.0
11
10.0708734122635
21
-11.75
31
0.0
  0
LINE
 8
GROUP8
10
10.1691941738242
20
-0.325444173824158
30
0.0
11
10.1791265877365
21
-0.312499999999998
31
0.0
  0
LINE
 8
GROUP8
10
10.1791265877365
20
-0.312499999999998
30
0.0
11
10.1853703641431
21
-0.297426190318905
31
0.0
  0
LINE
 8
GROUP8
10
10.15625
20
-11.6646234122635
30
0.0
11
10.1411761903189
21
-11.6583796358569
31
0.0
  0
LINE
 8
GROUP8
10
9.6875
20
-0.0624999999999982
30
0.0
11
10.5625
21
-0.0624999999999982
31
0.0
  0
LINE
 8
GROUP8
10
9.6875
20
-11.9375
30
0.0
11
9.6875
21
-0.0624999999999982
31
0.0
  0
LINE
 8
GROUP8
10
10.5625
20
-0.0624999999999982
30
0.0
11
10.5625
21
-11.9375
31
0.0
  0
LINE
 8
GROUP8
10
10.5625
20
-11.9375
30
0.0
11
9.6875
21
-11.9375
31
0.0
  0
LINE
 8
GROUP8
10
10.125
20
-0.343749999999998
30
0.0
11
10.1411761903189
21
-0.341620364143065
31
0.0
  0
LINE
 8
GROUP8
10
10.1875
20
-11.71875
30
0.0
11
10.1853703641431
21
-11.7025738096811
31
0.0
  0
LINE
 8
GROUP8
10
10.0808058261758
20
-0.325444173824158
30
0.0
11
10.09375
21
-0.335376587736526
31
0.0
  0
LINE
 8
GROUP8
10
10.09375
20
-0.335376587736526
30
0.0
11
10.1088238096811
21
-0.341620364143065
31
0.0
  0
LINE
 8
GROUP8
10
10.125
20
-11.65625
30
0.0
11
10.1088238096811
21
-11.6583796358569
31
0.0
  0
LINE
 8
GROUP8
10
10.1853703641431
20
-11.7025738096811
30
0.0
11
10.1791265877365
21
-11.6875
31
0.0
  0
LINE
 8
GROUP8
10
10.1088238096811
20
-11.6583796358569
30
0.0
11
10.09375
21
-11.6646234122635
31
0.0
  0
LINE
 8
GROUP8
10
10.1088238096811
20
-0.341620364143065
30
0.0
11
10.125
21
-0.343749999999998
31
0.0
  0
LINE
 8
GROUP8
10
10.1691941738242
20
-11.6745558261758
30
0.0
11
10.15625
21
-11.6646234122635
31
0.0
  0
LINE
 8
GROUP8
10
10.15625
20
-0.22712341226347
30
0.0
11
10.1411761903189
21
-0.220879635856932
31
0.0
  0
LINE
 8
GROUP8
10
10.0625
20
-11.71875
30
0.0
11
10.0646296358569
21
-11.7349261903189
31
0.0
  0
LINE
 8
GROUP8
10
10.0808058261758
20
-11.7629441738242
30
0.0
11
10.09375
21
-11.7728765877365
31
0.0
  0
LINE
 8
GROUP8
10
10.125
20
-11.78125
30
0.0
11
10.1411761903189
21
-11.7791203641431
31
0.0
  0
LINE
 8
GROUP8
10
10.09375
20
-11.6646234122635
30
0.0
11
10.0808058261758
21
-11.6745558261758
31
0.0
  0
LINE
 8
GROUP8
10
10.1088238096811
20
-11.7791203641431
30
0.0
11
10.125
21
-11.78125
31
0.0
  0
LINE
 8
GROUP8
10
10.1853703641431
20
-11.7349261903189
30
0.0
11
10.1875
21
-11.71875
31
0.0
  0
LINE
 8
GROUP8
10
10.1691941738242
20
-11.7629441738242
30
0.0
11
10.1791265877365
21
-11.75
31
0.0
  0
LINE
 8
GROUP8
10
10.0708734122635
20
-0.249999999999998
30
0.0
11
10.0646296358569
21
-0.265073809681091
31
0.0
  0
LINE
 8
GROUP8
10
10.0646296358569
20
-0.265073809681091
30
0.0
11
10.0625
21
-0.281249999999998
31
0.0
  0
LINE
 8
GROUP8
10
10.0625
20
-0.281249999999998
30
0.0
11
10.0646296358569
21
-0.297426190318905
31
0.0
  0
LINE
 8
GROUP8
10
10.15625
20
-11.7728765877365
30
0.0
11
10.1691941738242
21
-11.7629441738242
31
0.0
  0
LINE
 8
GROUP8
10
10.1791265877365
20
-11.75
30
0.0
11
10.1853703641431
21
-11.7349261903189
31
0.0
  0
LINE
 8
GROUP8
10
10.1853703641431
20
-0.297426190318905
30
0.0
11
10.1875
21
-0.281249999999998
31
0.0
  0
LINE
 8
GROUP8
10
10.0808058261758
20
-11.6745558261758
30
0.0
11
10.0708734122635
21
-11.6875
31
0.0
  0
LINE
 8
GROUP8
10
10.1411761903189
20
-11.7791203641431
30
0.0
11
10.15625
21
-11.7728765877365
31
0.0
  0
LINE
 8
GROUP8
10
10.1791265877365
20
-0.249999999999998
30
0.0
11
10.1691941738242
21
-0.237055826175839
31
0.0
  0
LINE
 8
GROUP8
10
10.1853703641431
20
-0.265073809681091
30
0.0
11
10.1791265877365
21
-0.249999999999998
31
0.0
  0
LINE
 8
GROUP8
10
10.1691941738242
20
-0.237055826175839
30
0.0
11
10.15625
21
-0.22712341226347
31
0.0
  0
LINE
 8
GROUP8
10
10.1411761903189
20
-0.220879635856932
30
0.0
11
10.125
21
-0.218749999999998
31
0.0
  0
LINE
 8
GROUP8
10
10.125
20
-0.218749999999998
30
0.0
11
10.1088238096811
21
-0.220879635856932
31
0.0
  0
LINE
 8
GROUP8
10
10.0646296358569
20
-0.297426190318905
30
0.0
11
10.0708734122635
21
-0.312499999999998
31
0.0
  0
LINE
 8
GROUP8
10
10.0708734122635
20
-0.312499999999998
30
0.0
11
10.0808058261758
21
-0.325444173824158
31
0.0
  0
LINE
 8
GROUP8
10
10.1088238096811
20
-0.220879635856932
30
0.0
11
10.09375
21
-0.22712341226347
31
0.0
  0
LINE
 8
GROUP8
10
10.09375
20
-0.22712341226347
30
0.0
11
10.0808058261758
21
-0.237055826175839
31
0.0
  0
LINE
 8
GROUP8
10
10.0708734122635
20
-11.6875
30
0.0
11
10.0646296358569
21
-11.7025738096811
31
0.0
  0
LINE
 8
GROUP8
10
10.1411761903189
20
-11.6583796358569
30
0.0
11
10.125
21
-11.65625
31
0.0
  0
LINE
 8
GROUP8
10
10.1791265877365
20
-11.6875
30
0.0
11
10.1691941738242
21
-11.6745558261758
31
0.0
  0
LINE
 8
GROUP8
10
10.0708734122635
20
-11.75
30
0.0
11
10.0808058261758
21
-11.7629441738242
31
0.0
  0
LINE
 8
GROUP8
10
10.09375
20
-11.7728765877365
30
0.0
11
10.1088238096811
21
-11.7791203641431
31
0.0
  0
LINE
 8
GROUP8
10
10.0646296358569
20
-11.7025738096811
30
0.0
11
10.0625
21
-11.71875
31
0.0
  0
LINE
 8
GROUP9
10
0.0625
20
-6.0
30
0.0
11
23.6875
21
-6.0
31
0.0
  0
LINE
 8
GROUP10
10
1.39117619031891
20
-0.341620364143065
30
0.0
11
1.40625
21
-0.335376587736526
31
0.0
  0
LINE
 8
GROUP10
10
1.40625
20
-0.335376587736526
30
0.0
11
1.41919417382416
21
-0.325444173824158
31
0.0
  0
LINE
 8
GROUP10
10
1.33080582617584
20
-0.237055826175839
30
0.0
11
1.32087341226347
21
-0.249999999999998
31
0.0
  0
LINE
 8
GROUP10
10
1.4375
20
-0.281249999999998
30
0.0
11
1.43537036414307
21
-0.265073809681091
31
0.0
  0
LINE
 8
GROUP10
10
1.31462963585693
20
-11.7349261903189
30
0.0
11
1.32087341226347
21
-11.75
31
0.0
  0
LINE
 8
GROUP10
10
1.41919417382416
20
-0.325444173824158
30
0.0
11
1.42912658773653
21
-0.312499999999998
31
0.0
  0
LINE
 8
GROUP10
10
1.42912658773653
20
-0.312499999999998
30
0.0
11
1.43537036414307
21
-0.297426190318905
31
0.0
  0
LINE
 8
GROUP10
10
1.40625
20
-11.6646234122635
30
0.0
11
1.39117619031891
21
-11.6583796358569
31
0.0
  0
LINE
 8
GROUP10
10
0.9375
20
-0.0624999999999982
30
0.0
11
1.8125
21
-0.0624999999999982
31
0.0
  0
LINE
 8
GROUP10
10
0.9375
20
-11.9375
30
0.0
11
0.9375
21
-0.0624999999999982
31
0.0
  0
LINE
 8
GROUP10
10
1.8125
20
-0.0624999999999982
30
0.0
11
1.8125
21
-11.9375
31
0.0
  0
LINE
 8
GROUP10
10
1.8125
20
-11.9375
30
0.0
11
0.9375
21
-11.9375
31
0.0
  0
LINE
 8
GROUP10
10
1.375
20
-0.343749999999998
30
0.0
11
1.39117619031891
21
-0.341620364143065
31
0.0
  0
LINE
 8
GROUP10
10
1.4375
20
-11.71875
30
0.0
11
1.43537036414307
21
-11.7025738096811
31
0.0
  0
LINE
 8
GROUP10
10
1.33080582617584
20
-0.325444173824158
30
0.0
11
1.34375
21
-0.335376587736526
31
0.0
  0
LINE
 8
GROUP10
10
1.34375
20
-0.335376587736526
30
0.0
11
1.35882380968109
21
-0.341620364143065
31
0.0
  0
LINE
 8
GROUP10
10
1.375
20
-11.65625
30
0.0
11
1.35882380968109
21
-11.6583796358569
31
0.0
  0
LINE
 8
GROUP10
10
1.43537036414307
20
-11.7025738096811
30
0.0
11
1.42912658773653
21
-11.6875
31
0.0
  0
LINE
 8
GROUP10
10
1.35882380968109
20
-11.6583796358569
30
0.0
11
1.34375
21
-11.6646234122635
31
0.0
  0
LINE
 8
GROUP10
10
1.35882380968109
20
-0.341620364143065
30
0.0
11
1.375
21
-0.343749999999998
31
0.0
  0
LINE
 8
GROUP10
10
1.41919417382416
20
-11.6745558261758
30
0.0
11
1.40625
21
-11.6646234122635
31
0.0
  0
LINE
 8
GROUP10
10
1.40625
20
-0.22712341226347
30
0.0
11
1.39117619031891
21
-0.220879635856932
31
0.0
  0
LINE
 8
GROUP10
10
1.3125
20
-11.71875
30
0.0
11
1.31462963585693
21
-11.7349261903189
31
0.0
  0
LINE
 8
GROUP10
10
1.33080582617584
20
-11.7629441738242
30
0.0
11
1.34375
21
-11.7728765877365
31
0.0
  0
LINE
 8
GROUP10
10
1.375
20
-11.78125
30
0.0
11
1.39117619031891
21
-11.7791203641431
31
0.0
  0
LINE
 8
GROUP10
10
1.34375
20
-11.6646234122635
30
0.0
11
1.33080582617584
21
-11.6745558261758
31
0.0
  0
LINE
 8
GROUP10
10
1.35882380968109
20
-11.7791203641431
30
0.0
11
1.375
21
-11.78125
31
0.0
  0
LINE
 8
GROUP10
10
1.43537036414307
20
-11.7349261903189
30
0.0
11
1.4375
21
-11.71875
31
0.0
  0
LINE
 8
GROUP10
10
1.41919417382416
20
-11.7629441738242
30
0.0
11
1.42912658773653
21
-11.75
31
0.0
  0
LINE
 8
GROUP10
10
1.32087341226347
20
-0.249999999999998
30
0.0
11
1.31462963585693
21
-0.265073809681091
31
0.0
  0
LINE
 8
GROUP10
10
1.31462963585693
20
-0.265073809681091
30
0.0
11
1.3125
21
-0.281249999999998
31
0.0
  0
LINE
 8
GROUP10
10
1.3125
20
-0.281249999999998
30
0.0
11
1.31462963585693
21
-0.297426190318905
31
0.0
  0
LINE
 8
GROUP10
10
1.40625
20
-11.7728765877365
30
0.0
11
1.41919417382416
21
-11.7629441738242
31
0.0
  0
LINE
 8
GROUP10
10
1.42912658773653
20
-11.75
30
0.0
11
1.43537036414307
21
-11.7349261903189
31
0.0
  0
LINE
 8
GROUP10
10
1.43537036414307
20
-0.297426190318905
30
0.0
11
1.4375
21
-0.281249999999998
31
0.0
  0
LINE
 8
GROUP10
10
1.33080582617584
20
-11.6745558261758
30
0.0
11
1.32087341226347
21
-11.6875
31
0.0
  0
LINE
 8
GROUP10
10
1.39117619031891
20
-11.7791203641431
30
0.0
11
1.40625
21
-11.7728765877365
31
0.0
  0
LINE
 8
GROUP10
10
1.42912658773653
20
-0.249999999999998
30
0.0
11
1.41919417382416
21
-0.237055826175839
31
0.0
  0
LINE
 8
GROUP10
10
1.43537036414307
20
-0.265073809681091
30
0.0
11
1.42912658773653
21
-0.249999999999998
31
0.0
  0
LINE
 8
GROUP10
10
1.41919417382416
20
-0.237055826175839
30
0.0
11
1.40625
21
-0.22712341226347
31
0.0
  0
LINE
 8
GROUP10
10
1.39117619031891
20
-0.220879635856932
30
0.0
11
1.375
21
-0.218749999999998
31
0.0
  0
LINE
 8
GROUP10
10
1.375
20
-0.218749999999998
30
0.0
11
1.35882380968109
21
-0.220879635856932
31
0.0
  0
LINE
 8
GROUP10
10
1.31462963585693
20
-0.297426190318905
30
0.0
11
1.32087341226347
21
-0.312499999999998
31
0.0
  0
LINE
 8
GROUP10
10
1.32087341226347
20
-0.312499999999998
30
0.0
11
1.33080582617584
21
-0.325444173824158
31
0.0
  0
LINE
 8
GROUP10
10
1.35882380968109
20
-0.220879635856932
30
0.0
11
1.34375
21
-0.22712341226347
31
0.0
  0
LINE
 8
GROUP10
10
1.34375
20
-0.22712341226347
30
0.0
11
1.33080582617584
21
-0.237055826175839
31
0.0
  0
LINE
 8
GROUP10
10
1.32087341226347
20
-11.6875
30
0.0
11
1.31462963585693
21
-11.7025738096811
31
0.0
  0
LINE
 8
GROUP10
10
1.39117619031891
20
-11.6583796358569
30
0.0
11
1.375
21
-11.65625
31
0.0
  0
LINE
 8
GROUP10
10
1.42912658773653
20
-11.6875
30
0.0
11
1.41919417382416
21
-11.6745558261758
31
0.0
  0
LINE
 8
GROUP10
10
1.32087341226347
20
-11.75
30
0.0
11
1.33080582617584
21
-11.7629441738242
31
0.0
  0
LINE
 8
GROUP10
10
1.34375
20
-11.7728765877365
30
0.0
11
1.35882380968109
21
-11.7791203641431
31
0.0
  0
LINE
 8
GROUP10
10
1.31462963585693
20
-11.7025738096811
30
0.0
11
1.3125
21
-11.71875
31
0.0
  0
LINE
 8
GROUP11
10
6.64117619031891
20
-0.341620364143065
30
0.0
11
6.65625
21
-0.335376587736526
31
0.0
  0
LINE
 8
GROUP11
10
6.65625
20
-0.335376587736526
30
0.0
11
6.66919417382416
21
-0.325444173824158
31
0.0
  0
LINE
 8
GROUP11
10
6.58080582617584
20
-0.237055826175839
30
0.0
11
6.57087341226347
21
-0.249999999999998
31
0.0
  0
LINE
 8
GROUP11
10
6.6875
20
-0.281249999999998
30
0.0
11
6.68537036414307
21
-0.265073809681091
31
0.0
  0
LINE
 8
GROUP11
10
6.56462963585693
20
-11.7349261903189
30
0.0
11
6.57087341226347
21
-11.75
31
0.0
  0
LINE
 8
GROUP11
10
6.66919417382416
20
-0.325444173824158
30
0.0
11
6.67912658773653
21
-0.312499999999998
31
0.0
  0
LINE
 8
GROUP11
10
6.67912658773653
20
-0.312499999999998
30
0.0
11
6.68537036414307
21
-0.297426190318905
31
0.0
  0
LINE
 8
GROUP11
10
6.65625
20
-11.6646234122635
30
0.0
11
6.64117619031891
21
-11.6583796358569
31
0.0
  0
LINE
 8
GROUP11
10
6.1875
20
-0.0624999999999982
30
0.0
11
7.0625
21
-0.0624999999999982
31
0.0
  0
LINE
 8
GROUP11
10
6.1875
20
-11.9375
30
0.0
11
6.1875
21
-0.0624999999999982
31
0.0
  0
LINE
 8
GROUP11
10
7.0625
20
-0.0624999999999982
30
0.0
11
7.0625
21
-11.9375
31
0.0
  0
LINE
 8
GROUP11
10
7.0625
20
-11.9375
30
0.0
11
6.1875
21
-11.9375
31
0.0
  0
LINE
 8
GROUP11
10
6.625
20
-0.343749999999998
30
0.0
11
6.64117619031891
21
-0.341620364143065
31
0.0
  0
LINE
 8
GROUP11
10
6.6875
20
-11.71875
30
0.0
11
6.68537036414307
21
-11.7025738096811
31
0.0
  0
LINE
 8
GROUP11
10
6.58080582617584
20
-0.325444173824158
30
0.0
11
6.59375
21
-0.335376587736526
31
0.0
  0
LINE
 8
GROUP11
10
6.59375
20
-0.335376587736526
30
0.0
11
6.60882380968109
21
-0.341620364143065
31
0.0
  0
LINE
 8
GROUP11
10
6.625
20
-11.65625
30
0.0
11
6.60882380968109
21
-11.6583796358569
31
0.0
  0
LINE
 8
GROUP11
10
6.68537036414307
20
-11.7025738096811
30
0.0
11
6.67912658773653
21
-11.6875
31
0.0
  0
LINE
 8
GROUP11
10
6.60882380968109
20
-11.6583796358569
30
0.0
11
6.59375
21
-11.6646234122635
31
0.0
  0
LINE
 8
GROUP11
10
6.60882380968109
20
-0.341620364143065
30
0.0
11
6.625
21
-0.343749999999998
31
0.0
  0
LINE
 8
GROUP11
10
6.66919417382416
20
-11.6745558261758
30
0.0
11
6.65625
21
-11.6646234122635
31
0.0
  0
LINE
 8
GROUP11
10
6.65625
20
-0.22712341226347
30
0.0
11
6.64117619031891
21
-0.220879635856932
31
0.0
  0
LINE
 8
GROUP11
10
6.5625
20
-11.71875
30
0.0
11
6.56462963585693
21
-11.7349261903189
31
0.0
  0
LINE
 8
GROUP11
10
6.58080582617584
20
-11.7629441738242
30
0.0
11
6.59375
21
-11.7728765877365
31
0.0
  0
LINE
 8
GROUP11
10
6.625
20
-11.78125
30
0.0
11
6.64117619031891
21
-11.7791203641431
31
0.0
  0
LINE
 8
GROUP11
10
6.59375
20
-11.6646234122635
30
0.0
11
6.58080582617584
21
-11.6745558261758
31
0.0
  0
LINE
 8
GROUP11
10
6.60882380968109
20
-11.7791203641431
30
0.0
11
6.625
21
-11.78125
31
0.0
  0
LINE
 8
GROUP11
10
6.68537036414307
20
-11.7349261903189
30
0.0
11
6.6875
21
-11.71875
31
0.0
  0
LINE
 8
GROUP11
10
6.66919417382416
20
-11.7629441738242
30
0.0
11
6.67912658773653
21
-11.75
31
0.0
  0
LINE
 8
GROUP11
10
6.57087341226347
20
-0.249999999999998
30
0.0
11
6.56462963585693
21
-0.265073809681091
31
0.0
  0
LINE
 8
GROUP11
10
6.56462963585693
20
-0.265073809681091
30
0.0
11
6.5625
21
-0.281249999999998
31
0.0
  0
LINE
 8
GROUP11
10
6.5625
20
-0.281249999999998
30
0.0
11
6.56462963585693
21
-0.297426190318905
31
0.0
  0
LINE
 8
GROUP11
10
6.65625
20
-11.7728765877365
30
0.0
11
6.66919417382416
21
-11.7629441738242
31
0.0
  0
LINE
 8
GROUP11
10
6.67912658773653
20
-11.75
30
0.0
11
6.68537036414307
21
-11.7349261903189
31
0.0
  0
LINE
 8
GROUP11
10
6.68537036414307
20
-0.297426190318905
30
0.0
11
6.6875
21
-0.281249999999998
31
0.0
  0
LINE
 8
GROUP11
10
6.58080582617584
20
-11.6745558261758
30
0.0
11
6.57087341226347
21
-11.6875
31
0.0
  0
LINE
 8
GROUP11
10
6.64117619031891
20
-11.7791203641431
30
0.0
11
6.65625
21
-11.7728765877365
31
0.0
  0
LINE
 8
GROUP11
10
6.67912658773653
20
-0.249999999999998
30
0.0
11
6.66919417382416
21
-0.237055826175839
31
0.0
  0
LINE
 8
GROUP11
10
6.68537036414307
20
-0.265073809681091
30
0.0
11
6.67912658773653
21
-0.249999999999998
31
0.0
  0
LINE
 8
GROUP11
10
6.66919417382416
20
-0.237055826175839
30
0.0
11
6.65625
21
-0.22712341226347
31
0.0
  0
LINE
 8
GROUP11
10
6.64117619031891
20
-0.220879635856932
30
0.0
11
6.625
21
-0.218749999999998
31
0.0
  0
LINE
 8
GROUP11
10
6.625
20
-0.218749999999998
30
0.0
11
6.60882380968109
21
-0.220879635856932
31
0.0
  0
LINE
 8
GROUP11
10
6.56462963585693
20
-0.297426190318905
30
0.0
11
6.57087341226347
21
-0.312499999999998
31
0.0
  0
LINE
 8
GROUP11
10
6.57087341226347
20
-0.312499999999998
30
0.0
11
6.58080582617584
21
-0.325444173824158
31
0.0
  0
LINE
 8
GROUP11
10
6.60882380968109
20
-0.220879635856932
30
0.0
11
6.59375
21
-0.22712341226347
31
0.0
  0
LINE
 8
GROUP11
10
6.59375
20
-0.22712341226347
30
0.0
11
6.58080582617584
21
-0.237055826175839
31
0.0
  0
LINE
 8
GROUP11
10
6.57087341226347
20
-11.6875
30
0.0
11
6.56462963585693
21
-11.7025738096811
31
0.0
  0
LINE
 8
GROUP11
10
6.64117619031891
20
-11.6583796358569
30
0.0
11
6.625
21
-11.65625
31
0.0
  0
LINE
 8
GROUP11
10
6.67912658773653
20
-11.6875
30
0.0
11
6.66919417382416
21
-11.6745558261758
31
0.0
  0
LINE
 8
GROUP11
10
6.57087341226347
20
-11.75
30
0.0
11
6.58080582617584
21
-11.7629441738242
31
0.0
  0
LINE
 8
GROUP11
10
6.59375
20
-11.7728765877365
30
0.0
11
6.60882380968109
21
-11.7791203641431
31
0.0
  0
LINE
 8
GROUP11
10
6.56462963585693
20
-11.7025738096811
30
0.0
11
6.5625
21
-11.71875
31
0.0
  0
LINE
 8
GROUP12
10
0.516176190318907
20
-0.341620364143065
30
0.0
11
0.53125
21
-0.335376587736526
31
0.0
  0
LINE
 8
GROUP12
10
0.53125
20
-0.335376587736526
30
0.0
11
0.544194173824159
21
-0.325444173824158
31
0.0
  0
LINE
 8
GROUP12
10
0.45580582617584
20
-0.237055826175839
30
0.0
11
0.445873412263473
21
-0.249999999999998
31
0.0
  0
LINE
 8
GROUP12
10
0.562499999999998
20
-0.281249999999998
30
0.0
11
0.560370364143067
21
-0.265073809681091
31
0.0
  0
LINE
 8
GROUP12
10
0.439629635856933
20
-11.7349261903189
30
0.0
11
0.445873412263473
21
-11.75
31
0.0
  0
LINE
 8
GROUP12
10
0.544194173824159
20
-0.325444173824158
30
0.0
11
0.554126587736529
21
-0.312499999999998
31
0.0
  0
LINE
 8
GROUP12
10
0.554126587736529
20
-0.312499999999998
30
0.0
11
0.560370364143067
21
-0.297426190318905
31
0.0
  0
LINE
 8
GROUP12
10
0.53125
20
-11.6646234122635
30
0.0
11
0.516176190318907
21
-11.6583796358569
31
0.0
  0
LINE
 8
GROUP12
10
0.0625
20
-0.0624999999999982
30
0.0
11
0.9375
21
-0.0624999999999982
31
0.0
  0
LINE
 8
GROUP12
10
0.0625
20
-11.9375
30
0.0
11
0.0625
21
-0.0624999999999982
31
0.0
  0
LINE
 8
GROUP12
10
0.9375
20
-0.0624999999999982
30
0.0
11
0.9375
21
-11.9375
31
0.0
  0
LINE
 8
GROUP12
10
0.9375
20
-11.9375
30
0.0
11
0.0625
21
-11.9375
31
0.0
  0
LINE
 8
GROUP12
10
0.5
20
-0.343749999999998
30
0.0
11
0.516176190318907
21
-0.341620364143065
31
0.0
  0
LINE
 8
GROUP12
10
0.562499999999998
20
-11.71875
30
0.0
11
0.560370364143067
21
-11.7025738096811
31
0.0
  0
LINE
 8
GROUP12
10
0.45580582617584
20
-0.325444173824158
30
0.0
11
0.46875
21
-0.335376587736526
31
0.0
  0
LINE
 8
GROUP12
10
0.46875
20
-0.335376587736526
30
0.0
11
0.483823809681092
21
-0.341620364143065
31
0.0
  0
LINE
 8
GROUP12
10
0.5
20
-11.65625
30
0.0
11
0.483823809681092
21
-11.6583796358569
31
0.0
  0
LINE
 8
GROUP12
10
0.560370364143067
20
-11.7025738096811
30
0.0
11
0.554126587736529
21
-11.6875
31
0.0
  0
LINE
 8
GROUP12
10
0.483823809681092
20
-11.6583796358569
30
0.0
11
0.46875
21
-11.6646234122635
31
0.0
  0
LINE
 8
GROUP12
10
0.483823809681092
20
-0.341620364143065
30
0.0
11
0.5
21
-0.343749999999998
31
0.0
  0
LINE
 8
GROUP12
10
0.544194173824159
20
-11.6745558261758
30
0.0
11
0.53125
21
-11.6646234122635
31
0.0
  0
LINE
 8
GROUP12
10
0.53125
20
-0.22712341226347
30
0.0
11
0.516176190318907
21
-0.220879635856932
31
0.0
  0
LINE
 8
GROUP12
10
0.4375
20
-11.71875
30
0.0
11
0.439629635856933
21
-11.7349261903189
31
0.0
  0
LINE
 8
GROUP12
10
0.45580582617584
20
-11.7629441738242
30
0.0
11
0.46875
21
-11.7728765877365
31
0.0
  0
LINE
 8
GROUP12
10
0.5
20
-11.78125
30
0.0
11
0.516176190318907
21
-11.7791203641431
31
0.0
  0
LINE
 8
GROUP12
10
0.46875
20
-11.6646234122635
30
0.0
11
0.45580582617584
21
-11.6745558261758
31
0.0
  0
LINE
 8
GROUP12
10
0.483823809681092
20
-11.7791203641431
30
0.0
11
0.5
21
-11.78125
31
0.0
  0
LINE
 8
GROUP12
10
0.560370364143067
20
-11.7349261903189
30
0.0
11
0.562499999999998
21
-11.71875
31
0.0
  0
LINE
 8
GROUP12
10
0.544194173824159
20
-11.7629441738242
30
0.0
11
0.554126587736529
21
-11.75
31
0.0
  0
LINE
 8
GROUP12
10
0.445873412263473
20
-0.249999999999998
30
0.0
11
0.439629635856933
21
-0.265073809681091
31
0.0
  0
LINE
 8
GROUP12
10
0.439629635856933
20
-0.265073809681091
30
0.0
11
0.4375
21
-0.281249999999998
31
0.0
  0
LINE
 8
GROUP12
10
0.4375
20
-0.281249999999998
30
0.0
11
0.439629635856933
21
-0.297426190318905
31
0.0
  0
LINE
 8
GROUP12
10
0.53125
20
-11.7728765877365
30
0.0
11
0.544194173824159
21
-11.7629441738242
31
0.0
  0
LINE
 8
GROUP12
10
0.554126587736529
20
-11.75
30
0.0
11
0.560370364143067
21
-11.7349261903189
31
0.0
  0
LINE
 8
GROUP12
10
0.560370364143067
20
-0.297426190318905
30
0.0
11
0.562499999999998
21
-0.281249999999998
31
0.0
  0
LINE
 8
GROUP12
10
0.45580582617584
20
-11.6745558261758
30
0.0
11
0.445873412263473
21
-11.6875
31
0.0
  0
LINE
 8
GROUP12
10
0.516176190318907
20
-11.7791203641431
30
0.0
11
0.53125
21
-11.7728765877365
31
0.0
  0
LINE
 8
GROUP12
10
0.554126587736529
20
-0.249999999999998
30
0.0
11
0.544194173824159
21
-0.237055826175839
31
0.0
  0
LINE
 8
GROUP12
10
0.560370364143067
20
-0.265073809681091
30
0.0
11
0.554126587736529
21
-0.249999999999998
31
0.0
  0
LINE
 8
GROUP12
10
0.544194173824159
20
-0.237055826175839
30
0.0
11
0.53125
21
-0.22712341226347
31
0.0
  0
LINE
 8
GROUP12
10
0.516176190318907
20
-0.220879635856932
30
0.0
11
0.5
21
-0.218749999999998
31
0.0
  0
LINE
 8
GROUP12
10
0.5
20
-0.218749999999998
30
0.0
11
0.483823809681092
21
-0.220879635856932
31
0.0
  0
LINE
 8
GROUP12
10
0.439629635856933
20
-0.297426190318905
30
0.0
11
0.445873412263473
21
-0.312499999999998
31
0.0
  0
LINE
 8
GROUP12
10
0.445873412263473
20
-0.312499999999998
30
0.0
11
0.45580582617584
21
-0.325444173824158
31
0.0
  0
LINE
 8
GROUP12
10
0.483823809681092
20
-0.220879635856932
30
0.0
11
0.46875
21
-0.22712341226347
31
0.0
  0
LINE
 8
GROUP12
10
0.46875
20
-0.22712341226347
30
0.0
11
0.45580582617584
21
-0.237055826175839
31
0.0
  0
LINE
 8
GROUP12
10
0.445873412263473
20
-11.6875
30
0.0
11
0.439629635856933
21
-11.7025738096811
31
0.0
  0
LINE
 8
GROUP12
10
0.516176190318907
20
-11.6583796358569
30
0.0
11
0.5
21
-11.65625
31
0.0
  0
LINE
 8
GROUP12
10
0.554126587736529
20
-11.6875
30
0.0
11
0.544194173824159
21
-11.6745558261758
31
0.0
  0
LINE
 8
GROUP12
10
0.445873412263473
20
-11.75
30
0.0
11
0.45580582617584
21
-11.7629441738242
31
0.0
  0
LINE
 8
GROUP12
10
0.46875
20
-11.7728765877365
30
0.0
11
0.483823809681092
21
-11.7791203641431
31
0.0
  0
LINE
 8
GROUP12
10
0.439629635856933
20
-11.7025738096811
30
0.0
11
0.4375
21
-11.71875
31
0.0
  0
LINE
 8
GROUP13
10
11.0161761903189
20
-0.341620364143065
30
0.0
11
11.03125
21
-0.335376587736526
31
0.0
  0
LINE
 8
GROUP13
10
11.03125
20
-0.335376587736526
30
0.0
11
11.0441941738242
21
-0.325444173824158
31
0.0
  0
LINE
 8
GROUP13
10
10.9558058261758
20
-0.237055826175839
30
0.0
11
10.9458734122635
21
-0.249999999999998
31
0.0
  0
LINE
 8
GROUP13
10
11.0625
20
-0.281249999999998
30
0.0
11
11.0603703641431
21
-0.265073809681091
31
0.0
  0
LINE
 8
GROUP13
10
10.9396296358569
20
-11.7349261903189
30
0.0
11
10.9458734122635
21
-11.75
31
0.0
  0
LINE
 8
GROUP13
10
11.0441941738242
20
-0.325444173824158
30
0.0
11
11.0541265877365
21
-0.312499999999998
31
0.0
  0
LINE
 8
GROUP13
10
11.0541265877365
20
-0.312499999999998
30
0.0
11
11.0603703641431
21
-0.297426190318905
31
0.0
  0
LINE
 8
GROUP13
10
11.03125
20
-11.6646234122635
30
0.0
11
11.0161761903189
21
-11.6583796358569
31
0.0
  0
LINE
 8
GROUP13
10
10.5625
20
-0.0624999999999982
30
0.0
11
11.4375
21
-0.0624999999999982
31
0.0
  0
LINE
 8
GROUP13
10
10.5625
20
-11.9375
30
0.0
11
10.5625
21
-0.0624999999999982
31
0.0
  0
LINE
 8
GROUP13
10
11.4375
20
-0.0624999999999982
30
0.0
11
11.4375
21
-11.9375
31
0.0
  0
LINE
 8
GROUP13
10
11.4375
20
-11.9375
30
0.0
11
10.5625
21
-11.9375
31
0.0
  0
LINE
 8
GROUP13
10
11.0
20
-0.343749999999998
30
0.0
11
11.0161761903189
21
-0.341620364143065
31
0.0
  0
LINE
 8
GROUP13
10
11.0625
20
-11.71875
30
0.0
11
11.0603703641431
21
-11.7025738096811
31
0.0
  0
LINE
 8
GROUP13
10
10.9558058261758
20
-0.325444173824158
30
0.0
11
10.96875
21
-0.335376587736526
31
0.0
  0
LINE
 8
GROUP13
10
10.96875
20
-0.335376587736526
30
0.0
11
10.9838238096811
21
-0.341620364143065
31
0.0
  0
LINE
 8
GROUP13
10
11.0
20
-11.65625
30
0.0
11
10.9838238096811
21
-11.6583796358569
31
0.0
  0
LINE
 8
GROUP13
10
11.0603703641431
20
-11.7025738096811
30
0.0
11
11.0541265877365
21
-11.6875
31
0.0
  0
LINE
 8
GROUP13
10
10.9838238096811
20
-11.6583796358569
30
0.0
11
10.96875
21
-11.6646234122635
31
0.0
  0
LINE
 8
GROUP13
10
10.9838238096811
20
-0.341620364143065
30
0.0
11
11.0
21
-0.343749999999998
31
0.0
  0
LINE
 8
GROUP13
10
11.0441941738242
20
-11.6745558261758
30
0.0
11
11.03125
21
-11.6646234122635
31
0.0
  0
LINE
 8
GROUP13
10
11.03125
20
-0.22712341226347
30
0.0
11
11.0161761903189
21
-0.220879635856932
31
0.0
  0
LINE
 8
GROUP13
10
10.9375
20
-11.71875
30
0.0
11
10.9396296358569
21
-11.7349261903189
31
0.0
  0
LINE
 8
GROUP13
10
10.9558058261758
20
-11.7629441738242
30
0.0
11
10.96875
21
-11.7728765877365
31
0.0
  0
LINE
 8
GROUP13
10
11.0
20
-11.78125
30
0.0
11
11.0161761903189
21
-11.7791203641431
31
0.0
  0
LINE
 8
GROUP13
10
10.96875
20
-11.6646234122635
30
0.0
11
10.9558058261758
21
-11.6745558261758
31
0.0
  0
LINE
 8
GROUP13
10
10.9838238096811
20
-11.7791203641431
30
0.0
11
11.0
21
-11.78125
31
0.0
  0
LINE
 8
GROUP13
10
11.0603703641431
20
-11.7349261903189
30
0.0
11
11.0625
21
-11.71875
31
0.0
  0
LINE
 8
GROUP13
10
11.0441941738242
20
-11.7629441738242
30
0.0
11
11.0541265877365
21
-11.75
31
0.0
  0
LINE
 8
GROUP13
10
10.9458734122635
20
-0.249999999999998
30
0.0
11
10.9396296358569
21
-0.265073809681091
31
0.0
  0
LINE
 8
GROUP13
10
10.9396296358569
20
-0.265073809681091
30
0.0
11
10.9375
21
-0.281249999999998
31
0.0
  0
LINE
 8
GROUP13
10
10.9375
20
-0.281249999999998
30
0.0
11
10.9396296358569
21
-0.297426190318905
31
0.0
  0
LINE
 8
GROUP13
10
11.03125
20
-11.7728765877365
30
0.0
11
11.0441941738242
21
-11.7629441738242
31
0.0
  0
LINE
 8
GROUP13
10
11.0541265877365
20
-11.75
30
0.0
11
11.0603703641431
21
-11.7349261903189
31
0.0
  0
LINE
 8
GROUP13
10
11.0603703641431
20
-0.297426190318905
30
0.0
11
11.0625
21
-0.281249999999998
31
0.0
  0
LINE
 8
GROUP13
10
10.9558058261758
20
-11.6745558261758
30
0.0
11
10.9458734122635
21
-11.6875
31
0.0
  0
LINE
 8
GROUP13
10
11.0161761903189
20
-11.7791203641431
30
0.0
11
11.03125
21
-11.7728765877365
31
0.0
  0
LINE
 8
GROUP13
10
11.0541265877365
20
-0.249999999999998
30
0.0
11
11.0441941738242
21
-0.237055826175839
31
0.0
  0
LINE
 8
GROUP13
10
11.0603703641431
20
-0.265073809681091
30
0.0
11
11.0541265877365
21
-0.249999999999998
31
0.0
  0
LINE
 8
GROUP13
10
11.0441941738242
20
-0.237055826175839
30
0.0
11
11.03125
21
-0.22712341226347
31
0.0
  0
LINE
 8
GROUP13
10
11.0161761903189
20
-0.220879635856932
30
0.0
11
11.0
21
-0.218749999999998
31
0.0
  0
LINE
 8
GROUP13
10
11.0
20
-0.218749999999998
30
0.0
11
10.9838238096811
21
-0.220879635856932
31
0.0
  0
LINE
 8
GROUP13
10
10.9396296358569
20
-0.297426190318905
30
0.0
11
10.9458734122635
21
-0.312499999999998
31
0.0
  0
LINE
 8
GROUP13
10
10.9458734122635
20
-0.312499999999998
30
0.0
11
10.9558058261758
21
-0.325444173824158
31
0.0
  0
LINE
 8
GROUP13
10
10.9838238096811
20
-0.220879635856932
30
0.0
11
10.96875
21
-0.22712341226347
31
0.0
  0
LINE
 8
GROUP13
10
10.96875
20
-0.22712341226347
30
0.0
11
10.9558058261758
21
-0.237055826175839
31
0.0
  0
LINE
 8
GROUP13
10
10.9458734122635
20
-11.6875
30
0.0
11
10.9396296358569
21
-11.7025738096811
31
0.0
  0
LINE
 8
GROUP13
10
11.0161761903189
20
-11.6583796358569
30
0.0
11
11.0
21
-11.65625
31
0.0
  0
LINE
 8
GROUP13
10
11.0541265877365
20
-11.6875
30
0.0
11
11.0441941738242
21
-11.6745558261758
31
0.0
  0
LINE
 8
GROUP13
10
10.9458734122635
20
-11.75
30
0.0
11
10.9558058261758
21
-11.7629441738242
31
0.0
  0
LINE
 8
GROUP13
10
10.96875
20
-11.7728765877365
30
0.0
11
10.9838238096811
21
-11.7791203641431
31
0.0
  0
LINE
 8
GROUP13
10
10.9396296358569
20
-11.7025738096811
30
0.0
11
10.9375
21
-11.71875
31
0.0
  0
LINE
 8
GROUP14
10
11.8911761903189
20
-0.341620364143065
30
0.0
11
11.90625
21
-0.335376587736526
31
0.0
  0
LINE
 8
GROUP14
10
11.90625
20
-0.335376587736526
30
0.0
11
11.9191941738242
21
-0.325444173824158
31
0.0
  0
LINE
 8
GROUP14
10
11.8308058261758
20
-0.237055826175839
30
0.0
11
11.8208734122635
21
-0.249999999999998
31
0.0
  0
LINE
 8
GROUP14
10
11.9375
20
-0.281249999999998
30
0.0
11
11.9353703641431
21
-0.265073809681091
31
0.0
  0
LINE
 8
GROUP14
10
11.8146296358569
20
-11.7349261903189
30
0.0
11
11.8208734122635
21
-11.75
31
0.0
  0
LINE
 8
GROUP14
10
11.9191941738242
20
-0.325444173824158
30
0.0
11
11.9291265877365
21
-0.312499999999998
31
0.0
  0
LINE
 8
GROUP14
10
11.9291265877365
20
-0.312499999999998
30
0.0
11
11.9353703641431
21
-0.297426190318905
31
0.0
  0
LINE
 8
GROUP14
10
11.90625
20
-11.6646234122635
30
0.0
11
11.8911761903189
21
-11.6583796358569
31
0.0
  0
LINE
 8
GROUP14
10
11.4375
20
-0.0624999999999982
30
0.0
11
12.3125
21
-0.0624999999999982
31
0.0
  0
LINE
 8
GROUP14
10
11.4375
20
-11.9375
30
0.0
11
11.4375
21
-0.0624999999999982
31
0.0
  0
LINE
 8
GROUP14
10
12.3125
20
-0.0624999999999982
30
0.0
11
12.3125
21
-11.9375
31
0.0
  0
LINE
 8
GROUP14
10
12.3125
20
-11.9375
30
0.0
11
11.4375
21
-11.9375
31
0.0
  0
LINE
 8
GROUP14
10
11.875
20
-0.343749999999998
30
0.0
11
11.8911761903189
21
-0.341620364143065
31
0.0
  0
LINE
 8
GROUP14
10
11.9375
20
-11.71875
30
0.0
11
11.9353703641431
21
-11.7025738096811
31
0.0
  0
LINE
 8
GROUP14
10
11.8308058261758
20
-0.325444173824158
30
0.0
11
11.84375
21
-0.335376587736526
31
0.0
  0
LINE
 8
GROUP14
10
11.84375
20
-0.335376587736526
30
0.0
11
11.8588238096811
21
-0.341620364143065
31
0.0
  0
LINE
 8
GROUP14
10
11.875
20
-11.65625
30
0.0
11
11.8588238096811
21
-11.6583796358569
31
0.0
  0
LINE
 8
GROUP14
10
11.9353703641431
20
-11.7025738096811
30
0.0
11
11.9291265877365
21
-11.6875
31
0.0
  0
LINE
 8
GROUP14
10
11.8588238096811
20
-11.6583796358569
30
0.0
11
11.84375
21
-11.6646234122635
31
0.0
  0
LINE
 8
GROUP14
10
11.8588238096811
20
-0.341620364143065
30
0.0
11
11.875
21
-0.343749999999998
31
0.0
  0
LINE
 8
GROUP14
10
11.9191941738242
20
-11.6745558261758
30
0.0
11
11.90625
21
-11.6646234122635
31
0.0
  0
LINE
 8
GROUP14
10
11.90625
20
-0.22712341226347
30
0.0
11
11.8911761903189
21
-0.220879635856932
31
0.0
  0
LINE
 8
GROUP14
10
11.8125
20
-11.71875
30
0.0
11
11.8146296358569
21
-11.7349261903189
31
0.0
  0
LINE
 8
GROUP14
10
11.8308058261758
20
-11.7629441738242
30
0.0
11
11.84375
21
-11.7728765877365
31
0.0
  0
LINE
 8
GROUP14
10
11.875
20
-11.78125
30
0.0
11
11.8911761903189
21
-11.7791203641431
31
0.0
  0
LINE
 8
GROUP14
10
11.84375
20
-11.6646234122635
30
0.0
11
11.8308058261758
21
-11.6745558261758
31
0.0
  0
LINE
 8
GROUP14
10
11.8588238096811
20
-11.7791203641431
30
0.0
11
11.875
21
-11.78125
31
0.0
  0
LINE
 8
GROUP14
10
11.9353703641431
20
-11.7349261903189
30
0.0
11
11.9375
21
-11.71875
31
0.0
  0
LINE
 8
GROUP14
10
11.9191941738242
20
-11.7629441738242
30
0.0
11
11.9291265877365
21
-11.75
31
0.0
  0
LINE
 8
GROUP14
10
11.8208734122635
20
-0.249999999999998
30
0.0
11
11.8146296358569
21
-0.265073809681091
31
0.0
  0
LINE
 8
GROUP14
10
11.8146296358569
20
-0.265073809681091
30
0.0
11
11.8125
21
-0.281249999999998
31
0.0
  0
LINE
 8
GROUP14
10
11.8125
20
-0.281249999999998
30
0.0
11
11.8146296358569
21
-0.297426190318905
31
0.0
  0
LINE
 8
GROUP14
10
11.90625
20
-11.7728765877365
30
0.0
11
11.9191941738242
21
-11.7629441738242
31
0.0
  0
LINE
 8
GROUP14
10
11.9291265877365
20
-11.75
30
0.0
11
11.9353703641431
21
-11.7349261903189
31
0.0
  0
LINE
 8
GROUP14
10
11.9353703641431
20
-0.297426190318905
30
0.0
11
11.9375
21
-0.281249999999998
31
0.0
  0
LINE
 8
GROUP14
10
11.8308058261758
20
-11.6745558261758
30
0.0
11
11.8208734122635
21
-11.6875
31
0.0
  0
LINE
 8
GROUP14
10
11.8911761903189
20
-11.7791203641431
30
0.0
11
11.90625
21
-11.7728765877365
31
0.0
  0
LINE
 8
GROUP14
10
11.9291265877365
20
-0.249999999999998
30
0.0
11
11.9191941738242
21
-0.237055826175839
31
0.0
  0
LINE
 8
GROUP14
10
11.9353703641431
20
-0.265073809681091
30
0.0
11
11.9291265877365
21
-0.249999999999998
31
0.0
  0
LINE
 8
GROUP14
10
11.9191941738242
20
-0.237055826175839
30
0.0
11
11.90625
21
-0.22712341226347
31
0.0
  0
LINE
 8
GROUP14
10
11.8911761903189
20
-0.220879635856932
30
0.0
11
11.875
21
-0.218749999999998
31
0.0
  0
LINE
 8
GROUP14
10
11.875
20
-0.218749999999998
30
0.0
11
11.8588238096811
21
-0.220879635856932
31
0.0
  0
LINE
 8
GROUP14
10
11.8146296358569
20
-0.297426190318905
30
0.0
11
11.8208734122635
21
-0.312499999999998
31
0.0
  0
LINE
 8
GROUP14
10
11.8208734122635
20
-0.312499999999998
30
0.0
11
11.8308058261758
21
-0.325444173824158
31
0.0
  0
LINE
 8
GROUP14
10
11.8588238096811
20
-0.220879635856932
30
0.0
11
11.84375
21
-0.22712341226347
31
0.0
  0
LINE
 8
GROUP14
10
11.84375
20
-0.22712341226347
30
0.0
11
11.8308058261758
21
-0.237055826175839
31
0.0
  0
LINE
 8
GROUP14
10
11.8208734122635
20
-11.6875
30
0.0
11
11.8146296358569
21
-11.7025738096811
31
0.0
  0
LINE
 8
GROUP14
10
11.8911761903189
20
-11.6583796358569
30
0.0
11
11.875
21
-11.65625
31
0.0
  0
LINE
 8
GROUP14
10
11.9291265877365
20
-11.6875
30
0.0
11
11.9191941738242
21
-11.6745558261758
31
0.0
  0
LINE
 8
GROUP14
10
11.8208734122635
20
-11.75
30
0.0
11
11.8308058261758
21
-11.7629441738242
31
0.0
  0
LINE
 8
GROUP14
10
11.84375
20
-11.7728765877365
30
0.0
11
11.8588238096811
21
-11.7791203641431
31
0.0
  0
LINE
 8
GROUP14
10
11.8146296358569
20
-11.7025738096811
30
0.0
11
11.8125
21
-11.71875
31
0.0
  0
LINE
 8
GROUP15
10
13.6411761903189
20
-0.341620364143065
30
0.0
11
13.65625
21
-0.335376587736526
31
0.0
  0
LINE
 8
GROUP15
10
13.65625
20
-0.335376587736526
30
0.0
11
13.6691941738242
21
-0.325444173824158
31
0.0
  0
LINE
 8
GROUP15
10
13.5808058261758
20
-0.237055826175839
30
0.0
11
13.5708734122635
21
-0.249999999999998
31
0.0
  0
LINE
 8
GROUP15
10
13.6875
20
-0.281249999999998
30
0.0
11
13.6853703641431
21
-0.265073809681091
31
0.0
  0
LINE
 8
GROUP15
10
13.5646296358569
20
-11.7349261903189
30
0.0
11
13.5708734122635
21
-11.75
31
0.0
  0
LINE
 8
GROUP15
10
13.6691941738242
20
-0.325444173824158
30
0.0
11
13.6791265877365
21
-0.312499999999998
31
0.0
  0
LINE
 8
GROUP15
10
13.6791265877365
20
-0.312499999999998
30
0.0
11
13.6853703641431
21
-0.297426190318905
31
0.0
  0
LINE
 8
GROUP15
10
13.65625
20
-11.6646234122635
30
0.0
11
13.6411761903189
21
-11.6583796358569
31
0.0
  0
LINE
 8
GROUP15
10
13.1875
20
-0.0624999999999982
30
0.0
11
14.0625
21
-0.0624999999999982
31
0.0
  0
LINE
 8
GROUP15
10
13.1875
20
-11.9375
30
0.0
11
13.1875
21
-0.0624999999999982
31
0.0
  0
LINE
 8
GROUP15
10
14.0625
20
-0.0624999999999982
30
0.0
11
14.0625
21
-11.9375
31
0.0
  0
LINE
 8
GROUP15
10
14.0625
20
-11.9375
30
0.0
11
13.1875
21
-11.9375
31
0.0
  0
LINE
 8
GROUP15
10
13.625
20
-0.343749999999998
30
0.0
11
13.6411761903189
21
-0.341620364143065
31
0.0
  0
LINE
 8
GROUP15
10
13.6875
20
-11.71875
30
0.0
11
13.6853703641431
21
-11.7025738096811
31
0.0
  0
LINE
 8
GROUP15
10
13.5808058261758
20
-0.325444173824158
30
0.0
11
13.59375
21
-0.335376587736526
31
0.0
  0
LINE
 8
GROUP15
10
13.59375
20
-0.335376587736526
30
0.0
11
13.6088238096811
21
-0.341620364143065
31
0.0
  0
LINE
 8
GROUP15
10
13.625
20
-11.65625
30
0.0
11
13.6088238096811
21
-11.6583796358569
31
0.0
  0
LINE
 8
GROUP15
10
13.6853703641431
20
-11.7025738096811
30
0.0
11
13.6791265877365
21
-11.6875
31
0.0
  0
LINE
 8
GROUP15
10
13.6088238096811
20
-11.6583796358569
30
0.0
11
13.59375
21
-11.6646234122635
31
0.0
  0
LINE
 8
GROUP15
10
13.6088238096811
20
-0.341620364143065
30
0.0
11
13.625
21
-0.343749999999998
31
0.0
  0
LINE
 8
GROUP15
10
13.6691941738242
20
-11.6745558261758
30
0.0
11
13.65625
21
-11.6646234122635
31
0.0
  0
LINE
 8
GROUP15
10
13.65625
20
-0.22712341226347
30
0.0
11
13.6411761903189
21
-0.220879635856932
31
0.0
  0
LINE
 8
GROUP15
10
13.5625
20
-11.71875
30
0.0
11
13.5646296358569
21
-11.7349261903189
31
0.0
  0
LINE
 8
GROUP15
10
13.5808058261758
20
-11.7629441738242
30
0.0
11
13.59375
21
-11.7728765877365
31
0.0
  0
LINE
 8
GROUP15
10
13.625
20
-11.78125
30
0.0
11
13.6411761903189
21
-11.7791203641431
31
0.0
  0
LINE
 8
GROUP15
10
13.59375
20
-11.6646234122635
30
0.0
11
13.5808058261758
21
-11.6745558261758
31
0.0
  0
LINE
 8
GROUP15
10
13.6088238096811
20
-11.7791203641431
30
0.0
11
13.625
21
-11.78125
31
0.0
  0
LINE
 8
GROUP15
10
13.6853703641431
20
-11.7349261903189
30
0.0
11
13.6875
21
-11.71875
31
0.0
  0
LINE
 8
GROUP15
10
13.6691941738242
20
-11.7629441738242
30
0.0
11
13.6791265877365
21
-11.75
31
0.0
  0
LINE
 8
GROUP15
10
13.5708734122635
20
-0.249999999999998
30
0.0
11
13.5646296358569
21
-0.265073809681091
31
0.0
  0
LINE
 8
GROUP15
10
13.5646296358569
20
-0.265073809681091
30
0.0
11
13.5625
21
-0.281249999999998
31
0.0
  0
LINE
 8
GROUP15
10
13.5625
20
-0.281249999999998
30
0.0
11
13.5646296358569
21
-0.297426190318905
31
0.0
  0
LINE
 8
GROUP15
10
13.65625
20
-11.7728765877365
30
0.0
11
13.6691941738242
21
-11.7629441738242
31
0.0
  0
LINE
 8
GROUP15
10
13.6791265877365
20
-11.75
30
0.0
11
13.6853703641431
21
-11.7349261903189
31
0.0
  0
LINE
 8
GROUP15
10
13.6853703641431
20
-0.297426190318905
30
0.0
11
13.6875
21
-0.281249999999998
31
0.0
  0
LINE
 8
GROUP15
10
13.5808058261758
20
-11.6745558261758
30
0.0
11
13.5708734122635
21
-11.6875
31
0.0
  0
LINE
 8
GROUP15
10
13.6411761903189
20
-11.7791203641431
30
0.0
11
13.65625
21
-11.7728765877365
31
0.0
  0
LINE
 8
GROUP15
10
13.6791265877365
20
-0.249999999999998
30
0.0
11
13.6691941738242
21
-0.237055826175839
31
0.0
  0
LINE
 8
GROUP15
10
13.6853703641431
20
-0.265073809681091
30
0.0
11
13.6791265877365
21
-0.249999999999998
31
0.0
  0
LINE
 8
GROUP15
10
13.6691941738242
20
-0.237055826175839
30
0.0
11
13.65625
21
-0.22712341226347
31
0.0
  0
LINE
 8
GROUP15
10
13.6411761903189
20
-0.220879635856932
30
0.0
11
13.625
21
-0.218749999999998
31
0.0
  0
LINE
 8
GROUP15
10
13.625
20
-0.218749999999998
30
0.0
11
13.6088238096811
21
-0.220879635856932
31
0.0
  0
LINE
 8
GROUP15
10
13.5646296358569
20
-0.297426190318905
30
0.0
11
13.5708734122635
21
-0.312499999999998
31
0.0
  0
LINE
 8
GROUP15
10
13.5708734122635
20
-0.312499999999998
30
0.0
11
13.5808058261758
21
-0.325444173824158
31
0.0
  0
LINE
 8
GROUP15
10
13.6088238096811
20
-0.220879635856932
30
0.0
11
13.59375
21
-0.22712341226347
31
0.0
  0
LINE
 8
GROUP15
10
13.59375
20
-0.22712341226347
30
0.0
11
13.5808058261758
21
-0.237055826175839
31
0.0
  0
LINE
 8
GROUP15
10
13.5708734122635
20
-11.6875
30
0.0
11
13.5646296358569
21
-11.7025738096811
31
0.0
  0
LINE
 8
GROUP15
10
13.6411761903189
20
-11.6583796358569
30
0.0
11
13.625
21
-11.65625
31
0.0
  0
LINE
 8
GROUP15
10
13.6791265877365
20
-11.6875
30
0.0
11
13.6691941738242
21
-11.6745558261758
31
0.0
  0
LINE
 8
GROUP15
10
13.5708734122635
20
-11.75
30
0.0
11
13.5808058261758
21
-11.7629441738242
31
0.0
  0
LINE
 8
GROUP15
10
13.59375
20
-11.7728765877365
30
0.0
11
13.6088238096811
21
-11.7791203641431
31
0.0
  0
LINE
 8
GROUP15
10
13.5646296358569
20
-11.7025738096811
30
0.0
11
13.5625
21
-11.71875
31
0.0
  0
LINE
 8
GROUP16
10
22.3911761903189
20
-0.341620364143065
30
0.0
11
22.40625
21
-0.335376587736526
31
0.0
  0
LINE
 8
GROUP16
10
22.40625
20
-0.335376587736526
30
0.0
11
22.4191941738242
21
-0.325444173824158
31
0.0
  0
LINE
 8
GROUP16
10
22.3308058261758
20
-0.237055826175839
30
0.0
11
22.3208734122635
21
-0.249999999999998
31
0.0
  0
LINE
 8
GROUP16
10
22.4375
20
-0.281249999999998
30
0.0
11
22.4353703641431
21
-0.265073809681091
31
0.0
  0
LINE
 8
GROUP16
10
22.3146296358569
20
-11.7349261903189
30
0.0
11
22.3208734122635
21
-11.75
31
0.0
  0
LINE
 8
GROUP16
10
22.4191941738242
20
-0.325444173824158
30
0.0
11
22.4291265877365
21
-0.312499999999998
31
0.0
  0
LINE
 8
GROUP16
10
22.4291265877365
20
-0.312499999999998
30
0.0
11
22.4353703641431
21
-0.297426190318905
31
0.0
  0
LINE
 8
GROUP16
10
22.40625
20
-11.6646234122635
30
0.0
11
22.3911761903189
21
-11.6583796358569
31
0.0
  0
LINE
 8
GROUP16
10
21.9375
20
-0.0624999999999982
30
0.0
11
22.8125
21
-0.0624999999999982
31
0.0
  0
LINE
 8
GROUP16
10
21.9375
20
-11.9375
30
0.0
11
21.9375
21
-0.0624999999999982
31
0.0
  0
LINE
 8
GROUP16
10
22.8125
20
-0.0624999999999982
30
0.0
11
22.8125
21
-11.9375
31
0.0
  0
LINE
 8
GROUP16
10
22.8125
20
-11.9375
30
0.0
11
21.9375
21
-11.9375
31
0.0
  0
LINE
 8
GROUP16
10
22.375
20
-0.343749999999998
30
0.0
11
22.3911761903189
21
-0.341620364143065
31
0.0
  0
LINE
 8
GROUP16
10
22.4375
20
-11.71875
30
0.0
11
22.4353703641431
21
-11.7025738096811
31
0.0
  0
LINE
 8
GROUP16
10
22.3308058261758
20
-0.325444173824158
30
0.0
11
22.34375
21
-0.335376587736526
31
0.0
  0
LINE
 8
GROUP16
10
22.34375
20
-0.335376587736526
30
0.0
11
22.3588238096811
21
-0.341620364143065
31
0.0
  0
LINE
 8
GROUP16
10
22.375
20
-11.65625
30
0.0
11
22.3588238096811
21
-11.6583796358569
31
0.0
  0
LINE
 8
GROUP16
10
22.4353703641431
20
-11.7025738096811
30
0.0
11
22.4291265877365
21
-11.6875
31
0.0
  0
LINE
 8
GROUP16
10
22.3588238096811
20
-11.6583796358569
30
0.0
11
22.34375
21
-11.6646234122635
31
0.0
  0
LINE
 8
GROUP16
10
22.3588238096811
20
-0.341620364143065
30
0.0
11
22.375
21
-0.343749999999998
31
0.0
  0
LINE
 8
GROUP16
10
22.4191941738242
20
-11.6745558261758
30
0.0
11
22.40625
21
-11.6646234122635
31
0.0
  0
LINE
 8
GROUP16
10
22.40625
20
-0.22712341226347
30
0.0
11
22.3911761903189
21
-0.220879635856932
31
0.0
  0
LINE
 8
GROUP16
10
22.3125
20
-11.71875
30
0.0
11
22.3146296358569
21
-11.7349261903189
31
0.0
  0
LINE
 8
GROUP16
10
22.3308058261758
20
-11.7629441738242
30
0.0
11
22.34375
21
-11.7728765877365
31
0.0
  0
LINE
 8
GROUP16
10
22.375
20
-11.78125
30
0.0
11
22.3911761903189
21
-11.7791203641431
31
0.0
  0
LINE
 8
GROUP16
10
22.34375
20
-11.6646234122635
30
0.0
11
22.3308058261758
21
-11.6745558261758
31
0.0
  0
LINE
 8
GROUP16
10
22.3588238096811
20
-11.7791203641431
30
0.0
11
22.375
21
-11.78125
31
0.0
  0
LINE
 8
GROUP16
10
22.4353703641431
20
-11.7349261903189
30
0.0
11
22.4375
21
-11.71875
31
0.0
  0
LINE
 8
GROUP16
10
22.4191941738242
20
-11.7629441738242
30
0.0
11
22.4291265877365
21
-11.75
31
0.0
  0
LINE
 8
GROUP16
10
22.3208734122635
20
-0.249999999999998
30
0.0
11
22.3146296358569
21
-0.265073809681091
31
0.0
  0
LINE
 8
GROUP16
10
22.3146296358569
20
-0.265073809681091
30
0.0
11
22.3125
21
-0.281249999999998
31
0.0
  0
LINE
 8
GROUP16
10
22.3125
20
-0.281249999999998
30
0.0
11
22.3146296358569
21
-0.297426190318905
31
0.0
  0
LINE
 8
GROUP16
10
22.40625
20
-11.7728765877365
30
0.0
11
22.4191941738242
21
-11.7629441738242
31
0.0
  0
LINE
 8
GROUP16
10
22.4291265877365
20
-11.75
30
0.0
11
22.4353703641431
21
-11.7349261903189
31
0.0
  0
LINE
 8
GROUP16
10
22.4353703641431
20
-0.297426190318905
30
0.0
11
22.4375
21
-0.281249999999998
31
0.0
  0
LINE
 8
GROUP16
10
22.3308058261758
20
-11.6745558261758
30
0.0
11
22.3208734122635
21
-11.6875
31
0.0
  0
LINE
 8
GROUP16
10
22.3911761903189
20
-11.7791203641431
30
0.0
11
22.40625
21
-11.7728765877365
31
0.0
  0
LINE
 8
GROUP16
10
22.4291265877365
20
-0.249999999999998
30
0.0
11
22.4191941738242
21
-0.237055826175839
31
0.0
  0
LINE
 8
GROUP16
10
22.4353703641431
20
-0.265073809681091
30
0.0
11
22.4291265877365
21
-0.249999999999998
31
0.0
  0
LINE
 8
GROUP16
10
22.4191941738242
20
-0.237055826175839
30
0.0
11
22.40625
21
-0.22712341226347
31
0.0
  0
LINE
 8
GROUP16
10
22.3911761903189
20
-0.220879635856932
30
0.0
11
22.375
21
-0.218749999999998
31
0.0
  0
LINE
 8
GROUP16
10
22.375
20
-0.218749999999998
30
0.0
11
22.3588238096811
21
-0.220879635856932
31
0.0
  0
LINE
 8
GROUP16
10
22.3146296358569
20
-0.297426190318905
30
0.0
11
22.3208734122635
21
-0.312499999999998
31
0.0
  0
LINE
 8
GROUP16
10
22.3208734122635
20
-0.312499999999998
30
0.0
11
22.3308058261758
21
-0.325444173824158
31
0.0
  0
LINE
 8
GROUP16
10
22.3588238096811
20
-0.220879635856932
30
0.0
11
22.34375
21
-0.22712341226347
31
0.0
  0
LINE
 8
GROUP16
10
22.34375
20
-0.22712341226347
30
0.0
11
22.3308058261758
21
-0.237055826175839
31
0.0
  0
LINE
 8
GROUP16
10
22.3208734122635
20
-11.6875
30
0.0
11
22.3146296358569
21
-11.7025738096811
31
0.0
  0
LINE
 8
GROUP16
10
22.3911761903189
20
-11.6583796358569
30
0.0
11
22.375
21
-11.65625
31
0.0
  0
LINE
 8
GROUP16
10
22.4291265877365
20
-11.6875
30
0.0
11
22.4191941738242
21
-11.6745558261758
31
0.0
  0
LINE
 8
GROUP16
10
22.3208734122635
20
-11.75
30
0.0
11
22.3308058261758
21
-11.7629441738242
31
0.0
  0
LINE
 8
GROUP16
10
22.34375
20
-11.7728765877365
30
0.0
11
22.3588238096811
21
-11.7791203641431
31
0.0
  0
LINE
 8
GROUP16
10
22.3146296358569
20
-11.7025738096811
30
0.0
11
22.3125
21
-11.71875
31
0.0
  0
LINE
 8
GROUP17
10
21.5161761903189
20
-0.341620364143065
30
0.0
11
21.53125
21
-0.335376587736526
31
0.0
  0
LINE
 8
GROUP17
10
21.53125
20
-0.335376587736526
30
0.0
11
21.5441941738242
21
-0.325444173824158
31
0.0
  0
LINE
 8
GROUP17
10
21.4558058261758
20
-0.237055826175839
30
0.0
11
21.4458734122635
21
-0.249999999999998
31
0.0
  0
LINE
 8
GROUP17
10
21.5625
20
-0.281249999999998
30
0.0
11
21.5603703641431
21
-0.265073809681091
31
0.0
  0
LINE
 8
GROUP17
10
21.4396296358569
20
-11.7349261903189
30
0.0
11
21.4458734122635
21
-11.75
31
0.0
  0
LINE
 8
GROUP17
10
21.5441941738242
20
-0.325444173824158
30
0.0
11
21.5541265877365
21
-0.312499999999998
31
0.0
  0
LINE
 8
GROUP17
10
21.5541265877365
20
-0.312499999999998
30
0.0
11
21.5603703641431
21
-0.297426190318905
31
0.0
  0
LINE
 8
GROUP17
10
21.53125
20
-11.6646234122635
30
0.0
11
21.5161761903189
21
-11.6583796358569
31
0.0
  0
LINE
 8
GROUP17
10
21.0625
20
-0.0624999999999982
30
0.0
11
21.9375
21
-0.0624999999999982
31
0.0
  0
LINE
 8
GROUP17
10
21.0625
20
-11.9375
30
0.0
11
21.0625
21
-0.0624999999999982
31
0.0
  0
LINE
 8
GROUP17
10
21.9375
20
-0.0624999999999982
30
0.0
11
21.9375
21
-11.9375
31
0.0
  0
LINE
 8
GROUP17
10
21.9375
20
-11.9375
30
0.0
11
21.0625
21
-11.9375
31
0.0
  0
LINE
 8
GROUP17
10
21.5
20
-0.343749999999998
30
0.0
11
21.5161761903189
21
-0.341620364143065
31
0.0
  0
LINE
 8
GROUP17
10
21.5625
20
-11.71875
30
0.0
11
21.5603703641431
21
-11.7025738096811
31
0.0
  0
LINE
 8
GROUP17
10
21.4558058261758
20
-0.325444173824158
30
0.0
11
21.46875
21
-0.335376587736526
31
0.0
  0
LINE
 8
GROUP17
10
21.46875
20
-0.335376587736526
30
0.0
11
21.4838238096811
21
-0.341620364143065
31
0.0
  0
LINE
 8
GROUP17
10
21.5
20
-11.65625
30
0.0
11
21.4838238096811
21
-11.6583796358569
31
0.0
  0
LINE
 8
GROUP17
10
21.5603703641431
20
-11.7025738096811
30
0.0
11
21.5541265877365
21
-11.6875
31
0.0
  0
LINE
 8
GROUP17
10
21.4838238096811
20
-11.6583796358569
30
0.0
11
21.46875
21
-11.6646234122635
31
0.0
  0
LINE
 8
GROUP17
10
21.4838238096811
20
-0.341620364143065
30
0.0
11
21.5
21
-0.343749999999998
31
0.0
  0
LINE
 8
GROUP17
10
21.5441941738242
20
-11.6745558261758
30
0.0
11
21.53125
21
-11.6646234122635
31
0.0
  0
LINE
 8
GROUP17
10
21.53125
20
-0.22712341226347
30
0.0
11
21.5161761903189
21
-0.220879635856932
31
0.0
  0
LINE
 8
GROUP17
10
21.4375
20
-11.71875
30
0.0
11
21.4396296358569
21
-11.7349261903189
31
0.0
  0
LINE
 8
GROUP17
10
21.4558058261758
20
-11.7629441738242
30
0.0
11
21.46875
21
-11.7728765877365
31
0.0
  0
LINE
 8
GROUP17
10
21.5
20
-11.78125
30
0.0
11
21.5161761903189
21
-11.7791203641431
31
0.0
  0
LINE
 8
GROUP17
10
21.46875
20
-11.6646234122635
30
0.0
11
21.4558058261758
21
-11.6745558261758
31
0.0
  0
LINE
 8
GROUP17
10
21.4838238096811
20
-11.7791203641431
30
0.0
11
21.5
21
-11.78125
31
0.0
  0
LINE
 8
GROUP17
10
21.5603703641431
20
-11.7349261903189
30
0.0
11
21.5625
21
-11.71875
31
0.0
  0
LINE
 8
GROUP17
10
21.5441941738242
20
-11.7629441738242
30
0.0
11
21.5541265877365
21
-11.75
31
0.0
  0
LINE
 8
GROUP17
10
21.4458734122635
20
-0.249999999999998
30
0.0
11
21.4396296358569
21
-0.265073809681091
31
0.0
  0
LINE
 8
GROUP17
10
21.4396296358569
20
-0.265073809681091
30
0.0
11
21.4375
21
-0.281249999999998
31
0.0
  0
LINE
 8
GROUP17
10
21.4375
20
-0.281249999999998
30
0.0
11
21.4396296358569
21
-0.297426190318905
31
0.0
  0
LINE
 8
GROUP17
10
21.53125
20
-11.7728765877365
30
0.0
11
21.5441941738242
21
-11.7629441738242
31
0.0
  0
LINE
 8
GROUP17
10
21.5541265877365
20
-11.75
30
0.0
11
21.5603703641431
21
-11.7349261903189
31
0.0
  0
LINE
 8
GROUP17
10
21.5603703641431
20
-0.297426190318905
30
0.0
11
21.5625
21
-0.281249999999998
31
0.0
  0
LINE
 8
GROUP17
10
21.4558058261758
20
-11.6745558261758
30
0.0
11
21.4458734122635
21
-11.6875
31
0.0
  0
LINE
 8
GROUP17
10
21.5161761903189
20
-11.7791203641431
30
0.0
11
21.53125
21
-11.7728765877365
31
0.0
  0
LINE
 8
GROUP17
10
21.5541265877365
20
-0.249999999999998
30
0.0
11
21.5441941738242
21
-0.237055826175839
31
0.0
  0
LINE
 8
GROUP17
10
21.5603703641431
20
-0.265073809681091
30
0.0
11
21.5541265877365
21
-0.249999999999998
31
0.0
  0
LINE
 8
GROUP17
10
21.5441941738242
20
-0.237055826175839
30
0.0
11
21.53125
21
-0.22712341226347
31
0.0
  0
LINE
 8
GROUP17
10
21.5161761903189
20
-0.220879635856932
30
0.0
11
21.5
21
-0.218749999999998
31
0.0
  0
LINE
 8
GROUP17
10
21.5
20
-0.218749999999998
30
0.0
11
21.4838238096811
21
-0.220879635856932
31
0.0
  0
LINE
 8
GROUP17
10
21.4396296358569
20
-0.297426190318905
30
0.0
11
21.4458734122635
21
-0.312499999999998
31
0.0
  0
LINE
 8
GROUP17
10
21.4458734122635
20
-0.312499999999998
30
0.0
11
21.4558058261758
21
-0.325444173824158
31
0.0
  0
LINE
 8
GROUP17
10
21.4838238096811
20
-0.220879635856932
30
0.0
11
21.46875
21
-0.22712341226347
31
0.0
  0
LINE
 8
GROUP17
10
21.46875
20
-0.22712341226347
30
0.0
11
21.4558058261758
21
-0.237055826175839
31
0.0
  0
LINE
 8
GROUP17
10
21.4458734122635
20
-11.6875
30
0.0
11
21.4396296358569
21
-11.7025738096811
31
0.0
  0
LINE
 8
GROUP17
10
21.5161761903189
20
-11.6583796358569
30
0.0
11
21.5
21
-11.65625
31
0.0
  0
LINE
 8
GROUP17
10
21.5541265877365
20
-11.6875
30
0.0
11
21.5441941738242
21
-11.6745558261758
31
0.0
  0
LINE
 8
GROUP17
10
21.4458734122635
20
-11.75
30
0.0
11
21.4558058261758
21
-11.7629441738242
31
0.0
  0
LINE
 8
GROUP17
10
21.46875
20
-11.7728765877365
30
0.0
11
21.4838238096811
21
-11.7791203641431
31
0.0
  0
LINE
 8
GROUP17
10
21.4396296358569
20
-11.7025738096811
30
0.0
11
21.4375
21
-11.71875
31
0.0
  0
LINE
 8
GROUP18
10
23.2661761903189
20
-0.341620364143065
30
0.0
11
23.28125
21
-0.335376587736526
31
0.0
  0
LINE
 8
GROUP18
10
23.28125
20
-0.335376587736526
30
0.0
11
23.2941941738242
21
-0.325444173824158
31
0.0
  0
LINE
 8
GROUP18
10
23.2058058261758
20
-0.237055826175839
30
0.0
11
23.1958734122635
21
-0.249999999999998
31
0.0
  0
LINE
 8
GROUP18
10
23.3125
20
-0.281249999999998
30
0.0
11
23.3103703641431
21
-0.265073809681091
31
0.0
  0
LINE
 8
GROUP18
10
23.1896296358569
20
-11.7349261903189
30
0.0
11
23.1958734122635
21
-11.75
31
0.0
  0
LINE
 8
GROUP18
10
23.2941941738242
20
-0.325444173824158
30
0.0
11
23.3041265877365
21
-0.312499999999998
31
0.0
  0
LINE
 8
GROUP18
10
23.3041265877365
20
-0.312499999999998
30
0.0
11
23.3103703641431
21
-0.297426190318905
31
0.0
  0
LINE
 8
GROUP18
10
23.28125
20
-11.6646234122635
30
0.0
11
23.2661761903189
21
-11.6583796358569
31
0.0
  0
LINE
 8
GROUP18
10
22.8125
20
-0.0624999999999982
30
0.0
11
23.6875
21
-0.0624999999999982
31
0.0
  0
LINE
 8
GROUP18
10
22.8125
20
-11.9375
30
0.0
11
22.8125
21
-0.0624999999999982
31
0.0
  0
LINE
 8
GROUP18
10
23.6875
20
-0.0624999999999982
30
0.0
11
23.6875
21
-11.9375
31
0.0
  0
LINE
 8
GROUP18
10
23.6875
20
-11.9375
30
0.0
11
22.8125
21
-11.9375
31
0.0
  0
LINE
 8
GROUP18
10
23.25
20
-0.343749999999998
30
0.0
11
23.2661761903189
21
-0.341620364143065
31
0.0
  0
LINE
 8
GROUP18
10
23.3125
20
-11.71875
30
0.0
11
23.3103703641431
21
-11.7025738096811
31
0.0
  0
LINE
 8
GROUP18
10
23.2058058261758
20
-0.325444173824158
30
0.0
11
23.21875
21
-0.335376587736526
31
0.0
  0
LINE
 8
GROUP18
10
23.21875
20
-0.335376587736526
30
0.0
11
23.2338238096811
21
-0.341620364143065
31
0.0
  0
LINE
 8
GROUP18
10
23.25
20
-11.65625
30
0.0
11
23.2338238096811
21
-11.6583796358569
31
0.0
  0
LINE
 8
GROUP18
10
23.3103703641431
20
-11.7025738096811
30
0.0
11
23.3041265877365
21
-11.6875
31
0.0
  0
LINE
 8
GROUP18
10
23.2338238096811
20
-11.6583796358569
30
0.0
11
23.21875
21
-11.6646234122635
31
0.0
  0
LINE
 8
GROUP18
10
23.2338238096811
20
-0.341620364143065
30
0.0
11
23.25
21
-0.343749999999998
31
0.0
  0
LINE
 8
GROUP18
10
23.2941941738242
20
-11.6745558261758
30
0.0
11
23.28125
21
-11.6646234122635
31
0.0
  0
LINE
 8
GROUP18
10
23.28125
20
-0.22712341226347
30
0.0
11
23.2661761903189
21
-0.220879635856932
31
0.0
  0
LINE
 8
GROUP18
10
23.1875
20
-11.71875
30
0.0
11
23.1896296358569
21
-11.7349261903189
31
0.0
  0
LINE
 8
GROUP18
10
23.2058058261758
20
-11.7629441738242
30
0.0
11
23.21875
21
-11.7728765877365
31
0.0
  0
LINE
 8
GROUP18
10
23.25
20
-11.78125
30
0.0
11
23.2661761903189
21
-11.7791203641431
31
0.0
  0
LINE
 8
GROUP18
10
23.21875
20
-11.6646234122635
30
0.0
11
23.2058058261758
21
-11.6745558261758
31
0.0
  0
LINE
 8
GROUP18
10
23.2338238096811
20
-11.7791203641431
30
0.0
11
23.25
21
-11.78125
31
0.0
  0
LINE
 8
GROUP18
10
23.3103703641431
20
-11.7349261903189
30
0.0
11
23.3125
21
-11.71875
31
0.0
  0
LINE
 8
GROUP18
10
23.2941941738242
20
-11.7629441738242
30
0.0
11
23.3041265877365
21
-11.75
31
0.0
  0
LINE
 8
GROUP18
10
23.1958734122635
20
-0.249999999999998
30
0.0
11
23.1896296358569
21
-0.265073809681091
31
0.0
  0
LINE
 8
GROUP18
10
23.1896296358569
20
-0.265073809681091
30
0.0
11
23.1875
21
-0.281249999999998
31
0.0
  0
LINE
 8
GROUP18
10
23.1875
20
-0.281249999999998
30
0.0
11
23.1896296358569
21
-0.297426190318905
31
0.0
  0
LINE
 8
GROUP18
10
23.28125
20
-11.7728765877365
30
0.0
11
23.2941941738242
21
-11.7629441738242
31
0.0
  0
LINE
 8
GROUP18
10
23.3041265877365
20
-11.75
30
0.0
11
23.3103703641431
21
-11.7349261903189
31
0.0
  0
LINE
 8
GROUP18
10
23.3103703641431
20
-0.297426190318905
30
0.0
11
23.3125
21
-0.281249999999998
31
0.0
  0
LINE
 8
GROUP18
10
23.2058058261758
20
-11.6745558261758
30
0.0
11
23.1958734122635
21
-11.6875
31
0.0
  0
LINE
 8
GROUP18
10
23.2661761903189
20
-11.7791203641431
30
0.0
11
23.28125
21
-11.7728765877365
31
0.0
  0
LINE
 8
GROUP18
10
23.3041265877365
20
-0.249999999999998
30
0.0
11
23.2941941738242
21
-0.237055826175839
31
0.0
  0
LINE
 8
GROUP18
10
23.3103703641431
20
-0.265073809681091
30
0.0
11
23.3041265877365
21
-0.249999999999998
31
0.0
  0
LINE
 8
GROUP18
10
23.2941941738242
20
-0.237055826175839
30
0.0
11
23.28125
21
-0.22712341226347
31
0.0
  0
LINE
 8
GROUP18
10
23.2661761903189
20
-0.220879635856932
30
0.0
11
23.25
21
-0.218749999999998
31
0.0
  0
LINE
 8
GROUP18
10
23.25
20
-0.218749999999998
30
0.0
11
23.2338238096811
21
-0.220879635856932
31
0.0
  0
LINE
 8
GROUP18
10
23.1896296358569
20
-0.297426190318905
30
0.0
11
23.1958734122635
21
-0.312499999999998
31
0.0
  0
LINE
 8
GROUP18
10
23.1958734122635
20
-0.312499999999998
30
0.0
11
23.2058058261758
21
-0.325444173824158
31
0.0
  0
LINE
 8
GROUP18
10
23.2338238096811
20
-0.220879635856932
30
0.0
11
23.21875
21
-0.22712341226347
31
0.0
  0
LINE
 8
GROUP18
10
23.21875
20
-0.22712341226347
30
0.0
11
23.2058058261758
21
-0.237055826175839
31
0.0
  0
LINE
 8
GROUP18
10
23.1958734122635
20
-11.6875
30
0.0
11
23.1896296358569
21
-11.7025738096811
31
0.0
  0
LINE
 8
GROUP18
10
23.2661761903189
20
-11.6583796358569
30
0.0
11
23.25
21
-11.65625
31
0.0
  0
LINE
 8
GROUP18
10
23.3041265877365
20
-11.6875
30
0.0
11
23.2941941738242
21
-11.6745558261758
31
0.0
  0
LINE
 8
GROUP18
10
23.1958734122635
20
-11.75
30
0.0
11
23.2058058261758
21
-11.7629441738242
31
0.0
  0
LINE
 8
GROUP18
10
23.21875
20
-11.7728765877365
30
0.0
11
23.2338238096811
21
-11.7791203641431
31
0.0
  0
LINE
 8
GROUP18
10
23.1896296358569
20
-11.7025738096811
30
0.0
11
23.1875
21
-11.71875
31
0.0
  0
LINE
 8
GROUP19
10
2.26617619031891
20
-0.341620364143065
30
0.0
11
2.28125
21
-0.335376587736526
31
0.0
  0
LINE
 8
GROUP19
10
2.28125
20
-0.335376587736526
30
0.0
11
2.29419417382416
21
-0.325444173824158
31
0.0
  0
LINE
 8
GROUP19
10
2.20580582617584
20
-0.237055826175839
30
0.0
11
2.19587341226347
21
-0.249999999999998
31
0.0
  0
LINE
 8
GROUP19
10
2.3125
20
-0.281249999999998
30
0.0
11
2.31037036414307
21
-0.265073809681091
31
0.0
  0
LINE
 8
GROUP19
10
2.18962963585693
20
-11.7349261903189
30
0.0
11
2.19587341226347
21
-11.75
31
0.0
  0
LINE
 8
GROUP19
10
2.29419417382416
20
-0.325444173824158
30
0.0
11
2.30412658773653
21
-0.312499999999998
31
0.0
  0
LINE
 8
GROUP19
10
2.30412658773653
20
-0.312499999999998
30
0.0
11
2.31037036414307
21
-0.297426190318905
31
0.0
  0
LINE
 8
GROUP19
10
2.28125
20
-11.6646234122635
30
0.0
11
2.26617619031891
21
-11.6583796358569
31
0.0
  0
LINE
 8
GROUP19
10
1.8125
20
-0.0624999999999982
30
0.0
11
2.6875
21
-0.0624999999999982
31
0.0
  0
LINE
 8
GROUP19
10
1.8125
20
-11.9375
30
0.0
11
1.8125
21
-0.0624999999999982
31
0.0
  0
LINE
 8
GROUP19
10
2.6875
20
-0.0624999999999982
30
0.0
11
2.6875
21
-11.9375
31
0.0
  0
LINE
 8
GROUP19
10
2.6875
20
-11.9375
30
0.0
11
1.8125
21
-11.9375
31
0.0
  0
LINE
 8
GROUP19
10
2.25
20
-0.343749999999998
30
0.0
11
2.26617619031891
21
-0.341620364143065
31
0.0
  0
LINE
 8
GROUP19
10
2.3125
20
-11.71875
30
0.0
11
2.31037036414307
21
-11.7025738096811
31
0.0
  0
LINE
 8
GROUP19
10
2.20580582617584
20
-0.325444173824158
30
0.0
11
2.21875
21
-0.335376587736526
31
0.0
  0
LINE
 8
GROUP19
10
2.21875
20
-0.335376587736526
30
0.0
11
2.23382380968109
21
-0.341620364143065
31
0.0
  0
LINE
 8
GROUP19
10
2.25
20
-11.65625
30
0.0
11
2.23382380968109
21
-11.6583796358569
31
0.0
  0
LINE
 8
GROUP19
10
2.31037036414307
20
-11.7025738096811
30
0.0
11
2.30412658773653
21
-11.6875
31
0.0
  0
LINE
 8
GROUP19
10
2.23382380968109
20
-11.6583796358569
30
0.0
11
2.21875
21
-11.6646234122635
31
0.0
  0
LINE
 8
GROUP19
10
2.23382380968109
20
-0.341620364143065
30
0.0
11
2.25
21
-0.343749999999998
31
0.0
  0
LINE
 8
GROUP19
10
2.29419417382416
20
-11.6745558261758
30
0.0
11
2.28125
21
-11.6646234122635
31
0.0
  0
LINE
 8
GROUP19
10
2.28125
20
-0.22712341226347
30
0.0
11
2.26617619031891
21
-0.220879635856932
31
0.0
  0
LINE
 8
GROUP19
10
2.1875
20
-11.71875
30
0.0
11
2.18962963585693
21
-11.7349261903189
31
0.0
  0
LINE
 8
GROUP19
10
2.20580582617584
20
-11.7629441738242
30
0.0
11
2.21875
21
-11.7728765877365
31
0.0
  0
LINE
 8
GROUP19
10
2.25
20
-11.78125
30
0.0
11
2.26617619031891
21
-11.7791203641431
31
0.0
  0
LINE
 8
GROUP19
10
2.21875
20
-11.6646234122635
30
0.0
11
2.20580582617584
21
-11.6745558261758
31
0.0
  0
LINE
 8
GROUP19
10
2.23382380968109
20
-11.7791203641431
30
0.0
11
2.25
21
-11.78125
31
0.0
  0
LINE
 8
GROUP19
10
2.31037036414307
20
-11.7349261903189
30
0.0
11
2.3125
21
-11.71875
31
0.0
  0
LINE
 8
GROUP19
10
2.29419417382416
20
-11.7629441738242
30
0.0
11
2.30412658773653
21
-11.75
31
0.0
  0
LINE
 8
GROUP19
10
2.19587341226347
20
-0.249999999999998
30
0.0
11
2.18962963585693
21
-0.265073809681091
31
0.0
  0
LINE
 8
GROUP19
10
2.18962963585693
20
-0.265073809681091
30
0.0
11
2.1875
21
-0.281249999999998
31
0.0
  0
LINE
 8
GROUP19
10
2.1875
20
-0.281249999999998
30
0.0
11
2.18962963585693
21
-0.297426190318905
31
0.0
  0
LINE
 8
GROUP19
10
2.28125
20
-11.7728765877365
30
0.0
11
2.29419417382416
21
-11.7629441738242
31
0.0
  0
LINE
 8
GROUP19
10
2.30412658773653
20
-11.75
30
0.0
11
2.31037036414307
21
-11.7349261903189
31
0.0
  0
LINE
 8
GROUP19
10
2.31037036414307
20
-0.297426190318905
30
0.0
11
2.3125
21
-0.281249999999998
31
0.0
  0
LINE
 8
GROUP19
10
2.20580582617584
20
-11.6745558261758
30
0.0
11
2.19587341226347
21
-11.6875
31
0.0
  0
LINE
 8
GROUP19
10
2.26617619031891
20
-11.7791203641431
30
0.0
11
2.28125
21
-11.7728765877365
31
0.0
  0
LINE
 8
GROUP19
10
2.30412658773653
20
-0.249999999999998
30
0.0
11
2.29419417382416
21
-0.237055826175839
31
0.0
  0
LINE
 8
GROUP19
10
2.31037036414307
20
-0.265073809681091
30
0.0
11
2.30412658773653
21
-0.249999999999998
31
0.0
  0
LINE
 8
GROUP19
10
2.29419417382416
20
-0.237055826175839
30
0.0
11
2.28125
21
-0.22712341226347
31
0.0
  0
LINE
 8
GROUP19
10
2.26617619031891
20
-0.220879635856932
30
0.0
11
2.25
21
-0.218749999999998
31
0.0
  0
LINE
 8
GROUP19
10
2.25
20
-0.218749999999998
30
0.0
11
2.23382380968109
21
-0.220879635856932
31
0.0
  0
LINE
 8
GROUP19
10
2.18962963585693
20
-0.297426190318905
30
0.0
11
2.19587341226347
21
-0.312499999999998
31
0.0
  0
LINE
 8
GROUP19
10
2.19587341226347
20
-0.312499999999998
30
0.0
11
2.20580582617584
21
-0.325444173824158
31
0.0
  0
LINE
 8
GROUP19
10
2.23382380968109
20
-0.220879635856932
30
0.0
11
2.21875
21
-0.22712341226347
31
0.0
  0
LINE
 8
GROUP19
10
2.21875
20
-0.22712341226347
30
0.0
11
2.20580582617584
21
-0.237055826175839
31
0.0
  0
LINE
 8
GROUP19
10
2.19587341226347
20
-11.6875
30
0.0
11
2.18962963585693
21
-11.7025738096811
31
0.0
  0
LINE
 8
GROUP19
10
2.26617619031891
20
-11.6583796358569
30
0.0
11
2.25
21
-11.65625
31
0.0
  0
LINE
 8
GROUP19
10
2.30412658773653
20
-11.6875
30
0.0
11
2.29419417382416
21
-11.6745558261758
31
0.0
  0
LINE
 8
GROUP19
10
2.19587341226347
20
-11.75
30
0.0
11
2.20580582617584
21
-11.7629441738242
31
0.0
  0
LINE
 8
GROUP19
10
2.21875
20
-11.7728765877365
30
0.0
11
2.23382380968109
21
-11.7791203641431
31
0.0
  0
LINE
 8
GROUP19
10
2.18962963585693
20
-11.7025738096811
30
0.0
11
2.1875
21
-11.71875
31
0.0
  0
LINE
 8
GROUP20
10
3.14117619031891
20
-0.341620364143065
30
0.0
11
3.15625
21
-0.335376587736526
31
0.0
  0
LINE
 8
GROUP20
10
3.15625
20
-0.335376587736526
30
0.0
11
3.16919417382416
21
-0.325444173824158
31
0.0
  0
LINE
 8
GROUP20
10
3.08080582617584
20
-0.237055826175839
30
0.0
11
3.07087341226347
21
-0.249999999999998
31
0.0
  0
LINE
 8
GROUP20
10
3.1875
20
-0.281249999999998
30
0.0
11
3.18537036414307
21
-0.265073809681091
31
0.0
  0
LINE
 8
GROUP20
10
3.06462963585693
20
-11.7349261903189
30
0.0
11
3.07087341226347
21
-11.75
31
0.0
  0
LINE
 8
GROUP20
10
3.16919417382416
20
-0.325444173824158
30
0.0
11
3.17912658773653
21
-0.312499999999998
31
0.0
  0
LINE
 8
GROUP20
10
3.17912658773653
20
-0.312499999999998
30
0.0
11
3.18537036414307
21
-0.297426190318905
31
0.0
  0
LINE
 8
GROUP20
10
3.15625
20
-11.6646234122635
30
0.0
11
3.14117619031891
21
-11.6583796358569
31
0.0
  0
LINE
 8
GROUP20
10
2.6875
20
-0.0624999999999982
30
0.0
11
3.5625
21
-0.0624999999999982
31
0.0
  0
LINE
 8
GROUP20
10
2.6875
20
-11.9375
30
0.0
11
2.6875
21
-0.0624999999999982
31
0.0
  0
LINE
 8
GROUP20
10
3.5625
20
-0.0624999999999982
30
0.0
11
3.5625
21
-11.9375
31
0.0
  0
LINE
 8
GROUP20
10
3.5625
20
-11.9375
30
0.0
11
2.6875
21
-11.9375
31
0.0
  0
LINE
 8
GROUP20
10
3.125
20
-0.343749999999998
30
0.0
11
3.14117619031891
21
-0.341620364143065
31
0.0
  0
LINE
 8
GROUP20
10
3.1875
20
-11.71875
30
0.0
11
3.18537036414307
21
-11.7025738096811
31
0.0
  0
LINE
 8
GROUP20
10
3.08080582617584
20
-0.325444173824158
30
0.0
11
3.09375
21
-0.335376587736526
31
0.0
  0
LINE
 8
GROUP20
10
3.09375
20
-0.335376587736526
30
0.0
11
3.10882380968109
21
-0.341620364143065
31
0.0
  0
LINE
 8
GROUP20
10
3.125
20
-11.65625
30
0.0
11
3.10882380968109
21
-11.6583796358569
31
0.0
  0
LINE
 8
GROUP20
10
3.18537036414307
20
-11.7025738096811
30
0.0
11
3.17912658773653
21
-11.6875
31
0.0
  0
LINE
 8
GROUP20
10
3.10882380968109
20
-11.6583796358569
30
0.0
11
3.09375
21
-11.6646234122635
31
0.0
  0
LINE
 8
GROUP20
10
3.10882380968109
20
-0.341620364143065
30
0.0
11
3.125
21
-0.343749999999998
31
0.0
  0
LINE
 8
GROUP20
10
3.16919417382416
20
-11.6745558261758
30
0.0
11
3.15625
21
-11.6646234122635
31
0.0
  0
LINE
 8
GROUP20
10
3.15625
20
-0.22712341226347
30
0.0
11
3.14117619031891
21
-0.220879635856932
31
0.0
  0
LINE
 8
GROUP20
10
3.0625
20
-11.71875
30
0.0
11
3.06462963585693
21
-11.7349261903189
31
0.0
  0
LINE
 8
GROUP20
10
3.08080582617584
20
-11.7629441738242
30
0.0
11
3.09375
21
-11.7728765877365
31
0.0
  0
LINE
 8
GROUP20
10
3.125
20
-11.78125
30
0.0
11
3.14117619031891
21
-11.7791203641431
31
0.0
  0
LINE
 8
GROUP20
10
3.09375
20
-11.6646234122635
30
0.0
11
3.08080582617584
21
-11.6745558261758
31
0.0
  0
LINE
 8
GROUP20
10
3.10882380968109
20
-11.7791203641431
30
0.0
11
3.125
21
-11.78125
31
0.0
  0
LINE
 8
GROUP20
10
3.18537036414307
20
-11.7349261903189
30
0.0
11
3.1875
21
-11.71875
31
0.0
  0
LINE
 8
GROUP20
10
3.16919417382416
20
-11.7629441738242
30
0.0
11
3.17912658773653
21
-11.75
31
0.0
  0
LINE
 8
GROUP20
10
3.07087341226347
20
-0.249999999999998
30
0.0
11
3.06462963585693
21
-0.265073809681091
31
0.0
  0
LINE
 8
GROUP20
10
3.06462963585693
20
-0.265073809681091
30
0.0
11
3.0625
21
-0.281249999999998
31
0.0
  0
LINE
 8
GROUP20
10
3.0625
20
-0.281249999999998
30
0.0
11
3.06462963585693
21
-0.297426190318905
31
0.0
  0
LINE
 8
GROUP20
10
3.15625
20
-11.7728765877365
30
0.0
11
3.16919417382416
21
-11.7629441738242
31
0.0
  0
LINE
 8
GROUP20
10
3.17912658773653
20
-11.75
30
0.0
11
3.18537036414307
21
-11.7349261903189
31
0.0
  0
LINE
 8
GROUP20
10
3.18537036414307
20
-0.297426190318905
30
0.0
11
3.1875
21
-0.281249999999998
31
0.0
  0
LINE
 8
GROUP20
10
3.08080582617584
20
-11.6745558261758
30
0.0
11
3.07087341226347
21
-11.6875
31
0.0
  0
LINE
 8
GROUP20
10
3.14117619031891
20
-11.7791203641431
30
0.0
11
3.15625
21
-11.7728765877365
31
0.0
  0
LINE
 8
GROUP20
10
3.17912658773653
20
-0.249999999999998
30
0.0
11
3.16919417382416
21
-0.237055826175839
31
0.0
  0
LINE
 8
GROUP20
10
3.18537036414307
20
-0.265073809681091
30
0.0
11
3.17912658773653
21
-0.249999999999998
31
0.0
  0
LINE
 8
GROUP20
10
3.16919417382416
20
-0.237055826175839
30
0.0
11
3.15625
21
-0.22712341226347
31
0.0
  0
LINE
 8
GROUP20
10
3.14117619031891
20
-0.220879635856932
30
0.0
11
3.125
21
-0.218749999999998
31
0.0
  0
LINE
 8
GROUP20
10
3.125
20
-0.218749999999998
30
0.0
11
3.10882380968109
21
-0.220879635856932
31
0.0
  0
LINE
 8
GROUP20
10
3.06462963585693
20
-0.297426190318905
30
0.0
11
3.07087341226347
21
-0.312499999999998
31
0.0
  0
LINE
 8
GROUP20
10
3.07087341226347
20
-0.312499999999998
30
0.0
11
3.08080582617584
21
-0.325444173824158
31
0.0
  0
LINE
 8
GROUP20
10
3.10882380968109
20
-0.220879635856932
30
0.0
11
3.09375
21
-0.22712341226347
31
0.0
  0
LINE
 8
GROUP20
10
3.09375
20
-0.22712341226347
30
0.0
11
3.08080582617584
21
-0.237055826175839
31
0.0
  0
LINE
 8
GROUP20
10
3.07087341226347
20
-11.6875
30
0.0
11
3.06462963585693
21
-11.7025738096811
31
0.0
  0
LINE
 8
GROUP20
10
3.14117619031891
20
-11.6583796358569
30
0.0
11
3.125
21
-11.65625
31
0.0
  0
LINE
 8
GROUP20
10
3.17912658773653
20
-11.6875
30
0.0
11
3.16919417382416
21
-11.6745558261758
31
0.0
  0
LINE
 8
GROUP20
10
3.07087341226347
20
-11.75
30
0.0
11
3.08080582617584
21
-11.7629441738242
31
0.0
  0
LINE
 8
GROUP20
10
3.09375
20
-11.7728765877365
30
0.0
11
3.10882380968109
21
-11.7791203641431
31
0.0
  0
LINE
 8
GROUP20
10
3.06462963585693
20
-11.7025738096811
30
0.0
11
3.0625
21
-11.71875
31
0.0
  0
LINE
 8
GROUP21
10
17.1411761903189
20
-0.341620364143065
30
0.0
11
17.15625
21
-0.335376587736526
31
0.0
  0
LINE
 8
GROUP21
10
17.15625
20
-0.335376587736526
30
0.0
11
17.1691941738242
21
-0.325444173824158
31
0.0
  0
LINE
 8
GROUP21
10
17.0808058261758
20
-0.237055826175839
30
0.0
11
17.0708734122635
21
-0.249999999999998
31
0.0
  0
LINE
 8
GROUP21
10
17.1875
20
-0.281249999999998
30
0.0
11
17.1853703641431
21
-0.265073809681091
31
0.0
  0
LINE
 8
GROUP21
10
17.0646296358569
20
-11.7349261903189
30
0.0
11
17.0708734122635
21
-11.75
31
0.0
  0
LINE
 8
GROUP21
10
17.1691941738242
20
-0.325444173824158
30
0.0
11
17.1791265877365
21
-0.312499999999998
31
0.0
  0
LINE
 8
GROUP21
10
17.1791265877365
20
-0.312499999999998
30
0.0
11
17.1853703641431
21
-0.297426190318905
31
0.0
  0
LINE
 8
GROUP21
10
17.15625
20
-11.6646234122635
30
0.0
11
17.1411761903189
21
-11.6583796358569
31
0.0
  0
LINE
 8
GROUP21
10
16.6875
20
-0.0624999999999982
30
0.0
11
17.5625
21
-0.0624999999999982
31
0.0
  0
LINE
 8
GROUP21
10
16.6875
20
-11.9375
30
0.0
11
16.6875
21
-0.0624999999999982
31
0.0
  0
LINE
 8
GROUP21
10
17.5625
20
-0.0624999999999982
30
0.0
11
17.5625
21
-11.9375
31
0.0
  0
LINE
 8
GROUP21
10
17.5625
20
-11.9375
30
0.0
11
16.6875
21
-11.9375
31
0.0
  0
LINE
 8
GROUP21
10
17.125
20
-0.343749999999998
30
0.0
11
17.1411761903189
21
-0.341620364143065
31
0.0
  0
LINE
 8
GROUP21
10
17.1875
20
-11.71875
30
0.0
11
17.1853703641431
21
-11.7025738096811
31
0.0
  0
LINE
 8
GROUP21
10
17.0808058261758
20
-0.325444173824158
30
0.0
11
17.09375
21
-0.335376587736526
31
0.0
  0
LINE
 8
GROUP21
10
17.09375
20
-0.335376587736526
30
0.0
11
17.1088238096811
21
-0.341620364143065
31
0.0
  0
LINE
 8
GROUP21
10
17.125
20
-11.65625
30
0.0
11
17.1088238096811
21
-11.6583796358569
31
0.0
  0
LINE
 8
GROUP21
10
17.1853703641431
20
-11.7025738096811
30
0.0
11
17.1791265877365
21
-11.6875
31
0.0
  0
LINE
 8
GROUP21
10
17.1088238096811
20
-11.6583796358569
30
0.0
11
17.09375
21
-11.6646234122635
31
0.0
  0
LINE
 8
GROUP21
10
17.1088238096811
20
-0.341620364143065
30
0.0
11
17.125
21
-0.343749999999998
31
0.0
  0
LINE
 8
GROUP21
10
17.1691941738242
20
-11.6745558261758
30
0.0
11
17.15625
21
-11.6646234122635
31
0.0
  0
LINE
 8
GROUP21
10
17.15625
20
-0.22712341226347
30
0.0
11
17.1411761903189
21
-0.220879635856932
31
0.0
  0
LINE
 8
GROUP21
10
17.0625
20
-11.71875
30
0.0
11
17.0646296358569
21
-11.7349261903189
31
0.0
  0
LINE
 8
GROUP21
10
17.0808058261758
20
-11.7629441738242
30
0.0
11
17.09375
21
-11.7728765877365
31
0.0
  0
LINE
 8
GROUP21
10
17.125
20
-11.78125
30
0.0
11
17.1411761903189
21
-11.7791203641431
31
0.0
  0
LINE
 8
GROUP21
10
17.09375
20
-11.6646234122635
30
0.0
11
17.0808058261758
21
-11.6745558261758
31
0.0
  0
LINE
 8
GROUP21
10
17.1088238096811
20
-11.7791203641431
30
0.0
11
17.125
21
-11.78125
31
0.0
  0
LINE
 8
GROUP21
10
17.1853703641431
20
-11.7349261903189
30
0.0
11
17.1875
21
-11.71875
31
0.0
  0
LINE
 8
GROUP21
10
17.1691941738242
20
-11.7629441738242
30
0.0
11
17.1791265877365
21
-11.75
31
0.0
  0
LINE
 8
GROUP21
10
17.0708734122635
20
-0.249999999999998
30
0.0
11
17.0646296358569
21
-0.265073809681091
31
0.0
  0
LINE
 8
GROUP21
10
17.0646296358569
20
-0.265073809681091
30
0.0
11
17.0625
21
-0.281249999999998
31
0.0
  0
LINE
 8
GROUP21
10
17.0625
20
-0.281249999999998
30
0.0
11
17.0646296358569
21
-0.297426190318905
31
0.0
  0
LINE
 8
GROUP21
10
17.15625
20
-11.7728765877365
30
0.0
11
17.1691941738242
21
-11.7629441738242
31
0.0
  0
LINE
 8
GROUP21
10
17.1791265877365
20
-11.75
30
0.0
11
17.1853703641431
21
-11.7349261903189
31
0.0
  0
LINE
 8
GROUP21
10
17.1853703641431
20
-0.297426190318905
30
0.0
11
17.1875
21
-0.281249999999998
31
0.0
  0
LINE
 8
GROUP21
10
17.0808058261758
20
-11.6745558261758
30
0.0
11
17.0708734122635
21
-11.6875
31
0.0
  0
LINE
 8
GROUP21
10
17.1411761903189
20
-11.7791203641431
30
0.0
11
17.15625
21
-11.7728765877365
31
0.0
  0
LINE
 8
GROUP21
10
17.1791265877365
20
-0.249999999999998
30
0.0
11
17.1691941738242
21
-0.237055826175839
31
0.0
  0
LINE
 8
GROUP21
10
17.1853703641431
20
-0.265073809681091
30
0.0
11
17.1791265877365
21
-0.249999999999998
31
0.0
  0
LINE
 8
GROUP21
10
17.1691941738242
20
-0.237055826175839
30
0.0
11
17.15625
21
-0.22712341226347
31
0.0
  0
LINE
 8
GROUP21
10
17.1411761903189
20
-0.220879635856932
30
0.0
11
17.125
21
-0.218749999999998
31
0.0
  0
LINE
 8
GROUP21
10
17.125
20
-0.218749999999998
30
0.0
11
17.1088238096811
21
-0.220879635856932
31
0.0
  0
LINE
 8
GROUP21
10
17.0646296358569
20
-0.297426190318905
30
0.0
11
17.0708734122635
21
-0.312499999999998
31
0.0
  0
LINE
 8
GROUP21
10
17.0708734122635
20
-0.312499999999998
30
0.0
11
17.0808058261758
21
-0.325444173824158
31
0.0
  0
LINE
 8
GROUP21
10
17.1088238096811
20
-0.220879635856932
30
0.0
11
17.09375
21
-0.22712341226347
31
0.0
  0
LINE
 8
GROUP21
10
17.09375
20
-0.22712341226347
30
0.0
11
17.0808058261758
21
-0.237055826175839
31
0.0
  0
LINE
 8
GROUP21
10
17.0708734122635
20
-11.6875
30
0.0
11
17.0646296358569
21
-11.7025738096811
31
0.0
  0
LINE
 8
GROUP21
10
17.1411761903189
20
-11.6583796358569
30
0.0
11
17.125
21
-11.65625
31
0.0
  0
LINE
 8
GROUP21
10
17.1791265877365
20
-11.6875
30
0.0
11
17.1691941738242
21
-11.6745558261758
31
0.0
  0
LINE
 8
GROUP21
10
17.0708734122635
20
-11.75
30
0.0
11
17.0808058261758
21
-11.7629441738242
31
0.0
  0
LINE
 8
GROUP21
10
17.09375
20
-11.7728765877365
30
0.0
11
17.1088238096811
21
-11.7791203641431
31
0.0
  0
LINE
 8
GROUP21
10
17.0646296358569
20
-11.7025738096811
30
0.0
11
17.0625
21
-11.71875
31
0.0
  0
LINE
 8
GROUP22
10
15.3911761903189
20
-0.341620364143065
30
0.0
11
15.40625
21
-0.335376587736526
31
0.0
  0
LINE
 8
GROUP22
10
15.40625
20
-0.335376587736526
30
0.0
11
15.4191941738242
21
-0.325444173824158
31
0.0
  0
LINE
 8
GROUP22
10
15.3308058261758
20
-0.237055826175839
30
0.0
11
15.3208734122635
21
-0.249999999999998
31
0.0
  0
LINE
 8
GROUP22
10
15.4375
20
-0.281249999999998
30
0.0
11
15.4353703641431
21
-0.265073809681091
31
0.0
  0
LINE
 8
GROUP22
10
15.3146296358569
20
-11.7349261903189
30
0.0
11
15.3208734122635
21
-11.75
31
0.0
  0
LINE
 8
GROUP22
10
15.4191941738242
20
-0.325444173824158
30
0.0
11
15.4291265877365
21
-0.312499999999998
31
0.0
  0
LINE
 8
GROUP22
10
15.4291265877365
20
-0.312499999999998
30
0.0
11
15.4353703641431
21
-0.297426190318905
31
0.0
  0
LINE
 8
GROUP22
10
15.40625
20
-11.6646234122635
30
0.0
11
15.3911761903189
21
-11.6583796358569
31
0.0
  0
LINE
 8
GROUP22
10
14.9375
20
-0.0624999999999982
30
0.0
11
15.8125
21
-0.0624999999999982
31
0.0
  0
LINE
 8
GROUP22
10
14.9375
20
-11.9375
30
0.0
11
14.9375
21
-0.0624999999999982
31
0.0
  0
LINE
 8
GROUP22
10
15.8125
20
-0.0624999999999982
30
0.0
11
15.8125
21
-11.9375
31
0.0
  0
LINE
 8
GROUP22
10
15.8125
20
-11.9375
30
0.0
11
14.9375
21
-11.9375
31
0.0
  0
LINE
 8
GROUP22
10
15.375
20
-0.343749999999998
30
0.0
11
15.3911761903189
21
-0.341620364143065
31
0.0
  0
LINE
 8
GROUP22
10
15.4375
20
-11.71875
30
0.0
11
15.4353703641431
21
-11.7025738096811
31
0.0
  0
LINE
 8
GROUP22
10
15.3308058261758
20
-0.325444173824158
30
0.0
11
15.34375
21
-0.335376587736526
31
0.0
  0
LINE
 8
GROUP22
10
15.34375
20
-0.335376587736526
30
0.0
11
15.3588238096811
21
-0.341620364143065
31
0.0
  0
LINE
 8
GROUP22
10
15.375
20
-11.65625
30
0.0
11
15.3588238096811
21
-11.6583796358569
31
0.0
  0
LINE
 8
GROUP22
10
15.4353703641431
20
-11.7025738096811
30
0.0
11
15.4291265877365
21
-11.6875
31
0.0
  0
LINE
 8
GROUP22
10
15.3588238096811
20
-11.6583796358569
30
0.0
11
15.34375
21
-11.6646234122635
31
0.0
  0
LINE
 8
GROUP22
10
15.3588238096811
20
-0.341620364143065
30
0.0
11
15.375
21
-0.343749999999998
31
0.0
  0
LINE
 8
GROUP22
10
15.4191941738242
20
-11.6745558261758
30
0.0
11
15.40625
21
-11.6646234122635
31
0.0
  0
LINE
 8
GROUP22
10
15.40625
20
-0.22712341226347
30
0.0
11
15.3911761903189
21
-0.220879635856932
31
0.0
  0
LINE
 8
GROUP22
10
15.3125
20
-11.71875
30
0.0
11
15.3146296358569
21
-11.7349261903189
31
0.0
  0
LINE
 8
GROUP22
10
15.3308058261758
20
-11.7629441738242
30
0.0
11
15.34375
21
-11.7728765877365
31
0.0
  0
LINE
 8
GROUP22
10
15.375
20
-11.78125
30
0.0
11
15.3911761903189
21
-11.7791203641431
31
0.0
  0
LINE
 8
GROUP22
10
15.34375
20
-11.6646234122635
30
0.0
11
15.3308058261758
21
-11.6745558261758
31
0.0
  0
LINE
 8
GROUP22
10
15.3588238096811
20
-11.7791203641431
30
0.0
11
15.375
21
-11.78125
31
0.0
  0
LINE
 8
GROUP22
10
15.4353703641431
20
-11.7349261903189
30
0.0
11
15.4375
21
-11.71875
31
0.0
  0
LINE
 8
GROUP22
10
15.4191941738242
20
-11.7629441738242
30
0.0
11
15.4291265877365
21
-11.75
31
0.0
  0
LINE
 8
GROUP22
10
15.3208734122635
20
-0.249999999999998
30
0.0
11
15.3146296358569
21
-0.265073809681091
31
0.0
  0
LINE
 8
GROUP22
10
15.3146296358569
20
-0.265073809681091
30
0.0
11
15.3125
21
-0.281249999999998
31
0.0
  0
LINE
 8
GROUP22
10
15.3125
20
-0.281249999999998
30
0.0
11
15.3146296358569
21
-0.297426190318905
31
0.0
  0
LINE
 8
GROUP22
10
15.40625
20
-11.7728765877365
30
0.0
11
15.4191941738242
21
-11.7629441738242
31
0.0
  0
LINE
 8
GROUP22
10
15.4291265877365
20
-11.75
30
0.0
11
15.4353703641431
21
-11.7349261903189
31
0.0
  0
LINE
 8
GROUP22
10
15.4353703641431
20
-0.297426190318905
30
0.0
11
15.4375
21
-0.281249999999998
31
0.0
  0
LINE
 8
GROUP22
10
15.3308058261758
20
-11.6745558261758
30
0.0
11
15.3208734122635
21
-11.6875
31
0.0
  0
LINE
 8
GROUP22
10
15.3911761903189
20
-11.7791203641431
30
0.0
11
15.40625
21
-11.7728765877365
31
0.0
  0
LINE
 8
GROUP22
10
15.4291265877365
20
-0.249999999999998
30
0.0
11
15.4191941738242
21
-0.237055826175839
31
0.0
  0
LINE
 8
GROUP22
10
15.4353703641431
20
-0.265073809681091
30
0.0
11
15.4291265877365
21
-0.249999999999998
31
0.0
  0
LINE
 8
GROUP22
10
15.4191941738242
20
-0.237055826175839
30
0.0
11
15.40625
21
-0.22712341226347
31
0.0
  0
LINE
 8
GROUP22
10
15.3911761903189
20
-0.220879635856932
30
0.0
11
15.375
21
-0.218749999999998
31
0.0
  0
LINE
 8
GROUP22
10
15.375
20
-0.218749999999998
30
0.0
11
15.3588238096811
21
-0.220879635856932
31
0.0
  0
LINE
 8
GROUP22
10
15.3146296358569
20
-0.297426190318905
30
0.0
11
15.3208734122635
21
-0.312499999999998
31
0.0
  0
LINE
 8
GROUP22
10
15.3208734122635
20
-0.312499999999998
30
0.0
11
15.3308058261758
21
-0.325444173824158
31
0.0
  0
LINE
 8
GROUP22
10
15.3588238096811
20
-0.220879635856932
30
0.0
11
15.34375
21
-0.22712341226347
31
0.0
  0
LINE
 8
GROUP22
10
15.34375
20
-0.22712341226347
30
0.0
11
15.3308058261758
21
-0.237055826175839
31
0.0
  0
LINE
 8
GROUP22
10
15.3208734122635
20
-11.6875
30
0.0
11
15.3146296358569
21
-11.7025738096811
31
0.0
  0
LINE
 8
GROUP22
10
15.3911761903189
20
-11.6583796358569
30
0.0
11
15.375
21
-11.65625
31
0.0
  0
LINE
 8
GROUP22
10
15.4291265877365
20
-11.6875
30
0.0
11
15.4191941738242
21
-11.6745558261758
31
0.0
  0
LINE
 8
GROUP22
10
15.3208734122635
20
-11.75
30
0.0
11
15.3308058261758
21
-11.7629441738242
31
0.0
  0
LINE
 8
GROUP22
10
15.34375
20
-11.7728765877365
30
0.0
11
15.3588238096811
21
-11.7791203641431
31
0.0
  0
LINE
 8
GROUP22
10
15.3146296358569
20
-11.7025738096811
30
0.0
11
15.3125
21
-11.71875
31
0.0
  0
LINE
 8
GROUP23
10
14.5161761903189
20
-0.341620364143065
30
0.0
11
14.53125
21
-0.335376587736526
31
0.0
  0
LINE
 8
GROUP23
10
14.53125
20
-0.335376587736526
30
0.0
11
14.5441941738242
21
-0.325444173824158
31
0.0
  0
LINE
 8
GROUP23
10
14.4558058261758
20
-0.237055826175839
30
0.0
11
14.4458734122635
21
-0.249999999999998
31
0.0
  0
LINE
 8
GROUP23
10
14.5625
20
-0.281249999999998
30
0.0
11
14.5603703641431
21
-0.265073809681091
31
0.0
  0
LINE
 8
GROUP23
10
14.4396296358569
20
-11.7349261903189
30
0.0
11
14.4458734122635
21
-11.75
31
0.0
  0
LINE
 8
GROUP23
10
14.5441941738242
20
-0.325444173824158
30
0.0
11
14.5541265877365
21
-0.312499999999998
31
0.0
  0
LINE
 8
GROUP23
10
14.5541265877365
20
-0.312499999999998
30
0.0
11
14.5603703641431
21
-0.297426190318905
31
0.0
  0
LINE
 8
GROUP23
10
14.53125
20
-11.6646234122635
30
0.0
11
14.5161761903189
21
-11.6583796358569
31
0.0
  0
LINE
 8
GROUP23
10
14.0625
20
-0.0624999999999982
30
0.0
11
14.9375
21
-0.0624999999999982
31
0.0
  0
LINE
 8
GROUP23
10
14.0625
20
-11.9375
30
0.0
11
14.0625
21
-0.0624999999999982
31
0.0
  0
LINE
 8
GROUP23
10
14.9375
20
-0.0624999999999982
30
0.0
11
14.9375
21
-11.9375
31
0.0
  0
LINE
 8
GROUP23
10
14.9375
20
-11.9375
30
0.0
11
14.0625
21
-11.9375
31
0.0
  0
LINE
 8
GROUP23
10
14.5
20
-0.343749999999998
30
0.0
11
14.5161761903189
21
-0.341620364143065
31
0.0
  0
LINE
 8
GROUP23
10
14.5625
20
-11.71875
30
0.0
11
14.5603703641431
21
-11.7025738096811
31
0.0
  0
LINE
 8
GROUP23
10
14.4558058261758
20
-0.325444173824158
30
0.0
11
14.46875
21
-0.335376587736526
31
0.0
  0
LINE
 8
GROUP23
10
14.46875
20
-0.335376587736526
30
0.0
11
14.4838238096811
21
-0.341620364143065
31
0.0
  0
LINE
 8
GROUP23
10
14.5
20
-11.65625
30
0.0
11
14.4838238096811
21
-11.6583796358569
31
0.0
  0
LINE
 8
GROUP23
10
14.5603703641431
20
-11.7025738096811
30
0.0
11
14.5541265877365
21
-11.6875
31
0.0
  0
LINE
 8
GROUP23
10
14.4838238096811
20
-11.6583796358569
30
0.0
11
14.46875
21
-11.6646234122635
31
0.0
  0
LINE
 8
GROUP23
10
14.4838238096811
20
-0.341620364143065
30
0.0
11
14.5
21
-0.343749999999998
31
0.0
  0
LINE
 8
GROUP23
10
14.5441941738242
20
-11.6745558261758
30
0.0
11
14.53125
21
-11.6646234122635
31
0.0
  0
LINE
 8
GROUP23
10
14.53125
20
-0.22712341226347
30
0.0
11
14.5161761903189
21
-0.220879635856932
31
0.0
  0
LINE
 8
GROUP23
10
14.4375
20
-11.71875
30
0.0
11
14.4396296358569
21
-11.7349261903189
31
0.0
  0
LINE
 8
GROUP23
10
14.4558058261758
20
-11.7629441738242
30
0.0
11
14.46875
21
-11.7728765877365
31
0.0
  0
LINE
 8
GROUP23
10
14.5
20
-11.78125
30
0.0
11
14.5161761903189
21
-11.7791203641431
31
0.0
  0
LINE
 8
GROUP23
10
14.46875
20
-11.6646234122635
30
0.0
11
14.4558058261758
21
-11.6745558261758
31
0.0
  0
LINE
 8
GROUP23
10
14.4838238096811
20
-11.7791203641431
30
0.0
11
14.5
21
-11.78125
31
0.0
  0
LINE
 8
GROUP23
10
14.5603703641431
20
-11.7349261903189
30
0.0
11
14.5625
21
-11.71875
31
0.0
  0
LINE
 8
GROUP23
10
14.5441941738242
20
-11.7629441738242
30
0.0
11
14.5541265877365
21
-11.75
31
0.0
  0
LINE
 8
GROUP23
10
14.4458734122635
20
-0.249999999999998
30
0.0
11
14.4396296358569
21
-0.265073809681091
31
0.0
  0
LINE
 8
GROUP23
10
14.4396296358569
20
-0.265073809681091
30
0.0
11
14.4375
21
-0.281249999999998
31
0.0
  0
LINE
 8
GROUP23
10
14.4375
20
-0.281249999999998
30
0.0
11
14.4396296358569
21
-0.297426190318905
31
0.0
  0
LINE
 8
GROUP23
10
14.53125
20
-11.7728765877365
30
0.0
11
14.5441941738242
21
-11.7629441738242
31
0.0
  0
LINE
 8
GROUP23
10
14.5541265877365
20
-11.75
30
0.0
11
14.5603703641431
21
-11.7349261903189
31
0.0
  0
LINE
 8
GROUP23
10
14.5603703641431
20
-0.297426190318905
30
0.0
11
14.5625
21
-0.281249999999998
31
0.0
  0
LINE
 8
GROUP23
10
14.4558058261758
20
-11.6745558261758
30
0.0
11
14.4458734122635
21
-11.6875
31
0.0
  0
LINE
 8
GROUP23
10
14.5161761903189
20
-11.7791203641431
30
0.0
11
14.53125
21
-11.7728765877365
31
0.0
  0
LINE
 8
GROUP23
10
14.5541265877365
20
-0.249999999999998
30
0.0
11
14.5441941738242
21
-0.237055826175839
31
0.0
  0
LINE
 8
GROUP23
10
14.5603703641431
20
-0.265073809681091
30
0.0
11
14.5541265877365
21
-0.249999999999998
31
0.0
  0
LINE
 8
GROUP23
10
14.5441941738242
20
-0.237055826175839
30
0.0
11
14.53125
21
-0.22712341226347
31
0.0
  0
LINE
 8
GROUP23
10
14.5161761903189
20
-0.220879635856932
30
0.0
11
14.5
21
-0.218749999999998
31
0.0
  0
LINE
 8
GROUP23
10
14.5
20
-0.218749999999998
30
0.0
11
14.4838238096811
21
-0.220879635856932
31
0.0
  0
LINE
 8
GROUP23
10
14.4396296358569
20
-0.297426190318905
30
0.0
11
14.4458734122635
21
-0.312499999999998
31
0.0
  0
LINE
 8
GROUP23
10
14.4458734122635
20
-0.312499999999998
30
0.0
11
14.4558058261758
21
-0.325444173824158
31
0.0
  0
LINE
 8
GROUP23
10
14.4838238096811
20
-0.220879635856932
30
0.0
11
14.46875
21
-0.22712341226347
31
0.0
  0
LINE
 8
GROUP23
10
14.46875
20
-0.22712341226347
30
0.0
11
14.4558058261758
21
-0.237055826175839
31
0.0
  0
LINE
 8
GROUP23
10
14.4458734122635
20
-11.6875
30
0.0
11
14.4396296358569
21
-11.7025738096811
31
0.0
  0
LINE
 8
GROUP23
10
14.5161761903189
20
-11.6583796358569
30
0.0
11
14.5
21
-11.65625
31
0.0
  0
LINE
 8
GROUP23
10
14.5541265877365
20
-11.6875
30
0.0
11
14.5441941738242
21
-11.6745558261758
31
0.0
  0
LINE
 8
GROUP23
10
14.4458734122635
20
-11.75
30
0.0
11
14.4558058261758
21
-11.7629441738242
31
0.0
  0
LINE
 8
GROUP23
10
14.46875
20
-11.7728765877365
30
0.0
11
14.4838238096811
21
-11.7791203641431
31
0.0
  0
LINE
 8
GROUP23
10
14.4396296358569
20
-11.7025738096811
30
0.0
11
14.4375
21
-11.71875
31
0.0
  0
LINE
 8
GROUP24
10
4.89117619031891
20
-0.341620364143065
30
0.0
11
4.90625
21
-0.335376587736526
31
0.0
  0
LINE
 8
GROUP24
10
4.90625
20
-0.335376587736526
30
0.0
11
4.91919417382416
21
-0.325444173824158
31
0.0
  0
LINE
 8
GROUP24
10
4.83080582617584
20
-0.237055826175839
30
0.0
11
4.82087341226347
21
-0.249999999999998
31
0.0
  0
LINE
 8
GROUP24
10
4.9375
20
-0.281249999999998
30
0.0
11
4.93537036414307
21
-0.265073809681091
31
0.0
  0
LINE
 8
GROUP24
10
4.81462963585693
20
-11.7349261903189
30
0.0
11
4.82087341226347
21
-11.75
31
0.0
  0
LINE
 8
GROUP24
10
4.91919417382416
20
-0.325444173824158
30
0.0
11
4.92912658773653
21
-0.312499999999998
31
0.0
  0
LINE
 8
GROUP24
10
4.92912658773653
20
-0.312499999999998
30
0.0
11
4.93537036414307
21
-0.297426190318905
31
0.0
  0
LINE
 8
GROUP24
10
4.90625
20
-11.6646234122635
30
0.0
11
4.89117619031891
21
-11.6583796358569
31
0.0
  0
LINE
 8
GROUP24
10
4.4375
20
-0.0624999999999982
30
0.0
11
5.3125
21
-0.0624999999999982
31
0.0
  0
LINE
 8
GROUP24
10
4.4375
20
-11.9375
30
0.0
11
4.4375
21
-0.0624999999999982
31
0.0
  0
LINE
 8
GROUP24
10
5.3125
20
-0.0624999999999982
30
0.0
11
5.3125
21
-11.9375
31
0.0
  0
LINE
 8
GROUP24
10
5.3125
20
-11.9375
30
0.0
11
4.4375
21
-11.9375
31
0.0
  0
LINE
 8
GROUP24
10
4.875
20
-0.343749999999998
30
0.0
11
4.89117619031891
21
-0.341620364143065
31
0.0
  0
LINE
 8
GROUP24
10
4.9375
20
-11.71875
30
0.0
11
4.93537036414307
21
-11.7025738096811
31
0.0
  0
LINE
 8
GROUP24
10
4.83080582617584
20
-0.325444173824158
30
0.0
11
4.84375
21
-0.335376587736526
31
0.0
  0
LINE
 8
GROUP24
10
4.84375
20
-0.335376587736526
30
0.0
11
4.85882380968109
21
-0.341620364143065
31
0.0
  0
LINE
 8
GROUP24
10
4.875
20
-11.65625
30
0.0
11
4.85882380968109
21
-11.6583796358569
31
0.0
  0
LINE
 8
GROUP24
10
4.93537036414307
20
-11.7025738096811
30
0.0
11
4.92912658773653
21
-11.6875
31
0.0
  0
LINE
 8
GROUP24
10
4.85882380968109
20
-11.6583796358569
30
0.0
11
4.84375
21
-11.6646234122635
31
0.0
  0
LINE
 8
GROUP24
10
4.85882380968109
20
-0.341620364143065
30
0.0
11
4.875
21
-0.343749999999998
31
0.0
  0
LINE
 8
GROUP24
10
4.91919417382416
20
-11.6745558261758
30
0.0
11
4.90625
21
-11.6646234122635
31
0.0
  0
LINE
 8
GROUP24
10
4.90625
20
-0.22712341226347
30
0.0
11
4.89117619031891
21
-0.220879635856932
31
0.0
  0
LINE
 8
GROUP24
10
4.8125
20
-11.71875
30
0.0
11
4.81462963585693
21
-11.7349261903189
31
0.0
  0
LINE
 8
GROUP24
10
4.83080582617584
20
-11.7629441738242
30
0.0
11
4.84375
21
-11.7728765877365
31
0.0
  0
LINE
 8
GROUP24
10
4.875
20
-11.78125
30
0.0
11
4.89117619031891
21
-11.7791203641431
31
0.0
  0
LINE
 8
GROUP24
10
4.84375
20
-11.6646234122635
30
0.0
11
4.83080582617584
21
-11.6745558261758
31
0.0
  0
LINE
 8
GROUP24
10
4.85882380968109
20
-11.7791203641431
30
0.0
11
4.875
21
-11.78125
31
0.0
  0
LINE
 8
GROUP24
10
4.93537036414307
20
-11.7349261903189
30
0.0
11
4.9375
21
-11.71875
31
0.0
  0
LINE
 8
GROUP24
10
4.91919417382416
20
-11.7629441738242
30
0.0
11
4.92912658773653
21
-11.75
31
0.0
  0
LINE
 8
GROUP24
10
4.82087341226347
20
-0.249999999999998
30
0.0
11
4.81462963585693
21
-0.265073809681091
31
0.0
  0
LINE
 8
GROUP24
10
4.81462963585693
20
-0.265073809681091
30
0.0
11
4.8125
21
-0.281249999999998
31
0.0
  0
LINE
 8
GROUP24
10
4.8125
20
-0.281249999999998
30
0.0
11
4.81462963585693
21
-0.297426190318905
31
0.0
  0
LINE
 8
GROUP24
10
4.90625
20
-11.7728765877365
30
0.0
11
4.91919417382416
21
-11.7629441738242
31
0.0
  0
LINE
 8
GROUP24
10
4.92912658773653
20
-11.75
30
0.0
11
4.93537036414307
21
-11.7349261903189
31
0.0
  0
LINE
 8
GROUP24
10
4.93537036414307
20
-0.297426190318905
30
0.0
11
4.9375
21
-0.281249999999998
31
0.0
  0
LINE
 8
GROUP24
10
4.83080582617584
20
-11.6745558261758
30
0.0
11
4.82087341226347
21
-11.6875
31
0.0
  0
LINE
 8
GROUP24
10
4.89117619031891
20
-11.7791203641431
30
0.0
11
4.90625
21
-11.7728765877365
31
0.0
  0
LINE
 8
GROUP24
10
4.92912658773653
20
-0.249999999999998
30
0.0
11
4.91919417382416
21
-0.237055826175839
31
0.0
  0
LINE
 8
GROUP24
10
4.93537036414307
20
-0.265073809681091
30
0.0
11
4.92912658773653
21
-0.249999999999998
31
0.0
  0
LINE
 8
GROUP24
10
4.91919417382416
20
-0.237055826175839
30
0.0
11
4.90625
21
-0.22712341226347
31
0.0
  0
LINE
 8
GROUP24
10
4.89117619031891
20
-0.220879635856932
30
0.0
11
4.875
21
-0.218749999999998
31
0.0
  0
LINE
 8
GROUP24
10
4.875
20
-0.218749999999998
30
0.0
11
4.85882380968109
21
-0.220879635856932
31
0.0
  0
LINE
 8
GROUP24
10
4.81462963585693
20
-0.297426190318905
30
0.0
11
4.82087341226347
21
-0.312499999999998
31
0.0
  0
LINE
 8
GROUP24
10
4.82087341226347
20
-0.312499999999998
30
0.0
11
4.83080582617584
21
-0.325444173824158
31
0.0
  0
LINE
 8
GROUP24
10
4.85882380968109
20
-0.220879635856932
30
0.0
11
4.84375
21
-0.22712341226347
31
0.0
  0
LINE
 8
GROUP24
10
4.84375
20
-0.22712341226347
30
0.0
11
4.83080582617584
21
-0.237055826175839
31
0.0
  0
LINE
 8
GROUP24
10
4.82087341226347
20
-11.6875
30
0.0
11
4.81462963585693
21
-11.7025738096811
31
0.0
  0
LINE
 8
GROUP24
10
4.89117619031891
20
-11.6583796358569
30
0.0
11
4.875
21
-11.65625
31
0.0
  0
LINE
 8
GROUP24
10
4.92912658773653
20
-11.6875
30
0.0
11
4.91919417382416
21
-11.6745558261758
31
0.0
  0
LINE
 8
GROUP24
10
4.82087341226347
20
-11.75
30
0.0
11
4.83080582617584
21
-11.7629441738242
31
0.0
  0
LINE
 8
GROUP24
10
4.84375
20
-11.7728765877365
30
0.0
11
4.85882380968109
21
-11.7791203641431
31
0.0
  0
LINE
 8
GROUP24
10
4.81462963585693
20
-11.7025738096811
30
0.0
11
4.8125
21
-11.71875
31
0.0
  0
LINE
 8
GROUP25
10
8.39117619031891
20
-0.341620364143065
30
0.0
11
8.40625
21
-0.335376587736526
31
0.0
  0
LINE
 8
GROUP25
10
8.40625
20
-0.335376587736526
30
0.0
11
8.41919417382416
21
-0.325444173824158
31
0.0
  0
LINE
 8
GROUP25
10
8.33080582617584
20
-0.237055826175839
30
0.0
11
8.32087341226347
21
-0.249999999999998
31
0.0
  0
LINE
 8
GROUP25
10
8.4375
20
-0.281249999999998
30
0.0
11
8.43537036414307
21
-0.265073809681091
31
0.0
  0
LINE
 8
GROUP25
10
8.31462963585693
20
-11.7349261903189
30
0.0
11
8.32087341226347
21
-11.75
31
0.0
  0
LINE
 8
GROUP25
10
8.41919417382416
20
-0.325444173824158
30
0.0
11
8.42912658773653
21
-0.312499999999998
31
0.0
  0
LINE
 8
GROUP25
10
8.42912658773653
20
-0.312499999999998
30
0.0
11
8.43537036414307
21
-0.297426190318905
31
0.0
  0
LINE
 8
GROUP25
10
8.40625
20
-11.6646234122635
30
0.0
11
8.39117619031891
21
-11.6583796358569
31
0.0
  0
LINE
 8
GROUP25
10
7.9375
20
-0.0624999999999982
30
0.0
11
8.8125
21
-0.0624999999999982
31
0.0
  0
LINE
 8
GROUP25
10
7.9375
20
-11.9375
30
0.0
11
7.9375
21
-0.0624999999999982
31
0.0
  0
LINE
 8
GROUP25
10
8.8125
20
-0.0624999999999982
30
0.0
11
8.8125
21
-11.9375
31
0.0
  0
LINE
 8
GROUP25
10
8.8125
20
-11.9375
30
0.0
11
7.9375
21
-11.9375
31
0.0
  0
LINE
 8
GROUP25
10
8.375
20
-0.343749999999998
30
0.0
11
8.39117619031891
21
-0.341620364143065
31
0.0
  0
LINE
 8
GROUP25
10
8.4375
20
-11.71875
30
0.0
11
8.43537036414307
21
-11.7025738096811
31
0.0
  0
LINE
 8
GROUP25
10
8.33080582617584
20
-0.325444173824158
30
0.0
11
8.34375
21
-0.335376587736526
31
0.0
  0
LINE
 8
GROUP25
10
8.34375
20
-0.335376587736526
30
0.0
11
8.35882380968109
21
-0.341620364143065
31
0.0
  0
LINE
 8
GROUP25
10
8.375
20
-11.65625
30
0.0
11
8.35882380968109
21
-11.6583796358569
31
0.0
  0
LINE
 8
GROUP25
10
8.43537036414307
20
-11.7025738096811
30
0.0
11
8.42912658773653
21
-11.6875
31
0.0
  0
LINE
 8
GROUP25
10
8.35882380968109
20
-11.6583796358569
30
0.0
11
8.34375
21
-11.6646234122635
31
0.0
  0
LINE
 8
GROUP25
10
8.35882380968109
20
-0.341620364143065
30
0.0
11
8.375
21
-0.343749999999998
31
0.0
  0
LINE
 8
GROUP25
10
8.41919417382416
20
-11.6745558261758
30
0.0
11
8.40625
21
-11.6646234122635
31
0.0
  0
LINE
 8
GROUP25
10
8.40625
20
-0.22712341226347
30
0.0
11
8.39117619031891
21
-0.220879635856932
31
0.0
  0
LINE
 8
GROUP25
10
8.3125
20
-11.71875
30
0.0
11
8.31462963585693
21
-11.7349261903189
31
0.0
  0
LINE
 8
GROUP25
10
8.33080582617584
20
-11.7629441738242
30
0.0
11
8.34375
21
-11.7728765877365
31
0.0
  0
LINE
 8
GROUP25
10
8.375
20
-11.78125
30
0.0
11
8.39117619031891
21
-11.7791203641431
31
0.0
  0
LINE
 8
GROUP25
10
8.34375
20
-11.6646234122635
30
0.0
11
8.33080582617584
21
-11.6745558261758
31
0.0
  0
LINE
 8
GROUP25
10
8.35882380968109
20
-11.7791203641431
30
0.0
11
8.375
21
-11.78125
31
0.0
  0
LINE
 8
GROUP25
10
8.43537036414307
20
-11.7349261903189
30
0.0
11
8.4375
21
-11.71875
31
0.0
  0
LINE
 8
GROUP25
10
8.41919417382416
20
-11.7629441738242
30
0.0
11
8.42912658773653
21
-11.75
31
0.0
  0
LINE
 8
GROUP25
10
8.32087341226347
20
-0.249999999999998
30
0.0
11
8.31462963585693
21
-0.265073809681091
31
0.0
  0
LINE
 8
GROUP25
10
8.31462963585693
20
-0.265073809681091
30
0.0
11
8.3125
21
-0.281249999999998
31
0.0
  0
LINE
 8
GROUP25
10
8.3125
20
-0.281249999999998
30
0.0
11
8.31462963585693
21
-0.297426190318905
31
0.0
  0
LINE
 8
GROUP25
10
8.40625
20
-11.7728765877365
30
0.0
11
8.41919417382416
21
-11.7629441738242
31
0.0
  0
LINE
 8
GROUP25
10
8.42912658773653
20
-11.75
30
0.0
11
8.43537036414307
21
-11.7349261903189
31
0.0
  0
LINE
 8
GROUP25
10
8.43537036414307
20
-0.297426190318905
30
0.0
11
8.4375
21
-0.281249999999998
31
0.0
  0
LINE
 8
GROUP25
10
8.33080582617584
20
-11.6745558261758
30
0.0
11
8.32087341226347
21
-11.6875
31
0.0
  0
LINE
 8
GROUP25
10
8.39117619031891
20
-11.7791203641431
30
0.0
11
8.40625
21
-11.7728765877365
31
0.0
  0
LINE
 8
GROUP25
10
8.42912658773653
20
-0.249999999999998
30
0.0
11
8.41919417382416
21
-0.237055826175839
31
0.0
  0
LINE
 8
GROUP25
10
8.43537036414307
20
-0.265073809681091
30
0.0
11
8.42912658773653
21
-0.249999999999998
31
0.0
  0
LINE
 8
GROUP25
10
8.41919417382416
20
-0.237055826175839
30
0.0
11
8.40625
21
-0.22712341226347
31
0.0
  0
LINE
 8
GROUP25
10
8.39117619031891
20
-0.220879635856932
30
0.0
11
8.375
21
-0.218749999999998
31
0.0
  0
LINE
 8
GROUP25
10
8.375
20
-0.218749999999998
30
0.0
11
8.35882380968109
21
-0.220879635856932
31
0.0
  0
LINE
 8
GROUP25
10
8.31462963585693
20
-0.297426190318905
30
0.0
11
8.32087341226347
21
-0.312499999999998
31
0.0
  0
LINE
 8
GROUP25
10
8.32087341226347
20
-0.312499999999998
30
0.0
11
8.33080582617584
21
-0.325444173824158
31
0.0
  0
LINE
 8
GROUP25
10
8.35882380968109
20
-0.220879635856932
30
0.0
11
8.34375
21
-0.22712341226347
31
0.0
  0
LINE
 8
GROUP25
10
8.34375
20
-0.22712341226347
30
0.0
11
8.33080582617584
21
-0.237055826175839
31
0.0
  0
LINE
 8
GROUP25
10
8.32087341226347
20
-11.6875
30
0.0
11
8.31462963585693
21
-11.7025738096811
31
0.0
  0
LINE
 8
GROUP25
10
8.39117619031891
20
-11.6583796358569
30
0.0
11
8.375
21
-11.65625
31
0.0
  0
LINE
 8
GROUP25
10
8.42912658773653
20
-11.6875
30
0.0
11
8.41919417382416
21
-11.6745558261758
31
0.0
  0
LINE
 8
GROUP25
10
8.32087341226347
20
-11.75
30
0.0
11
8.33080582617584
21
-11.7629441738242
31
0.0
  0
LINE
 8
GROUP25
10
8.34375
20
-11.7728765877365
30
0.0
11
8.35882380968109
21
-11.7791203641431
31
0.0
  0
LINE
 8
GROUP25
10
8.31462963585693
20
-11.7025738096811
30
0.0
11
8.3125
21
-11.71875
31
0.0
  0
LINE
 8
GROUP26
10
7.51617619031891
20
-0.341620364143065
30
0.0
11
7.53125
21
-0.335376587736526
31
0.0
  0
LINE
 8
GROUP26
10
7.53125
20
-0.335376587736526
30
0.0
11
7.54419417382416
21
-0.325444173824158
31
0.0
  0
LINE
 8
GROUP26
10
7.45580582617584
20
-0.237055826175839
30
0.0
11
7.44587341226347
21
-0.249999999999998
31
0.0
  0
LINE
 8
GROUP26
10
7.5625
20
-0.281249999999998
30
0.0
11
7.56037036414307
21
-0.265073809681091
31
0.0
  0
LINE
 8
GROUP26
10
7.43962963585693
20
-11.7349261903189
30
0.0
11
7.44587341226347
21
-11.75
31
0.0
  0
LINE
 8
GROUP26
10
7.54419417382416
20
-0.325444173824158
30
0.0
11
7.55412658773653
21
-0.312499999999998
31
0.0
  0
LINE
 8
GROUP26
10
7.55412658773653
20
-0.312499999999998
30
0.0
11
7.56037036414307
21
-0.297426190318905
31
0.0
  0
LINE
 8
GROUP26
10
7.53125
20
-11.6646234122635
30
0.0
11
7.51617619031891
21
-11.6583796358569
31
0.0
  0
LINE
 8
GROUP26
10
7.0625
20
-0.0624999999999982
30
0.0
11
7.9375
21
-0.0624999999999982
31
0.0
  0
LINE
 8
GROUP26
10
7.0625
20
-11.9375
30
0.0
11
7.0625
21
-0.0624999999999982
31
0.0
  0
LINE
 8
GROUP26
10
7.9375
20
-0.0624999999999982
30
0.0
11
7.9375
21
-11.9375
31
0.0
  0
LINE
 8
GROUP26
10
7.9375
20
-11.9375
30
0.0
11
7.0625
21
-11.9375
31
0.0
  0
LINE
 8
GROUP26
10
7.5
20
-0.343749999999998
30
0.0
11
7.51617619031891
21
-0.341620364143065
31
0.0
  0
LINE
 8
GROUP26
10
7.5625
20
-11.71875
30
0.0
11
7.56037036414307
21
-11.7025738096811
31
0.0
  0
LINE
 8
GROUP26
10
7.45580582617584
20
-0.325444173824158
30
0.0
11
7.46875
21
-0.335376587736526
31
0.0
  0
LINE
 8
GROUP26
10
7.46875
20
-0.335376587736526
30
0.0
11
7.48382380968109
21
-0.341620364143065
31
0.0
  0
LINE
 8
GROUP26
10
7.5
20
-11.65625
30
0.0
11
7.48382380968109
21
-11.6583796358569
31
0.0
  0
LINE
 8
GROUP26
10
7.56037036414307
20
-11.7025738096811
30
0.0
11
7.55412658773653
21
-11.6875
31
0.0
  0
LINE
 8
GROUP26
10
7.48382380968109
20
-11.6583796358569
30
0.0
11
7.46875
21
-11.6646234122635
31
0.0
  0
LINE
 8
GROUP26
10
7.48382380968109
20
-0.341620364143065
30
0.0
11
7.5
21
-0.343749999999998
31
0.0
  0
LINE
 8
GROUP26
10
7.54419417382416
20
-11.6745558261758
30
0.0
11
7.53125
21
-11.6646234122635
31
0.0
  0
LINE
 8
GROUP26
10
7.53125
20
-0.22712341226347
30
0.0
11
7.51617619031891
21
-0.220879635856932
31
0.0
  0
LINE
 8
GROUP26
10
7.4375
20
-11.71875
30
0.0
11
7.43962963585693
21
-11.7349261903189
31
0.0
  0
LINE
 8
GROUP26
10
7.45580582617584
20
-11.7629441738242
30
0.0
11
7.46875
21
-11.7728765877365
31
0.0
  0
LINE
 8
GROUP26
10
7.5
20
-11.78125
30
0.0
11
7.51617619031891
21
-11.7791203641431
31
0.0
  0
LINE
 8
GROUP26
10
7.46875
20
-11.6646234122635
30
0.0
11
7.45580582617584
21
-11.6745558261758
31
0.0
  0
LINE
 8
GROUP26
10
7.48382380968109
20
-11.7791203641431
30
0.0
11
7.5
21
-11.78125
31
0.0
  0
LINE
 8
GROUP26
10
7.56037036414307
20
-11.7349261903189
30
0.0
11
7.5625
21
-11.71875
31
0.0
  0
LINE
 8
GROUP26
10
7.54419417382416
20
-11.7629441738242
30
0.0
11
7.55412658773653
21
-11.75
31
0.0
  0
LINE
 8
GROUP26
10
7.44587341226347
20
-0.249999999999998
30
0.0
11
7.43962963585693
21
-0.265073809681091
31
0.0
  0
LINE
 8
GROUP26
10
7.43962963585693
20
-0.265073809681091
30
0.0
11
7.4375
21
-0.281249999999998
31
0.0
  0
LINE
 8
GROUP26
10
7.4375
20
-0.281249999999998
30
0.0
11
7.43962963585693
21
-0.297426190318905
31
0.0
  0
LINE
 8
GROUP26
10
7.53125
20
-11.7728765877365
30
0.0
11
7.54419417382416
21
-11.7629441738242
31
0.0
  0
LINE
 8
GROUP26
10
7.55412658773653
20
-11.75
30
0.0
11
7.56037036414307
21
-11.7349261903189
31
0.0
  0
LINE
 8
GROUP26
10
7.56037036414307
20
-0.297426190318905
30
0.0
11
7.5625
21
-0.281249999999998
31
0.0
  0
LINE
 8
GROUP26
10
7.45580582617584
20
-11.6745558261758
30
0.0
11
7.44587341226347
21
-11.6875
31
0.0
  0
LINE
 8
GROUP26
10
7.51617619031891
20
-11.7791203641431
30
0.0
11
7.53125
21
-11.7728765877365
31
0.0
  0
LINE
 8
GROUP26
10
7.55412658773653
20
-0.249999999999998
30
0.0
11
7.54419417382416
21
-0.237055826175839
31
0.0
  0
LINE
 8
GROUP26
10
7.56037036414307
20
-0.265073809681091
30
0.0
11
7.55412658773653
21
-0.249999999999998
31
0.0
  0
LINE
 8
GROUP26
10
7.54419417382416
20
-0.237055826175839
30
0.0
11
7.53125
21
-0.22712341226347
31
0.0
  0
LINE
 8
GROUP26
10
7.51617619031891
20
-0.220879635856932
30
0.0
11
7.5
21
-0.218749999999998
31
0.0
  0
LINE
 8
GROUP26
10
7.5
20
-0.218749999999998
30
0.0
11
7.48382380968109
21
-0.220879635856932
31
0.0
  0
LINE
 8
GROUP26
10
7.43962963585693
20
-0.297426190318905
30
0.0
11
7.44587341226347
21
-0.312499999999998
31
0.0
  0
LINE
 8
GROUP26
10
7.44587341226347
20
-0.312499999999998
30
0.0
11
7.45580582617584
21
-0.325444173824158
31
0.0
  0
LINE
 8
GROUP26
10
7.48382380968109
20
-0.220879635856932
30
0.0
11
7.46875
21
-0.22712341226347
31
0.0
  0
LINE
 8
GROUP26
10
7.46875
20
-0.22712341226347
30
0.0
11
7.45580582617584
21
-0.237055826175839
31
0.0
  0
LINE
 8
GROUP26
10
7.44587341226347
20
-11.6875
30
0.0
11
7.43962963585693
21
-11.7025738096811
31
0.0
  0
LINE
 8
GROUP26
10
7.51617619031891
20
-11.6583796358569
30
0.0
11
7.5
21
-11.65625
31
0.0
  0
LINE
 8
GROUP26
10
7.55412658773653
20
-11.6875
30
0.0
11
7.54419417382416
21
-11.6745558261758
31
0.0
  0
LINE
 8
GROUP26
10
7.44587341226347
20
-11.75
30
0.0
11
7.45580582617584
21
-11.7629441738242
31
0.0
  0
LINE
 8
GROUP26
10
7.46875
20
-11.7728765877365
30
0.0
11
7.48382380968109
21
-11.7791203641431
31
0.0
  0
LINE
 8
GROUP26
10
7.43962963585693
20
-11.7025738096811
30
0.0
11
7.4375
21
-11.71875
31
0.0
  0
LINE
 8
GROUP27
10
9.26617619031891
20
-0.341620364143065
30
0.0
11
9.28125
21
-0.335376587736526
31
0.0
  0
LINE
 8
GROUP27
10
9.28125
20
-0.335376587736526
30
0.0
11
9.29419417382416
21
-0.325444173824158
31
0.0
  0
LINE
 8
GROUP27
10
9.20580582617584
20
-0.237055826175839
30
0.0
11
9.19587341226347
21
-0.249999999999998
31
0.0
  0
LINE
 8
GROUP27
10
9.3125
20
-0.281249999999998
30
0.0
11
9.31037036414307
21
-0.265073809681091
31
0.0
  0
LINE
 8
GROUP27
10
9.18962963585693
20
-11.7349261903189
30
0.0
11
9.19587341226347
21
-11.75
31
0.0
  0
LINE
 8
GROUP27
10
9.29419417382416
20
-0.325444173824158
30
0.0
11
9.30412658773653
21
-0.312499999999998
31
0.0
  0
LINE
 8
GROUP27
10
9.30412658773653
20
-0.312499999999998
30
0.0
11
9.31037036414307
21
-0.297426190318905
31
0.0
  0
LINE
 8
GROUP27
10
9.28125
20
-11.6646234122635
30
0.0
11
9.26617619031891
21
-11.6583796358569
31
0.0
  0
LINE
 8
GROUP27
10
8.8125
20
-0.0624999999999982
30
0.0
11
9.6875
21
-0.0624999999999982
31
0.0
  0
LINE
 8
GROUP27
10
8.8125
20
-11.9375
30
0.0
11
8.8125
21
-0.0624999999999982
31
0.0
  0
LINE
 8
GROUP27
10
9.6875
20
-0.0624999999999982
30
0.0
11
9.6875
21
-11.9375
31
0.0
  0
LINE
 8
GROUP27
10
9.6875
20
-11.9375
30
0.0
11
8.8125
21
-11.9375
31
0.0
  0
LINE
 8
GROUP27
10
9.25
20
-0.343749999999998
30
0.0
11
9.26617619031891
21
-0.341620364143065
31
0.0
  0
LINE
 8
GROUP27
10
9.3125
20
-11.71875
30
0.0
11
9.31037036414307
21
-11.7025738096811
31
0.0
  0
LINE
 8
GROUP27
10
9.20580582617584
20
-0.325444173824158
30
0.0
11
9.21875
21
-0.335376587736526
31
0.0
  0
LINE
 8
GROUP27
10
9.21875
20
-0.335376587736526
30
0.0
11
9.23382380968109
21
-0.341620364143065
31
0.0
  0
LINE
 8
GROUP27
10
9.25
20
-11.65625
30
0.0
11
9.23382380968109
21
-11.6583796358569
31
0.0
  0
LINE
 8
GROUP27
10
9.31037036414307
20
-11.7025738096811
30
0.0
11
9.30412658773653
21
-11.6875
31
0.0
  0
LINE
 8
GROUP27
10
9.23382380968109
20
-11.6583796358569
30
0.0
11
9.21875
21
-11.6646234122635
31
0.0
  0
LINE
 8
GROUP27
10
9.23382380968109
20
-0.341620364143065
30
0.0
11
9.25
21
-0.343749999999998
31
0.0
  0
LINE
 8
GROUP27
10
9.29419417382416
20
-11.6745558261758
30
0.0
11
9.28125
21
-11.6646234122635
31
0.0
  0
LINE
 8
GROUP27
10
9.28125
20
-0.22712341226347
30
0.0
11
9.26617619031891
21
-0.220879635856932
31
0.0
  0
LINE
 8
GROUP27
10
9.1875
20
-11.71875
30
0.0
11
9.18962963585693
21
-11.7349261903189
31
0.0
  0
LINE
 8
GROUP27
10
9.20580582617584
20
-11.7629441738242
30
0.0
11
9.21875
21
-11.7728765877365
31
0.0
  0
LINE
 8
GROUP27
10
9.25
20
-11.78125
30
0.0
11
9.26617619031891
21
-11.7791203641431
31
0.0
  0
LINE
 8
GROUP27
10
9.21875
20
-11.6646234122635
30
0.0
11
9.20580582617584
21
-11.6745558261758
31
0.0
  0
LINE
 8
GROUP27
10
9.23382380968109
20
-11.7791203641431
30
0.0
11
9.25
21
-11.78125
31
0.0
  0
LINE
 8
GROUP27
10
9.31037036414307
20
-11.7349261903189
30
0.0
11
9.3125
21
-11.71875
31
0.0
  0
LINE
 8
GROUP27
10
9.29419417382416
20
-11.7629441738242
30
0.0
11
9.30412658773653
21
-11.75
31
0.0
  0
LINE
 8
GROUP27
10
9.19587341226347
20
-0.249999999999998
30
0.0
11
9.18962963585693
21
-0.265073809681091
31
0.0
  0
LINE
 8
GROUP27
10
9.18962963585693
20
-0.265073809681091
30
0.0
11
9.1875
21
-0.281249999999998
31
0.0
  0
LINE
 8
GROUP27
10
9.1875
20
-0.281249999999998
30
0.0
11
9.18962963585693
21
-0.297426190318905
31
0.0
  0
LINE
 8
GROUP27
10
9.28125
20
-11.7728765877365
30
0.0
11
9.29419417382416
21
-11.7629441738242
31
0.0
  0
LINE
 8
GROUP27
10
9.30412658773653
20
-11.75
30
0.0
11
9.31037036414307
21
-11.7349261903189
31
0.0
  0
LINE
 8
GROUP27
10
9.31037036414307
20
-0.297426190318905
30
0.0
11
9.3125
21
-0.281249999999998
31
0.0
  0
LINE
 8
GROUP27
10
9.20580582617584
20
-11.6745558261758
30
0.0
11
9.19587341226347
21
-11.6875
31
0.0
  0
LINE
 8
GROUP27
10
9.26617619031891
20
-11.7791203641431
30
0.0
11
9.28125
21
-11.7728765877365
31
0.0
  0
LINE
 8
GROUP27
10
9.30412658773653
20
-0.249999999999998
30
0.0
11
9.29419417382416
21
-0.237055826175839
31
0.0
  0
LINE
 8
GROUP27
10
9.31037036414307
20
-0.265073809681091
30
0.0
11
9.30412658773653
21
-0.249999999999998
31
0.0
  0
LINE
 8
GROUP27
10
9.29419417382416
20
-0.237055826175839
30
0.0
11
9.28125
21
-0.22712341226347
31
0.0
  0
LINE
 8
GROUP27
10
9.26617619031891
20
-0.220879635856932
30
0.0
11
9.25
21
-0.218749999999998
31
0.0
  0
LINE
 8
GROUP27
10
9.25
20
-0.218749999999998
30
0.0
11
9.23382380968109
21
-0.220879635856932
31
0.0
  0
LINE
 8
GROUP27
10
9.18962963585693
20
-0.297426190318905
30
0.0
11
9.19587341226347
21
-0.312499999999998
31
0.0
  0
LINE
 8
GROUP27
10
9.19587341226347
20
-0.312499999999998
30
0.0
11
9.20580582617584
21
-0.325444173824158
31
0.0
  0
LINE
 8
GROUP27
10
9.23382380968109
20
-0.220879635856932
30
0.0
11
9.21875
21
-0.22712341226347
31
0.0
  0
LINE
 8
GROUP27
10
9.21875
20
-0.22712341226347
30
0.0
11
9.20580582617584
21
-0.237055826175839
31
0.0
  0
LINE
 8
GROUP27
10
9.19587341226347
20
-11.6875
30
0.0
11
9.18962963585693
21
-11.7025738096811
31
0.0
  0
LINE
 8
GROUP27
10
9.26617619031891
20
-11.6583796358569
30
0.0
11
9.25
21
-11.65625
31
0.0
  0
LINE
 8
GROUP27
10
9.30412658773653
20
-11.6875
30
0.0
11
9.29419417382416
21
-11.6745558261758
31
0.0
  0
LINE
 8
GROUP27
10
9.19587341226347
20
-11.75
30
0.0
11
9.20580582617584
21
-11.7629441738242
31
0.0
  0
LINE
 8
GROUP27
10
9.21875
20
-11.7728765877365
30
0.0
11
9.23382380968109
21
-11.7791203641431
31
0.0
  0
LINE
 8
GROUP27
10
9.18962963585693
20
-11.7025738096811
30
0.0
11
9.1875
21
-11.71875
31
0.0
 0
ENDSEC
 0
EOF
