 0
SECTION
 2
ENTITIES
  0
LINE
 8
GROUP0
10
1.5875
20
-152.4
30
0.0
11
601.6625
21
-152.4
31
0.0
  0
LINE
 8
GROUP1
10
557.2125
20
-1.58749999999995
30
0.0
11
557.2125
21
-303.2125
31
0.0
  0
LINE
 8
GROUP1
10
312.7375
20
-303.2125
30
0.0
11
312.7375
21
-1.58749999999995
31
0.0
  0
LINE
 8
GROUP1
10
46.0375
20
-1.58749999999995
30
0.0
11
46.0375
21
-303.2125
31
0.0
  0
LINE
 8
GROUP1
10
157.1625
20
-1.58749999999995
30
0.0
11
157.1625
21
-303.2125
31
0.0
  0
LINE
 8
GROUP1
10
512.7625
20
-1.58749999999995
30
0.0
11
512.7625
21
-303.2125
31
0.0
  0
LINE
 8
GROUP1
10
534.9875
20
-303.2125
30
0.0
11
534.9875
21
-1.58749999999995
31
0.0
  0
LINE
 8
GROUP1
10
246.0625
20
-1.58749999999995
30
0.0
11
246.0625
21
-303.2125
31
0.0
  0
LINE
 8
GROUP1
10
423.8625
20
-1.58749999999995
30
0.0
11
423.8625
21
-303.2125
31
0.0
  0
LINE
 8
GROUP1
10
179.3875
20
-303.2125
30
0.0
11
179.3875
21
-1.58749999999995
31
0.0
  0
LINE
 8
GROUP1
10
223.8375
20
-303.2125
30
0.0
11
223.8375
21
-1.58749999999995
31
0.0
  0
LINE
 8
GROUP1
10
579.4375
20
-303.2125
30
0.0
11
579.4375
21
-1.58749999999995
31
0.0
  0
LINE
 8
GROUP1
10
90.4875
20
-303.2125
30
0.0
11
90.4875
21
-1.58749999999995
31
0.0
  0
LINE
 8
GROUP1
10
268.2875
20
-303.2125
30
0.0
11
268.2875
21
-1.58749999999995
31
0.0
  0
LINE
 8
GROUP1
10
134.9375
20
-303.2125
30
0.0
11
134.9375
21
-1.58749999999995
31
0.0
  0
LINE
 8
GROUP1
10
23.8125
20
-1.58749999999995
30
0.0
11
23.8125
21
-303.2125
31
0.0
  0
LINE
 8
GROUP1
10
446.0875
20
-303.2125
30
0.0
11
446.0875
21
-1.58749999999995
31
0.0
  0
LINE
 8
GROUP1
10
379.4125
20
-1.58749999999995
30
0.0
11
379.4125
21
-303.2125
31
0.0
  0
LINE
 8
GROUP1
10
468.3125
20
-1.58749999999995
30
0.0
11
468.3125
21
-303.2125
31
0.0
  0
LINE
 8
GROUP1
10
68.2625
20
-1.58749999999995
30
0.0
11
68.2625
21
-303.2125
31
0.0
  0
LINE
 8
GROUP1
10
201.6125
20
-1.58749999999995
30
0.0
11
201.6125
21
-303.2125
31
0.0
  0
LINE
 8
GROUP1
10
490.5375
20
-303.2125
30
0.0
11
490.5375
21
-1.58749999999995
31
0.0
  0
LINE
 8
GROUP1
10
334.9625
20
-1.58749999999995
30
0.0
11
334.9625
21
-303.2125
31
0.0
  0
LINE
 8
GROUP1
10
112.7125
20
-1.58749999999995
30
0.0
11
112.7125
21
-303.2125
31
0.0
  0
LINE
 8
GROUP1
10
290.5125
20
-1.58749999999995
30
0.0
11
290.5125
21
-303.2125
31
0.0
  0
LINE
 8
GROUP1
10
401.6375
20
-303.2125
30
0.0
11
401.6375
21
-1.58749999999995
31
0.0
  0
LINE
 8
GROUP1
10
357.1875
20
-303.2125
30
0.0
11
357.1875
21
-1.58749999999995
31
0.0
  0
LINE
 8
GROUP2
10
35.71875
20
-8.51856532850777
30
0.0
11
36.0475320151336
21
-8.26628201513361
31
0.0
  0
LINE
 8
GROUP2
10
589.75625
20
-299.031065328508
30
0.0
11
590.1391247659
21
-299.189657249234
31
0.0
  0
LINE
 8
GROUP2
10
589.016592750766
20
-297.2453747659
30
0.0
11
588.9625
21
-297.65625
31
0.0
  0
LINE
 8
GROUP2
10
591.34375
20
-5.76893467149214
30
0.0
11
590.9608752341
21
-5.61034275076606
31
0.0
  0
LINE
 8
GROUP2
10
588.9625
20
-7.14374999999995
30
0.0
11
589.016592750766
21
-7.55462523410019
31
0.0
  0
LINE
 8
GROUP2
10
591.34375
20
-299.031065328508
30
0.0
11
591.672532015134
21
-298.778782015134
31
0.0
  0
LINE
 8
GROUP2
10
592.083407249234
20
-297.2453747659
30
0.0
11
591.924815328508
21
-296.8625
31
0.0
  0
LINE
 8
GROUP2
10
590.1391247659
20
-296.122842750766
30
0.0
11
589.75625
21
-296.281434671492
31
0.0
  0
LINE
 8
GROUP2
10
13.49375
20
-8.51856532850777
30
0.0
11
13.8225320151336
21
-8.26628201513361
31
0.0
  0
LINE
 8
GROUP2
10
590.55
20
-296.06875
30
0.0
11
590.1391247659
21
-296.122842750766
31
0.0
  0
LINE
 8
GROUP2
10
589.427467984866
20
-296.533717984866
30
0.0
11
589.175184671492
21
-296.8625
31
0.0
  0
LINE
 8
GROUP2
10
590.9608752341
20
-299.189657249234
30
0.0
11
591.34375
21
-299.031065328508
31
0.0
  0
LINE
 8
GROUP2
10
590.9608752341
20
-5.61034275076606
30
0.0
11
590.55
21
-5.55624999999995
31
0.0
  0
LINE
 8
GROUP2
10
591.924815328508
20
-6.34999999999995
30
0.0
11
591.672532015134
21
-6.0212179848663
31
0.0
  0
LINE
 8
GROUP2
10
592.083407249234
20
-6.73287476589972
30
0.0
11
591.924815328508
21
-6.34999999999995
31
0.0
  0
LINE
 8
GROUP2
10
588.9625
20
-297.65625
30
0.0
11
589.016592750766
21
-298.0671252341
31
0.0
  0
LINE
 8
GROUP2
10
589.427467984866
20
-298.778782015134
30
0.0
11
589.75625
21
-299.031065328508
31
0.0
  0
LINE
 8
GROUP2
10
589.175184671492
20
-6.34999999999995
30
0.0
11
589.016592750766
21
-6.73287476589972
31
0.0
  0
LINE
 8
GROUP2
10
589.016592750766
20
-6.73287476589972
30
0.0
11
588.9625
21
-7.14374999999995
31
0.0
  0
LINE
 8
GROUP2
10
591.672532015134
20
-298.778782015134
30
0.0
11
591.924815328508
21
-298.45
31
0.0
  0
LINE
 8
GROUP2
10
590.55
20
-8.73124999999995
30
0.0
11
590.9608752341
21
-8.67715724923385
31
0.0
  0
LINE
 8
GROUP2
10
592.1375
20
-297.65625
30
0.0
11
592.083407249234
21
-297.2453747659
31
0.0
  0
LINE
 8
GROUP2
10
589.427467984866
20
-6.0212179848663
30
0.0
11
589.175184671492
21
-6.34999999999995
31
0.0
  0
LINE
 8
GROUP2
10
590.1391247659
20
-8.67715724923385
30
0.0
11
590.55
21
-8.73124999999995
31
0.0
  0
LINE
 8
GROUP2
10
591.672532015134
20
-296.533717984866
30
0.0
11
591.34375
21
-296.281434671492
31
0.0
  0
LINE
 8
GROUP2
10
591.924815328508
20
-298.45
30
0.0
11
592.083407249234
21
-298.0671252341
31
0.0
  0
LINE
 8
GROUP2
10
592.083407249234
20
-7.55462523410019
30
0.0
11
592.1375
21
-7.14374999999995
31
0.0
  0
LINE
 8
GROUP2
10
592.1375
20
-7.14374999999995
30
0.0
11
592.083407249234
21
-6.73287476589972
31
0.0
  0
LINE
 8
GROUP2
10
591.34375
20
-8.51856532850777
30
0.0
11
591.672532015134
21
-8.26628201513361
31
0.0
  0
LINE
 8
GROUP2
10
591.34375
20
-296.281434671492
30
0.0
11
590.9608752341
21
-296.122842750766
31
0.0
  0
LINE
 8
GROUP2
10
591.924815328508
20
-7.93749999999995
30
0.0
11
592.083407249234
21
-7.55462523410019
31
0.0
  0
LINE
 8
GROUP2
10
589.427467984866
20
-8.26628201513361
30
0.0
11
589.75625
21
-8.51856532850777
31
0.0
  0
LINE
 8
GROUP2
10
589.75625
20
-8.51856532850777
30
0.0
11
590.1391247659
21
-8.67715724923385
31
0.0
  0
LINE
 8
GROUP2
10
591.672532015134
20
-6.0212179848663
30
0.0
11
591.34375
21
-5.76893467149214
31
0.0
  0
LINE
 8
GROUP2
10
590.1391247659
20
-299.189657249234
30
0.0
11
590.55
21
-299.24375
31
0.0
  0
LINE
 8
GROUP2
10
592.083407249234
20
-298.0671252341
30
0.0
11
592.1375
21
-297.65625
31
0.0
  0
LINE
 8
GROUP2
10
590.55
20
-5.55624999999995
30
0.0
11
590.1391247659
21
-5.61034275076606
31
0.0
  0
LINE
 8
GROUP2
10
589.016592750766
20
-7.55462523410019
30
0.0
11
589.175184671492
21
-7.93749999999995
31
0.0
  0
LINE
 8
GROUP2
10
589.175184671492
20
-7.93749999999995
30
0.0
11
589.427467984866
21
-8.26628201513361
31
0.0
  0
LINE
 8
GROUP2
10
590.9608752341
20
-8.67715724923385
30
0.0
11
591.34375
21
-8.51856532850777
31
0.0
  0
LINE
 8
GROUP2
10
590.1391247659
20
-5.61034275076606
30
0.0
11
589.75625
21
-5.76893467149214
31
0.0
  0
LINE
 8
GROUP2
10
589.75625
20
-5.76893467149214
30
0.0
11
589.427467984866
21
-6.0212179848663
31
0.0
  0
LINE
 8
GROUP2
10
589.175184671492
20
-296.8625
30
0.0
11
589.016592750766
21
-297.2453747659
31
0.0
  0
LINE
 8
GROUP2
10
590.9608752341
20
-296.122842750766
30
0.0
11
590.55
21
-296.06875
31
0.0
  0
LINE
 8
GROUP2
10
591.924815328508
20
-296.8625
30
0.0
11
591.672532015134
21
-296.533717984866
31
0.0
  0
LINE
 8
GROUP2
10
589.175184671492
20
-298.45
30
0.0
11
589.427467984866
21
-298.778782015134
31
0.0
  0
LINE
 8
GROUP2
10
11.5774679848663
20
-6.0212179848663
30
0.0
11
11.3251846714922
21
-6.34999999999995
31
0.0
  0
LINE
 8
GROUP2
10
11.90625
20
-8.51856532850777
30
0.0
11
12.2891247658997
21
-8.67715724923385
31
0.0
  0
LINE
 8
GROUP2
10
13.8225320151336
20
-6.0212179848663
30
0.0
11
13.49375
21
-5.76893467149214
31
0.0
  0
LINE
 8
GROUP2
10
11.5774679848663
20
-8.26628201513361
30
0.0
11
11.90625
21
-8.51856532850777
31
0.0
  0
LINE
 8
GROUP2
10
13.49375
20
-5.76893467149214
30
0.0
11
13.1108752341002
21
-5.61034275076606
31
0.0
  0
LINE
 8
GROUP2
10
589.016592750766
20
-298.0671252341
30
0.0
11
589.175184671492
21
-298.45
31
0.0
  0
LINE
 8
GROUP2
10
35.3358752341002
20
-8.67715724923385
30
0.0
11
35.71875
21
-8.51856532850777
31
0.0
  0
LINE
 8
GROUP2
10
33.8024679848663
20
-6.0212179848663
30
0.0
11
33.5501846714922
21
-6.34999999999995
31
0.0
  0
LINE
 8
GROUP2
10
36.5124999999999
20
-7.14374999999995
30
0.0
11
36.4584072492339
21
-6.73287476589972
31
0.0
  0
LINE
 8
GROUP2
10
36.0475320151336
20
-8.26628201513361
30
0.0
11
36.2998153285078
21
-7.93749999999995
31
0.0
  0
LINE
 8
GROUP2
10
36.2998153285078
20
-7.93749999999995
30
0.0
11
36.4584072492339
21
-7.55462523410019
31
0.0
  0
LINE
 8
GROUP2
10
35.71875
20
-296.281434671492
30
0.0
11
35.3358752341002
21
-296.122842750766
31
0.0
  0
LINE
 8
GROUP2
10
57.5608752341002
20
-8.67715724923385
30
0.0
11
57.94375
21
-8.51856532850777
31
0.0
  0
LINE
 8
GROUP2
10
33.3915927507661
20
-298.0671252341
30
0.0
11
33.5501846714922
21
-298.45
31
0.0
  0
LINE
 8
GROUP2
10
57.15
20
-5.55624999999995
30
0.0
11
56.7391247658997
21
-5.61034275076606
31
0.0
  0
LINE
 8
GROUP2
10
55.6165927507661
20
-7.55462523410019
30
0.0
11
55.7751846714922
21
-7.93749999999995
31
0.0
  0
LINE
 8
GROUP2
10
55.7751846714922
20
-7.93749999999995
30
0.0
11
56.0274679848663
21
-8.26628201513361
31
0.0
  0
LINE
 8
GROUP2
10
56.7391247658997
20
-5.61034275076606
30
0.0
11
56.35625
21
-5.76893467149214
31
0.0
  0
LINE
 8
GROUP2
10
56.35625
20
-5.76893467149214
30
0.0
11
56.0274679848663
21
-6.0212179848663
31
0.0
  0
LINE
 8
GROUP2
10
55.7751846714922
20
-296.8625
30
0.0
11
55.6165927507661
21
-297.2453747659
31
0.0
  0
LINE
 8
GROUP2
10
57.5608752341002
20
-296.122842750766
30
0.0
11
57.15
21
-296.06875
31
0.0
  0
LINE
 8
GROUP2
10
58.5248153285078
20
-296.8625
30
0.0
11
58.2725320151336
21
-296.533717984866
31
0.0
  0
LINE
 8
GROUP2
10
55.7751846714922
20
-298.45
30
0.0
11
56.0274679848663
21
-298.778782015134
31
0.0
  0
LINE
 8
GROUP2
10
56.35625
20
-299.031065328508
30
0.0
11
56.7391247658997
21
-299.189657249234
31
0.0
  0
LINE
 8
GROUP2
10
55.6165927507661
20
-297.2453747659
30
0.0
11
55.5625
21
-297.65625
31
0.0
  0
LINE
 8
GROUP2
10
80.16875
20
-8.51856532850777
30
0.0
11
80.4975320151336
21
-8.26628201513361
31
0.0
  0
LINE
 8
GROUP2
10
34.925
20
-8.73124999999995
30
0.0
11
35.3358752341002
21
-8.67715724923385
31
0.0
  0
LINE
 8
GROUP2
10
36.5124999999999
20
-297.65625
30
0.0
11
36.4584072492339
21
-297.2453747659
31
0.0
  0
LINE
 8
GROUP2
10
33.8024679848663
20
-8.26628201513361
30
0.0
11
34.13125
21
-8.51856532850777
31
0.0
  0
LINE
 8
GROUP2
10
34.13125
20
-8.51856532850777
30
0.0
11
34.5141247658997
21
-8.67715724923385
31
0.0
  0
LINE
 8
GROUP2
10
36.0475320151336
20
-6.0212179848663
30
0.0
11
35.71875
21
-5.76893467149214
31
0.0
  0
LINE
 8
GROUP2
10
34.925
20
-296.06875
30
0.0
11
34.5141247658997
21
-296.122842750766
31
0.0
  0
LINE
 8
GROUP2
10
36.4584072492339
20
-297.2453747659
30
0.0
11
36.2998153285078
21
-296.8625
31
0.0
  0
LINE
 8
GROUP2
10
34.5141247658997
20
-296.122842750766
30
0.0
11
34.13125
21
-296.281434671492
31
0.0
  0
LINE
 8
GROUP2
10
34.5141247658997
20
-8.67715724923385
30
0.0
11
34.925
21
-8.73124999999995
31
0.0
  0
LINE
 8
GROUP2
10
36.0475320151336
20
-296.533717984866
30
0.0
11
35.71875
21
-296.281434671492
31
0.0
  0
LINE
 8
GROUP2
10
35.71875
20
-5.76893467149214
30
0.0
11
35.3358752341002
21
-5.61034275076606
31
0.0
  0
LINE
 8
GROUP2
10
33.3375
20
-297.65625
30
0.0
11
33.3915927507661
21
-298.0671252341
31
0.0
  0
LINE
 8
GROUP2
10
33.8024679848663
20
-298.778782015134
30
0.0
11
34.13125
21
-299.031065328508
31
0.0
  0
LINE
 8
GROUP2
10
34.925
20
-299.24375
30
0.0
11
35.3358752341002
21
-299.189657249234
31
0.0
  0
LINE
 8
GROUP2
10
34.13125
20
-296.281434671492
30
0.0
11
33.8024679848663
21
-296.533717984866
31
0.0
  0
LINE
 8
GROUP2
10
34.5141247658997
20
-299.189657249234
30
0.0
11
34.925
21
-299.24375
31
0.0
  0
LINE
 8
GROUP2
10
36.4584072492339
20
-298.0671252341
30
0.0
11
36.5124999999999
21
-297.65625
31
0.0
  0
LINE
 8
GROUP2
10
36.0475320151336
20
-298.778782015134
30
0.0
11
36.2998153285078
21
-298.45
31
0.0
  0
LINE
 8
GROUP2
10
33.5501846714922
20
-6.34999999999995
30
0.0
11
33.3915927507661
21
-6.73287476589972
31
0.0
  0
LINE
 8
GROUP2
10
33.3915927507661
20
-6.73287476589972
30
0.0
11
33.3375
21
-7.14374999999995
31
0.0
  0
LINE
 8
GROUP2
10
33.3375
20
-7.14374999999995
30
0.0
11
33.3915927507661
21
-7.55462523410019
31
0.0
  0
LINE
 8
GROUP2
10
35.71875
20
-299.031065328508
30
0.0
11
36.0475320151336
21
-298.778782015134
31
0.0
  0
LINE
 8
GROUP2
10
36.2998153285078
20
-298.45
30
0.0
11
36.4584072492339
21
-298.0671252341
31
0.0
  0
LINE
 8
GROUP2
10
36.4584072492339
20
-7.55462523410019
30
0.0
11
36.5124999999999
21
-7.14374999999995
31
0.0
  0
LINE
 8
GROUP2
10
33.8024679848663
20
-296.533717984866
30
0.0
11
33.5501846714922
21
-296.8625
31
0.0
  0
LINE
 8
GROUP2
10
35.3358752341002
20
-299.189657249234
30
0.0
11
35.71875
21
-299.031065328508
31
0.0
  0
LINE
 8
GROUP2
10
36.2998153285078
20
-6.34999999999995
30
0.0
11
36.0475320151336
21
-6.0212179848663
31
0.0
  0
LINE
 8
GROUP2
10
36.4584072492339
20
-6.73287476589972
30
0.0
11
36.2998153285078
21
-6.34999999999995
31
0.0
  0
LINE
 8
GROUP2
10
35.3358752341002
20
-5.61034275076606
30
0.0
11
34.925
21
-5.55624999999995
31
0.0
  0
LINE
 8
GROUP2
10
34.925
20
-5.55624999999995
30
0.0
11
34.5141247658997
21
-5.61034275076606
31
0.0
  0
LINE
 8
GROUP2
10
33.3915927507661
20
-7.55462523410019
30
0.0
11
33.5501846714922
21
-7.93749999999995
31
0.0
  0
LINE
 8
GROUP2
10
33.5501846714922
20
-7.93749999999995
30
0.0
11
33.8024679848663
21
-8.26628201513361
31
0.0
  0
LINE
 8
GROUP2
10
34.5141247658997
20
-5.61034275076606
30
0.0
11
34.13125
21
-5.76893467149214
31
0.0
  0
LINE
 8
GROUP2
10
34.13125
20
-5.76893467149214
30
0.0
11
33.8024679848663
21
-6.0212179848663
31
0.0
  0
LINE
 8
GROUP2
10
33.5501846714922
20
-296.8625
30
0.0
11
33.3915927507661
21
-297.2453747659
31
0.0
  0
LINE
 8
GROUP2
10
35.3358752341002
20
-296.122842750766
30
0.0
11
34.925
21
-296.06875
31
0.0
  0
LINE
 8
GROUP2
10
36.2998153285078
20
-296.8625
30
0.0
11
36.0475320151336
21
-296.533717984866
31
0.0
  0
LINE
 8
GROUP2
10
33.5501846714922
20
-298.45
30
0.0
11
33.8024679848663
21
-298.778782015134
31
0.0
  0
LINE
 8
GROUP2
10
34.13125
20
-299.031065328508
30
0.0
11
34.5141247658997
21
-299.189657249234
31
0.0
  0
LINE
 8
GROUP2
10
33.3915927507661
20
-297.2453747659
30
0.0
11
33.3375
21
-297.65625
31
0.0
  0
LINE
 8
GROUP2
10
56.0274679848663
20
-298.778782015134
30
0.0
11
56.35625
21
-299.031065328508
31
0.0
  0
LINE
 8
GROUP2
10
57.15
20
-299.24375
30
0.0
11
57.5608752341002
21
-299.189657249234
31
0.0
  0
LINE
 8
GROUP2
10
56.35625
20
-296.281434671492
30
0.0
11
56.0274679848663
21
-296.533717984866
31
0.0
  0
LINE
 8
GROUP2
10
56.7391247658997
20
-299.189657249234
30
0.0
11
57.15
21
-299.24375
31
0.0
  0
LINE
 8
GROUP2
10
58.6834072492339
20
-298.0671252341
30
0.0
11
58.7375
21
-297.65625
31
0.0
  0
LINE
 8
GROUP2
10
58.2725320151336
20
-298.778782015134
30
0.0
11
58.5248153285078
21
-298.45
31
0.0
  0
LINE
 8
GROUP2
10
55.7751846714922
20
-6.34999999999995
30
0.0
11
55.6165927507661
21
-6.73287476589972
31
0.0
  0
LINE
 8
GROUP2
10
55.6165927507661
20
-6.73287476589972
30
0.0
11
55.5625
21
-7.14374999999995
31
0.0
  0
LINE
 8
GROUP2
10
55.5625
20
-7.14374999999995
30
0.0
11
55.6165927507661
21
-7.55462523410019
31
0.0
  0
LINE
 8
GROUP2
10
57.94375
20
-299.031065328508
30
0.0
11
58.2725320151336
21
-298.778782015134
31
0.0
  0
LINE
 8
GROUP2
10
58.5248153285078
20
-298.45
30
0.0
11
58.6834072492339
21
-298.0671252341
31
0.0
  0
LINE
 8
GROUP2
10
58.6834072492339
20
-7.55462523410019
30
0.0
11
58.7375
21
-7.14374999999995
31
0.0
  0
LINE
 8
GROUP2
10
56.0274679848663
20
-296.533717984866
30
0.0
11
55.7751846714922
21
-296.8625
31
0.0
  0
LINE
 8
GROUP2
10
57.5608752341002
20
-299.189657249234
30
0.0
11
57.94375
21
-299.031065328508
31
0.0
  0
LINE
 8
GROUP2
10
58.5248153285078
20
-6.34999999999995
30
0.0
11
58.2725320151336
21
-6.0212179848663
31
0.0
  0
LINE
 8
GROUP2
10
58.6834072492339
20
-6.73287476589972
30
0.0
11
58.5248153285078
21
-6.34999999999995
31
0.0
  0
LINE
 8
GROUP2
10
57.5608752341002
20
-5.61034275076606
30
0.0
11
57.15
21
-5.55624999999995
31
0.0
  0
LINE
 8
GROUP2
10
544.725184671492
20
-6.34999999999995
30
0.0
11
544.566592750766
21
-6.73287476589972
31
0.0
  0
LINE
 8
GROUP2
10
544.566592750766
20
-6.73287476589972
30
0.0
11
544.5125
21
-7.14374999999995
31
0.0
  0
LINE
 8
GROUP2
10
544.5125
20
-7.14374999999995
30
0.0
11
544.566592750766
21
-7.55462523410019
31
0.0
  0
LINE
 8
GROUP2
10
546.89375
20
-299.031065328508
30
0.0
11
547.222532015134
21
-298.778782015134
31
0.0
  0
LINE
 8
GROUP2
10
547.474815328508
20
-298.45
30
0.0
11
547.633407249234
21
-298.0671252341
31
0.0
  0
LINE
 8
GROUP2
10
547.633407249234
20
-7.55462523410019
30
0.0
11
547.6875
21
-7.14374999999995
31
0.0
  0
LINE
 8
GROUP2
10
544.977467984866
20
-296.533717984866
30
0.0
11
544.725184671492
21
-296.8625
31
0.0
  0
LINE
 8
GROUP2
10
546.5108752341
20
-299.189657249234
30
0.0
11
546.89375
21
-299.031065328508
31
0.0
  0
LINE
 8
GROUP2
10
547.474815328508
20
-6.34999999999995
30
0.0
11
547.222532015134
21
-6.0212179848663
31
0.0
  0
LINE
 8
GROUP2
10
101.6
20
-8.73124999999995
30
0.0
11
102.0108752341
21
-8.67715724923385
31
0.0
  0
LINE
 8
GROUP2
10
103.1875
20
-297.65625
30
0.0
11
103.133407249234
21
-297.2453747659
31
0.0
  0
LINE
 8
GROUP2
10
100.477467984866
20
-8.26628201513361
30
0.0
11
100.80625
21
-8.51856532850777
31
0.0
  0
LINE
 8
GROUP2
10
80.9624999999999
20
-7.14374999999995
30
0.0
11
80.9084072492339
21
-6.73287476589972
31
0.0
  0
LINE
 8
GROUP2
10
57.15
20
-8.73124999999995
30
0.0
11
57.5608752341002
21
-8.67715724923385
31
0.0
  0
LINE
 8
GROUP2
10
58.7375
20
-297.65625
30
0.0
11
58.6834072492339
21
-297.2453747659
31
0.0
  0
LINE
 8
GROUP2
10
56.0274679848663
20
-8.26628201513361
30
0.0
11
56.35625
21
-8.51856532850777
31
0.0
  0
LINE
 8
GROUP2
10
56.35625
20
-8.51856532850777
30
0.0
11
56.7391247658997
21
-8.67715724923385
31
0.0
  0
LINE
 8
GROUP2
10
58.2725320151336
20
-6.0212179848663
30
0.0
11
57.94375
21
-5.76893467149214
31
0.0
  0
LINE
 8
GROUP2
10
57.15
20
-296.06875
30
0.0
11
56.7391247658997
21
-296.122842750766
31
0.0
  0
LINE
 8
GROUP2
10
58.6834072492339
20
-297.2453747659
30
0.0
11
58.5248153285078
21
-296.8625
31
0.0
  0
LINE
 8
GROUP2
10
56.7391247658997
20
-296.122842750766
30
0.0
11
56.35625
21
-296.281434671492
31
0.0
  0
LINE
 8
GROUP2
10
56.7391247658997
20
-8.67715724923385
30
0.0
11
57.15
21
-8.73124999999995
31
0.0
  0
LINE
 8
GROUP2
10
58.2725320151336
20
-296.533717984866
30
0.0
11
57.94375
21
-296.281434671492
31
0.0
  0
LINE
 8
GROUP2
10
57.94375
20
-5.76893467149214
30
0.0
11
57.5608752341002
21
-5.61034275076606
31
0.0
  0
LINE
 8
GROUP2
10
55.5625
20
-297.65625
30
0.0
11
55.6165927507661
21
-298.0671252341
31
0.0
  0
LINE
 8
GROUP2
10
57.94375
20
-8.51856532850777
30
0.0
11
58.2725320151336
21
-8.26628201513361
31
0.0
  0
LINE
 8
GROUP2
10
56.0274679848663
20
-6.0212179848663
30
0.0
11
55.7751846714922
21
-6.34999999999995
31
0.0
  0
LINE
 8
GROUP2
10
58.7375
20
-7.14374999999995
30
0.0
11
58.6834072492339
21
-6.73287476589972
31
0.0
  0
LINE
 8
GROUP2
10
55.6165927507661
20
-298.0671252341
30
0.0
11
55.7751846714922
21
-298.45
31
0.0
  0
LINE
 8
GROUP2
10
58.2725320151336
20
-8.26628201513361
30
0.0
11
58.5248153285078
21
-7.93749999999995
31
0.0
  0
LINE
 8
GROUP2
10
58.5248153285078
20
-7.93749999999995
30
0.0
11
58.6834072492339
21
-7.55462523410019
31
0.0
  0
LINE
 8
GROUP2
10
57.94375
20
-296.281434671492
30
0.0
11
57.5608752341002
21
-296.122842750766
31
0.0
  0
LINE
 8
GROUP2
10
102.0108752341
20
-8.67715724923385
30
0.0
11
102.39375
21
-8.51856532850777
31
0.0
  0
LINE
 8
GROUP2
10
78.2524679848663
20
-8.26628201513361
30
0.0
11
78.58125
21
-8.51856532850777
31
0.0
  0
LINE
 8
GROUP2
10
78.58125
20
-8.51856532850777
30
0.0
11
78.9641247658997
21
-8.67715724923385
31
0.0
  0
LINE
 8
GROUP2
10
80.4975320151336
20
-6.0212179848663
30
0.0
11
80.16875
21
-5.76893467149214
31
0.0
  0
LINE
 8
GROUP2
10
79.375
20
-296.06875
30
0.0
11
78.9641247658997
21
-296.122842750766
31
0.0
  0
LINE
 8
GROUP2
10
80.9084072492339
20
-297.2453747659
30
0.0
11
80.7498153285078
21
-296.8625
31
0.0
  0
LINE
 8
GROUP2
10
78.9641247658997
20
-296.122842750766
30
0.0
11
78.58125
21
-296.281434671492
31
0.0
  0
LINE
 8
GROUP2
10
78.9641247658997
20
-8.67715724923385
30
0.0
11
79.375
21
-8.73124999999995
31
0.0
  0
LINE
 8
GROUP2
10
80.4975320151336
20
-296.533717984866
30
0.0
11
80.16875
21
-296.281434671492
31
0.0
  0
LINE
 8
GROUP2
10
80.16875
20
-5.76893467149214
30
0.0
11
79.7858752341002
21
-5.61034275076606
31
0.0
  0
LINE
 8
GROUP2
10
77.7875
20
-297.65625
30
0.0
11
77.8415927507661
21
-298.0671252341
31
0.0
  0
LINE
 8
GROUP2
10
78.2524679848663
20
-298.778782015134
30
0.0
11
78.58125
21
-299.031065328508
31
0.0
  0
LINE
 8
GROUP2
10
79.375
20
-299.24375
30
0.0
11
79.7858752341002
21
-299.189657249234
31
0.0
  0
LINE
 8
GROUP2
10
78.58125
20
-296.281434671492
30
0.0
11
78.2524679848663
21
-296.533717984866
31
0.0
  0
LINE
 8
GROUP2
10
78.9641247658997
20
-299.189657249234
30
0.0
11
79.375
21
-299.24375
31
0.0
  0
LINE
 8
GROUP2
10
80.9084072492339
20
-298.0671252341
30
0.0
11
80.9624999999999
21
-297.65625
31
0.0
  0
LINE
 8
GROUP2
10
80.4975320151336
20
-298.778782015134
30
0.0
11
80.7498153285078
21
-298.45
31
0.0
  0
LINE
 8
GROUP2
10
78.0001846714922
20
-6.34999999999995
30
0.0
11
77.8415927507661
21
-6.73287476589972
31
0.0
  0
LINE
 8
GROUP2
10
77.8415927507661
20
-6.73287476589972
30
0.0
11
77.7875
21
-7.14374999999995
31
0.0
  0
LINE
 8
GROUP2
10
77.7875
20
-7.14374999999995
30
0.0
11
77.8415927507661
21
-7.55462523410019
31
0.0
  0
LINE
 8
GROUP2
10
80.16875
20
-299.031065328508
30
0.0
11
80.4975320151336
21
-298.778782015134
31
0.0
  0
LINE
 8
GROUP2
10
80.7498153285078
20
-298.45
30
0.0
11
80.9084072492339
21
-298.0671252341
31
0.0
  0
LINE
 8
GROUP2
10
80.9084072492339
20
-7.55462523410019
30
0.0
11
80.9624999999999
21
-7.14374999999995
31
0.0
  0
LINE
 8
GROUP2
10
78.2524679848663
20
-296.533717984866
30
0.0
11
78.0001846714922
21
-296.8625
31
0.0
  0
LINE
 8
GROUP2
10
79.7858752341002
20
-299.189657249234
30
0.0
11
80.16875
21
-299.031065328508
31
0.0
  0
LINE
 8
GROUP2
10
80.7498153285078
20
-6.34999999999995
30
0.0
11
80.4975320151336
21
-6.0212179848663
31
0.0
  0
LINE
 8
GROUP2
10
80.9084072492339
20
-6.73287476589972
30
0.0
11
80.7498153285078
21
-6.34999999999995
31
0.0
  0
LINE
 8
GROUP2
10
79.7858752341002
20
-5.61034275076606
30
0.0
11
79.375
21
-5.55624999999995
31
0.0
  0
LINE
 8
GROUP2
10
79.375
20
-5.55624999999995
30
0.0
11
78.9641247658997
21
-5.61034275076606
31
0.0
  0
LINE
 8
GROUP2
10
77.8415927507661
20
-7.55462523410019
30
0.0
11
78.0001846714922
21
-7.93749999999995
31
0.0
  0
LINE
 8
GROUP2
10
78.0001846714922
20
-7.93749999999995
30
0.0
11
78.2524679848663
21
-8.26628201513361
31
0.0
  0
LINE
 8
GROUP2
10
78.9641247658997
20
-5.61034275076606
30
0.0
11
78.58125
21
-5.76893467149214
31
0.0
  0
LINE
 8
GROUP2
10
78.58125
20
-5.76893467149214
30
0.0
11
78.2524679848663
21
-6.0212179848663
31
0.0
  0
LINE
 8
GROUP2
10
78.0001846714922
20
-296.8625
30
0.0
11
77.8415927507661
21
-297.2453747659
31
0.0
  0
LINE
 8
GROUP2
10
79.7858752341002
20
-296.122842750766
30
0.0
11
79.375
21
-296.06875
31
0.0
  0
LINE
 8
GROUP2
10
80.7498153285078
20
-296.8625
30
0.0
11
80.4975320151336
21
-296.533717984866
31
0.0
  0
LINE
 8
GROUP2
10
78.0001846714922
20
-298.45
30
0.0
11
78.2524679848663
21
-298.778782015134
31
0.0
  0
LINE
 8
GROUP2
10
78.58125
20
-299.031065328508
30
0.0
11
78.9641247658997
21
-299.189657249234
31
0.0
  0
LINE
 8
GROUP2
10
77.8415927507661
20
-297.2453747659
30
0.0
11
77.7875
21
-297.65625
31
0.0
  0
LINE
 8
GROUP2
10
102.39375
20
-8.51856532850777
30
0.0
11
102.722532015134
21
-8.26628201513361
31
0.0
  0
LINE
 8
GROUP2
10
79.7858752341002
20
-8.67715724923385
30
0.0
11
80.16875
21
-8.51856532850777
31
0.0
  0
LINE
 8
GROUP2
10
79.375
20
-8.73124999999995
30
0.0
11
79.7858752341002
21
-8.67715724923385
31
0.0
  0
LINE
 8
GROUP2
10
80.9624999999999
20
-297.65625
30
0.0
11
80.9084072492339
21
-297.2453747659
31
0.0
  0
LINE
 8
GROUP2
10
145.25625
20
-5.76893467149214
30
0.0
11
144.927467984866
21
-6.0212179848663
31
0.0
  0
LINE
 8
GROUP2
10
144.675184671492
20
-296.8625
30
0.0
11
144.516592750766
21
-297.2453747659
31
0.0
  0
LINE
 8
GROUP2
10
146.4608752341
20
-296.122842750766
30
0.0
11
146.05
21
-296.06875
31
0.0
  0
LINE
 8
GROUP2
10
147.424815328508
20
-296.8625
30
0.0
11
147.172532015134
21
-296.533717984866
31
0.0
  0
LINE
 8
GROUP2
10
144.675184671492
20
-298.45
30
0.0
11
144.927467984866
21
-298.778782015134
31
0.0
  0
LINE
 8
GROUP2
10
145.25625
20
-299.031065328508
30
0.0
11
145.6391247659
21
-299.189657249234
31
0.0
  0
LINE
 8
GROUP2
10
144.516592750766
20
-297.2453747659
30
0.0
11
144.4625
21
-297.65625
31
0.0
  0
LINE
 8
GROUP2
10
78.2524679848663
20
-6.0212179848663
30
0.0
11
78.0001846714922
21
-6.34999999999995
31
0.0
  0
LINE
 8
GROUP2
10
77.8415927507661
20
-298.0671252341
30
0.0
11
78.0001846714922
21
-298.45
31
0.0
  0
LINE
 8
GROUP2
10
80.4975320151336
20
-8.26628201513361
30
0.0
11
80.7498153285078
21
-7.93749999999995
31
0.0
  0
LINE
 8
GROUP2
10
80.7498153285078
20
-7.93749999999995
30
0.0
11
80.9084072492339
21
-7.55462523410019
31
0.0
  0
LINE
 8
GROUP2
10
80.16875
20
-296.281434671492
30
0.0
11
79.7858752341002
21
-296.122842750766
31
0.0
  0
LINE
 8
GROUP2
10
146.4608752341
20
-8.67715724923385
30
0.0
11
146.84375
21
-8.51856532850777
31
0.0
  0
LINE
 8
GROUP2
10
100.80625
20
-8.51856532850777
30
0.0
11
101.1891247659
21
-8.67715724923385
31
0.0
  0
LINE
 8
GROUP2
10
102.722532015134
20
-6.0212179848663
30
0.0
11
102.39375
21
-5.76893467149214
31
0.0
  0
LINE
 8
GROUP2
10
101.6
20
-296.06875
30
0.0
11
101.1891247659
21
-296.122842750766
31
0.0
  0
LINE
 8
GROUP2
10
103.133407249234
20
-297.2453747659
30
0.0
11
102.974815328508
21
-296.8625
31
0.0
  0
LINE
 8
GROUP2
10
101.1891247659
20
-296.122842750766
30
0.0
11
100.80625
21
-296.281434671492
31
0.0
  0
LINE
 8
GROUP2
10
101.1891247659
20
-8.67715724923385
30
0.0
11
101.6
21
-8.73124999999995
31
0.0
  0
LINE
 8
GROUP2
10
102.722532015134
20
-296.533717984866
30
0.0
11
102.39375
21
-296.281434671492
31
0.0
  0
LINE
 8
GROUP2
10
102.39375
20
-5.76893467149214
30
0.0
11
102.0108752341
21
-5.61034275076606
31
0.0
  0
LINE
 8
GROUP2
10
100.0125
20
-297.65625
30
0.0
11
100.066592750766
21
-298.0671252341
31
0.0
  0
LINE
 8
GROUP2
10
100.477467984866
20
-298.778782015134
30
0.0
11
100.80625
21
-299.031065328508
31
0.0
  0
LINE
 8
GROUP2
10
101.6
20
-299.24375
30
0.0
11
102.0108752341
21
-299.189657249234
31
0.0
  0
LINE
 8
GROUP2
10
100.80625
20
-296.281434671492
30
0.0
11
100.477467984866
21
-296.533717984866
31
0.0
  0
LINE
 8
GROUP2
10
101.1891247659
20
-299.189657249234
30
0.0
11
101.6
21
-299.24375
31
0.0
  0
LINE
 8
GROUP2
10
103.133407249234
20
-298.0671252341
30
0.0
11
103.1875
21
-297.65625
31
0.0
  0
LINE
 8
GROUP2
10
102.722532015134
20
-298.778782015134
30
0.0
11
102.974815328508
21
-298.45
31
0.0
  0
LINE
 8
GROUP2
10
100.225184671492
20
-6.34999999999995
30
0.0
11
100.066592750766
21
-6.73287476589972
31
0.0
  0
LINE
 8
GROUP2
10
100.066592750766
20
-6.73287476589972
30
0.0
11
100.0125
21
-7.14374999999995
31
0.0
  0
LINE
 8
GROUP2
10
100.0125
20
-7.14374999999995
30
0.0
11
100.066592750766
21
-7.55462523410019
31
0.0
  0
LINE
 8
GROUP2
10
102.39375
20
-299.031065328508
30
0.0
11
102.722532015134
21
-298.778782015134
31
0.0
  0
LINE
 8
GROUP2
10
102.974815328508
20
-298.45
30
0.0
11
103.133407249234
21
-298.0671252341
31
0.0
  0
LINE
 8
GROUP2
10
103.133407249234
20
-7.55462523410019
30
0.0
11
103.1875
21
-7.14374999999995
31
0.0
  0
LINE
 8
GROUP2
10
100.477467984866
20
-296.533717984866
30
0.0
11
100.225184671492
21
-296.8625
31
0.0
  0
LINE
 8
GROUP2
10
102.0108752341
20
-299.189657249234
30
0.0
11
102.39375
21
-299.031065328508
31
0.0
  0
LINE
 8
GROUP2
10
102.974815328508
20
-6.34999999999995
30
0.0
11
102.722532015134
21
-6.0212179848663
31
0.0
  0
LINE
 8
GROUP2
10
103.133407249234
20
-6.73287476589972
30
0.0
11
102.974815328508
21
-6.34999999999995
31
0.0
  0
LINE
 8
GROUP2
10
102.0108752341
20
-5.61034275076606
30
0.0
11
101.6
21
-5.55624999999995
31
0.0
  0
LINE
 8
GROUP2
10
101.6
20
-5.55624999999995
30
0.0
11
101.1891247659
21
-5.61034275076606
31
0.0
  0
LINE
 8
GROUP2
10
100.066592750766
20
-7.55462523410019
30
0.0
11
100.225184671492
21
-7.93749999999995
31
0.0
  0
LINE
 8
GROUP2
10
100.225184671492
20
-7.93749999999995
30
0.0
11
100.477467984866
21
-8.26628201513361
31
0.0
  0
LINE
 8
GROUP2
10
101.1891247659
20
-5.61034275076606
30
0.0
11
100.80625
21
-5.76893467149214
31
0.0
  0
LINE
 8
GROUP2
10
100.80625
20
-5.76893467149214
30
0.0
11
100.477467984866
21
-6.0212179848663
31
0.0
  0
LINE
 8
GROUP2
10
100.225184671492
20
-296.8625
30
0.0
11
100.066592750766
21
-297.2453747659
31
0.0
  0
LINE
 8
GROUP2
10
102.0108752341
20
-296.122842750766
30
0.0
11
101.6
21
-296.06875
31
0.0
  0
LINE
 8
GROUP2
10
102.974815328508
20
-296.8625
30
0.0
11
102.722532015134
21
-296.533717984866
31
0.0
  0
LINE
 8
GROUP2
10
100.225184671492
20
-298.45
30
0.0
11
100.477467984866
21
-298.778782015134
31
0.0
  0
LINE
 8
GROUP2
10
100.80625
20
-299.031065328508
30
0.0
11
101.1891247659
21
-299.189657249234
31
0.0
  0
LINE
 8
GROUP2
10
100.066592750766
20
-297.2453747659
30
0.0
11
100.0125
21
-297.65625
31
0.0
  0
LINE
 8
GROUP2
10
144.675184671492
20
-6.34999999999995
30
0.0
11
144.516592750766
21
-6.73287476589972
31
0.0
  0
LINE
 8
GROUP2
10
144.516592750766
20
-6.73287476589972
30
0.0
11
144.4625
21
-7.14374999999995
31
0.0
  0
LINE
 8
GROUP2
10
144.4625
20
-7.14374999999995
30
0.0
11
144.516592750766
21
-7.55462523410019
31
0.0
  0
LINE
 8
GROUP2
10
146.84375
20
-299.031065328508
30
0.0
11
147.172532015134
21
-298.778782015134
31
0.0
  0
LINE
 8
GROUP2
10
147.424815328508
20
-298.45
30
0.0
11
147.583407249234
21
-298.0671252341
31
0.0
  0
LINE
 8
GROUP2
10
147.583407249234
20
-7.55462523410019
30
0.0
11
147.6375
21
-7.14374999999995
31
0.0
  0
LINE
 8
GROUP2
10
144.927467984866
20
-296.533717984866
30
0.0
11
144.675184671492
21
-296.8625
31
0.0
  0
LINE
 8
GROUP2
10
146.4608752341
20
-299.189657249234
30
0.0
11
146.84375
21
-299.031065328508
31
0.0
  0
LINE
 8
GROUP2
10
147.424815328508
20
-6.34999999999995
30
0.0
11
147.172532015134
21
-6.0212179848663
31
0.0
  0
LINE
 8
GROUP2
10
147.583407249234
20
-6.73287476589972
30
0.0
11
147.424815328508
21
-6.34999999999995
31
0.0
  0
LINE
 8
GROUP2
10
146.4608752341
20
-5.61034275076606
30
0.0
11
146.05
21
-5.55624999999995
31
0.0
  0
LINE
 8
GROUP2
10
100.477467984866
20
-6.0212179848663
30
0.0
11
100.225184671492
21
-6.34999999999995
31
0.0
  0
LINE
 8
GROUP2
10
103.1875
20
-7.14374999999995
30
0.0
11
103.133407249234
21
-6.73287476589972
31
0.0
  0
LINE
 8
GROUP2
10
100.066592750766
20
-298.0671252341
30
0.0
11
100.225184671492
21
-298.45
31
0.0
  0
LINE
 8
GROUP2
10
102.722532015134
20
-8.26628201513361
30
0.0
11
102.974815328508
21
-7.93749999999995
31
0.0
  0
LINE
 8
GROUP2
10
102.974815328508
20
-7.93749999999995
30
0.0
11
103.133407249234
21
-7.55462523410019
31
0.0
  0
LINE
 8
GROUP2
10
102.39375
20
-296.281434671492
30
0.0
11
102.0108752341
21
-296.122842750766
31
0.0
  0
LINE
 8
GROUP2
10
544.977467984866
20
-6.0212179848663
30
0.0
11
544.725184671492
21
-6.34999999999995
31
0.0
  0
LINE
 8
GROUP2
10
546.89375
20
-296.281434671492
30
0.0
11
546.5108752341
21
-296.122842750766
31
0.0
  0
LINE
 8
GROUP2
10
146.05
20
-5.55624999999995
30
0.0
11
145.6391247659
21
-5.61034275076606
31
0.0
  0
LINE
 8
GROUP2
10
144.516592750766
20
-7.55462523410019
30
0.0
11
144.675184671492
21
-7.93749999999995
31
0.0
  0
LINE
 8
GROUP2
10
144.675184671492
20
-7.93749999999995
30
0.0
11
144.927467984866
21
-8.26628201513361
31
0.0
  0
LINE
 8
GROUP2
10
145.6391247659
20
-5.61034275076606
30
0.0
11
145.25625
21
-5.76893467149214
31
0.0
  0
LINE
 8
GROUP2
10
547.633407249234
20
-6.73287476589972
30
0.0
11
547.474815328508
21
-6.34999999999995
31
0.0
  0
LINE
 8
GROUP2
10
546.5108752341
20
-5.61034275076606
30
0.0
11
546.1
21
-5.55624999999995
31
0.0
  0
LINE
 8
GROUP2
10
546.1
20
-5.55624999999995
30
0.0
11
545.6891247659
21
-5.61034275076606
31
0.0
  0
LINE
 8
GROUP2
10
544.566592750766
20
-7.55462523410019
30
0.0
11
544.725184671492
21
-7.93749999999995
31
0.0
  0
LINE
 8
GROUP2
10
544.725184671492
20
-7.93749999999995
30
0.0
11
544.977467984866
21
-8.26628201513361
31
0.0
  0
LINE
 8
GROUP2
10
545.6891247659
20
-5.61034275076606
30
0.0
11
545.30625
21
-5.76893467149214
31
0.0
  0
LINE
 8
GROUP2
10
545.30625
20
-5.76893467149214
30
0.0
11
544.977467984866
21
-6.0212179848663
31
0.0
  0
LINE
 8
GROUP2
10
544.725184671492
20
-296.8625
30
0.0
11
544.566592750766
21
-297.2453747659
31
0.0
  0
LINE
 8
GROUP2
10
546.5108752341
20
-296.122842750766
30
0.0
11
546.1
21
-296.06875
31
0.0
  0
LINE
 8
GROUP2
10
547.474815328508
20
-296.8625
30
0.0
11
547.222532015134
21
-296.533717984866
31
0.0
  0
LINE
 8
GROUP2
10
544.725184671492
20
-298.45
30
0.0
11
544.977467984866
21
-298.778782015134
31
0.0
  0
LINE
 8
GROUP2
10
545.30625
20
-299.031065328508
30
0.0
11
545.6891247659
21
-299.189657249234
31
0.0
  0
LINE
 8
GROUP2
10
544.566592750766
20
-297.2453747659
30
0.0
11
544.5125
21
-297.65625
31
0.0
  0
LINE
 8
GROUP2
10
146.05
20
-8.73124999999995
30
0.0
11
146.4608752341
21
-8.67715724923385
31
0.0
  0
LINE
 8
GROUP2
10
147.6375
20
-297.65625
30
0.0
11
147.583407249234
21
-297.2453747659
31
0.0
  0
LINE
 8
GROUP2
10
144.927467984866
20
-8.26628201513361
30
0.0
11
145.25625
21
-8.51856532850777
31
0.0
  0
LINE
 8
GROUP2
10
145.25625
20
-8.51856532850777
30
0.0
11
145.6391247659
21
-8.67715724923385
31
0.0
  0
LINE
 8
GROUP2
10
147.172532015134
20
-6.0212179848663
30
0.0
11
146.84375
21
-5.76893467149214
31
0.0
  0
LINE
 8
GROUP2
10
146.05
20
-296.06875
30
0.0
11
145.6391247659
21
-296.122842750766
31
0.0
  0
LINE
 8
GROUP2
10
147.583407249234
20
-297.2453747659
30
0.0
11
147.424815328508
21
-296.8625
31
0.0
  0
LINE
 8
GROUP2
10
145.6391247659
20
-296.122842750766
30
0.0
11
145.25625
21
-296.281434671492
31
0.0
  0
LINE
 8
GROUP2
10
145.6391247659
20
-8.67715724923385
30
0.0
11
146.05
21
-8.73124999999995
31
0.0
  0
LINE
 8
GROUP2
10
147.172532015134
20
-296.533717984866
30
0.0
11
146.84375
21
-296.281434671492
31
0.0
  0
LINE
 8
GROUP2
10
146.84375
20
-5.76893467149214
30
0.0
11
146.4608752341
21
-5.61034275076606
31
0.0
  0
LINE
 8
GROUP2
10
144.4625
20
-297.65625
30
0.0
11
144.516592750766
21
-298.0671252341
31
0.0
  0
LINE
 8
GROUP2
10
144.927467984866
20
-298.778782015134
30
0.0
11
145.25625
21
-299.031065328508
31
0.0
  0
LINE
 8
GROUP2
10
146.05
20
-299.24375
30
0.0
11
146.4608752341
21
-299.189657249234
31
0.0
  0
LINE
 8
GROUP2
10
145.25625
20
-296.281434671492
30
0.0
11
144.927467984866
21
-296.533717984866
31
0.0
  0
LINE
 8
GROUP2
10
145.6391247659
20
-299.189657249234
30
0.0
11
146.05
21
-299.24375
31
0.0
  0
LINE
 8
GROUP2
10
147.583407249234
20
-298.0671252341
30
0.0
11
147.6375
21
-297.65625
31
0.0
  0
LINE
 8
GROUP2
10
147.172532015134
20
-298.778782015134
30
0.0
11
147.424815328508
21
-298.45
31
0.0
  0
LINE
 8
GROUP2
10
544.566592750766
20
-298.0671252341
30
0.0
11
544.725184671492
21
-298.45
31
0.0
  0
LINE
 8
GROUP2
10
146.84375
20
-8.51856532850777
30
0.0
11
147.172532015134
21
-8.26628201513361
31
0.0
  0
LINE
 8
GROUP2
10
144.927467984866
20
-6.0212179848663
30
0.0
11
144.675184671492
21
-6.34999999999995
31
0.0
  0
LINE
 8
GROUP2
10
147.6375
20
-7.14374999999995
30
0.0
11
147.583407249234
21
-6.73287476589972
31
0.0
  0
LINE
 8
GROUP2
10
144.516592750766
20
-298.0671252341
30
0.0
11
144.675184671492
21
-298.45
31
0.0
  0
LINE
 8
GROUP2
10
147.172532015134
20
-8.26628201513361
30
0.0
11
147.424815328508
21
-7.93749999999995
31
0.0
  0
LINE
 8
GROUP2
10
147.424815328508
20
-7.93749999999995
30
0.0
11
147.583407249234
21
-7.55462523410019
31
0.0
  0
LINE
 8
GROUP2
10
146.84375
20
-296.281434671492
30
0.0
11
146.4608752341
21
-296.122842750766
31
0.0
  0
LINE
 8
GROUP2
10
547.6875
20
-7.14374999999995
30
0.0
11
547.633407249234
21
-6.73287476589972
31
0.0
  0
LINE
 8
GROUP2
10
546.5108752341
20
-8.67715724923385
30
0.0
11
546.89375
21
-8.51856532850777
31
0.0
  0
LINE
 8
GROUP2
10
544.977467984866
20
-8.26628201513361
30
0.0
11
545.30625
21
-8.51856532850777
31
0.0
  0
LINE
 8
GROUP2
10
545.30625
20
-8.51856532850777
30
0.0
11
545.6891247659
21
-8.67715724923385
31
0.0
  0
LINE
 8
GROUP2
10
547.222532015134
20
-6.0212179848663
30
0.0
11
546.89375
21
-5.76893467149214
31
0.0
  0
LINE
 8
GROUP2
10
546.1
20
-296.06875
30
0.0
11
545.6891247659
21
-296.122842750766
31
0.0
  0
LINE
 8
GROUP2
10
547.633407249234
20
-297.2453747659
30
0.0
11
547.474815328508
21
-296.8625
31
0.0
  0
LINE
 8
GROUP2
10
545.6891247659
20
-296.122842750766
30
0.0
11
545.30625
21
-296.281434671492
31
0.0
  0
LINE
 8
GROUP2
10
545.6891247659
20
-8.67715724923385
30
0.0
11
546.1
21
-8.73124999999995
31
0.0
  0
LINE
 8
GROUP2
10
547.222532015134
20
-296.533717984866
30
0.0
11
546.89375
21
-296.281434671492
31
0.0
  0
LINE
 8
GROUP2
10
546.89375
20
-5.76893467149214
30
0.0
11
546.5108752341
21
-5.61034275076606
31
0.0
  0
LINE
 8
GROUP2
10
544.5125
20
-297.65625
30
0.0
11
544.566592750766
21
-298.0671252341
31
0.0
  0
LINE
 8
GROUP2
10
544.977467984866
20
-298.778782015134
30
0.0
11
545.30625
21
-299.031065328508
31
0.0
  0
LINE
 8
GROUP2
10
546.1
20
-299.24375
30
0.0
11
546.5108752341
21
-299.189657249234
31
0.0
  0
LINE
 8
GROUP2
10
545.30625
20
-296.281434671492
30
0.0
11
544.977467984866
21
-296.533717984866
31
0.0
  0
LINE
 8
GROUP2
10
545.6891247659
20
-299.189657249234
30
0.0
11
546.1
21
-299.24375
31
0.0
  0
LINE
 8
GROUP2
10
547.633407249234
20
-298.0671252341
30
0.0
11
547.6875
21
-297.65625
31
0.0
  0
LINE
 8
GROUP2
10
547.222532015134
20
-298.778782015134
30
0.0
11
547.474815328508
21
-298.45
31
0.0
  0
LINE
 8
GROUP2
10
547.474815328508
20
-7.93749999999995
30
0.0
11
547.633407249234
21
-7.55462523410019
31
0.0
  0
LINE
 8
GROUP2
10
546.89375
20
-8.51856532850777
30
0.0
11
547.222532015134
21
-8.26628201513361
31
0.0
  0
LINE
 8
GROUP2
10
547.222532015134
20
-8.26628201513361
30
0.0
11
547.474815328508
21
-7.93749999999995
31
0.0
  0
LINE
 8
GROUP2
10
546.1
20
-8.73124999999995
30
0.0
11
546.5108752341
21
-8.67715724923385
31
0.0
  0
LINE
 8
GROUP2
10
547.6875
20
-297.65625
30
0.0
11
547.633407249234
21
-297.2453747659
31
0.0
  0
LINE
 8
GROUP2
10
591.672532015134
20
-8.26628201513361
30
0.0
11
591.924815328508
21
-7.93749999999995
31
0.0
  0
LINE
 8
GROUP2
10
590.55
20
-299.24375
30
0.0
11
590.9608752341
21
-299.189657249234
31
0.0
  0
LINE
 8
GROUP2
10
589.75625
20
-296.281434671492
30
0.0
11
589.427467984866
21
-296.533717984866
31
0.0
  0
LINE
 8
GROUP2
10
14.2874999999999
20
-7.14374999999995
30
0.0
11
14.2334072492339
21
-6.73287476589972
31
0.0
  0
LINE
 8
GROUP2
10
12.7
20
-8.73124999999995
30
0.0
11
13.1108752341002
21
-8.67715724923385
31
0.0
  0
LINE
 8
GROUP2
10
14.2334072492339
20
-297.2453747659
30
0.0
11
14.0748153285078
21
-296.8625
31
0.0
  0
LINE
 8
GROUP2
10
12.2891247658997
20
-296.122842750766
30
0.0
11
11.90625
21
-296.281434671492
31
0.0
  0
LINE
 8
GROUP2
10
13.1108752341002
20
-8.67715724923385
30
0.0
11
13.49375
21
-8.51856532850777
31
0.0
  0
LINE
 8
GROUP2
10
11.1665927507661
20
-298.0671252341
30
0.0
11
11.3251846714922
21
-298.45
31
0.0
  0
LINE
 8
GROUP2
10
14.2874999999999
20
-297.65625
30
0.0
11
14.2334072492339
21
-297.2453747659
31
0.0
  0
LINE
 8
GROUP2
10
13.49375
20
-296.281434671492
30
0.0
11
13.1108752341002
21
-296.122842750766
31
0.0
  0
LINE
 8
GROUP2
10
14.0748153285078
20
-7.93749999999995
30
0.0
11
14.2334072492339
21
-7.55462523410019
31
0.0
  0
LINE
 8
GROUP2
10
12.7
20
-5.55624999999995
30
0.0
11
12.2891247658997
21
-5.61034275076606
31
0.0
  0
LINE
 8
GROUP2
10
11.1665927507661
20
-7.55462523410019
30
0.0
11
11.3251846714922
21
-7.93749999999995
31
0.0
  0
LINE
 8
GROUP2
10
11.3251846714922
20
-7.93749999999995
30
0.0
11
11.5774679848663
21
-8.26628201513361
31
0.0
  0
LINE
 8
GROUP2
10
12.2891247658997
20
-5.61034275076606
30
0.0
11
11.90625
21
-5.76893467149214
31
0.0
  0
LINE
 8
GROUP2
10
11.90625
20
-5.76893467149214
30
0.0
11
11.5774679848663
21
-6.0212179848663
31
0.0
  0
LINE
 8
GROUP2
10
11.3251846714922
20
-296.8625
30
0.0
11
11.1665927507661
21
-297.2453747659
31
0.0
  0
LINE
 8
GROUP2
10
13.1108752341002
20
-296.122842750766
30
0.0
11
12.7
21
-296.06875
31
0.0
  0
LINE
 8
GROUP2
10
14.0748153285078
20
-296.8625
30
0.0
11
13.8225320151336
21
-296.533717984866
31
0.0
  0
LINE
 8
GROUP2
10
11.3251846714922
20
-298.45
30
0.0
11
11.5774679848663
21
-298.778782015134
31
0.0
  0
LINE
 8
GROUP2
10
11.90625
20
-299.031065328508
30
0.0
11
12.2891247658997
21
-299.189657249234
31
0.0
  0
LINE
 8
GROUP2
10
11.1665927507661
20
-297.2453747659
30
0.0
11
11.1125
21
-297.65625
31
0.0
  0
LINE
 8
GROUP2
10
12.2891247658997
20
-8.67715724923385
30
0.0
11
12.7
21
-8.73124999999995
31
0.0
  0
LINE
 8
GROUP2
10
13.8225320151336
20
-296.533717984866
30
0.0
11
13.49375
21
-296.281434671492
31
0.0
  0
LINE
 8
GROUP2
10
14.2334072492339
20
-298.0671252341
30
0.0
11
14.2874999999999
21
-297.65625
31
0.0
  0
LINE
 8
GROUP2
10
13.8225320151336
20
-8.26628201513361
30
0.0
11
14.0748153285078
21
-7.93749999999995
31
0.0
  0
LINE
 8
GROUP2
10
12.7
20
-296.06875
30
0.0
11
12.2891247658997
21
-296.122842750766
31
0.0
  0
LINE
 8
GROUP2
10
11.1125
20
-297.65625
30
0.0
11
11.1665927507661
21
-298.0671252341
31
0.0
  0
LINE
 8
GROUP2
10
11.5774679848663
20
-298.778782015134
30
0.0
11
11.90625
21
-299.031065328508
31
0.0
  0
LINE
 8
GROUP2
10
12.7
20
-299.24375
30
0.0
11
13.1108752341002
21
-299.189657249234
31
0.0
  0
LINE
 8
GROUP2
10
11.90625
20
-296.281434671492
30
0.0
11
11.5774679848663
21
-296.533717984866
31
0.0
  0
LINE
 8
GROUP2
10
12.2891247658997
20
-299.189657249234
30
0.0
11
12.7
21
-299.24375
31
0.0
  0
LINE
 8
GROUP2
10
13.8225320151336
20
-298.778782015134
30
0.0
11
14.0748153285078
21
-298.45
31
0.0
  0
LINE
 8
GROUP2
10
11.3251846714922
20
-6.34999999999995
30
0.0
11
11.1665927507661
21
-6.73287476589972
31
0.0
  0
LINE
 8
GROUP2
10
11.1665927507661
20
-6.73287476589972
30
0.0
11
11.1125
21
-7.14374999999995
31
0.0
  0
LINE
 8
GROUP2
10
11.1125
20
-7.14374999999995
30
0.0
11
11.1665927507661
21
-7.55462523410019
31
0.0
  0
LINE
 8
GROUP2
10
13.49375
20
-299.031065328508
30
0.0
11
13.8225320151336
21
-298.778782015134
31
0.0
  0
LINE
 8
GROUP2
10
14.0748153285078
20
-298.45
30
0.0
11
14.2334072492339
21
-298.0671252341
31
0.0
  0
LINE
 8
GROUP2
10
14.2334072492339
20
-7.55462523410019
30
0.0
11
14.2874999999999
21
-7.14374999999995
31
0.0
  0
LINE
 8
GROUP2
10
11.5774679848663
20
-296.533717984866
30
0.0
11
11.3251846714922
21
-296.8625
31
0.0
  0
LINE
 8
GROUP2
10
13.1108752341002
20
-299.189657249234
30
0.0
11
13.49375
21
-299.031065328508
31
0.0
  0
LINE
 8
GROUP2
10
14.0748153285078
20
-6.34999999999995
30
0.0
11
13.8225320151336
21
-6.0212179848663
31
0.0
  0
LINE
 8
GROUP2
10
14.2334072492339
20
-6.73287476589972
30
0.0
11
14.0748153285078
21
-6.34999999999995
31
0.0
  0
LINE
 8
GROUP2
10
13.1108752341002
20
-5.61034275076606
30
0.0
11
12.7
21
-5.55624999999995
31
0.0
  0
LINE
 8
GROUP2
10
168.6858752341
20
-8.67715724923385
30
0.0
11
169.06875
21
-8.51856532850777
31
0.0
  0
LINE
 8
GROUP2
10
169.06875
20
-8.51856532850777
30
0.0
11
169.397532015134
21
-8.26628201513361
31
0.0
  0
LINE
 8
GROUP2
10
124.2358752341
20
-8.67715724923385
30
0.0
11
124.61875
21
-8.51856532850777
31
0.0
  0
LINE
 8
GROUP2
10
167.152467984866
20
-6.0212179848663
30
0.0
11
166.900184671492
21
-6.34999999999995
31
0.0
  0
LINE
 8
GROUP2
10
169.8625
20
-7.14374999999995
30
0.0
11
169.808407249234
21
-6.73287476589972
31
0.0
  0
LINE
 8
GROUP2
10
166.741592750766
20
-298.0671252341
30
0.0
11
166.900184671492
21
-298.45
31
0.0
  0
LINE
 8
GROUP2
10
169.397532015134
20
-8.26628201513361
30
0.0
11
169.649815328508
21
-7.93749999999995
31
0.0
  0
LINE
 8
GROUP2
10
169.649815328508
20
-7.93749999999995
30
0.0
11
169.808407249234
21
-7.55462523410019
31
0.0
  0
LINE
 8
GROUP2
10
169.06875
20
-296.281434671492
30
0.0
11
168.6858752341
21
-296.122842750766
31
0.0
  0
LINE
 8
GROUP2
10
123.825
20
-5.55624999999995
30
0.0
11
123.4141247659
21
-5.61034275076606
31
0.0
  0
LINE
 8
GROUP2
10
122.291592750766
20
-7.55462523410019
30
0.0
11
122.450184671492
21
-7.93749999999995
31
0.0
  0
LINE
 8
GROUP2
10
122.450184671492
20
-7.93749999999995
30
0.0
11
122.702467984866
21
-8.26628201513361
31
0.0
  0
LINE
 8
GROUP2
10
123.4141247659
20
-5.61034275076606
30
0.0
11
123.03125
21
-5.76893467149214
31
0.0
  0
LINE
 8
GROUP2
10
123.03125
20
-5.76893467149214
30
0.0
11
122.702467984866
21
-6.0212179848663
31
0.0
  0
LINE
 8
GROUP2
10
122.450184671492
20
-296.8625
30
0.0
11
122.291592750766
21
-297.2453747659
31
0.0
  0
LINE
 8
GROUP2
10
124.2358752341
20
-296.122842750766
30
0.0
11
123.825
21
-296.06875
31
0.0
  0
LINE
 8
GROUP2
10
125.199815328508
20
-296.8625
30
0.0
11
124.947532015134
21
-296.533717984866
31
0.0
  0
LINE
 8
GROUP2
10
122.450184671492
20
-298.45
30
0.0
11
122.702467984866
21
-298.778782015134
31
0.0
  0
LINE
 8
GROUP2
10
123.03125
20
-299.031065328508
30
0.0
11
123.4141247659
21
-299.189657249234
31
0.0
  0
LINE
 8
GROUP2
10
122.291592750766
20
-297.2453747659
30
0.0
11
122.2375
21
-297.65625
31
0.0
  0
LINE
 8
GROUP2
10
211.350184671492
20
-7.93749999999995
30
0.0
11
211.602467984866
21
-8.26628201513361
31
0.0
  0
LINE
 8
GROUP2
10
212.3141247659
20
-5.61034275076606
30
0.0
11
211.93125
21
-5.76893467149214
31
0.0
  0
LINE
 8
GROUP2
10
211.93125
20
-5.76893467149214
30
0.0
11
211.602467984866
21
-6.0212179848663
31
0.0
  0
LINE
 8
GROUP2
10
211.350184671492
20
-296.8625
30
0.0
11
211.191592750766
21
-297.2453747659
31
0.0
  0
LINE
 8
GROUP2
10
213.1358752341
20
-296.122842750766
30
0.0
11
212.725
21
-296.06875
31
0.0
  0
LINE
 8
GROUP2
10
214.099815328508
20
-296.8625
30
0.0
11
213.847532015134
21
-296.533717984866
31
0.0
  0
LINE
 8
GROUP2
10
211.350184671492
20
-298.45
30
0.0
11
211.602467984866
21
-298.778782015134
31
0.0
  0
LINE
 8
GROUP2
10
211.93125
20
-299.031065328508
30
0.0
11
212.3141247659
21
-299.189657249234
31
0.0
  0
LINE
 8
GROUP2
10
211.191592750766
20
-297.2453747659
30
0.0
11
211.1375
21
-297.65625
31
0.0
  0
LINE
 8
GROUP2
10
168.275
20
-8.73124999999995
30
0.0
11
168.6858752341
21
-8.67715724923385
31
0.0
  0
LINE
 8
GROUP2
10
169.8625
20
-297.65625
30
0.0
11
169.808407249234
21
-297.2453747659
31
0.0
  0
LINE
 8
GROUP2
10
167.152467984866
20
-8.26628201513361
30
0.0
11
167.48125
21
-8.51856532850777
31
0.0
  0
LINE
 8
GROUP2
10
167.48125
20
-8.51856532850777
30
0.0
11
167.8641247659
21
-8.67715724923385
31
0.0
  0
LINE
 8
GROUP2
10
169.397532015134
20
-6.0212179848663
30
0.0
11
169.06875
21
-5.76893467149214
31
0.0
  0
LINE
 8
GROUP2
10
168.275
20
-296.06875
30
0.0
11
167.8641247659
21
-296.122842750766
31
0.0
  0
LINE
 8
GROUP2
10
169.808407249234
20
-297.2453747659
30
0.0
11
169.649815328508
21
-296.8625
31
0.0
  0
LINE
 8
GROUP2
10
167.8641247659
20
-296.122842750766
30
0.0
11
167.48125
21
-296.281434671492
31
0.0
  0
LINE
 8
GROUP2
10
167.8641247659
20
-8.67715724923385
30
0.0
11
168.275
21
-8.73124999999995
31
0.0
  0
LINE
 8
GROUP2
10
169.397532015134
20
-296.533717984866
30
0.0
11
169.06875
21
-296.281434671492
31
0.0
  0
LINE
 8
GROUP2
10
169.06875
20
-5.76893467149214
30
0.0
11
168.6858752341
21
-5.61034275076606
31
0.0
  0
LINE
 8
GROUP2
10
166.6875
20
-297.65625
30
0.0
11
166.741592750766
21
-298.0671252341
31
0.0
  0
LINE
 8
GROUP2
10
167.152467984866
20
-298.778782015134
30
0.0
11
167.48125
21
-299.031065328508
31
0.0
  0
LINE
 8
GROUP2
10
168.275
20
-299.24375
30
0.0
11
168.6858752341
21
-299.189657249234
31
0.0
  0
LINE
 8
GROUP2
10
167.48125
20
-296.281434671492
30
0.0
11
167.152467984866
21
-296.533717984866
31
0.0
  0
LINE
 8
GROUP2
10
167.8641247659
20
-299.189657249234
30
0.0
11
168.275
21
-299.24375
31
0.0
  0
LINE
 8
GROUP2
10
169.808407249234
20
-298.0671252341
30
0.0
11
169.8625
21
-297.65625
31
0.0
  0
LINE
 8
GROUP2
10
169.397532015134
20
-298.778782015134
30
0.0
11
169.649815328508
21
-298.45
31
0.0
  0
LINE
 8
GROUP2
10
166.900184671492
20
-6.34999999999995
30
0.0
11
166.741592750766
21
-6.73287476589972
31
0.0
  0
LINE
 8
GROUP2
10
166.741592750766
20
-6.73287476589972
30
0.0
11
166.6875
21
-7.14374999999995
31
0.0
  0
LINE
 8
GROUP2
10
166.6875
20
-7.14374999999995
30
0.0
11
166.741592750766
21
-7.55462523410019
31
0.0
  0
LINE
 8
GROUP2
10
169.06875
20
-299.031065328508
30
0.0
11
169.397532015134
21
-298.778782015134
31
0.0
  0
LINE
 8
GROUP2
10
169.649815328508
20
-298.45
30
0.0
11
169.808407249234
21
-298.0671252341
31
0.0
  0
LINE
 8
GROUP2
10
169.808407249234
20
-7.55462523410019
30
0.0
11
169.8625
21
-7.14374999999995
31
0.0
  0
LINE
 8
GROUP2
10
167.152467984866
20
-296.533717984866
30
0.0
11
166.900184671492
21
-296.8625
31
0.0
  0
LINE
 8
GROUP2
10
168.6858752341
20
-299.189657249234
30
0.0
11
169.06875
21
-299.031065328508
31
0.0
  0
LINE
 8
GROUP2
10
169.649815328508
20
-6.34999999999995
30
0.0
11
169.397532015134
21
-6.0212179848663
31
0.0
  0
LINE
 8
GROUP2
10
169.808407249234
20
-6.73287476589972
30
0.0
11
169.649815328508
21
-6.34999999999995
31
0.0
  0
LINE
 8
GROUP2
10
168.6858752341
20
-5.61034275076606
30
0.0
11
168.275
21
-5.55624999999995
31
0.0
  0
LINE
 8
GROUP2
10
168.275
20
-5.55624999999995
30
0.0
11
167.8641247659
21
-5.61034275076606
31
0.0
  0
LINE
 8
GROUP2
10
166.741592750766
20
-7.55462523410019
30
0.0
11
166.900184671492
21
-7.93749999999995
31
0.0
  0
LINE
 8
GROUP2
10
166.900184671492
20
-7.93749999999995
30
0.0
11
167.152467984866
21
-8.26628201513361
31
0.0
  0
LINE
 8
GROUP2
10
167.8641247659
20
-5.61034275076606
30
0.0
11
167.48125
21
-5.76893467149214
31
0.0
  0
LINE
 8
GROUP2
10
167.48125
20
-5.76893467149214
30
0.0
11
167.152467984866
21
-6.0212179848663
31
0.0
  0
LINE
 8
GROUP2
10
166.900184671492
20
-296.8625
30
0.0
11
166.741592750766
21
-297.2453747659
31
0.0
  0
LINE
 8
GROUP2
10
168.6858752341
20
-296.122842750766
30
0.0
11
168.275
21
-296.06875
31
0.0
  0
LINE
 8
GROUP2
10
169.649815328508
20
-296.8625
30
0.0
11
169.397532015134
21
-296.533717984866
31
0.0
  0
LINE
 8
GROUP2
10
166.900184671492
20
-298.45
30
0.0
11
167.152467984866
21
-298.778782015134
31
0.0
  0
LINE
 8
GROUP2
10
167.48125
20
-299.031065328508
30
0.0
11
167.8641247659
21
-299.189657249234
31
0.0
  0
LINE
 8
GROUP2
10
166.741592750766
20
-297.2453747659
30
0.0
11
166.6875
21
-297.65625
31
0.0
  0
LINE
 8
GROUP2
10
122.2375
20
-297.65625
30
0.0
11
122.291592750766
21
-298.0671252341
31
0.0
  0
LINE
 8
GROUP2
10
122.702467984866
20
-298.778782015134
30
0.0
11
123.03125
21
-299.031065328508
31
0.0
  0
LINE
 8
GROUP2
10
123.825
20
-299.24375
30
0.0
11
124.2358752341
21
-299.189657249234
31
0.0
  0
LINE
 8
GROUP2
10
123.03125
20
-296.281434671492
30
0.0
11
122.702467984866
21
-296.533717984866
31
0.0
  0
LINE
 8
GROUP2
10
123.4141247659
20
-299.189657249234
30
0.0
11
123.825
21
-299.24375
31
0.0
  0
LINE
 8
GROUP2
10
125.358407249234
20
-298.0671252341
30
0.0
11
125.4125
21
-297.65625
31
0.0
  0
LINE
 8
GROUP2
10
124.947532015134
20
-298.778782015134
30
0.0
11
125.199815328508
21
-298.45
31
0.0
  0
LINE
 8
GROUP2
10
122.450184671492
20
-6.34999999999995
30
0.0
11
122.291592750766
21
-6.73287476589972
31
0.0
  0
LINE
 8
GROUP2
10
122.291592750766
20
-6.73287476589972
30
0.0
11
122.2375
21
-7.14374999999995
31
0.0
  0
LINE
 8
GROUP2
10
122.2375
20
-7.14374999999995
30
0.0
11
122.291592750766
21
-7.55462523410019
31
0.0
  0
LINE
 8
GROUP2
10
124.61875
20
-299.031065328508
30
0.0
11
124.947532015134
21
-298.778782015134
31
0.0
  0
LINE
 8
GROUP2
10
125.199815328508
20
-298.45
30
0.0
11
125.358407249234
21
-298.0671252341
31
0.0
  0
LINE
 8
GROUP2
10
125.358407249234
20
-7.55462523410019
30
0.0
11
125.4125
21
-7.14374999999995
31
0.0
  0
LINE
 8
GROUP2
10
122.702467984866
20
-296.533717984866
30
0.0
11
122.450184671492
21
-296.8625
31
0.0
  0
LINE
 8
GROUP2
10
124.2358752341
20
-299.189657249234
30
0.0
11
124.61875
21
-299.031065328508
31
0.0
  0
LINE
 8
GROUP2
10
125.199815328508
20
-6.34999999999995
30
0.0
11
124.947532015134
21
-6.0212179848663
31
0.0
  0
LINE
 8
GROUP2
10
125.358407249234
20
-6.73287476589972
30
0.0
11
125.199815328508
21
-6.34999999999995
31
0.0
  0
LINE
 8
GROUP2
10
124.2358752341
20
-5.61034275076606
30
0.0
11
123.825
21
-5.55624999999995
31
0.0
  0
LINE
 8
GROUP2
10
191.622532015134
20
-296.533717984866
30
0.0
11
191.29375
21
-296.281434671492
31
0.0
  0
LINE
 8
GROUP2
10
191.29375
20
-5.76893467149214
30
0.0
11
190.9108752341
21
-5.61034275076606
31
0.0
  0
LINE
 8
GROUP2
10
188.9125
20
-297.65625
30
0.0
11
188.966592750766
21
-298.0671252341
31
0.0
  0
LINE
 8
GROUP2
10
189.377467984866
20
-298.778782015134
30
0.0
11
189.70625
21
-299.031065328508
31
0.0
  0
LINE
 8
GROUP2
10
190.5
20
-299.24375
30
0.0
11
190.9108752341
21
-299.189657249234
31
0.0
  0
LINE
 8
GROUP2
10
189.70625
20
-296.281434671492
30
0.0
11
189.377467984866
21
-296.533717984866
31
0.0
  0
LINE
 8
GROUP2
10
190.0891247659
20
-299.189657249234
30
0.0
11
190.5
21
-299.24375
31
0.0
  0
LINE
 8
GROUP2
10
192.033407249234
20
-298.0671252341
30
0.0
11
192.0875
21
-297.65625
31
0.0
  0
LINE
 8
GROUP2
10
191.622532015134
20
-298.778782015134
30
0.0
11
191.874815328508
21
-298.45
31
0.0
  0
LINE
 8
GROUP2
10
257.175
20
-8.73124999999995
30
0.0
11
257.5858752341
21
-8.67715724923385
31
0.0
  0
LINE
 8
GROUP2
10
258.7625
20
-297.65625
30
0.0
11
258.708407249234
21
-297.2453747659
31
0.0
  0
LINE
 8
GROUP2
10
256.052467984866
20
-8.26628201513361
30
0.0
11
256.38125
21
-8.51856532850777
31
0.0
  0
LINE
 8
GROUP2
10
123.825
20
-8.73124999999995
30
0.0
11
124.2358752341
21
-8.67715724923385
31
0.0
  0
LINE
 8
GROUP2
10
125.4125
20
-297.65625
30
0.0
11
125.358407249234
21
-297.2453747659
31
0.0
  0
LINE
 8
GROUP2
10
122.702467984866
20
-8.26628201513361
30
0.0
11
123.03125
21
-8.51856532850777
31
0.0
  0
LINE
 8
GROUP2
10
123.03125
20
-8.51856532850777
30
0.0
11
123.4141247659
21
-8.67715724923385
31
0.0
  0
LINE
 8
GROUP2
10
124.947532015134
20
-6.0212179848663
30
0.0
11
124.61875
21
-5.76893467149214
31
0.0
  0
LINE
 8
GROUP2
10
123.825
20
-296.06875
30
0.0
11
123.4141247659
21
-296.122842750766
31
0.0
  0
LINE
 8
GROUP2
10
125.358407249234
20
-297.2453747659
30
0.0
11
125.199815328508
21
-296.8625
31
0.0
  0
LINE
 8
GROUP2
10
123.4141247659
20
-296.122842750766
30
0.0
11
123.03125
21
-296.281434671492
31
0.0
  0
LINE
 8
GROUP2
10
123.4141247659
20
-8.67715724923385
30
0.0
11
123.825
21
-8.73124999999995
31
0.0
  0
LINE
 8
GROUP2
10
124.947532015134
20
-296.533717984866
30
0.0
11
124.61875
21
-296.281434671492
31
0.0
  0
LINE
 8
GROUP2
10
124.61875
20
-5.76893467149214
30
0.0
11
124.2358752341
21
-5.61034275076606
31
0.0
  0
LINE
 8
GROUP2
10
124.61875
20
-8.51856532850777
30
0.0
11
124.947532015134
21
-8.26628201513361
31
0.0
  0
LINE
 8
GROUP2
10
122.702467984866
20
-6.0212179848663
30
0.0
11
122.450184671492
21
-6.34999999999995
31
0.0
  0
LINE
 8
GROUP2
10
125.4125
20
-7.14374999999995
30
0.0
11
125.358407249234
21
-6.73287476589972
31
0.0
  0
LINE
 8
GROUP2
10
122.291592750766
20
-298.0671252341
30
0.0
11
122.450184671492
21
-298.45
31
0.0
  0
LINE
 8
GROUP2
10
124.947532015134
20
-8.26628201513361
30
0.0
11
125.199815328508
21
-7.93749999999995
31
0.0
  0
LINE
 8
GROUP2
10
125.199815328508
20
-7.93749999999995
30
0.0
11
125.358407249234
21
-7.55462523410019
31
0.0
  0
LINE
 8
GROUP2
10
124.61875
20
-296.281434671492
30
0.0
11
124.2358752341
21
-296.122842750766
31
0.0
  0
LINE
 8
GROUP2
10
256.38125
20
-8.51856532850777
30
0.0
11
256.7641247659
21
-8.67715724923385
31
0.0
  0
LINE
 8
GROUP2
10
258.297532015134
20
-6.0212179848663
30
0.0
11
257.96875
21
-5.76893467149214
31
0.0
  0
LINE
 8
GROUP2
10
257.175
20
-296.06875
30
0.0
11
256.7641247659
21
-296.122842750766
31
0.0
  0
LINE
 8
GROUP2
10
258.708407249234
20
-297.2453747659
30
0.0
11
258.549815328508
21
-296.8625
31
0.0
  0
LINE
 8
GROUP2
10
256.7641247659
20
-296.122842750766
30
0.0
11
256.38125
21
-296.281434671492
31
0.0
  0
LINE
 8
GROUP2
10
256.7641247659
20
-8.67715724923385
30
0.0
11
257.175
21
-8.73124999999995
31
0.0
  0
LINE
 8
GROUP2
10
258.297532015134
20
-296.533717984866
30
0.0
11
257.96875
21
-296.281434671492
31
0.0
  0
LINE
 8
GROUP2
10
257.96875
20
-5.76893467149214
30
0.0
11
257.5858752341
21
-5.61034275076606
31
0.0
  0
LINE
 8
GROUP2
10
255.5875
20
-297.65625
30
0.0
11
255.641592750766
21
-298.0671252341
31
0.0
  0
LINE
 8
GROUP2
10
256.052467984866
20
-298.778782015134
30
0.0
11
256.38125
21
-299.031065328508
31
0.0
  0
LINE
 8
GROUP2
10
257.175
20
-299.24375
30
0.0
11
257.5858752341
21
-299.189657249234
31
0.0
  0
LINE
 8
GROUP2
10
256.38125
20
-296.281434671492
30
0.0
11
256.052467984866
21
-296.533717984866
31
0.0
  0
LINE
 8
GROUP2
10
256.7641247659
20
-299.189657249234
30
0.0
11
257.175
21
-299.24375
31
0.0
  0
LINE
 8
GROUP2
10
258.708407249234
20
-298.0671252341
30
0.0
11
258.7625
21
-297.65625
31
0.0
  0
LINE
 8
GROUP2
10
258.297532015134
20
-298.778782015134
30
0.0
11
258.549815328508
21
-298.45
31
0.0
  0
LINE
 8
GROUP2
10
255.800184671492
20
-6.34999999999995
30
0.0
11
255.641592750766
21
-6.73287476589972
31
0.0
  0
LINE
 8
GROUP2
10
255.641592750766
20
-6.73287476589972
30
0.0
11
255.5875
21
-7.14374999999995
31
0.0
  0
LINE
 8
GROUP2
10
255.5875
20
-7.14374999999995
30
0.0
11
255.641592750766
21
-7.55462523410019
31
0.0
  0
LINE
 8
GROUP2
10
257.96875
20
-299.031065328508
30
0.0
11
258.297532015134
21
-298.778782015134
31
0.0
  0
LINE
 8
GROUP2
10
258.549815328508
20
-298.45
30
0.0
11
258.708407249234
21
-298.0671252341
31
0.0
  0
LINE
 8
GROUP2
10
258.708407249234
20
-7.55462523410019
30
0.0
11
258.7625
21
-7.14374999999995
31
0.0
  0
LINE
 8
GROUP2
10
256.052467984866
20
-296.533717984866
30
0.0
11
255.800184671492
21
-296.8625
31
0.0
  0
LINE
 8
GROUP2
10
435.3858752341
20
-8.67715724923385
30
0.0
11
435.76875
21
-8.51856532850777
31
0.0
  0
LINE
 8
GROUP2
10
257.5858752341
20
-299.189657249234
30
0.0
11
257.96875
21
-299.031065328508
31
0.0
  0
LINE
 8
GROUP2
10
258.549815328508
20
-6.34999999999995
30
0.0
11
258.297532015134
21
-6.0212179848663
31
0.0
  0
LINE
 8
GROUP2
10
258.708407249234
20
-6.73287476589972
30
0.0
11
258.549815328508
21
-6.34999999999995
31
0.0
  0
LINE
 8
GROUP2
10
257.5858752341
20
-5.61034275076606
30
0.0
11
257.175
21
-5.55624999999995
31
0.0
  0
LINE
 8
GROUP2
10
257.175
20
-5.55624999999995
30
0.0
11
256.7641247659
21
-5.61034275076606
31
0.0
  0
LINE
 8
GROUP2
10
255.641592750766
20
-7.55462523410019
30
0.0
11
255.800184671492
21
-7.93749999999995
31
0.0
  0
LINE
 8
GROUP2
10
255.800184671492
20
-7.93749999999995
30
0.0
11
256.052467984866
21
-8.26628201513361
31
0.0
  0
LINE
 8
GROUP2
10
256.7641247659
20
-5.61034275076606
30
0.0
11
256.38125
21
-5.76893467149214
31
0.0
  0
LINE
 8
GROUP2
10
256.38125
20
-5.76893467149214
30
0.0
11
256.052467984866
21
-6.0212179848663
31
0.0
  0
LINE
 8
GROUP2
10
255.800184671492
20
-296.8625
30
0.0
11
255.641592750766
21
-297.2453747659
31
0.0
  0
LINE
 8
GROUP2
10
257.5858752341
20
-296.122842750766
30
0.0
11
257.175
21
-296.06875
31
0.0
  0
LINE
 8
GROUP2
10
258.549815328508
20
-296.8625
30
0.0
11
258.297532015134
21
-296.533717984866
31
0.0
  0
LINE
 8
GROUP2
10
255.800184671492
20
-298.45
30
0.0
11
256.052467984866
21
-298.778782015134
31
0.0
  0
LINE
 8
GROUP2
10
256.38125
20
-299.031065328508
30
0.0
11
256.7641247659
21
-299.189657249234
31
0.0
  0
LINE
 8
GROUP2
10
255.641592750766
20
-297.2453747659
30
0.0
11
255.5875
21
-297.65625
31
0.0
  0
LINE
 8
GROUP2
10
211.350184671492
20
-6.34999999999995
30
0.0
11
211.191592750766
21
-6.73287476589972
31
0.0
  0
LINE
 8
GROUP2
10
211.191592750766
20
-6.73287476589972
30
0.0
11
211.1375
21
-7.14374999999995
31
0.0
  0
LINE
 8
GROUP2
10
211.1375
20
-7.14374999999995
30
0.0
11
211.191592750766
21
-7.55462523410019
31
0.0
  0
LINE
 8
GROUP2
10
213.51875
20
-299.031065328508
30
0.0
11
213.847532015134
21
-298.778782015134
31
0.0
  0
LINE
 8
GROUP2
10
214.099815328508
20
-298.45
30
0.0
11
214.258407249234
21
-298.0671252341
31
0.0
  0
LINE
 8
GROUP2
10
214.258407249234
20
-7.55462523410019
30
0.0
11
214.3125
21
-7.14374999999995
31
0.0
  0
LINE
 8
GROUP2
10
211.602467984866
20
-296.533717984866
30
0.0
11
211.350184671492
21
-296.8625
31
0.0
  0
LINE
 8
GROUP2
10
213.1358752341
20
-299.189657249234
30
0.0
11
213.51875
21
-299.031065328508
31
0.0
  0
LINE
 8
GROUP2
10
214.099815328508
20
-6.34999999999995
30
0.0
11
213.847532015134
21
-6.0212179848663
31
0.0
  0
LINE
 8
GROUP2
10
214.258407249234
20
-6.73287476589972
30
0.0
11
214.099815328508
21
-6.34999999999995
31
0.0
  0
LINE
 8
GROUP2
10
213.1358752341
20
-5.61034275076606
30
0.0
11
212.725
21
-5.55624999999995
31
0.0
  0
LINE
 8
GROUP2
10
212.725
20
-5.55624999999995
30
0.0
11
212.3141247659
21
-5.61034275076606
31
0.0
  0
LINE
 8
GROUP2
10
211.191592750766
20
-7.55462523410019
30
0.0
11
211.350184671492
21
-7.93749999999995
31
0.0
  0
LINE
 8
GROUP2
10
257.5858752341
20
-8.67715724923385
30
0.0
11
257.96875
21
-8.51856532850777
31
0.0
  0
LINE
 8
GROUP2
10
324.2608752341
20
-8.67715724923385
30
0.0
11
324.64375
21
-8.51856532850777
31
0.0
  0
LINE
 8
GROUP2
10
257.96875
20
-8.51856532850777
30
0.0
11
258.297532015134
21
-8.26628201513361
31
0.0
  0
LINE
 8
GROUP2
10
256.052467984866
20
-6.0212179848663
30
0.0
11
255.800184671492
21
-6.34999999999995
31
0.0
  0
LINE
 8
GROUP2
10
258.7625
20
-7.14374999999995
30
0.0
11
258.708407249234
21
-6.73287476589972
31
0.0
  0
LINE
 8
GROUP2
10
255.641592750766
20
-298.0671252341
30
0.0
11
255.800184671492
21
-298.45
31
0.0
  0
LINE
 8
GROUP2
10
258.297532015134
20
-8.26628201513361
30
0.0
11
258.549815328508
21
-7.93749999999995
31
0.0
  0
LINE
 8
GROUP2
10
258.549815328508
20
-7.93749999999995
30
0.0
11
258.708407249234
21
-7.55462523410019
31
0.0
  0
LINE
 8
GROUP2
10
257.96875
20
-296.281434671492
30
0.0
11
257.5858752341
21
-296.122842750766
31
0.0
  0
LINE
 8
GROUP2
10
191.874815328508
20
-6.34999999999995
30
0.0
11
191.622532015134
21
-6.0212179848663
31
0.0
  0
LINE
 8
GROUP2
10
192.033407249234
20
-6.73287476589972
30
0.0
11
191.874815328508
21
-6.34999999999995
31
0.0
  0
LINE
 8
GROUP2
10
190.9108752341
20
-5.61034275076606
30
0.0
11
190.5
21
-5.55624999999995
31
0.0
  0
LINE
 8
GROUP2
10
190.5
20
-5.55624999999995
30
0.0
11
190.0891247659
21
-5.61034275076606
31
0.0
  0
LINE
 8
GROUP2
10
188.966592750766
20
-7.55462523410019
30
0.0
11
189.125184671492
21
-7.93749999999995
31
0.0
  0
LINE
 8
GROUP2
10
189.125184671492
20
-7.93749999999995
30
0.0
11
189.377467984866
21
-8.26628201513361
31
0.0
  0
LINE
 8
GROUP2
10
190.0891247659
20
-5.61034275076606
30
0.0
11
189.70625
21
-5.76893467149214
31
0.0
  0
LINE
 8
GROUP2
10
189.70625
20
-5.76893467149214
30
0.0
11
189.377467984866
21
-6.0212179848663
31
0.0
  0
LINE
 8
GROUP2
10
189.125184671492
20
-296.8625
30
0.0
11
188.966592750766
21
-297.2453747659
31
0.0
  0
LINE
 8
GROUP2
10
190.9108752341
20
-296.122842750766
30
0.0
11
190.5
21
-296.06875
31
0.0
  0
LINE
 8
GROUP2
10
191.874815328508
20
-296.8625
30
0.0
11
191.622532015134
21
-296.533717984866
31
0.0
  0
LINE
 8
GROUP2
10
189.125184671492
20
-298.45
30
0.0
11
189.377467984866
21
-298.778782015134
31
0.0
  0
LINE
 8
GROUP2
10
189.70625
20
-299.031065328508
30
0.0
11
190.0891247659
21
-299.189657249234
31
0.0
  0
LINE
 8
GROUP2
10
188.966592750766
20
-297.2453747659
30
0.0
11
188.9125
21
-297.65625
31
0.0
  0
LINE
 8
GROUP2
10
211.602467984866
20
-8.26628201513361
30
0.0
11
211.93125
21
-8.51856532850777
31
0.0
  0
LINE
 8
GROUP2
10
211.93125
20
-8.51856532850777
30
0.0
11
212.3141247659
21
-8.67715724923385
31
0.0
  0
LINE
 8
GROUP2
10
213.847532015134
20
-6.0212179848663
30
0.0
11
213.51875
21
-5.76893467149214
31
0.0
  0
LINE
 8
GROUP2
10
212.725
20
-296.06875
30
0.0
11
212.3141247659
21
-296.122842750766
31
0.0
  0
LINE
 8
GROUP2
10
214.258407249234
20
-297.2453747659
30
0.0
11
214.099815328508
21
-296.8625
31
0.0
  0
LINE
 8
GROUP2
10
212.3141247659
20
-296.122842750766
30
0.0
11
211.93125
21
-296.281434671492
31
0.0
  0
LINE
 8
GROUP2
10
212.3141247659
20
-8.67715724923385
30
0.0
11
212.725
21
-8.73124999999995
31
0.0
  0
LINE
 8
GROUP2
10
213.847532015134
20
-296.533717984866
30
0.0
11
213.51875
21
-296.281434671492
31
0.0
  0
LINE
 8
GROUP2
10
213.51875
20
-5.76893467149214
30
0.0
11
213.1358752341
21
-5.61034275076606
31
0.0
  0
LINE
 8
GROUP2
10
211.1375
20
-297.65625
30
0.0
11
211.191592750766
21
-298.0671252341
31
0.0
  0
LINE
 8
GROUP2
10
211.602467984866
20
-298.778782015134
30
0.0
11
211.93125
21
-299.031065328508
31
0.0
  0
LINE
 8
GROUP2
10
212.725
20
-299.24375
30
0.0
11
213.1358752341
21
-299.189657249234
31
0.0
  0
LINE
 8
GROUP2
10
211.93125
20
-296.281434671492
30
0.0
11
211.602467984866
21
-296.533717984866
31
0.0
  0
LINE
 8
GROUP2
10
212.3141247659
20
-299.189657249234
30
0.0
11
212.725
21
-299.24375
31
0.0
  0
LINE
 8
GROUP2
10
214.258407249234
20
-298.0671252341
30
0.0
11
214.3125
21
-297.65625
31
0.0
  0
LINE
 8
GROUP2
10
213.847532015134
20
-298.778782015134
30
0.0
11
214.099815328508
21
-298.45
31
0.0
  0
LINE
 8
GROUP2
10
211.602467984866
20
-6.0212179848663
30
0.0
11
211.350184671492
21
-6.34999999999995
31
0.0
  0
LINE
 8
GROUP2
10
214.099815328508
20
-7.93749999999995
30
0.0
11
214.258407249234
21
-7.55462523410019
31
0.0
  0
LINE
 8
GROUP2
10
324.64375
20
-8.51856532850777
30
0.0
11
324.972532015134
21
-8.26628201513361
31
0.0
  0
LINE
 8
GROUP2
10
211.191592750766
20
-298.0671252341
30
0.0
11
211.350184671492
21
-298.45
31
0.0
  0
LINE
 8
GROUP2
10
213.51875
20
-8.51856532850777
30
0.0
11
213.847532015134
21
-8.26628201513361
31
0.0
  0
LINE
 8
GROUP2
10
212.725
20
-8.73124999999995
30
0.0
11
213.1358752341
21
-8.67715724923385
31
0.0
  0
LINE
 8
GROUP2
10
214.3125
20
-297.65625
30
0.0
11
214.258407249234
21
-297.2453747659
31
0.0
  0
LINE
 8
GROUP2
10
191.874815328508
20
-298.45
30
0.0
11
192.033407249234
21
-298.0671252341
31
0.0
  0
LINE
 8
GROUP2
10
192.033407249234
20
-7.55462523410019
30
0.0
11
192.0875
21
-7.14374999999995
31
0.0
  0
LINE
 8
GROUP2
10
189.377467984866
20
-296.533717984866
30
0.0
11
189.125184671492
21
-296.8625
31
0.0
  0
LINE
 8
GROUP2
10
190.9108752341
20
-299.189657249234
30
0.0
11
191.29375
21
-299.031065328508
31
0.0
  0
LINE
 8
GROUP2
10
213.1358752341
20
-8.67715724923385
30
0.0
11
213.51875
21
-8.51856532850777
31
0.0
  0
LINE
 8
GROUP2
10
214.3125
20
-7.14374999999995
30
0.0
11
214.258407249234
21
-6.73287476589972
31
0.0
  0
LINE
 8
GROUP2
10
213.847532015134
20
-8.26628201513361
30
0.0
11
214.099815328508
21
-7.93749999999995
31
0.0
  0
LINE
 8
GROUP2
10
213.51875
20
-296.281434671492
30
0.0
11
213.1358752341
21
-296.122842750766
31
0.0
  0
LINE
 8
GROUP2
10
189.125184671492
20
-6.34999999999995
30
0.0
11
188.966592750766
21
-6.73287476589972
31
0.0
  0
LINE
 8
GROUP2
10
188.966592750766
20
-6.73287476589972
30
0.0
11
188.9125
21
-7.14374999999995
31
0.0
  0
LINE
 8
GROUP2
10
188.9125
20
-7.14374999999995
30
0.0
11
188.966592750766
21
-7.55462523410019
31
0.0
  0
LINE
 8
GROUP2
10
191.29375
20
-299.031065328508
30
0.0
11
191.622532015134
21
-298.778782015134
31
0.0
  0
LINE
 8
GROUP2
10
190.5
20
-8.73124999999995
30
0.0
11
190.9108752341
21
-8.67715724923385
31
0.0
  0
LINE
 8
GROUP2
10
325.4375
20
-297.65625
30
0.0
11
325.383407249234
21
-297.2453747659
31
0.0
  0
LINE
 8
GROUP2
10
322.727467984866
20
-8.26628201513361
30
0.0
11
323.05625
21
-8.51856532850777
31
0.0
  0
LINE
 8
GROUP2
10
236.5375
20
-297.65625
30
0.0
11
236.483407249234
21
-297.2453747659
31
0.0
  0
LINE
 8
GROUP2
10
233.827467984866
20
-8.26628201513361
30
0.0
11
234.15625
21
-8.51856532850777
31
0.0
  0
LINE
 8
GROUP2
10
234.15625
20
-8.51856532850777
30
0.0
11
234.5391247659
21
-8.67715724923385
31
0.0
  0
LINE
 8
GROUP2
10
236.072532015134
20
-6.0212179848663
30
0.0
11
235.74375
21
-5.76893467149214
31
0.0
  0
LINE
 8
GROUP2
10
234.95
20
-296.06875
30
0.0
11
234.5391247659
21
-296.122842750766
31
0.0
  0
LINE
 8
GROUP2
10
236.483407249234
20
-297.2453747659
30
0.0
11
236.324815328508
21
-296.8625
31
0.0
  0
LINE
 8
GROUP2
10
234.5391247659
20
-296.122842750766
30
0.0
11
234.15625
21
-296.281434671492
31
0.0
  0
LINE
 8
GROUP2
10
234.5391247659
20
-8.67715724923385
30
0.0
11
234.95
21
-8.73124999999995
31
0.0
  0
LINE
 8
GROUP2
10
236.072532015134
20
-296.533717984866
30
0.0
11
235.74375
21
-296.281434671492
31
0.0
  0
LINE
 8
GROUP2
10
235.74375
20
-5.76893467149214
30
0.0
11
235.3608752341
21
-5.61034275076606
31
0.0
  0
LINE
 8
GROUP2
10
233.3625
20
-297.65625
30
0.0
11
233.416592750766
21
-298.0671252341
31
0.0
  0
LINE
 8
GROUP2
10
233.827467984866
20
-298.778782015134
30
0.0
11
234.15625
21
-299.031065328508
31
0.0
  0
LINE
 8
GROUP2
10
192.0875
20
-297.65625
30
0.0
11
192.033407249234
21
-297.2453747659
31
0.0
  0
LINE
 8
GROUP2
10
189.377467984866
20
-8.26628201513361
30
0.0
11
189.70625
21
-8.51856532850777
31
0.0
  0
LINE
 8
GROUP2
10
189.70625
20
-8.51856532850777
30
0.0
11
190.0891247659
21
-8.67715724923385
31
0.0
  0
LINE
 8
GROUP2
10
191.622532015134
20
-6.0212179848663
30
0.0
11
191.29375
21
-5.76893467149214
31
0.0
  0
LINE
 8
GROUP2
10
190.5
20
-296.06875
30
0.0
11
190.0891247659
21
-296.122842750766
31
0.0
  0
LINE
 8
GROUP2
10
192.033407249234
20
-297.2453747659
30
0.0
11
191.874815328508
21
-296.8625
31
0.0
  0
LINE
 8
GROUP2
10
190.0891247659
20
-296.122842750766
30
0.0
11
189.70625
21
-296.281434671492
31
0.0
  0
LINE
 8
GROUP2
10
190.0891247659
20
-8.67715724923385
30
0.0
11
190.5
21
-8.73124999999995
31
0.0
  0
LINE
 8
GROUP2
10
189.377467984866
20
-6.0212179848663
30
0.0
11
189.125184671492
21
-6.34999999999995
31
0.0
  0
LINE
 8
GROUP2
10
235.3608752341
20
-8.67715724923385
30
0.0
11
235.74375
21
-8.51856532850777
31
0.0
  0
LINE
 8
GROUP2
10
191.29375
20
-8.51856532850777
30
0.0
11
191.622532015134
21
-8.26628201513361
31
0.0
  0
LINE
 8
GROUP2
10
278.60625
20
-299.031065328508
30
0.0
11
278.9891247659
21
-299.189657249234
31
0.0
  0
LINE
 8
GROUP2
10
277.866592750766
20
-297.2453747659
30
0.0
11
277.8125
21
-297.65625
31
0.0
  0
LINE
 8
GROUP2
10
300.250184671492
20
-6.34999999999995
30
0.0
11
300.091592750766
21
-6.73287476589972
31
0.0
  0
LINE
 8
GROUP2
10
300.091592750766
20
-6.73287476589972
30
0.0
11
300.0375
21
-7.14374999999995
31
0.0
  0
LINE
 8
GROUP2
10
300.0375
20
-7.14374999999995
30
0.0
11
300.091592750766
21
-7.55462523410019
31
0.0
  0
LINE
 8
GROUP2
10
302.41875
20
-299.031065328508
30
0.0
11
302.747532015134
21
-298.778782015134
31
0.0
  0
LINE
 8
GROUP2
10
190.9108752341
20
-8.67715724923385
30
0.0
11
191.29375
21
-8.51856532850777
31
0.0
  0
LINE
 8
GROUP2
10
192.0875
20
-7.14374999999995
30
0.0
11
192.033407249234
21
-6.73287476589972
31
0.0
  0
LINE
 8
GROUP2
10
188.966592750766
20
-298.0671252341
30
0.0
11
189.125184671492
21
-298.45
31
0.0
  0
LINE
 8
GROUP2
10
191.29375
20
-296.281434671492
30
0.0
11
190.9108752341
21
-296.122842750766
31
0.0
  0
LINE
 8
GROUP2
10
191.874815328508
20
-7.93749999999995
30
0.0
11
192.033407249234
21
-7.55462523410019
31
0.0
  0
LINE
 8
GROUP2
10
191.622532015134
20
-8.26628201513361
30
0.0
11
191.874815328508
21
-7.93749999999995
31
0.0
  0
LINE
 8
GROUP2
10
302.999815328508
20
-298.45
30
0.0
11
303.158407249234
21
-298.0671252341
31
0.0
  0
LINE
 8
GROUP2
10
303.158407249234
20
-7.55462523410019
30
0.0
11
303.2125
21
-7.14374999999995
31
0.0
  0
LINE
 8
GROUP2
10
300.502467984866
20
-296.533717984866
30
0.0
11
300.250184671492
21
-296.8625
31
0.0
  0
LINE
 8
GROUP2
10
302.0358752341
20
-299.189657249234
30
0.0
11
302.41875
21
-299.031065328508
31
0.0
  0
LINE
 8
GROUP2
10
302.999815328508
20
-6.34999999999995
30
0.0
11
302.747532015134
21
-6.0212179848663
31
0.0
  0
LINE
 8
GROUP2
10
303.158407249234
20
-6.73287476589972
30
0.0
11
302.999815328508
21
-6.34999999999995
31
0.0
  0
LINE
 8
GROUP2
10
302.0358752341
20
-5.61034275076606
30
0.0
11
301.625
21
-5.55624999999995
31
0.0
  0
LINE
 8
GROUP2
10
234.95
20
-299.24375
30
0.0
11
235.3608752341
21
-299.189657249234
31
0.0
  0
LINE
 8
GROUP2
10
234.15625
20
-296.281434671492
30
0.0
11
233.827467984866
21
-296.533717984866
31
0.0
  0
LINE
 8
GROUP2
10
234.5391247659
20
-299.189657249234
30
0.0
11
234.95
21
-299.24375
31
0.0
  0
LINE
 8
GROUP2
10
236.483407249234
20
-298.0671252341
30
0.0
11
236.5375
21
-297.65625
31
0.0
  0
LINE
 8
GROUP2
10
236.072532015134
20
-298.778782015134
30
0.0
11
236.324815328508
21
-298.45
31
0.0
  0
LINE
 8
GROUP2
10
233.575184671492
20
-6.34999999999995
30
0.0
11
233.416592750766
21
-6.73287476589972
31
0.0
  0
LINE
 8
GROUP2
10
233.416592750766
20
-6.73287476589972
30
0.0
11
233.3625
21
-7.14374999999995
31
0.0
  0
LINE
 8
GROUP2
10
233.3625
20
-7.14374999999995
30
0.0
11
233.416592750766
21
-7.55462523410019
31
0.0
  0
LINE
 8
GROUP2
10
235.74375
20
-299.031065328508
30
0.0
11
236.072532015134
21
-298.778782015134
31
0.0
  0
LINE
 8
GROUP2
10
236.324815328508
20
-298.45
30
0.0
11
236.483407249234
21
-298.0671252341
31
0.0
  0
LINE
 8
GROUP2
10
236.483407249234
20
-7.55462523410019
30
0.0
11
236.5375
21
-7.14374999999995
31
0.0
  0
LINE
 8
GROUP2
10
233.827467984866
20
-296.533717984866
30
0.0
11
233.575184671492
21
-296.8625
31
0.0
  0
LINE
 8
GROUP2
10
235.3608752341
20
-299.189657249234
30
0.0
11
235.74375
21
-299.031065328508
31
0.0
  0
LINE
 8
GROUP2
10
236.324815328508
20
-6.34999999999995
30
0.0
11
236.072532015134
21
-6.0212179848663
31
0.0
  0
LINE
 8
GROUP2
10
236.483407249234
20
-6.73287476589972
30
0.0
11
236.324815328508
21
-6.34999999999995
31
0.0
  0
LINE
 8
GROUP2
10
235.3608752341
20
-5.61034275076606
30
0.0
11
234.95
21
-5.55624999999995
31
0.0
  0
LINE
 8
GROUP2
10
234.95
20
-5.55624999999995
30
0.0
11
234.5391247659
21
-5.61034275076606
31
0.0
  0
LINE
 8
GROUP2
10
233.416592750766
20
-7.55462523410019
30
0.0
11
233.575184671492
21
-7.93749999999995
31
0.0
  0
LINE
 8
GROUP2
10
233.575184671492
20
-7.93749999999995
30
0.0
11
233.827467984866
21
-8.26628201513361
31
0.0
  0
LINE
 8
GROUP2
10
234.5391247659
20
-5.61034275076606
30
0.0
11
234.15625
21
-5.76893467149214
31
0.0
  0
LINE
 8
GROUP2
10
234.15625
20
-5.76893467149214
30
0.0
11
233.827467984866
21
-6.0212179848663
31
0.0
  0
LINE
 8
GROUP2
10
233.575184671492
20
-296.8625
30
0.0
11
233.416592750766
21
-297.2453747659
31
0.0
  0
LINE
 8
GROUP2
10
235.3608752341
20
-296.122842750766
30
0.0
11
234.95
21
-296.06875
31
0.0
  0
LINE
 8
GROUP2
10
236.324815328508
20
-296.8625
30
0.0
11
236.072532015134
21
-296.533717984866
31
0.0
  0
LINE
 8
GROUP2
10
233.575184671492
20
-298.45
30
0.0
11
233.827467984866
21
-298.778782015134
31
0.0
  0
LINE
 8
GROUP2
10
234.15625
20
-299.031065328508
30
0.0
11
234.5391247659
21
-299.189657249234
31
0.0
  0
LINE
 8
GROUP2
10
233.416592750766
20
-297.2453747659
30
0.0
11
233.3625
21
-297.65625
31
0.0
  0
LINE
 8
GROUP2
10
324.64375
20
-296.281434671492
30
0.0
11
324.2608752341
21
-296.122842750766
31
0.0
  0
LINE
 8
GROUP2
10
323.85
20
-8.73124999999995
30
0.0
11
324.2608752341
21
-8.67715724923385
31
0.0
  0
LINE
 8
GROUP2
10
279.4
20
-5.55624999999995
30
0.0
11
278.9891247659
21
-5.61034275076606
31
0.0
  0
LINE
 8
GROUP2
10
277.866592750766
20
-7.55462523410019
30
0.0
11
278.025184671492
21
-7.93749999999995
31
0.0
  0
LINE
 8
GROUP2
10
278.025184671492
20
-7.93749999999995
30
0.0
11
278.277467984866
21
-8.26628201513361
31
0.0
  0
LINE
 8
GROUP2
10
278.9891247659
20
-5.61034275076606
30
0.0
11
278.60625
21
-5.76893467149214
31
0.0
  0
LINE
 8
GROUP2
10
278.60625
20
-5.76893467149214
30
0.0
11
278.277467984866
21
-6.0212179848663
31
0.0
  0
LINE
 8
GROUP2
10
278.025184671492
20
-296.8625
30
0.0
11
277.866592750766
21
-297.2453747659
31
0.0
  0
LINE
 8
GROUP2
10
279.8108752341
20
-296.122842750766
30
0.0
11
279.4
21
-296.06875
31
0.0
  0
LINE
 8
GROUP2
10
280.774815328508
20
-296.8625
30
0.0
11
280.522532015134
21
-296.533717984866
31
0.0
  0
LINE
 8
GROUP2
10
278.025184671492
20
-298.45
30
0.0
11
278.277467984866
21
-298.778782015134
31
0.0
  0
LINE
 8
GROUP2
10
235.74375
20
-8.51856532850777
30
0.0
11
236.072532015134
21
-8.26628201513361
31
0.0
  0
LINE
 8
GROUP2
10
234.95
20
-8.73124999999995
30
0.0
11
235.3608752341
21
-8.67715724923385
31
0.0
  0
LINE
 8
GROUP2
10
233.827467984866
20
-6.0212179848663
30
0.0
11
233.575184671492
21
-6.34999999999995
31
0.0
  0
LINE
 8
GROUP2
10
236.5375
20
-7.14374999999995
30
0.0
11
236.483407249234
21
-6.73287476589972
31
0.0
  0
LINE
 8
GROUP2
10
233.416592750766
20
-298.0671252341
30
0.0
11
233.575184671492
21
-298.45
31
0.0
  0
LINE
 8
GROUP2
10
236.072532015134
20
-8.26628201513361
30
0.0
11
236.324815328508
21
-7.93749999999995
31
0.0
  0
LINE
 8
GROUP2
10
236.324815328508
20
-7.93749999999995
30
0.0
11
236.483407249234
21
-7.55462523410019
31
0.0
  0
LINE
 8
GROUP2
10
235.74375
20
-296.281434671492
30
0.0
11
235.3608752341
21
-296.122842750766
31
0.0
  0
LINE
 8
GROUP2
10
323.05625
20
-8.51856532850777
30
0.0
11
323.4391247659
21
-8.67715724923385
31
0.0
  0
LINE
 8
GROUP2
10
324.972532015134
20
-6.0212179848663
30
0.0
11
324.64375
21
-5.76893467149214
31
0.0
  0
LINE
 8
GROUP2
10
323.85
20
-296.06875
30
0.0
11
323.4391247659
21
-296.122842750766
31
0.0
  0
LINE
 8
GROUP2
10
325.383407249234
20
-297.2453747659
30
0.0
11
325.224815328508
21
-296.8625
31
0.0
  0
LINE
 8
GROUP2
10
323.4391247659
20
-296.122842750766
30
0.0
11
323.05625
21
-296.281434671492
31
0.0
  0
LINE
 8
GROUP2
10
323.4391247659
20
-8.67715724923385
30
0.0
11
323.85
21
-8.73124999999995
31
0.0
  0
LINE
 8
GROUP2
10
324.972532015134
20
-296.533717984866
30
0.0
11
324.64375
21
-296.281434671492
31
0.0
  0
LINE
 8
GROUP2
10
324.64375
20
-5.76893467149214
30
0.0
11
324.2608752341
21
-5.61034275076606
31
0.0
  0
LINE
 8
GROUP2
10
322.2625
20
-297.65625
30
0.0
11
322.316592750766
21
-298.0671252341
31
0.0
  0
LINE
 8
GROUP2
10
322.727467984866
20
-298.778782015134
30
0.0
11
323.05625
21
-299.031065328508
31
0.0
  0
LINE
 8
GROUP2
10
323.85
20
-299.24375
30
0.0
11
324.2608752341
21
-299.189657249234
31
0.0
  0
LINE
 8
GROUP2
10
323.05625
20
-296.281434671492
30
0.0
11
322.727467984866
21
-296.533717984866
31
0.0
  0
LINE
 8
GROUP2
10
323.4391247659
20
-299.189657249234
30
0.0
11
323.85
21
-299.24375
31
0.0
  0
LINE
 8
GROUP2
10
325.383407249234
20
-298.0671252341
30
0.0
11
325.4375
21
-297.65625
31
0.0
  0
LINE
 8
GROUP2
10
324.972532015134
20
-298.778782015134
30
0.0
11
325.224815328508
21
-298.45
31
0.0
  0
LINE
 8
GROUP2
10
322.475184671492
20
-6.34999999999995
30
0.0
11
322.316592750766
21
-6.73287476589972
31
0.0
  0
LINE
 8
GROUP2
10
322.316592750766
20
-6.73287476589972
30
0.0
11
322.2625
21
-7.14374999999995
31
0.0
  0
LINE
 8
GROUP2
10
322.2625
20
-7.14374999999995
30
0.0
11
322.316592750766
21
-7.55462523410019
31
0.0
  0
LINE
 8
GROUP2
10
324.64375
20
-299.031065328508
30
0.0
11
324.972532015134
21
-298.778782015134
31
0.0
  0
LINE
 8
GROUP2
10
325.224815328508
20
-298.45
30
0.0
11
325.383407249234
21
-298.0671252341
31
0.0
  0
LINE
 8
GROUP2
10
325.383407249234
20
-7.55462523410019
30
0.0
11
325.4375
21
-7.14374999999995
31
0.0
  0
LINE
 8
GROUP2
10
322.727467984866
20
-296.533717984866
30
0.0
11
322.475184671492
21
-296.8625
31
0.0
  0
LINE
 8
GROUP2
10
324.2608752341
20
-299.189657249234
30
0.0
11
324.64375
21
-299.031065328508
31
0.0
  0
LINE
 8
GROUP2
10
325.224815328508
20
-6.34999999999995
30
0.0
11
324.972532015134
21
-6.0212179848663
31
0.0
  0
LINE
 8
GROUP2
10
325.383407249234
20
-6.73287476589972
30
0.0
11
325.224815328508
21
-6.34999999999995
31
0.0
  0
LINE
 8
GROUP2
10
324.2608752341
20
-5.61034275076606
30
0.0
11
323.85
21
-5.55624999999995
31
0.0
  0
LINE
 8
GROUP2
10
323.85
20
-5.55624999999995
30
0.0
11
323.4391247659
21
-5.61034275076606
31
0.0
  0
LINE
 8
GROUP2
10
322.316592750766
20
-7.55462523410019
30
0.0
11
322.475184671492
21
-7.93749999999995
31
0.0
  0
LINE
 8
GROUP2
10
322.475184671492
20
-7.93749999999995
30
0.0
11
322.727467984866
21
-8.26628201513361
31
0.0
  0
LINE
 8
GROUP2
10
323.4391247659
20
-5.61034275076606
30
0.0
11
323.05625
21
-5.76893467149214
31
0.0
  0
LINE
 8
GROUP2
10
323.05625
20
-5.76893467149214
30
0.0
11
322.727467984866
21
-6.0212179848663
31
0.0
  0
LINE
 8
GROUP2
10
322.475184671492
20
-296.8625
30
0.0
11
322.316592750766
21
-297.2453747659
31
0.0
  0
LINE
 8
GROUP2
10
324.2608752341
20
-296.122842750766
30
0.0
11
323.85
21
-296.06875
31
0.0
  0
LINE
 8
GROUP2
10
325.224815328508
20
-296.8625
30
0.0
11
324.972532015134
21
-296.533717984866
31
0.0
  0
LINE
 8
GROUP2
10
322.475184671492
20
-298.45
30
0.0
11
322.727467984866
21
-298.778782015134
31
0.0
  0
LINE
 8
GROUP2
10
323.05625
20
-299.031065328508
30
0.0
11
323.4391247659
21
-299.189657249234
31
0.0
  0
LINE
 8
GROUP2
10
322.316592750766
20
-297.2453747659
30
0.0
11
322.2625
21
-297.65625
31
0.0
  0
LINE
 8
GROUP2
10
279.8108752341
20
-299.189657249234
30
0.0
11
280.19375
21
-299.031065328508
31
0.0
  0
LINE
 8
GROUP2
10
280.774815328508
20
-6.34999999999995
30
0.0
11
280.522532015134
21
-6.0212179848663
31
0.0
  0
LINE
 8
GROUP2
10
280.933407249234
20
-6.73287476589972
30
0.0
11
280.774815328508
21
-6.34999999999995
31
0.0
  0
LINE
 8
GROUP2
10
279.8108752341
20
-5.61034275076606
30
0.0
11
279.4
21
-5.55624999999995
31
0.0
  0
LINE
 8
GROUP2
10
322.727467984866
20
-6.0212179848663
30
0.0
11
322.475184671492
21
-6.34999999999995
31
0.0
  0
LINE
 8
GROUP2
10
325.4375
20
-7.14374999999995
30
0.0
11
325.383407249234
21
-6.73287476589972
31
0.0
  0
LINE
 8
GROUP2
10
322.316592750766
20
-298.0671252341
30
0.0
11
322.475184671492
21
-298.45
31
0.0
  0
LINE
 8
GROUP2
10
324.972532015134
20
-8.26628201513361
30
0.0
11
325.224815328508
21
-7.93749999999995
31
0.0
  0
LINE
 8
GROUP2
10
325.224815328508
20
-7.93749999999995
30
0.0
11
325.383407249234
21
-7.55462523410019
31
0.0
  0
LINE
 8
GROUP2
10
300.250184671492
20
-7.93749999999995
30
0.0
11
300.502467984866
21
-8.26628201513361
31
0.0
  0
LINE
 8
GROUP2
10
301.2141247659
20
-5.61034275076606
30
0.0
11
300.83125
21
-5.76893467149214
31
0.0
  0
LINE
 8
GROUP2
10
300.83125
20
-5.76893467149214
30
0.0
11
300.502467984866
21
-6.0212179848663
31
0.0
  0
LINE
 8
GROUP2
10
300.250184671492
20
-296.8625
30
0.0
11
300.091592750766
21
-297.2453747659
31
0.0
  0
LINE
 8
GROUP2
10
302.0358752341
20
-296.122842750766
30
0.0
11
301.625
21
-296.06875
31
0.0
  0
LINE
 8
GROUP2
10
302.999815328508
20
-296.8625
30
0.0
11
302.747532015134
21
-296.533717984866
31
0.0
  0
LINE
 8
GROUP2
10
300.250184671492
20
-298.45
30
0.0
11
300.502467984866
21
-298.778782015134
31
0.0
  0
LINE
 8
GROUP2
10
300.83125
20
-299.031065328508
30
0.0
11
301.2141247659
21
-299.189657249234
31
0.0
  0
LINE
 8
GROUP2
10
300.091592750766
20
-297.2453747659
30
0.0
11
300.0375
21
-297.65625
31
0.0
  0
LINE
 8
GROUP2
10
346.86875
20
-296.281434671492
30
0.0
11
346.4858752341
21
-296.122842750766
31
0.0
  0
LINE
 8
GROUP2
10
280.9875
20
-297.65625
30
0.0
11
280.933407249234
21
-297.2453747659
31
0.0
  0
LINE
 8
GROUP2
10
278.277467984866
20
-8.26628201513361
30
0.0
11
278.60625
21
-8.51856532850777
31
0.0
  0
LINE
 8
GROUP2
10
278.60625
20
-8.51856532850777
30
0.0
11
278.9891247659
21
-8.67715724923385
31
0.0
  0
LINE
 8
GROUP2
10
280.522532015134
20
-6.0212179848663
30
0.0
11
280.19375
21
-5.76893467149214
31
0.0
  0
LINE
 8
GROUP2
10
279.4
20
-296.06875
30
0.0
11
278.9891247659
21
-296.122842750766
31
0.0
  0
LINE
 8
GROUP2
10
280.933407249234
20
-297.2453747659
30
0.0
11
280.774815328508
21
-296.8625
31
0.0
  0
LINE
 8
GROUP2
10
278.9891247659
20
-296.122842750766
30
0.0
11
278.60625
21
-296.281434671492
31
0.0
  0
LINE
 8
GROUP2
10
278.9891247659
20
-8.67715724923385
30
0.0
11
279.4
21
-8.73124999999995
31
0.0
  0
LINE
 8
GROUP2
10
280.522532015134
20
-296.533717984866
30
0.0
11
280.19375
21
-296.281434671492
31
0.0
  0
LINE
 8
GROUP2
10
280.19375
20
-5.76893467149214
30
0.0
11
279.8108752341
21
-5.61034275076606
31
0.0
  0
LINE
 8
GROUP2
10
277.8125
20
-297.65625
30
0.0
11
277.866592750766
21
-298.0671252341
31
0.0
  0
LINE
 8
GROUP2
10
278.277467984866
20
-298.778782015134
30
0.0
11
278.60625
21
-299.031065328508
31
0.0
  0
LINE
 8
GROUP2
10
279.4
20
-299.24375
30
0.0
11
279.8108752341
21
-299.189657249234
31
0.0
  0
LINE
 8
GROUP2
10
278.60625
20
-296.281434671492
30
0.0
11
278.277467984866
21
-296.533717984866
31
0.0
  0
LINE
 8
GROUP2
10
278.9891247659
20
-299.189657249234
30
0.0
11
279.4
21
-299.24375
31
0.0
  0
LINE
 8
GROUP2
10
280.933407249234
20
-298.0671252341
30
0.0
11
280.9875
21
-297.65625
31
0.0
  0
LINE
 8
GROUP2
10
280.522532015134
20
-298.778782015134
30
0.0
11
280.774815328508
21
-298.45
31
0.0
  0
LINE
 8
GROUP2
10
278.025184671492
20
-6.34999999999995
30
0.0
11
277.866592750766
21
-6.73287476589972
31
0.0
  0
LINE
 8
GROUP2
10
277.866592750766
20
-6.73287476589972
30
0.0
11
277.8125
21
-7.14374999999995
31
0.0
  0
LINE
 8
GROUP2
10
277.8125
20
-7.14374999999995
30
0.0
11
277.866592750766
21
-7.55462523410019
31
0.0
  0
LINE
 8
GROUP2
10
280.19375
20
-299.031065328508
30
0.0
11
280.522532015134
21
-298.778782015134
31
0.0
  0
LINE
 8
GROUP2
10
280.774815328508
20
-298.45
30
0.0
11
280.933407249234
21
-298.0671252341
31
0.0
  0
LINE
 8
GROUP2
10
280.933407249234
20
-7.55462523410019
30
0.0
11
280.9875
21
-7.14374999999995
31
0.0
  0
LINE
 8
GROUP2
10
278.277467984866
20
-296.533717984866
30
0.0
11
278.025184671492
21
-296.8625
31
0.0
  0
LINE
 8
GROUP2
10
280.19375
20
-8.51856532850777
30
0.0
11
280.522532015134
21
-8.26628201513361
31
0.0
  0
LINE
 8
GROUP2
10
279.8108752341
20
-8.67715724923385
30
0.0
11
280.19375
21
-8.51856532850777
31
0.0
  0
LINE
 8
GROUP2
10
279.4
20
-8.73124999999995
30
0.0
11
279.8108752341
21
-8.67715724923385
31
0.0
  0
LINE
 8
GROUP2
10
301.625
20
-5.55624999999995
30
0.0
11
301.2141247659
21
-5.61034275076606
31
0.0
  0
LINE
 8
GROUP2
10
300.091592750766
20
-7.55462523410019
30
0.0
11
300.250184671492
21
-7.93749999999995
31
0.0
  0
LINE
 8
GROUP2
10
278.277467984866
20
-6.0212179848663
30
0.0
11
278.025184671492
21
-6.34999999999995
31
0.0
  0
LINE
 8
GROUP2
10
413.1608752341
20
-8.67715724923385
30
0.0
11
413.54375
21
-8.51856532850777
31
0.0
  0
LINE
 8
GROUP2
10
280.9875
20
-7.14374999999995
30
0.0
11
280.933407249234
21
-6.73287476589972
31
0.0
  0
LINE
 8
GROUP2
10
277.866592750766
20
-298.0671252341
30
0.0
11
278.025184671492
21
-298.45
31
0.0
  0
LINE
 8
GROUP2
10
346.4858752341
20
-8.67715724923385
30
0.0
11
346.86875
21
-8.51856532850777
31
0.0
  0
LINE
 8
GROUP2
10
280.19375
20
-296.281434671492
30
0.0
11
279.8108752341
21
-296.122842750766
31
0.0
  0
LINE
 8
GROUP2
10
280.774815328508
20
-7.93749999999995
30
0.0
11
280.933407249234
21
-7.55462523410019
31
0.0
  0
LINE
 8
GROUP2
10
280.522532015134
20
-8.26628201513361
30
0.0
11
280.774815328508
21
-7.93749999999995
31
0.0
  0
LINE
 8
GROUP2
10
346.86875
20
-8.51856532850777
30
0.0
11
347.197532015134
21
-8.26628201513361
31
0.0
  0
LINE
 8
GROUP2
10
412.75
20
-5.55624999999995
30
0.0
11
412.3391247659
21
-5.61034275076606
31
0.0
  0
LINE
 8
GROUP2
10
411.216592750766
20
-7.55462523410019
30
0.0
11
411.375184671492
21
-7.93749999999995
31
0.0
  0
LINE
 8
GROUP2
10
411.375184671492
20
-7.93749999999995
30
0.0
11
411.627467984866
21
-8.26628201513361
31
0.0
  0
LINE
 8
GROUP2
10
412.3391247659
20
-5.61034275076606
30
0.0
11
411.95625
21
-5.76893467149214
31
0.0
  0
LINE
 8
GROUP2
10
411.95625
20
-5.76893467149214
30
0.0
11
411.627467984866
21
-6.0212179848663
31
0.0
  0
LINE
 8
GROUP2
10
411.375184671492
20
-296.8625
30
0.0
11
411.216592750766
21
-297.2453747659
31
0.0
  0
LINE
 8
GROUP2
10
413.1608752341
20
-296.122842750766
30
0.0
11
412.75
21
-296.06875
31
0.0
  0
LINE
 8
GROUP2
10
414.124815328508
20
-296.8625
30
0.0
11
413.872532015134
21
-296.533717984866
31
0.0
  0
LINE
 8
GROUP2
10
411.375184671492
20
-298.45
30
0.0
11
411.627467984866
21
-298.778782015134
31
0.0
  0
LINE
 8
GROUP2
10
411.95625
20
-299.031065328508
30
0.0
11
412.3391247659
21
-299.189657249234
31
0.0
  0
LINE
 8
GROUP2
10
411.216592750766
20
-297.2453747659
30
0.0
11
411.1625
21
-297.65625
31
0.0
  0
LINE
 8
GROUP2
10
433.3875
20
-297.65625
30
0.0
11
433.441592750766
21
-298.0671252341
31
0.0
  0
LINE
 8
GROUP2
10
433.852467984866
20
-298.778782015134
30
0.0
11
434.18125
21
-299.031065328508
31
0.0
  0
LINE
 8
GROUP2
10
434.975
20
-299.24375
30
0.0
11
435.3858752341
21
-299.189657249234
31
0.0
  0
LINE
 8
GROUP2
10
434.18125
20
-296.281434671492
30
0.0
11
433.852467984866
21
-296.533717984866
31
0.0
  0
LINE
 8
GROUP2
10
434.5641247659
20
-299.189657249234
30
0.0
11
434.975
21
-299.24375
31
0.0
  0
LINE
 8
GROUP2
10
436.508407249234
20
-298.0671252341
30
0.0
11
436.5625
21
-297.65625
31
0.0
  0
LINE
 8
GROUP2
10
301.625
20
-8.73124999999995
30
0.0
11
302.0358752341
21
-8.67715724923385
31
0.0
  0
LINE
 8
GROUP2
10
303.2125
20
-297.65625
30
0.0
11
303.158407249234
21
-297.2453747659
31
0.0
  0
LINE
 8
GROUP2
10
300.502467984866
20
-8.26628201513361
30
0.0
11
300.83125
21
-8.51856532850777
31
0.0
  0
LINE
 8
GROUP2
10
300.83125
20
-8.51856532850777
30
0.0
11
301.2141247659
21
-8.67715724923385
31
0.0
  0
LINE
 8
GROUP2
10
302.747532015134
20
-6.0212179848663
30
0.0
11
302.41875
21
-5.76893467149214
31
0.0
  0
LINE
 8
GROUP2
10
301.625
20
-296.06875
30
0.0
11
301.2141247659
21
-296.122842750766
31
0.0
  0
LINE
 8
GROUP2
10
303.158407249234
20
-297.2453747659
30
0.0
11
302.999815328508
21
-296.8625
31
0.0
  0
LINE
 8
GROUP2
10
301.2141247659
20
-296.122842750766
30
0.0
11
300.83125
21
-296.281434671492
31
0.0
  0
LINE
 8
GROUP2
10
301.2141247659
20
-8.67715724923385
30
0.0
11
301.625
21
-8.73124999999995
31
0.0
  0
LINE
 8
GROUP2
10
302.747532015134
20
-296.533717984866
30
0.0
11
302.41875
21
-296.281434671492
31
0.0
  0
LINE
 8
GROUP2
10
302.41875
20
-5.76893467149214
30
0.0
11
302.0358752341
21
-5.61034275076606
31
0.0
  0
LINE
 8
GROUP2
10
300.0375
20
-297.65625
30
0.0
11
300.091592750766
21
-298.0671252341
31
0.0
  0
LINE
 8
GROUP2
10
300.502467984866
20
-298.778782015134
30
0.0
11
300.83125
21
-299.031065328508
31
0.0
  0
LINE
 8
GROUP2
10
301.625
20
-299.24375
30
0.0
11
302.0358752341
21
-299.189657249234
31
0.0
  0
LINE
 8
GROUP2
10
300.83125
20
-296.281434671492
30
0.0
11
300.502467984866
21
-296.533717984866
31
0.0
  0
LINE
 8
GROUP2
10
301.2141247659
20
-299.189657249234
30
0.0
11
301.625
21
-299.24375
31
0.0
  0
LINE
 8
GROUP2
10
303.158407249234
20
-298.0671252341
30
0.0
11
303.2125
21
-297.65625
31
0.0
  0
LINE
 8
GROUP2
10
302.747532015134
20
-298.778782015134
30
0.0
11
302.999815328508
21
-298.45
31
0.0
  0
LINE
 8
GROUP2
10
302.0358752341
20
-8.67715724923385
30
0.0
11
302.41875
21
-8.51856532850777
31
0.0
  0
LINE
 8
GROUP2
10
344.952467984866
20
-6.0212179848663
30
0.0
11
344.700184671492
21
-6.34999999999995
31
0.0
  0
LINE
 8
GROUP2
10
302.41875
20
-8.51856532850777
30
0.0
11
302.747532015134
21
-8.26628201513361
31
0.0
  0
LINE
 8
GROUP2
10
302.747532015134
20
-8.26628201513361
30
0.0
11
302.999815328508
21
-7.93749999999995
31
0.0
  0
LINE
 8
GROUP2
10
302.999815328508
20
-7.93749999999995
30
0.0
11
303.158407249234
21
-7.55462523410019
31
0.0
  0
LINE
 8
GROUP2
10
302.41875
20
-296.281434671492
30
0.0
11
302.0358752341
21
-296.122842750766
31
0.0
  0
LINE
 8
GROUP2
10
300.502467984866
20
-6.0212179848663
30
0.0
11
300.250184671492
21
-6.34999999999995
31
0.0
  0
LINE
 8
GROUP2
10
303.2125
20
-7.14374999999995
30
0.0
11
303.158407249234
21
-6.73287476589972
31
0.0
  0
LINE
 8
GROUP2
10
300.091592750766
20
-298.0671252341
30
0.0
11
300.250184671492
21
-298.45
31
0.0
  0
LINE
 8
GROUP2
10
436.097532015134
20
-298.778782015134
30
0.0
11
436.349815328508
21
-298.45
31
0.0
  0
LINE
 8
GROUP2
10
433.600184671492
20
-6.34999999999995
30
0.0
11
433.441592750766
21
-6.73287476589972
31
0.0
  0
LINE
 8
GROUP2
10
346.075
20
-8.73124999999995
30
0.0
11
346.4858752341
21
-8.67715724923385
31
0.0
  0
LINE
 8
GROUP2
10
347.6625
20
-297.65625
30
0.0
11
347.608407249234
21
-297.2453747659
31
0.0
  0
LINE
 8
GROUP2
10
344.952467984866
20
-8.26628201513361
30
0.0
11
345.28125
21
-8.51856532850777
31
0.0
  0
LINE
 8
GROUP2
10
345.28125
20
-8.51856532850777
30
0.0
11
345.6641247659
21
-8.67715724923385
31
0.0
  0
LINE
 8
GROUP2
10
347.197532015134
20
-6.0212179848663
30
0.0
11
346.86875
21
-5.76893467149214
31
0.0
  0
LINE
 8
GROUP2
10
346.075
20
-296.06875
30
0.0
11
345.6641247659
21
-296.122842750766
31
0.0
  0
LINE
 8
GROUP2
10
347.608407249234
20
-297.2453747659
30
0.0
11
347.449815328508
21
-296.8625
31
0.0
  0
LINE
 8
GROUP2
10
345.6641247659
20
-296.122842750766
30
0.0
11
345.28125
21
-296.281434671492
31
0.0
  0
LINE
 8
GROUP2
10
345.6641247659
20
-8.67715724923385
30
0.0
11
346.075
21
-8.73124999999995
31
0.0
  0
LINE
 8
GROUP2
10
347.197532015134
20
-296.533717984866
30
0.0
11
346.86875
21
-296.281434671492
31
0.0
  0
LINE
 8
GROUP2
10
346.86875
20
-5.76893467149214
30
0.0
11
346.4858752341
21
-5.61034275076606
31
0.0
  0
LINE
 8
GROUP2
10
344.4875
20
-297.65625
30
0.0
11
344.541592750766
21
-298.0671252341
31
0.0
  0
LINE
 8
GROUP2
10
344.952467984866
20
-298.778782015134
30
0.0
11
345.28125
21
-299.031065328508
31
0.0
  0
LINE
 8
GROUP2
10
346.075
20
-299.24375
30
0.0
11
346.4858752341
21
-299.189657249234
31
0.0
  0
LINE
 8
GROUP2
10
345.28125
20
-296.281434671492
30
0.0
11
344.952467984866
21
-296.533717984866
31
0.0
  0
LINE
 8
GROUP2
10
345.6641247659
20
-299.189657249234
30
0.0
11
346.075
21
-299.24375
31
0.0
  0
LINE
 8
GROUP2
10
347.608407249234
20
-298.0671252341
30
0.0
11
347.6625
21
-297.65625
31
0.0
  0
LINE
 8
GROUP2
10
347.197532015134
20
-298.778782015134
30
0.0
11
347.449815328508
21
-298.45
31
0.0
  0
LINE
 8
GROUP2
10
344.700184671492
20
-6.34999999999995
30
0.0
11
344.541592750766
21
-6.73287476589972
31
0.0
  0
LINE
 8
GROUP2
10
344.541592750766
20
-6.73287476589972
30
0.0
11
344.4875
21
-7.14374999999995
31
0.0
  0
LINE
 8
GROUP2
10
344.4875
20
-7.14374999999995
30
0.0
11
344.541592750766
21
-7.55462523410019
31
0.0
  0
LINE
 8
GROUP2
10
346.86875
20
-299.031065328508
30
0.0
11
347.197532015134
21
-298.778782015134
31
0.0
  0
LINE
 8
GROUP2
10
347.449815328508
20
-298.45
30
0.0
11
347.608407249234
21
-298.0671252341
31
0.0
  0
LINE
 8
GROUP2
10
347.608407249234
20
-7.55462523410019
30
0.0
11
347.6625
21
-7.14374999999995
31
0.0
  0
LINE
 8
GROUP2
10
344.952467984866
20
-296.533717984866
30
0.0
11
344.700184671492
21
-296.8625
31
0.0
  0
LINE
 8
GROUP2
10
346.4858752341
20
-299.189657249234
30
0.0
11
346.86875
21
-299.031065328508
31
0.0
  0
LINE
 8
GROUP2
10
347.449815328508
20
-6.34999999999995
30
0.0
11
347.197532015134
21
-6.0212179848663
31
0.0
  0
LINE
 8
GROUP2
10
347.608407249234
20
-6.73287476589972
30
0.0
11
347.449815328508
21
-6.34999999999995
31
0.0
  0
LINE
 8
GROUP2
10
346.4858752341
20
-5.61034275076606
30
0.0
11
346.075
21
-5.55624999999995
31
0.0
  0
LINE
 8
GROUP2
10
346.075
20
-5.55624999999995
30
0.0
11
345.6641247659
21
-5.61034275076606
31
0.0
  0
LINE
 8
GROUP2
10
344.541592750766
20
-7.55462523410019
30
0.0
11
344.700184671492
21
-7.93749999999995
31
0.0
  0
LINE
 8
GROUP2
10
344.700184671492
20
-7.93749999999995
30
0.0
11
344.952467984866
21
-8.26628201513361
31
0.0
  0
LINE
 8
GROUP2
10
345.6641247659
20
-5.61034275076606
30
0.0
11
345.28125
21
-5.76893467149214
31
0.0
  0
LINE
 8
GROUP2
10
345.28125
20
-5.76893467149214
30
0.0
11
344.952467984866
21
-6.0212179848663
31
0.0
  0
LINE
 8
GROUP2
10
344.700184671492
20
-296.8625
30
0.0
11
344.541592750766
21
-297.2453747659
31
0.0
  0
LINE
 8
GROUP2
10
346.4858752341
20
-296.122842750766
30
0.0
11
346.075
21
-296.06875
31
0.0
  0
LINE
 8
GROUP2
10
347.449815328508
20
-296.8625
30
0.0
11
347.197532015134
21
-296.533717984866
31
0.0
  0
LINE
 8
GROUP2
10
344.700184671492
20
-298.45
30
0.0
11
344.952467984866
21
-298.778782015134
31
0.0
  0
LINE
 8
GROUP2
10
345.28125
20
-299.031065328508
30
0.0
11
345.6641247659
21
-299.189657249234
31
0.0
  0
LINE
 8
GROUP2
10
344.541592750766
20
-297.2453747659
30
0.0
11
344.4875
21
-297.65625
31
0.0
  0
LINE
 8
GROUP2
10
413.1608752341
20
-299.189657249234
30
0.0
11
413.54375
21
-299.031065328508
31
0.0
  0
LINE
 8
GROUP2
10
414.124815328508
20
-6.34999999999995
30
0.0
11
413.872532015134
21
-6.0212179848663
31
0.0
  0
LINE
 8
GROUP2
10
414.283407249234
20
-6.73287476589972
30
0.0
11
414.124815328508
21
-6.34999999999995
31
0.0
  0
LINE
 8
GROUP2
10
413.1608752341
20
-5.61034275076606
30
0.0
11
412.75
21
-5.55624999999995
31
0.0
  0
LINE
 8
GROUP2
10
347.6625
20
-7.14374999999995
30
0.0
11
347.608407249234
21
-6.73287476589972
31
0.0
  0
LINE
 8
GROUP2
10
344.541592750766
20
-298.0671252341
30
0.0
11
344.700184671492
21
-298.45
31
0.0
  0
LINE
 8
GROUP2
10
347.197532015134
20
-8.26628201513361
30
0.0
11
347.449815328508
21
-7.93749999999995
31
0.0
  0
LINE
 8
GROUP2
10
347.449815328508
20
-7.93749999999995
30
0.0
11
347.608407249234
21
-7.55462523410019
31
0.0
  0
LINE
 8
GROUP2
10
436.349815328508
20
-298.45
30
0.0
11
436.508407249234
21
-298.0671252341
31
0.0
  0
LINE
 8
GROUP2
10
436.508407249234
20
-7.55462523410019
30
0.0
11
436.5625
21
-7.14374999999995
31
0.0
  0
LINE
 8
GROUP2
10
433.852467984866
20
-296.533717984866
30
0.0
11
433.600184671492
21
-296.8625
31
0.0
  0
LINE
 8
GROUP2
10
435.3858752341
20
-299.189657249234
30
0.0
11
435.76875
21
-299.031065328508
31
0.0
  0
LINE
 8
GROUP2
10
436.349815328508
20
-6.34999999999995
30
0.0
11
436.097532015134
21
-6.0212179848663
31
0.0
  0
LINE
 8
GROUP2
10
436.508407249234
20
-6.73287476589972
30
0.0
11
436.349815328508
21
-6.34999999999995
31
0.0
  0
LINE
 8
GROUP2
10
435.3858752341
20
-5.61034275076606
30
0.0
11
434.975
21
-5.55624999999995
31
0.0
  0
LINE
 8
GROUP2
10
434.975
20
-5.55624999999995
30
0.0
11
434.5641247659
21
-5.61034275076606
31
0.0
  0
LINE
 8
GROUP2
10
433.441592750766
20
-7.55462523410019
30
0.0
11
433.600184671492
21
-7.93749999999995
31
0.0
  0
LINE
 8
GROUP2
10
433.600184671492
20
-7.93749999999995
30
0.0
11
433.852467984866
21
-8.26628201513361
31
0.0
  0
LINE
 8
GROUP2
10
434.5641247659
20
-5.61034275076606
30
0.0
11
434.18125
21
-5.76893467149214
31
0.0
  0
LINE
 8
GROUP2
10
434.18125
20
-5.76893467149214
30
0.0
11
433.852467984866
21
-6.0212179848663
31
0.0
  0
LINE
 8
GROUP2
10
433.600184671492
20
-296.8625
30
0.0
11
433.441592750766
21
-297.2453747659
31
0.0
  0
LINE
 8
GROUP2
10
435.3858752341
20
-296.122842750766
30
0.0
11
434.975
21
-296.06875
31
0.0
  0
LINE
 8
GROUP2
10
436.349815328508
20
-296.8625
30
0.0
11
436.097532015134
21
-296.533717984866
31
0.0
  0
LINE
 8
GROUP2
10
433.600184671492
20
-298.45
30
0.0
11
433.852467984866
21
-298.778782015134
31
0.0
  0
LINE
 8
GROUP2
10
434.18125
20
-299.031065328508
30
0.0
11
434.5641247659
21
-299.189657249234
31
0.0
  0
LINE
 8
GROUP2
10
433.441592750766
20
-297.2453747659
30
0.0
11
433.3875
21
-297.65625
31
0.0
  0
LINE
 8
GROUP2
10
412.75
20
-8.73124999999995
30
0.0
11
413.1608752341
21
-8.67715724923385
31
0.0
  0
LINE
 8
GROUP2
10
414.3375
20
-297.65625
30
0.0
11
414.283407249234
21
-297.2453747659
31
0.0
  0
LINE
 8
GROUP2
10
411.627467984866
20
-8.26628201513361
30
0.0
11
411.95625
21
-8.51856532850777
31
0.0
  0
LINE
 8
GROUP2
10
411.95625
20
-8.51856532850777
30
0.0
11
412.3391247659
21
-8.67715724923385
31
0.0
  0
LINE
 8
GROUP2
10
413.872532015134
20
-6.0212179848663
30
0.0
11
413.54375
21
-5.76893467149214
31
0.0
  0
LINE
 8
GROUP2
10
412.75
20
-296.06875
30
0.0
11
412.3391247659
21
-296.122842750766
31
0.0
  0
LINE
 8
GROUP2
10
414.283407249234
20
-297.2453747659
30
0.0
11
414.124815328508
21
-296.8625
31
0.0
  0
LINE
 8
GROUP2
10
412.3391247659
20
-296.122842750766
30
0.0
11
411.95625
21
-296.281434671492
31
0.0
  0
LINE
 8
GROUP2
10
412.3391247659
20
-8.67715724923385
30
0.0
11
412.75
21
-8.73124999999995
31
0.0
  0
LINE
 8
GROUP2
10
413.872532015134
20
-296.533717984866
30
0.0
11
413.54375
21
-296.281434671492
31
0.0
  0
LINE
 8
GROUP2
10
413.54375
20
-5.76893467149214
30
0.0
11
413.1608752341
21
-5.61034275076606
31
0.0
  0
LINE
 8
GROUP2
10
411.1625
20
-297.65625
30
0.0
11
411.216592750766
21
-298.0671252341
31
0.0
  0
LINE
 8
GROUP2
10
411.627467984866
20
-298.778782015134
30
0.0
11
411.95625
21
-299.031065328508
31
0.0
  0
LINE
 8
GROUP2
10
412.75
20
-299.24375
30
0.0
11
413.1608752341
21
-299.189657249234
31
0.0
  0
LINE
 8
GROUP2
10
411.95625
20
-296.281434671492
30
0.0
11
411.627467984866
21
-296.533717984866
31
0.0
  0
LINE
 8
GROUP2
10
412.3391247659
20
-299.189657249234
30
0.0
11
412.75
21
-299.24375
31
0.0
  0
LINE
 8
GROUP2
10
414.283407249234
20
-298.0671252341
30
0.0
11
414.3375
21
-297.65625
31
0.0
  0
LINE
 8
GROUP2
10
413.872532015134
20
-298.778782015134
30
0.0
11
414.124815328508
21
-298.45
31
0.0
  0
LINE
 8
GROUP2
10
411.375184671492
20
-6.34999999999995
30
0.0
11
411.216592750766
21
-6.73287476589972
31
0.0
  0
LINE
 8
GROUP2
10
411.216592750766
20
-6.73287476589972
30
0.0
11
411.1625
21
-7.14374999999995
31
0.0
  0
LINE
 8
GROUP2
10
411.1625
20
-7.14374999999995
30
0.0
11
411.216592750766
21
-7.55462523410019
31
0.0
  0
LINE
 8
GROUP2
10
413.54375
20
-299.031065328508
30
0.0
11
413.872532015134
21
-298.778782015134
31
0.0
  0
LINE
 8
GROUP2
10
414.124815328508
20
-298.45
30
0.0
11
414.283407249234
21
-298.0671252341
31
0.0
  0
LINE
 8
GROUP2
10
414.283407249234
20
-7.55462523410019
30
0.0
11
414.3375
21
-7.14374999999995
31
0.0
  0
LINE
 8
GROUP2
10
411.627467984866
20
-296.533717984866
30
0.0
11
411.375184671492
21
-296.8625
31
0.0
  0
LINE
 8
GROUP2
10
413.54375
20
-8.51856532850777
30
0.0
11
413.872532015134
21
-8.26628201513361
31
0.0
  0
LINE
 8
GROUP2
10
411.627467984866
20
-6.0212179848663
30
0.0
11
411.375184671492
21
-6.34999999999995
31
0.0
  0
LINE
 8
GROUP2
10
414.3375
20
-7.14374999999995
30
0.0
11
414.283407249234
21
-6.73287476589972
31
0.0
  0
LINE
 8
GROUP2
10
411.216592750766
20
-298.0671252341
30
0.0
11
411.375184671492
21
-298.45
31
0.0
  0
LINE
 8
GROUP2
10
413.872532015134
20
-8.26628201513361
30
0.0
11
414.124815328508
21
-7.93749999999995
31
0.0
  0
LINE
 8
GROUP2
10
414.124815328508
20
-7.93749999999995
30
0.0
11
414.283407249234
21
-7.55462523410019
31
0.0
  0
LINE
 8
GROUP2
10
413.54375
20
-296.281434671492
30
0.0
11
413.1608752341
21
-296.122842750766
31
0.0
  0
LINE
 8
GROUP2
10
433.441592750766
20
-6.73287476589972
30
0.0
11
433.3875
21
-7.14374999999995
31
0.0
  0
LINE
 8
GROUP2
10
433.3875
20
-7.14374999999995
30
0.0
11
433.441592750766
21
-7.55462523410019
31
0.0
  0
LINE
 8
GROUP2
10
435.76875
20
-299.031065328508
30
0.0
11
436.097532015134
21
-298.778782015134
31
0.0
  0
LINE
 8
GROUP2
10
434.975
20
-8.73124999999995
30
0.0
11
435.3858752341
21
-8.67715724923385
31
0.0
  0
LINE
 8
GROUP2
10
390.525
20
-5.55624999999995
30
0.0
11
390.1141247659
21
-5.61034275076606
31
0.0
  0
LINE
 8
GROUP2
10
388.991592750766
20
-7.55462523410019
30
0.0
11
389.150184671492
21
-7.93749999999995
31
0.0
  0
LINE
 8
GROUP2
10
389.150184671492
20
-7.93749999999995
30
0.0
11
389.402467984866
21
-8.26628201513361
31
0.0
  0
LINE
 8
GROUP2
10
390.1141247659
20
-5.61034275076606
30
0.0
11
389.73125
21
-5.76893467149214
31
0.0
  0
LINE
 8
GROUP2
10
389.73125
20
-5.76893467149214
30
0.0
11
389.402467984866
21
-6.0212179848663
31
0.0
  0
LINE
 8
GROUP2
10
389.150184671492
20
-296.8625
30
0.0
11
388.991592750766
21
-297.2453747659
31
0.0
  0
LINE
 8
GROUP2
10
390.9358752341
20
-296.122842750766
30
0.0
11
390.525
21
-296.06875
31
0.0
  0
LINE
 8
GROUP2
10
391.899815328508
20
-296.8625
30
0.0
11
391.647532015134
21
-296.533717984866
31
0.0
  0
LINE
 8
GROUP2
10
389.150184671492
20
-298.45
30
0.0
11
389.402467984866
21
-298.778782015134
31
0.0
  0
LINE
 8
GROUP2
10
389.73125
20
-299.031065328508
30
0.0
11
390.1141247659
21
-299.189657249234
31
0.0
  0
LINE
 8
GROUP2
10
388.991592750766
20
-297.2453747659
30
0.0
11
388.9375
21
-297.65625
31
0.0
  0
LINE
 8
GROUP2
10
478.302467984866
20
-6.0212179848663
30
0.0
11
478.050184671492
21
-6.34999999999995
31
0.0
  0
LINE
 8
GROUP2
10
481.0125
20
-7.14374999999995
30
0.0
11
480.958407249234
21
-6.73287476589972
31
0.0
  0
LINE
 8
GROUP2
10
477.891592750766
20
-298.0671252341
30
0.0
11
478.050184671492
21
-298.45
31
0.0
  0
LINE
 8
GROUP2
10
436.5625
20
-297.65625
30
0.0
11
436.508407249234
21
-297.2453747659
31
0.0
  0
LINE
 8
GROUP2
10
433.852467984866
20
-8.26628201513361
30
0.0
11
434.18125
21
-8.51856532850777
31
0.0
  0
LINE
 8
GROUP2
10
434.18125
20
-8.51856532850777
30
0.0
11
434.5641247659
21
-8.67715724923385
31
0.0
  0
LINE
 8
GROUP2
10
436.097532015134
20
-6.0212179848663
30
0.0
11
435.76875
21
-5.76893467149214
31
0.0
  0
LINE
 8
GROUP2
10
434.975
20
-296.06875
30
0.0
11
434.5641247659
21
-296.122842750766
31
0.0
  0
LINE
 8
GROUP2
10
436.508407249234
20
-297.2453747659
30
0.0
11
436.349815328508
21
-296.8625
31
0.0
  0
LINE
 8
GROUP2
10
434.5641247659
20
-296.122842750766
30
0.0
11
434.18125
21
-296.281434671492
31
0.0
  0
LINE
 8
GROUP2
10
434.5641247659
20
-8.67715724923385
30
0.0
11
434.975
21
-8.73124999999995
31
0.0
  0
LINE
 8
GROUP2
10
436.097532015134
20
-296.533717984866
30
0.0
11
435.76875
21
-296.281434671492
31
0.0
  0
LINE
 8
GROUP2
10
435.76875
20
-5.76893467149214
30
0.0
11
435.3858752341
21
-5.61034275076606
31
0.0
  0
LINE
 8
GROUP2
10
435.76875
20
-8.51856532850777
30
0.0
11
436.097532015134
21
-8.26628201513361
31
0.0
  0
LINE
 8
GROUP2
10
390.9358752341
20
-8.67715724923385
30
0.0
11
391.31875
21
-8.51856532850777
31
0.0
  0
LINE
 8
GROUP2
10
436.5625
20
-7.14374999999995
30
0.0
11
436.508407249234
21
-6.73287476589972
31
0.0
  0
LINE
 8
GROUP2
10
390.1141247659
20
-299.189657249234
30
0.0
11
390.525
21
-299.24375
31
0.0
  0
LINE
 8
GROUP2
10
392.058407249234
20
-298.0671252341
30
0.0
11
392.1125
21
-297.65625
31
0.0
  0
LINE
 8
GROUP2
10
391.647532015134
20
-298.778782015134
30
0.0
11
391.899815328508
21
-298.45
31
0.0
  0
LINE
 8
GROUP2
10
389.150184671492
20
-6.34999999999995
30
0.0
11
388.991592750766
21
-6.73287476589972
31
0.0
  0
LINE
 8
GROUP2
10
388.991592750766
20
-6.73287476589972
30
0.0
11
388.9375
21
-7.14374999999995
31
0.0
  0
LINE
 8
GROUP2
10
388.9375
20
-7.14374999999995
30
0.0
11
388.991592750766
21
-7.55462523410019
31
0.0
  0
LINE
 8
GROUP2
10
391.31875
20
-299.031065328508
30
0.0
11
391.647532015134
21
-298.778782015134
31
0.0
  0
LINE
 8
GROUP2
10
433.852467984866
20
-6.0212179848663
30
0.0
11
433.600184671492
21
-6.34999999999995
31
0.0
  0
LINE
 8
GROUP2
10
433.441592750766
20
-298.0671252341
30
0.0
11
433.600184671492
21
-298.45
31
0.0
  0
LINE
 8
GROUP2
10
502.0608752341
20
-8.67715724923385
30
0.0
11
502.44375
21
-8.51856532850777
31
0.0
  0
LINE
 8
GROUP2
10
435.76875
20
-296.281434671492
30
0.0
11
435.3858752341
21
-296.122842750766
31
0.0
  0
LINE
 8
GROUP2
10
436.349815328508
20
-7.93749999999995
30
0.0
11
436.508407249234
21
-7.55462523410019
31
0.0
  0
LINE
 8
GROUP2
10
436.097532015134
20
-8.26628201513361
30
0.0
11
436.349815328508
21
-7.93749999999995
31
0.0
  0
LINE
 8
GROUP2
10
391.899815328508
20
-298.45
30
0.0
11
392.058407249234
21
-298.0671252341
31
0.0
  0
LINE
 8
GROUP2
10
392.058407249234
20
-7.55462523410019
30
0.0
11
392.1125
21
-7.14374999999995
31
0.0
  0
LINE
 8
GROUP2
10
389.402467984866
20
-296.533717984866
30
0.0
11
389.150184671492
21
-296.8625
31
0.0
  0
LINE
 8
GROUP2
10
390.9358752341
20
-299.189657249234
30
0.0
11
391.31875
21
-299.031065328508
31
0.0
  0
LINE
 8
GROUP2
10
391.899815328508
20
-6.34999999999995
30
0.0
11
391.647532015134
21
-6.0212179848663
31
0.0
  0
LINE
 8
GROUP2
10
392.058407249234
20
-6.73287476589972
30
0.0
11
391.899815328508
21
-6.34999999999995
31
0.0
  0
LINE
 8
GROUP2
10
390.9358752341
20
-5.61034275076606
30
0.0
11
390.525
21
-5.55624999999995
31
0.0
  0
LINE
 8
GROUP2
10
480.547532015134
20
-8.26628201513361
30
0.0
11
480.799815328508
21
-7.93749999999995
31
0.0
  0
LINE
 8
GROUP2
10
480.799815328508
20
-7.93749999999995
30
0.0
11
480.958407249234
21
-7.55462523410019
31
0.0
  0
LINE
 8
GROUP2
10
480.21875
20
-296.281434671492
30
0.0
11
479.8358752341
21
-296.122842750766
31
0.0
  0
LINE
 8
GROUP2
10
457.99375
20
-299.031065328508
30
0.0
11
458.322532015134
21
-298.778782015134
31
0.0
  0
LINE
 8
GROUP2
10
458.574815328508
20
-298.45
30
0.0
11
458.733407249234
21
-298.0671252341
31
0.0
  0
LINE
 8
GROUP2
10
458.733407249234
20
-7.55462523410019
30
0.0
11
458.7875
21
-7.14374999999995
31
0.0
  0
LINE
 8
GROUP2
10
456.077467984866
20
-296.533717984866
30
0.0
11
455.825184671492
21
-296.8625
31
0.0
  0
LINE
 8
GROUP2
10
457.6108752341
20
-299.189657249234
30
0.0
11
457.99375
21
-299.031065328508
31
0.0
  0
LINE
 8
GROUP2
10
458.574815328508
20
-6.34999999999995
30
0.0
11
458.322532015134
21
-6.0212179848663
31
0.0
  0
LINE
 8
GROUP2
10
368.3
20
-8.73124999999995
30
0.0
11
368.7108752341
21
-8.67715724923385
31
0.0
  0
LINE
 8
GROUP2
10
369.8875
20
-297.65625
30
0.0
11
369.833407249234
21
-297.2453747659
31
0.0
  0
LINE
 8
GROUP2
10
367.177467984866
20
-8.26628201513361
30
0.0
11
367.50625
21
-8.51856532850777
31
0.0
  0
LINE
 8
GROUP2
10
367.50625
20
-8.51856532850777
30
0.0
11
367.8891247659
21
-8.67715724923385
31
0.0
  0
LINE
 8
GROUP2
10
390.525
20
-8.73124999999995
30
0.0
11
390.9358752341
21
-8.67715724923385
31
0.0
  0
LINE
 8
GROUP2
10
392.1125
20
-297.65625
30
0.0
11
392.058407249234
21
-297.2453747659
31
0.0
  0
LINE
 8
GROUP2
10
389.402467984866
20
-8.26628201513361
30
0.0
11
389.73125
21
-8.51856532850777
31
0.0
  0
LINE
 8
GROUP2
10
389.73125
20
-8.51856532850777
30
0.0
11
390.1141247659
21
-8.67715724923385
31
0.0
  0
LINE
 8
GROUP2
10
391.647532015134
20
-6.0212179848663
30
0.0
11
391.31875
21
-5.76893467149214
31
0.0
  0
LINE
 8
GROUP2
10
390.525
20
-296.06875
30
0.0
11
390.1141247659
21
-296.122842750766
31
0.0
  0
LINE
 8
GROUP2
10
392.058407249234
20
-297.2453747659
30
0.0
11
391.899815328508
21
-296.8625
31
0.0
  0
LINE
 8
GROUP2
10
390.1141247659
20
-296.122842750766
30
0.0
11
389.73125
21
-296.281434671492
31
0.0
  0
LINE
 8
GROUP2
10
390.1141247659
20
-8.67715724923385
30
0.0
11
390.525
21
-8.73124999999995
31
0.0
  0
LINE
 8
GROUP2
10
391.647532015134
20
-296.533717984866
30
0.0
11
391.31875
21
-296.281434671492
31
0.0
  0
LINE
 8
GROUP2
10
391.31875
20
-5.76893467149214
30
0.0
11
390.9358752341
21
-5.61034275076606
31
0.0
  0
LINE
 8
GROUP2
10
388.9375
20
-297.65625
30
0.0
11
388.991592750766
21
-298.0671252341
31
0.0
  0
LINE
 8
GROUP2
10
389.402467984866
20
-298.778782015134
30
0.0
11
389.73125
21
-299.031065328508
31
0.0
  0
LINE
 8
GROUP2
10
390.525
20
-299.24375
30
0.0
11
390.9358752341
21
-299.189657249234
31
0.0
  0
LINE
 8
GROUP2
10
389.73125
20
-296.281434671492
30
0.0
11
389.402467984866
21
-296.533717984866
31
0.0
  0
LINE
 8
GROUP2
10
391.31875
20
-8.51856532850777
30
0.0
11
391.647532015134
21
-8.26628201513361
31
0.0
  0
LINE
 8
GROUP2
10
391.899815328508
20
-7.93749999999995
30
0.0
11
392.058407249234
21
-7.55462523410019
31
0.0
  0
LINE
 8
GROUP2
10
391.31875
20
-296.281434671492
30
0.0
11
390.9358752341
21
-296.122842750766
31
0.0
  0
LINE
 8
GROUP2
10
479.8358752341
20
-8.67715724923385
30
0.0
11
480.21875
21
-8.51856532850777
31
0.0
  0
LINE
 8
GROUP2
10
389.402467984866
20
-6.0212179848663
30
0.0
11
389.150184671492
21
-6.34999999999995
31
0.0
  0
LINE
 8
GROUP2
10
392.1125
20
-7.14374999999995
30
0.0
11
392.058407249234
21
-6.73287476589972
31
0.0
  0
LINE
 8
GROUP2
10
388.991592750766
20
-298.0671252341
30
0.0
11
389.150184671492
21
-298.45
31
0.0
  0
LINE
 8
GROUP2
10
391.647532015134
20
-8.26628201513361
30
0.0
11
391.899815328508
21
-7.93749999999995
31
0.0
  0
LINE
 8
GROUP2
10
369.422532015134
20
-6.0212179848663
30
0.0
11
369.09375
21
-5.76893467149214
31
0.0
  0
LINE
 8
GROUP2
10
368.3
20
-296.06875
30
0.0
11
367.8891247659
21
-296.122842750766
31
0.0
  0
LINE
 8
GROUP2
10
369.833407249234
20
-297.2453747659
30
0.0
11
369.674815328508
21
-296.8625
31
0.0
  0
LINE
 8
GROUP2
10
367.8891247659
20
-296.122842750766
30
0.0
11
367.50625
21
-296.281434671492
31
0.0
  0
LINE
 8
GROUP2
10
367.8891247659
20
-8.67715724923385
30
0.0
11
368.3
21
-8.73124999999995
31
0.0
  0
LINE
 8
GROUP2
10
369.422532015134
20
-296.533717984866
30
0.0
11
369.09375
21
-296.281434671492
31
0.0
  0
LINE
 8
GROUP2
10
369.09375
20
-5.76893467149214
30
0.0
11
368.7108752341
21
-5.61034275076606
31
0.0
  0
LINE
 8
GROUP2
10
366.7125
20
-297.65625
30
0.0
11
366.766592750766
21
-298.0671252341
31
0.0
  0
LINE
 8
GROUP2
10
367.177467984866
20
-298.778782015134
30
0.0
11
367.50625
21
-299.031065328508
31
0.0
  0
LINE
 8
GROUP2
10
368.3
20
-299.24375
30
0.0
11
368.7108752341
21
-299.189657249234
31
0.0
  0
LINE
 8
GROUP2
10
367.50625
20
-296.281434671492
30
0.0
11
367.177467984866
21
-296.533717984866
31
0.0
  0
LINE
 8
GROUP2
10
367.8891247659
20
-299.189657249234
30
0.0
11
368.3
21
-299.24375
31
0.0
  0
LINE
 8
GROUP2
10
369.833407249234
20
-298.0671252341
30
0.0
11
369.8875
21
-297.65625
31
0.0
  0
LINE
 8
GROUP2
10
369.422532015134
20
-298.778782015134
30
0.0
11
369.674815328508
21
-298.45
31
0.0
  0
LINE
 8
GROUP2
10
366.925184671492
20
-6.34999999999995
30
0.0
11
366.766592750766
21
-6.73287476589972
31
0.0
  0
LINE
 8
GROUP2
10
366.766592750766
20
-6.73287476589972
30
0.0
11
366.7125
21
-7.14374999999995
31
0.0
  0
LINE
 8
GROUP2
10
366.7125
20
-7.14374999999995
30
0.0
11
366.766592750766
21
-7.55462523410019
31
0.0
  0
LINE
 8
GROUP2
10
369.09375
20
-299.031065328508
30
0.0
11
369.422532015134
21
-298.778782015134
31
0.0
  0
LINE
 8
GROUP2
10
369.674815328508
20
-298.45
30
0.0
11
369.833407249234
21
-298.0671252341
31
0.0
  0
LINE
 8
GROUP2
10
369.833407249234
20
-7.55462523410019
30
0.0
11
369.8875
21
-7.14374999999995
31
0.0
  0
LINE
 8
GROUP2
10
367.177467984866
20
-296.533717984866
30
0.0
11
366.925184671492
21
-296.8625
31
0.0
  0
LINE
 8
GROUP2
10
368.7108752341
20
-299.189657249234
30
0.0
11
369.09375
21
-299.031065328508
31
0.0
  0
LINE
 8
GROUP2
10
369.674815328508
20
-6.34999999999995
30
0.0
11
369.422532015134
21
-6.0212179848663
31
0.0
  0
LINE
 8
GROUP2
10
369.833407249234
20
-6.73287476589972
30
0.0
11
369.674815328508
21
-6.34999999999995
31
0.0
  0
LINE
 8
GROUP2
10
368.7108752341
20
-5.61034275076606
30
0.0
11
368.3
21
-5.55624999999995
31
0.0
  0
LINE
 8
GROUP2
10
368.3
20
-5.55624999999995
30
0.0
11
367.8891247659
21
-5.61034275076606
31
0.0
  0
LINE
 8
GROUP2
10
366.766592750766
20
-7.55462523410019
30
0.0
11
366.925184671492
21
-7.93749999999995
31
0.0
  0
LINE
 8
GROUP2
10
366.925184671492
20
-7.93749999999995
30
0.0
11
367.177467984866
21
-8.26628201513361
31
0.0
  0
LINE
 8
GROUP2
10
367.8891247659
20
-5.61034275076606
30
0.0
11
367.50625
21
-5.76893467149214
31
0.0
  0
LINE
 8
GROUP2
10
367.50625
20
-5.76893467149214
30
0.0
11
367.177467984866
21
-6.0212179848663
31
0.0
  0
LINE
 8
GROUP2
10
366.925184671492
20
-296.8625
30
0.0
11
366.766592750766
21
-297.2453747659
31
0.0
  0
LINE
 8
GROUP2
10
368.7108752341
20
-296.122842750766
30
0.0
11
368.3
21
-296.06875
31
0.0
  0
LINE
 8
GROUP2
10
369.674815328508
20
-296.8625
30
0.0
11
369.422532015134
21
-296.533717984866
31
0.0
  0
LINE
 8
GROUP2
10
366.925184671492
20
-298.45
30
0.0
11
367.177467984866
21
-298.778782015134
31
0.0
  0
LINE
 8
GROUP2
10
367.50625
20
-299.031065328508
30
0.0
11
367.8891247659
21
-299.189657249234
31
0.0
  0
LINE
 8
GROUP2
10
366.766592750766
20
-297.2453747659
30
0.0
11
366.7125
21
-297.65625
31
0.0
  0
LINE
 8
GROUP2
10
524.2858752341
20
-8.67715724923385
30
0.0
11
524.66875
21
-8.51856532850777
31
0.0
  0
LINE
 8
GROUP2
10
368.7108752341
20
-8.67715724923385
30
0.0
11
369.09375
21
-8.51856532850777
31
0.0
  0
LINE
 8
GROUP2
10
369.09375
20
-8.51856532850777
30
0.0
11
369.422532015134
21
-8.26628201513361
31
0.0
  0
LINE
 8
GROUP2
10
480.21875
20
-8.51856532850777
30
0.0
11
480.547532015134
21
-8.26628201513361
31
0.0
  0
LINE
 8
GROUP2
10
369.422532015134
20
-8.26628201513361
30
0.0
11
369.674815328508
21
-7.93749999999995
31
0.0
  0
LINE
 8
GROUP2
10
369.674815328508
20
-7.93749999999995
30
0.0
11
369.833407249234
21
-7.55462523410019
31
0.0
  0
LINE
 8
GROUP2
10
369.09375
20
-296.281434671492
30
0.0
11
368.7108752341
21
-296.122842750766
31
0.0
  0
LINE
 8
GROUP2
10
367.177467984866
20
-6.0212179848663
30
0.0
11
366.925184671492
21
-6.34999999999995
31
0.0
  0
LINE
 8
GROUP2
10
369.8875
20
-7.14374999999995
30
0.0
11
369.833407249234
21
-6.73287476589972
31
0.0
  0
LINE
 8
GROUP2
10
366.766592750766
20
-298.0671252341
30
0.0
11
366.925184671492
21
-298.45
31
0.0
  0
LINE
 8
GROUP2
10
458.733407249234
20
-6.73287476589972
30
0.0
11
458.574815328508
21
-6.34999999999995
31
0.0
  0
LINE
 8
GROUP2
10
457.6108752341
20
-5.61034275076606
30
0.0
11
457.2
21
-5.55624999999995
31
0.0
  0
LINE
 8
GROUP2
10
457.2
20
-5.55624999999995
30
0.0
11
456.7891247659
21
-5.61034275076606
31
0.0
  0
LINE
 8
GROUP2
10
455.666592750766
20
-7.55462523410019
30
0.0
11
455.825184671492
21
-7.93749999999995
31
0.0
  0
LINE
 8
GROUP2
10
455.825184671492
20
-7.93749999999995
30
0.0
11
456.077467984866
21
-8.26628201513361
31
0.0
  0
LINE
 8
GROUP2
10
456.7891247659
20
-5.61034275076606
30
0.0
11
456.40625
21
-5.76893467149214
31
0.0
  0
LINE
 8
GROUP2
10
456.40625
20
-5.76893467149214
30
0.0
11
456.077467984866
21
-6.0212179848663
31
0.0
  0
LINE
 8
GROUP2
10
455.825184671492
20
-296.8625
30
0.0
11
455.666592750766
21
-297.2453747659
31
0.0
  0
LINE
 8
GROUP2
10
457.6108752341
20
-296.122842750766
30
0.0
11
457.2
21
-296.06875
31
0.0
  0
LINE
 8
GROUP2
10
458.574815328508
20
-296.8625
30
0.0
11
458.322532015134
21
-296.533717984866
31
0.0
  0
LINE
 8
GROUP2
10
455.825184671492
20
-298.45
30
0.0
11
456.077467984866
21
-298.778782015134
31
0.0
  0
LINE
 8
GROUP2
10
456.40625
20
-299.031065328508
30
0.0
11
456.7891247659
21
-299.189657249234
31
0.0
  0
LINE
 8
GROUP2
10
455.666592750766
20
-297.2453747659
30
0.0
11
455.6125
21
-297.65625
31
0.0
  0
LINE
 8
GROUP2
10
479.425
20
-8.73124999999995
30
0.0
11
479.8358752341
21
-8.67715724923385
31
0.0
  0
LINE
 8
GROUP2
10
481.0125
20
-297.65625
30
0.0
11
480.958407249234
21
-297.2453747659
31
0.0
  0
LINE
 8
GROUP2
10
478.302467984866
20
-8.26628201513361
30
0.0
11
478.63125
21
-8.51856532850777
31
0.0
  0
LINE
 8
GROUP2
10
478.63125
20
-8.51856532850777
30
0.0
11
479.0141247659
21
-8.67715724923385
31
0.0
  0
LINE
 8
GROUP2
10
480.547532015134
20
-6.0212179848663
30
0.0
11
480.21875
21
-5.76893467149214
31
0.0
  0
LINE
 8
GROUP2
10
479.425
20
-296.06875
30
0.0
11
479.0141247659
21
-296.122842750766
31
0.0
  0
LINE
 8
GROUP2
10
480.958407249234
20
-297.2453747659
30
0.0
11
480.799815328508
21
-296.8625
31
0.0
  0
LINE
 8
GROUP2
10
479.0141247659
20
-296.122842750766
30
0.0
11
478.63125
21
-296.281434671492
31
0.0
  0
LINE
 8
GROUP2
10
479.0141247659
20
-8.67715724923385
30
0.0
11
479.425
21
-8.73124999999995
31
0.0
  0
LINE
 8
GROUP2
10
480.547532015134
20
-296.533717984866
30
0.0
11
480.21875
21
-296.281434671492
31
0.0
  0
LINE
 8
GROUP2
10
480.21875
20
-5.76893467149214
30
0.0
11
479.8358752341
21
-5.61034275076606
31
0.0
  0
LINE
 8
GROUP2
10
477.8375
20
-297.65625
30
0.0
11
477.891592750766
21
-298.0671252341
31
0.0
  0
LINE
 8
GROUP2
10
478.302467984866
20
-298.778782015134
30
0.0
11
478.63125
21
-299.031065328508
31
0.0
  0
LINE
 8
GROUP2
10
479.425
20
-299.24375
30
0.0
11
479.8358752341
21
-299.189657249234
31
0.0
  0
LINE
 8
GROUP2
10
478.63125
20
-296.281434671492
30
0.0
11
478.302467984866
21
-296.533717984866
31
0.0
  0
LINE
 8
GROUP2
10
479.0141247659
20
-299.189657249234
30
0.0
11
479.425
21
-299.24375
31
0.0
  0
LINE
 8
GROUP2
10
480.958407249234
20
-298.0671252341
30
0.0
11
481.0125
21
-297.65625
31
0.0
  0
LINE
 8
GROUP2
10
480.547532015134
20
-298.778782015134
30
0.0
11
480.799815328508
21
-298.45
31
0.0
  0
LINE
 8
GROUP2
10
478.050184671492
20
-6.34999999999995
30
0.0
11
477.891592750766
21
-6.73287476589972
31
0.0
  0
LINE
 8
GROUP2
10
477.891592750766
20
-6.73287476589972
30
0.0
11
477.8375
21
-7.14374999999995
31
0.0
  0
LINE
 8
GROUP2
10
477.8375
20
-7.14374999999995
30
0.0
11
477.891592750766
21
-7.55462523410019
31
0.0
  0
LINE
 8
GROUP2
10
480.21875
20
-299.031065328508
30
0.0
11
480.547532015134
21
-298.778782015134
31
0.0
  0
LINE
 8
GROUP2
10
480.799815328508
20
-298.45
30
0.0
11
480.958407249234
21
-298.0671252341
31
0.0
  0
LINE
 8
GROUP2
10
480.958407249234
20
-7.55462523410019
30
0.0
11
481.0125
21
-7.14374999999995
31
0.0
  0
LINE
 8
GROUP2
10
478.302467984866
20
-296.533717984866
30
0.0
11
478.050184671492
21
-296.8625
31
0.0
  0
LINE
 8
GROUP2
10
479.8358752341
20
-299.189657249234
30
0.0
11
480.21875
21
-299.031065328508
31
0.0
  0
LINE
 8
GROUP2
10
480.799815328508
20
-6.34999999999995
30
0.0
11
480.547532015134
21
-6.0212179848663
31
0.0
  0
LINE
 8
GROUP2
10
480.958407249234
20
-6.73287476589972
30
0.0
11
480.799815328508
21
-6.34999999999995
31
0.0
  0
LINE
 8
GROUP2
10
479.8358752341
20
-5.61034275076606
30
0.0
11
479.425
21
-5.55624999999995
31
0.0
  0
LINE
 8
GROUP2
10
479.425
20
-5.55624999999995
30
0.0
11
479.0141247659
21
-5.61034275076606
31
0.0
  0
LINE
 8
GROUP2
10
477.891592750766
20
-7.55462523410019
30
0.0
11
478.050184671492
21
-7.93749999999995
31
0.0
  0
LINE
 8
GROUP2
10
478.050184671492
20
-7.93749999999995
30
0.0
11
478.302467984866
21
-8.26628201513361
31
0.0
  0
LINE
 8
GROUP2
10
479.0141247659
20
-5.61034275076606
30
0.0
11
478.63125
21
-5.76893467149214
31
0.0
  0
LINE
 8
GROUP2
10
478.63125
20
-5.76893467149214
30
0.0
11
478.302467984866
21
-6.0212179848663
31
0.0
  0
LINE
 8
GROUP2
10
478.050184671492
20
-296.8625
30
0.0
11
477.891592750766
21
-297.2453747659
31
0.0
  0
LINE
 8
GROUP2
10
479.8358752341
20
-296.122842750766
30
0.0
11
479.425
21
-296.06875
31
0.0
  0
LINE
 8
GROUP2
10
480.799815328508
20
-296.8625
30
0.0
11
480.547532015134
21
-296.533717984866
31
0.0
  0
LINE
 8
GROUP2
10
478.050184671492
20
-298.45
30
0.0
11
478.302467984866
21
-298.778782015134
31
0.0
  0
LINE
 8
GROUP2
10
478.63125
20
-299.031065328508
30
0.0
11
479.0141247659
21
-299.189657249234
31
0.0
  0
LINE
 8
GROUP2
10
477.891592750766
20
-297.2453747659
30
0.0
11
477.8375
21
-297.65625
31
0.0
  0
LINE
 8
GROUP2
10
456.077467984866
20
-298.778782015134
30
0.0
11
456.40625
21
-299.031065328508
31
0.0
  0
LINE
 8
GROUP2
10
457.2
20
-299.24375
30
0.0
11
457.6108752341
21
-299.189657249234
31
0.0
  0
LINE
 8
GROUP2
10
456.40625
20
-296.281434671492
30
0.0
11
456.077467984866
21
-296.533717984866
31
0.0
  0
LINE
 8
GROUP2
10
456.7891247659
20
-299.189657249234
30
0.0
11
457.2
21
-299.24375
31
0.0
  0
LINE
 8
GROUP2
10
458.733407249234
20
-298.0671252341
30
0.0
11
458.7875
21
-297.65625
31
0.0
  0
LINE
 8
GROUP2
10
458.322532015134
20
-298.778782015134
30
0.0
11
458.574815328508
21
-298.45
31
0.0
  0
LINE
 8
GROUP2
10
455.825184671492
20
-6.34999999999995
30
0.0
11
455.666592750766
21
-6.73287476589972
31
0.0
  0
LINE
 8
GROUP2
10
455.666592750766
20
-6.73287476589972
30
0.0
11
455.6125
21
-7.14374999999995
31
0.0
  0
LINE
 8
GROUP2
10
455.6125
20
-7.14374999999995
30
0.0
11
455.666592750766
21
-7.55462523410019
31
0.0
  0
LINE
 8
GROUP2
10
457.2
20
-8.73124999999995
30
0.0
11
457.6108752341
21
-8.67715724923385
31
0.0
  0
LINE
 8
GROUP2
10
523.875
20
-8.73124999999995
30
0.0
11
524.2858752341
21
-8.67715724923385
31
0.0
  0
LINE
 8
GROUP2
10
525.4625
20
-297.65625
30
0.0
11
525.408407249234
21
-297.2453747659
31
0.0
  0
LINE
 8
GROUP2
10
522.752467984866
20
-8.26628201513361
30
0.0
11
523.08125
21
-8.51856532850777
31
0.0
  0
LINE
 8
GROUP2
10
523.08125
20
-8.51856532850777
30
0.0
11
523.4641247659
21
-8.67715724923385
31
0.0
  0
LINE
 8
GROUP2
10
524.997532015134
20
-6.0212179848663
30
0.0
11
524.66875
21
-5.76893467149214
31
0.0
  0
LINE
 8
GROUP2
10
523.875
20
-296.06875
30
0.0
11
523.4641247659
21
-296.122842750766
31
0.0
  0
LINE
 8
GROUP2
10
525.408407249234
20
-297.2453747659
30
0.0
11
525.249815328508
21
-296.8625
31
0.0
  0
LINE
 8
GROUP2
10
523.4641247659
20
-296.122842750766
30
0.0
11
523.08125
21
-296.281434671492
31
0.0
  0
LINE
 8
GROUP2
10
523.4641247659
20
-8.67715724923385
30
0.0
11
523.875
21
-8.73124999999995
31
0.0
  0
LINE
 8
GROUP2
10
524.997532015134
20
-296.533717984866
30
0.0
11
524.66875
21
-296.281434671492
31
0.0
  0
LINE
 8
GROUP2
10
524.66875
20
-5.76893467149214
30
0.0
11
524.2858752341
21
-5.61034275076606
31
0.0
  0
LINE
 8
GROUP2
10
501.65
20
-8.73124999999995
30
0.0
11
502.0608752341
21
-8.67715724923385
31
0.0
  0
LINE
 8
GROUP2
10
503.2375
20
-297.65625
30
0.0
11
503.183407249234
21
-297.2453747659
31
0.0
  0
LINE
 8
GROUP2
10
500.527467984866
20
-8.26628201513361
30
0.0
11
500.85625
21
-8.51856532850777
31
0.0
  0
LINE
 8
GROUP2
10
500.85625
20
-8.51856532850777
30
0.0
11
501.2391247659
21
-8.67715724923385
31
0.0
  0
LINE
 8
GROUP2
10
458.7875
20
-297.65625
30
0.0
11
458.733407249234
21
-297.2453747659
31
0.0
  0
LINE
 8
GROUP2
10
456.077467984866
20
-8.26628201513361
30
0.0
11
456.40625
21
-8.51856532850777
31
0.0
  0
LINE
 8
GROUP2
10
456.40625
20
-8.51856532850777
30
0.0
11
456.7891247659
21
-8.67715724923385
31
0.0
  0
LINE
 8
GROUP2
10
458.322532015134
20
-6.0212179848663
30
0.0
11
457.99375
21
-5.76893467149214
31
0.0
  0
LINE
 8
GROUP2
10
457.2
20
-296.06875
30
0.0
11
456.7891247659
21
-296.122842750766
31
0.0
  0
LINE
 8
GROUP2
10
458.733407249234
20
-297.2453747659
30
0.0
11
458.574815328508
21
-296.8625
31
0.0
  0
LINE
 8
GROUP2
10
456.7891247659
20
-296.122842750766
30
0.0
11
456.40625
21
-296.281434671492
31
0.0
  0
LINE
 8
GROUP2
10
456.7891247659
20
-8.67715724923385
30
0.0
11
457.2
21
-8.73124999999995
31
0.0
  0
LINE
 8
GROUP2
10
458.322532015134
20
-296.533717984866
30
0.0
11
457.99375
21
-296.281434671492
31
0.0
  0
LINE
 8
GROUP2
10
457.99375
20
-5.76893467149214
30
0.0
11
457.6108752341
21
-5.61034275076606
31
0.0
  0
LINE
 8
GROUP2
10
455.6125
20
-297.65625
30
0.0
11
455.666592750766
21
-298.0671252341
31
0.0
  0
LINE
 8
GROUP2
10
457.6108752341
20
-8.67715724923385
30
0.0
11
457.99375
21
-8.51856532850777
31
0.0
  0
LINE
 8
GROUP2
10
458.7875
20
-7.14374999999995
30
0.0
11
458.733407249234
21
-6.73287476589972
31
0.0
  0
LINE
 8
GROUP2
10
568.7358752341
20
-8.67715724923385
30
0.0
11
569.11875
21
-8.51856532850777
31
0.0
  0
LINE
 8
GROUP2
10
457.99375
20
-8.51856532850777
30
0.0
11
458.322532015134
21
-8.26628201513361
31
0.0
  0
LINE
 8
GROUP2
10
456.077467984866
20
-6.0212179848663
30
0.0
11
455.825184671492
21
-6.34999999999995
31
0.0
  0
LINE
 8
GROUP2
10
455.666592750766
20
-298.0671252341
30
0.0
11
455.825184671492
21
-298.45
31
0.0
  0
LINE
 8
GROUP2
10
458.574815328508
20
-7.93749999999995
30
0.0
11
458.733407249234
21
-7.55462523410019
31
0.0
  0
LINE
 8
GROUP2
10
458.322532015134
20
-8.26628201513361
30
0.0
11
458.574815328508
21
-7.93749999999995
31
0.0
  0
LINE
 8
GROUP2
10
457.99375
20
-296.281434671492
30
0.0
11
457.6108752341
21
-296.122842750766
31
0.0
  0
LINE
 8
GROUP2
10
500.527467984866
20
-6.0212179848663
30
0.0
11
500.275184671492
21
-6.34999999999995
31
0.0
  0
LINE
 8
GROUP2
10
568.325
20
-8.73124999999995
30
0.0
11
568.7358752341
21
-8.67715724923385
31
0.0
  0
LINE
 8
GROUP2
10
569.9125
20
-297.65625
30
0.0
11
569.858407249234
21
-297.2453747659
31
0.0
  0
LINE
 8
GROUP2
10
502.772532015134
20
-6.0212179848663
30
0.0
11
502.44375
21
-5.76893467149214
31
0.0
  0
LINE
 8
GROUP2
10
501.65
20
-296.06875
30
0.0
11
501.2391247659
21
-296.122842750766
31
0.0
  0
LINE
 8
GROUP2
10
503.183407249234
20
-297.2453747659
30
0.0
11
503.024815328508
21
-296.8625
31
0.0
  0
LINE
 8
GROUP2
10
501.2391247659
20
-296.122842750766
30
0.0
11
500.85625
21
-296.281434671492
31
0.0
  0
LINE
 8
GROUP2
10
501.2391247659
20
-8.67715724923385
30
0.0
11
501.65
21
-8.73124999999995
31
0.0
  0
LINE
 8
GROUP2
10
502.772532015134
20
-296.533717984866
30
0.0
11
502.44375
21
-296.281434671492
31
0.0
  0
LINE
 8
GROUP2
10
502.44375
20
-5.76893467149214
30
0.0
11
502.0608752341
21
-5.61034275076606
31
0.0
  0
LINE
 8
GROUP2
10
500.0625
20
-297.65625
30
0.0
11
500.116592750766
21
-298.0671252341
31
0.0
  0
LINE
 8
GROUP2
10
500.527467984866
20
-298.778782015134
30
0.0
11
500.85625
21
-299.031065328508
31
0.0
  0
LINE
 8
GROUP2
10
501.65
20
-299.24375
30
0.0
11
502.0608752341
21
-299.189657249234
31
0.0
  0
LINE
 8
GROUP2
10
500.85625
20
-296.281434671492
30
0.0
11
500.527467984866
21
-296.533717984866
31
0.0
  0
LINE
 8
GROUP2
10
501.2391247659
20
-299.189657249234
30
0.0
11
501.65
21
-299.24375
31
0.0
  0
LINE
 8
GROUP2
10
503.183407249234
20
-298.0671252341
30
0.0
11
503.2375
21
-297.65625
31
0.0
  0
LINE
 8
GROUP2
10
502.772532015134
20
-298.778782015134
30
0.0
11
503.024815328508
21
-298.45
31
0.0
  0
LINE
 8
GROUP2
10
500.275184671492
20
-6.34999999999995
30
0.0
11
500.116592750766
21
-6.73287476589972
31
0.0
  0
LINE
 8
GROUP2
10
500.116592750766
20
-6.73287476589972
30
0.0
11
500.0625
21
-7.14374999999995
31
0.0
  0
LINE
 8
GROUP2
10
500.0625
20
-7.14374999999995
30
0.0
11
500.116592750766
21
-7.55462523410019
31
0.0
  0
LINE
 8
GROUP2
10
502.44375
20
-299.031065328508
30
0.0
11
502.772532015134
21
-298.778782015134
31
0.0
  0
LINE
 8
GROUP2
10
503.024815328508
20
-298.45
30
0.0
11
503.183407249234
21
-298.0671252341
31
0.0
  0
LINE
 8
GROUP2
10
503.183407249234
20
-7.55462523410019
30
0.0
11
503.2375
21
-7.14374999999995
31
0.0
  0
LINE
 8
GROUP2
10
500.527467984866
20
-296.533717984866
30
0.0
11
500.275184671492
21
-296.8625
31
0.0
  0
LINE
 8
GROUP2
10
502.0608752341
20
-299.189657249234
30
0.0
11
502.44375
21
-299.031065328508
31
0.0
  0
LINE
 8
GROUP2
10
503.024815328508
20
-6.34999999999995
30
0.0
11
502.772532015134
21
-6.0212179848663
31
0.0
  0
LINE
 8
GROUP2
10
503.183407249234
20
-6.73287476589972
30
0.0
11
503.024815328508
21
-6.34999999999995
31
0.0
  0
LINE
 8
GROUP2
10
502.0608752341
20
-5.61034275076606
30
0.0
11
501.65
21
-5.55624999999995
31
0.0
  0
LINE
 8
GROUP2
10
501.65
20
-5.55624999999995
30
0.0
11
501.2391247659
21
-5.61034275076606
31
0.0
  0
LINE
 8
GROUP2
10
500.116592750766
20
-7.55462523410019
30
0.0
11
500.275184671492
21
-7.93749999999995
31
0.0
  0
LINE
 8
GROUP2
10
500.275184671492
20
-7.93749999999995
30
0.0
11
500.527467984866
21
-8.26628201513361
31
0.0
  0
LINE
 8
GROUP2
10
501.2391247659
20
-5.61034275076606
30
0.0
11
500.85625
21
-5.76893467149214
31
0.0
  0
LINE
 8
GROUP2
10
500.85625
20
-5.76893467149214
30
0.0
11
500.527467984866
21
-6.0212179848663
31
0.0
  0
LINE
 8
GROUP2
10
500.275184671492
20
-296.8625
30
0.0
11
500.116592750766
21
-297.2453747659
31
0.0
  0
LINE
 8
GROUP2
10
502.0608752341
20
-296.122842750766
30
0.0
11
501.65
21
-296.06875
31
0.0
  0
LINE
 8
GROUP2
10
503.024815328508
20
-296.8625
30
0.0
11
502.772532015134
21
-296.533717984866
31
0.0
  0
LINE
 8
GROUP2
10
500.275184671492
20
-298.45
30
0.0
11
500.527467984866
21
-298.778782015134
31
0.0
  0
LINE
 8
GROUP2
10
500.85625
20
-299.031065328508
30
0.0
11
501.2391247659
21
-299.189657249234
31
0.0
  0
LINE
 8
GROUP2
10
500.116592750766
20
-297.2453747659
30
0.0
11
500.0625
21
-297.65625
31
0.0
  0
LINE
 8
GROUP2
10
503.2375
20
-7.14374999999995
30
0.0
11
503.183407249234
21
-6.73287476589972
31
0.0
  0
LINE
 8
GROUP2
10
502.44375
20
-8.51856532850777
30
0.0
11
502.772532015134
21
-8.26628201513361
31
0.0
  0
LINE
 8
GROUP2
10
500.116592750766
20
-298.0671252341
30
0.0
11
500.275184671492
21
-298.45
31
0.0
  0
LINE
 8
GROUP2
10
502.772532015134
20
-8.26628201513361
30
0.0
11
503.024815328508
21
-7.93749999999995
31
0.0
  0
LINE
 8
GROUP2
10
503.024815328508
20
-7.93749999999995
30
0.0
11
503.183407249234
21
-7.55462523410019
31
0.0
  0
LINE
 8
GROUP2
10
502.44375
20
-296.281434671492
30
0.0
11
502.0608752341
21
-296.122842750766
31
0.0
  0
LINE
 8
GROUP2
10
522.2875
20
-297.65625
30
0.0
11
522.341592750766
21
-298.0671252341
31
0.0
  0
LINE
 8
GROUP2
10
522.752467984866
20
-298.778782015134
30
0.0
11
523.08125
21
-299.031065328508
31
0.0
  0
LINE
 8
GROUP2
10
523.875
20
-299.24375
30
0.0
11
524.2858752341
21
-299.189657249234
31
0.0
  0
LINE
 8
GROUP2
10
523.08125
20
-296.281434671492
30
0.0
11
522.752467984866
21
-296.533717984866
31
0.0
  0
LINE
 8
GROUP2
10
523.4641247659
20
-299.189657249234
30
0.0
11
523.875
21
-299.24375
31
0.0
  0
LINE
 8
GROUP2
10
525.408407249234
20
-298.0671252341
30
0.0
11
525.4625
21
-297.65625
31
0.0
  0
LINE
 8
GROUP2
10
524.997532015134
20
-298.778782015134
30
0.0
11
525.249815328508
21
-298.45
31
0.0
  0
LINE
 8
GROUP2
10
522.500184671492
20
-6.34999999999995
30
0.0
11
522.341592750766
21
-6.73287476589972
31
0.0
  0
LINE
 8
GROUP2
10
522.341592750766
20
-6.73287476589972
30
0.0
11
522.2875
21
-7.14374999999995
31
0.0
  0
LINE
 8
GROUP2
10
522.2875
20
-7.14374999999995
30
0.0
11
522.341592750766
21
-7.55462523410019
31
0.0
  0
LINE
 8
GROUP2
10
524.66875
20
-299.031065328508
30
0.0
11
524.997532015134
21
-298.778782015134
31
0.0
  0
LINE
 8
GROUP2
10
525.249815328508
20
-298.45
30
0.0
11
525.408407249234
21
-298.0671252341
31
0.0
  0
LINE
 8
GROUP2
10
525.408407249234
20
-7.55462523410019
30
0.0
11
525.4625
21
-7.14374999999995
31
0.0
  0
LINE
 8
GROUP2
10
522.752467984866
20
-296.533717984866
30
0.0
11
522.500184671492
21
-296.8625
31
0.0
  0
LINE
 8
GROUP2
10
524.2858752341
20
-299.189657249234
30
0.0
11
524.66875
21
-299.031065328508
31
0.0
  0
LINE
 8
GROUP2
10
525.249815328508
20
-6.34999999999995
30
0.0
11
524.997532015134
21
-6.0212179848663
31
0.0
  0
LINE
 8
GROUP2
10
525.408407249234
20
-6.73287476589972
30
0.0
11
525.249815328508
21
-6.34999999999995
31
0.0
  0
LINE
 8
GROUP2
10
524.2858752341
20
-5.61034275076606
30
0.0
11
523.875
21
-5.55624999999995
31
0.0
  0
LINE
 8
GROUP2
10
523.875
20
-5.55624999999995
30
0.0
11
523.4641247659
21
-5.61034275076606
31
0.0
  0
LINE
 8
GROUP2
10
522.341592750766
20
-7.55462523410019
30
0.0
11
522.500184671492
21
-7.93749999999995
31
0.0
  0
LINE
 8
GROUP2
10
522.500184671492
20
-7.93749999999995
30
0.0
11
522.752467984866
21
-8.26628201513361
31
0.0
  0
LINE
 8
GROUP2
10
523.4641247659
20
-5.61034275076606
30
0.0
11
523.08125
21
-5.76893467149214
31
0.0
  0
LINE
 8
GROUP2
10
523.08125
20
-5.76893467149214
30
0.0
11
522.752467984866
21
-6.0212179848663
31
0.0
  0
LINE
 8
GROUP2
10
522.500184671492
20
-296.8625
30
0.0
11
522.341592750766
21
-297.2453747659
31
0.0
  0
LINE
 8
GROUP2
10
524.2858752341
20
-296.122842750766
30
0.0
11
523.875
21
-296.06875
31
0.0
  0
LINE
 8
GROUP2
10
525.249815328508
20
-296.8625
30
0.0
11
524.997532015134
21
-296.533717984866
31
0.0
  0
LINE
 8
GROUP2
10
522.500184671492
20
-298.45
30
0.0
11
522.752467984866
21
-298.778782015134
31
0.0
  0
LINE
 8
GROUP2
10
523.08125
20
-299.031065328508
30
0.0
11
523.4641247659
21
-299.189657249234
31
0.0
  0
LINE
 8
GROUP2
10
522.341592750766
20
-297.2453747659
30
0.0
11
522.2875
21
-297.65625
31
0.0
  0
LINE
 8
GROUP2
10
524.66875
20
-8.51856532850777
30
0.0
11
524.997532015134
21
-8.26628201513361
31
0.0
  0
LINE
 8
GROUP2
10
522.752467984866
20
-6.0212179848663
30
0.0
11
522.500184671492
21
-6.34999999999995
31
0.0
  0
LINE
 8
GROUP2
10
525.4625
20
-7.14374999999995
30
0.0
11
525.408407249234
21
-6.73287476589972
31
0.0
  0
LINE
 8
GROUP2
10
522.341592750766
20
-298.0671252341
30
0.0
11
522.500184671492
21
-298.45
31
0.0
  0
LINE
 8
GROUP2
10
524.997532015134
20
-8.26628201513361
30
0.0
11
525.249815328508
21
-7.93749999999995
31
0.0
  0
LINE
 8
GROUP2
10
525.249815328508
20
-7.93749999999995
30
0.0
11
525.408407249234
21
-7.55462523410019
31
0.0
  0
LINE
 8
GROUP2
10
524.66875
20
-296.281434671492
30
0.0
11
524.2858752341
21
-296.122842750766
31
0.0
  0
LINE
 8
GROUP2
10
567.202467984866
20
-8.26628201513361
30
0.0
11
567.53125
21
-8.51856532850777
31
0.0
  0
LINE
 8
GROUP2
10
567.53125
20
-8.51856532850777
30
0.0
11
567.9141247659
21
-8.67715724923385
31
0.0
  0
LINE
 8
GROUP2
10
569.447532015134
20
-6.0212179848663
30
0.0
11
569.11875
21
-5.76893467149214
31
0.0
  0
LINE
 8
GROUP2
10
568.325
20
-296.06875
30
0.0
11
567.9141247659
21
-296.122842750766
31
0.0
  0
LINE
 8
GROUP2
10
569.858407249234
20
-297.2453747659
30
0.0
11
569.699815328508
21
-296.8625
31
0.0
  0
LINE
 8
GROUP2
10
567.9141247659
20
-296.122842750766
30
0.0
11
567.53125
21
-296.281434671492
31
0.0
  0
LINE
 8
GROUP2
10
567.9141247659
20
-8.67715724923385
30
0.0
11
568.325
21
-8.73124999999995
31
0.0
  0
LINE
 8
GROUP2
10
569.447532015134
20
-296.533717984866
30
0.0
11
569.11875
21
-296.281434671492
31
0.0
  0
LINE
 8
GROUP2
10
569.11875
20
-5.76893467149214
30
0.0
11
568.7358752341
21
-5.61034275076606
31
0.0
  0
LINE
 8
GROUP2
10
566.7375
20
-297.65625
30
0.0
11
566.791592750766
21
-298.0671252341
31
0.0
  0
LINE
 8
GROUP2
10
567.202467984866
20
-298.778782015134
30
0.0
11
567.53125
21
-299.031065328508
31
0.0
  0
LINE
 8
GROUP2
10
568.325
20
-299.24375
30
0.0
11
568.7358752341
21
-299.189657249234
31
0.0
  0
LINE
 8
GROUP2
10
567.53125
20
-296.281434671492
30
0.0
11
567.202467984866
21
-296.533717984866
31
0.0
  0
LINE
 8
GROUP2
10
567.9141247659
20
-299.189657249234
30
0.0
11
568.325
21
-299.24375
31
0.0
  0
LINE
 8
GROUP2
10
569.858407249234
20
-298.0671252341
30
0.0
11
569.9125
21
-297.65625
31
0.0
  0
LINE
 8
GROUP2
10
569.447532015134
20
-298.778782015134
30
0.0
11
569.699815328508
21
-298.45
31
0.0
  0
LINE
 8
GROUP2
10
566.950184671492
20
-6.34999999999995
30
0.0
11
566.791592750766
21
-6.73287476589972
31
0.0
  0
LINE
 8
GROUP2
10
566.791592750766
20
-6.73287476589972
30
0.0
11
566.7375
21
-7.14374999999995
31
0.0
  0
LINE
 8
GROUP2
10
566.7375
20
-7.14374999999995
30
0.0
11
566.791592750766
21
-7.55462523410019
31
0.0
  0
LINE
 8
GROUP2
10
569.11875
20
-299.031065328508
30
0.0
11
569.447532015134
21
-298.778782015134
31
0.0
  0
LINE
 8
GROUP2
10
569.699815328508
20
-298.45
30
0.0
11
569.858407249234
21
-298.0671252341
31
0.0
  0
LINE
 8
GROUP2
10
569.858407249234
20
-7.55462523410019
30
0.0
11
569.9125
21
-7.14374999999995
31
0.0
  0
LINE
 8
GROUP2
10
567.202467984866
20
-296.533717984866
30
0.0
11
566.950184671492
21
-296.8625
31
0.0
  0
LINE
 8
GROUP2
10
568.7358752341
20
-299.189657249234
30
0.0
11
569.11875
21
-299.031065328508
31
0.0
  0
LINE
 8
GROUP2
10
569.699815328508
20
-6.34999999999995
30
0.0
11
569.447532015134
21
-6.0212179848663
31
0.0
  0
LINE
 8
GROUP2
10
569.858407249234
20
-6.73287476589972
30
0.0
11
569.699815328508
21
-6.34999999999995
31
0.0
  0
LINE
 8
GROUP2
10
568.7358752341
20
-5.61034275076606
30
0.0
11
568.325
21
-5.55624999999995
31
0.0
  0
LINE
 8
GROUP2
10
568.325
20
-5.55624999999995
30
0.0
11
567.9141247659
21
-5.61034275076606
31
0.0
  0
LINE
 8
GROUP2
10
566.791592750766
20
-7.55462523410019
30
0.0
11
566.950184671492
21
-7.93749999999995
31
0.0
  0
LINE
 8
GROUP2
10
566.950184671492
20
-7.93749999999995
30
0.0
11
567.202467984866
21
-8.26628201513361
31
0.0
  0
LINE
 8
GROUP2
10
567.9141247659
20
-5.61034275076606
30
0.0
11
567.53125
21
-5.76893467149214
31
0.0
  0
LINE
 8
GROUP2
10
567.53125
20
-5.76893467149214
30
0.0
11
567.202467984866
21
-6.0212179848663
31
0.0
  0
LINE
 8
GROUP2
10
566.950184671492
20
-296.8625
30
0.0
11
566.791592750766
21
-297.2453747659
31
0.0
  0
LINE
 8
GROUP2
10
568.7358752341
20
-296.122842750766
30
0.0
11
568.325
21
-296.06875
31
0.0
  0
LINE
 8
GROUP2
10
569.699815328508
20
-296.8625
30
0.0
11
569.447532015134
21
-296.533717984866
31
0.0
  0
LINE
 8
GROUP2
10
566.950184671492
20
-298.45
30
0.0
11
567.202467984866
21
-298.778782015134
31
0.0
  0
LINE
 8
GROUP2
10
567.53125
20
-299.031065328508
30
0.0
11
567.9141247659
21
-299.189657249234
31
0.0
  0
LINE
 8
GROUP2
10
566.791592750766
20
-297.2453747659
30
0.0
11
566.7375
21
-297.65625
31
0.0
  0
LINE
 8
GROUP2
10
567.202467984866
20
-6.0212179848663
30
0.0
11
566.950184671492
21
-6.34999999999995
31
0.0
  0
LINE
 8
GROUP2
10
569.11875
20
-8.51856532850777
30
0.0
11
569.447532015134
21
-8.26628201513361
31
0.0
  0
LINE
 8
GROUP2
10
569.9125
20
-7.14374999999995
30
0.0
11
569.858407249234
21
-6.73287476589972
31
0.0
  0
LINE
 8
GROUP2
10
566.791592750766
20
-298.0671252341
30
0.0
11
566.950184671492
21
-298.45
31
0.0
  0
LINE
 8
GROUP2
10
569.447532015134
20
-8.26628201513361
30
0.0
11
569.699815328508
21
-7.93749999999995
31
0.0
  0
LINE
 8
GROUP2
10
569.699815328508
20
-7.93749999999995
30
0.0
11
569.858407249234
21
-7.55462523410019
31
0.0
  0
LINE
 8
GROUP2
10
569.11875
20
-296.281434671492
30
0.0
11
568.7358752341
21
-296.122842750766
31
0.0
  0
LINE
 8
GROUP3
10
1.5875
20
-1.58749999999995
30
0.0
11
601.6625
21
-1.58749999999995
31
0.0
  0
LINE
 8
GROUP3
10
601.6625
20
-303.2125
30
0.0
11
1.5875
21
-303.2125
31
0.0
  0
LINE
 8
GROUP3
10
1.5875
20
-303.2125
30
0.0
11
1.5875
21
-1.58749999999995
31
0.0
  0
LINE
 8
GROUP3
10
601.6625
20
-1.58749999999995
30
0.0
11
601.6625
21
-303.2125
31
0.0
 0
ENDSEC
 0
EOF
